<?xml version="1.0" encoding="UTF-8"?>
<!DOCTYPE svg PUBLIC "-//W3C//DTD SVG 1.1//EN" "http://www.w3.org/Graphics/SVG/1.1/DTD/svg11.dtd">
<svg xmlns="http://www.w3.org/2000/svg" version="1.1" width="225px" height="225px" style="shape-rendering:geometricPrecision; text-rendering:geometricPrecision; image-rendering:optimizeQuality; fill-rule:evenodd; clip-rule:evenodd" xmlns:xlink="http://www.w3.org/1999/xlink">
<g><path style="opacity:1" fill="#fdfdfd" d="M -0.5,-0.5 C 39.1667,-0.5 78.8333,-0.5 118.5,-0.5C 118.5,-0.166667 118.5,0.166667 118.5,0.5C 102.753,-1.06137 88.0861,2.1053 74.5,10C 72.6751,11.4659 72.1751,13.2992 73,15.5C 81.9193,30.3365 90.586,45.3365 99,60.5C 103.623,62.6777 105.623,61.3444 105,56.5C 97.0331,42.7318 89.1998,28.8985 81.5,15C 84.9139,11.9597 88.9139,9.95968 93.5,9C 106.903,6.78075 120.236,7.11408 133.5,10C 136.971,10.925 139.971,12.5916 142.5,15C 134.364,29.4408 126.364,43.9408 118.5,58.5C 118.608,59.4419 118.941,60.2753 119.5,61C 152.343,66.8438 172.51,86.0104 180,118.5C 180.5,151.498 180.667,184.498 180.5,217.5C 134.833,217.5 89.1667,217.5 43.5,217.5C 43.3334,184.498 43.5,151.498 44,118.5C 48.9964,94.5185 62.4964,77.3518 84.5,67C 87.3733,63.7851 86.7066,61.6184 82.5,60.5C 57.6221,71.5644 42.4554,90.5644 37,117.5C 36.3333,152.5 36.3333,187.5 37,222.5C 37.7172,223.044 38.2172,223.711 38.5,224.5C 25.5,224.5 12.5,224.5 -0.5,224.5C -0.5,149.5 -0.5,74.5 -0.5,-0.5 Z"/></g>
<g><path style="opacity:1" fill="#fefefe" d="M 118.5,0.5 C 118.5,0.166667 118.5,-0.166667 118.5,-0.5C 153.833,-0.5 189.167,-0.5 224.5,-0.5C 224.5,74.5 224.5,149.5 224.5,224.5C 211.5,224.5 198.5,224.5 185.5,224.5C 185.783,223.711 186.283,223.044 187,222.5C 187.667,187.5 187.667,152.5 187,117.5C 182.658,94.8435 170.825,77.3435 151.5,65C 143.738,61.4483 136.072,57.9483 128.5,54.5C 136.014,41.4679 143.514,28.4679 151,15.5C 151.667,14.1667 151.667,12.8333 151,11.5C 141.381,4.54574 130.547,0.879076 118.5,0.5 Z"/></g>
<g><path style="opacity:1" fill="#848484" d="M 118.5,0.5 C 130.547,0.879076 141.381,4.54574 151,11.5C 151.667,12.8333 151.667,14.1667 151,15.5C 143.514,28.4679 136.014,41.4679 128.5,54.5C 136.072,57.9483 143.738,61.4483 151.5,65C 170.825,77.3435 182.658,94.8435 187,117.5C 187.667,152.5 187.667,187.5 187,222.5C 186.283,223.044 185.783,223.711 185.5,224.5C 136.5,224.5 87.5,224.5 38.5,224.5C 38.2172,223.711 37.7172,223.044 37,222.5C 36.3333,187.5 36.3333,152.5 37,117.5C 42.4554,90.5644 57.6221,71.5644 82.5,60.5C 86.7066,61.6184 87.3733,63.7851 84.5,67C 62.4964,77.3518 48.9964,94.5185 44,118.5C 43.5,151.498 43.3334,184.498 43.5,217.5C 89.1667,217.5 134.833,217.5 180.5,217.5C 180.667,184.498 180.5,151.498 180,118.5C 172.51,86.0104 152.343,66.8438 119.5,61C 118.941,60.2753 118.608,59.4419 118.5,58.5C 126.364,43.9408 134.364,29.4408 142.5,15C 139.971,12.5916 136.971,10.925 133.5,10C 120.236,7.11408 106.903,6.78075 93.5,9C 88.9139,9.95968 84.9139,11.9597 81.5,15C 89.1998,28.8985 97.0331,42.7318 105,56.5C 105.623,61.3444 103.623,62.6777 99,60.5C 90.586,45.3365 81.9193,30.3365 73,15.5C 72.1751,13.2992 72.6751,11.4659 74.5,10C 88.0861,2.1053 102.753,-1.06137 118.5,0.5 Z"/></g>
<g><path style="opacity:1" fill="#838383" d="M 101.5,21.5 C 102.873,21.3433 104.207,21.51 105.5,22C 108.021,24.2198 110.188,26.7198 112,29.5C 113.812,26.7198 115.979,24.2198 118.5,22C 121.237,20.9202 122.904,21.7536 123.5,24.5C 120.933,29.2951 118.1,33.9618 115,38.5C 113,39.8333 111,39.8333 109,38.5C 105.9,33.9618 103.067,29.2951 100.5,24.5C 100.685,23.4163 101.018,22.4163 101.5,21.5 Z"/></g>
<g><path style="opacity:1" fill="#838383" d="M 162.5,184.5 C 162.667,162.831 162.5,141.164 162,119.5C 161.79,117.942 161.29,116.609 160.5,115.5C 152.178,92.4089 135.678,80.4089 111,79.5C 87.173,80.9928 71.3397,92.9928 63.5,115.5C 62.71,116.609 62.21,117.942 62,119.5C 61.5,146.165 61.3334,172.831 61.5,199.5C 97.1667,199.5 132.833,199.5 168.5,199.5C 169.752,201.339 169.752,203.172 168.5,205C 130.595,205.829 92.7621,205.663 55,204.5C 54.3333,176.167 54.3333,147.833 55,119.5C 64.327,86.4173 86.1604,70.9173 120.5,73C 146.007,78.1725 162.174,93.3392 169,118.5C 169.667,141.167 169.667,163.833 169,186.5C 167.274,187.576 165.441,187.743 163.5,187C 162.748,186.329 162.414,185.496 162.5,184.5 Z"/></g>
<g><path style="opacity:1" fill="#818181" d="M 109.5,99.5 C 111.288,99.2148 112.955,99.5481 114.5,100.5C 115.407,103.421 115.74,106.421 115.5,109.5C 123.555,111.225 128.222,116.225 129.5,124.5C 127.987,129.863 125.487,130.529 122,126.5C 122.486,121.657 120.486,118.324 116,116.5C 115.5,123.158 115.334,129.825 115.5,136.5C 124.049,137.7 129.883,142.367 133,150.5C 135.482,164.88 129.816,174.213 116,178.5C 115.782,181.426 115.282,184.26 114.5,187C 112.559,187.743 110.726,187.576 109,186.5C 108.503,183.854 108.336,181.187 108.5,178.5C 96.4224,175.589 90.5891,167.922 91,155.5C 92.1332,153.789 93.6332,153.289 95.5,154C 97.139,157.259 98.3056,160.759 99,164.5C 101.397,167.4 104.23,169.733 107.5,171.5C 108.499,161.522 108.832,151.522 108.5,141.5C 99.599,139.751 95.2657,134.251 95.5,125C 95.8484,116.647 100.015,111.147 108,108.5C 108.363,105.456 108.863,102.456 109.5,99.5 Z"/></g>
<g><path style="opacity:1" fill="#fafafa" d="M 106.5,116.5 C 107.816,119.087 108.483,122.087 108.5,125.5C 108.167,128.5 107.833,131.5 107.5,134.5C 102.812,130.978 101.312,126.311 103,120.5C 104.376,119.295 105.542,117.962 106.5,116.5 Z"/></g>
<g><path style="opacity:1" fill="#dbdbdb" d="M 63.5,115.5 C 62.543,143.145 62.2097,170.812 62.5,198.5C 98.0039,198.168 133.337,198.502 168.5,199.5C 132.833,199.5 97.1667,199.5 61.5,199.5C 61.3334,172.831 61.5,146.165 62,119.5C 62.21,117.942 62.71,116.609 63.5,115.5 Z"/></g>
<g><path style="opacity:1" fill="#ebebeb" d="M 160.5,115.5 C 161.29,116.609 161.79,117.942 162,119.5C 162.5,141.164 162.667,162.831 162.5,184.5C 161.782,161.651 161.115,138.651 160.5,115.5 Z"/></g>
<g><path style="opacity:1" fill="#fbfbfb" d="M 115.5,143.5 C 125.665,147.171 128.831,154.171 125,164.5C 122.603,167.4 119.77,169.733 116.5,171.5C 115.502,162.19 115.168,152.857 115.5,143.5 Z"/></g>
</svg>
