<svg version="1.1" id="Layer_1" xmlns="http://www.w3.org/2000/svg" xmlns:xlink="http://www.w3.org/1999/xlink" x="0px" y="0px"
	 width="100%" viewBox="0 0 241 209" enable-background="new 0 0 241 209" xml:space="preserve">
<path fill="#FEFFFF" opacity="1.000000" stroke="none" 
	d="
M1.000000,119.000000 
	C1.000000,79.702759 1.000000,40.405518 1.000000,1.054139 
	C81.223495,1.054139 161.447037,1.054139 242.000000,1.054139 
	C242.000000,40.020275 242.000000,79.041481 241.680695,118.382263 
	C239.675262,116.098969 238.366760,113.126015 236.239517,110.955421 
	C225.314331,99.807533 214.245697,88.797142 203.067703,77.902359 
	C200.386993,75.289566 199.134186,72.669487 199.186172,68.819382 
	C199.342926,57.210129 199.048096,45.594784 198.952026,33.742290 
	C198.974686,33.502769 198.809021,33.051003 198.781769,32.705017 
	C197.031891,28.713882 194.313766,26.646235 190.122925,26.876480 
	C184.357391,27.193237 178.591187,27.728085 172.824966,27.732265 
	C167.865143,27.735861 165.251434,29.366657 164.142334,34.188187 
	C163.878525,35.335049 163.770996,36.517860 163.458771,38.547478 
	C153.215607,28.212841 143.645905,18.507921 134.019287,8.859776 
	C125.282280,0.103210 117.786064,0.069724 109.112289,8.720829 
	C75.770287,41.975651 42.410702,75.213013 9.161660,108.560570 
	C6.065512,111.665894 3.703097,115.502785 1.000000,119.000000 
z"/>
<path fill="#FEFEFF" opacity="1.000000" stroke="none" 
	d="
M242.000000,126.000000 
	C242.000000,153.970016 242.000000,181.940048 242.000000,209.955032 
	C161.782684,209.955032 81.565323,209.955032 1.000000,209.955032 
	C1.000000,182.313416 1.000000,154.625366 1.292890,126.652466 
	C3.308472,128.752426 4.611633,131.670258 6.834372,133.419754 
	C12.928692,138.216537 20.301212,136.929016 26.873716,130.376450 
	C56.844471,100.496605 86.810913,70.612373 116.717743,40.668636 
	C118.219032,39.165493 119.149254,37.091991 120.345367,35.284054 
	C121.075897,35.393810 121.806427,35.503571 122.536957,35.613327 
	C123.710350,37.247734 124.682587,39.083374 126.086731,40.486938 
	C156.136185,70.523758 186.270340,100.475929 216.285431,130.546951 
	C221.078674,135.349121 226.591125,138.160263 232.804596,135.089935 
	C236.471588,133.277939 238.973907,129.108994 242.000000,126.000000 
M43.841434,200.752396 
	C44.211967,201.199509 44.582500,201.646606 45.221790,202.716415 
	C49.432178,204.703140 53.566219,208.183090 57.866936,208.402969 
	C72.061333,209.128662 86.319412,208.828735 100.543747,208.508942 
	C102.651321,208.461563 104.708748,206.184082 106.968819,204.498016 
	C106.968819,204.498016 106.916710,204.025375 107.100601,203.100204 
	C107.046478,190.060425 106.992355,177.020660 107.057465,163.506393 
	C107.057465,163.506393 107.091217,163.018341 108.010933,162.897202 
	C116.596779,162.897202 125.182632,162.897202 134.318665,162.897202 
	C134.318665,169.490723 134.241165,175.586029 134.338074,181.678558 
	C134.461792,189.455826 134.726364,197.230865 134.960114,205.601501 
	C135.205795,205.902405 135.451477,206.203308 136.144028,207.082886 
	C137.508545,207.611618 138.870483,208.591843 140.237976,208.599625 
	C154.720169,208.682175 169.216202,208.971756 183.681519,208.453430 
	C193.351639,208.106918 199.239975,201.464279 199.309860,191.835251 
	C199.451233,172.357986 199.313843,152.878830 199.385101,133.400803 
	C199.403244,128.439484 197.709457,124.365356 194.215271,120.888313 
	C171.439728,98.224503 148.706696,75.517937 125.923462,52.861858 
	C121.700432,48.662395 119.683479,48.704620 115.473328,52.898029 
	C92.590553,75.689781 69.762032,98.536148 46.831310,121.279495 
	C42.892502,125.186119 41.206974,129.732803 41.218685,135.154968 
	C41.258240,153.467865 41.217392,171.780945 41.262276,190.093796 
	C41.266281,191.727982 41.668255,193.361191 41.833488,195.686371 
	C42.168171,196.504028 42.502857,197.321671 42.925720,198.011978 
	C42.925720,198.011978 42.800049,198.102539 42.825375,198.711609 
	C43.140381,199.201981 43.455391,199.692352 43.937267,199.991745 
	C43.937267,199.991745 43.747578,200.160202 43.841434,200.752396 
z"/>
<path fill="#478FCC" opacity="1.000000" stroke="none" 
	d="
M242.000000,125.562500 
	C238.973907,129.108994 236.471588,133.277939 232.804596,135.089935 
	C226.591125,138.160263 221.078674,135.349121 216.285431,130.546951 
	C186.270340,100.475929 156.136185,70.523758 126.086731,40.486938 
	C124.682587,39.083374 123.710350,37.247734 122.536957,35.613327 
	C121.806427,35.503571 121.075897,35.393810 120.345367,35.284054 
	C119.149254,37.091991 118.219032,39.165493 116.717743,40.668636 
	C86.810913,70.612373 56.844471,100.496605 26.873716,130.376450 
	C20.301212,136.929016 12.928692,138.216537 6.834372,133.419754 
	C4.611633,131.670258 3.308472,128.752426 1.292890,126.183807 
	C1.000000,123.958336 1.000000,121.916664 1.000000,119.437500 
	C3.703097,115.502785 6.065512,111.665894 9.161660,108.560570 
	C42.410702,75.213013 75.770287,41.975651 109.112289,8.720829 
	C117.786064,0.069724 125.282280,0.103210 134.019287,8.859776 
	C143.645905,18.507921 153.215607,28.212841 163.458771,38.547478 
	C163.770996,36.517860 163.878525,35.335049 164.142334,34.188187 
	C165.251434,29.366657 167.865143,27.735861 172.824966,27.732265 
	C178.591187,27.728085 184.357391,27.193237 190.122925,26.876480 
	C194.313766,26.646235 197.031891,28.713882 198.644287,32.804565 
	C198.665833,33.494007 198.797592,33.737911 198.929352,33.981812 
	C199.048096,45.594784 199.342926,57.210129 199.186172,68.819382 
	C199.134186,72.669487 200.386993,75.289566 203.067703,77.902359 
	C214.245697,88.797142 225.314331,99.807533 236.239517,110.955421 
	C238.366760,113.126015 239.675262,116.098969 241.680695,118.850922 
	C242.000000,121.041664 242.000000,123.083336 242.000000,125.562500 
M171.150757,60.806404 
	C156.429367,46.079906 141.708267,31.353117 126.986450,16.627062 
	C121.866478,11.505615 121.129776,11.475765 116.163261,16.425375 
	C82.296646,50.176739 48.437378,83.935463 14.578837,117.694923 
	C13.754092,118.517250 12.536844,119.256958 12.263064,120.245743 
	C11.881222,121.624817 11.640425,123.761673 12.400368,124.545570 
	C13.239715,125.411377 15.417308,125.585945 16.753923,125.190079 
	C18.044968,124.807701 19.050560,123.358864 20.107784,122.304535 
	C52.429592,90.071274 84.754257,57.840832 117.015610,25.547136 
	C118.403137,24.158215 119.193359,22.172594 120.261833,20.464937 
	C121.048370,20.549402 121.834900,20.633867 122.621429,20.718332 
	C123.762856,22.376265 124.679314,24.259068 126.078712,25.659143 
	C158.466232,58.062233 190.902100,90.417000 223.347183,122.762505 
	C225.189667,124.599327 227.224609,127.380386 230.014404,124.762581 
	C233.032501,121.930557 230.324600,119.739098 228.308472,117.729713 
	C219.104782,108.556938 209.858353,99.426636 200.708038,90.200966 
	C196.758789,86.219177 193.005051,82.043472 189.452850,77.781517 
	C189.346222,77.532669 189.239594,77.283829 188.984756,76.103546 
	C188.984756,63.200947 188.984756,50.298347 188.984756,37.337883 
	C183.829422,37.337883 179.287231,37.337883 174.107788,37.337883 
	C174.107788,45.442566 174.107788,53.215591 173.318436,61.000698 
	C172.792938,61.028542 172.267456,61.056385 171.150757,60.806404 
z"/>
<path fill="#3486C8" opacity="1.000000" stroke="none" 
	d="
M198.952011,33.742294 
	C198.797592,33.737911 198.665833,33.494007 198.671539,33.150551 
	C198.809021,33.051003 198.974686,33.502769 198.952011,33.742294 
z"/>
<path fill="#4890CC" opacity="1.000000" stroke="none" 
	d="
M134.930206,205.006866 
	C134.726364,197.230865 134.461792,189.455826 134.338074,181.678558 
	C134.241165,175.586029 134.318665,169.490723 134.318665,162.897202 
	C125.182632,162.897202 116.596779,162.897202 107.374763,163.029633 
	C106.652321,163.252823 106.477730,163.400467 106.493744,163.425323 
	C106.621513,163.623657 106.785408,163.798706 106.938232,163.980881 
	C106.992355,177.020660 107.046478,190.060425 106.854965,203.632019 
	C106.540779,204.251480 106.395554,204.379929 106.416763,204.419830 
	C106.515823,204.606033 106.660812,204.767838 106.789375,204.938354 
	C104.708748,206.184082 102.651321,208.461563 100.543747,208.508942 
	C86.319412,208.828735 72.061333,209.128662 57.866936,208.402969 
	C53.566219,208.183090 49.432178,204.703140 45.077164,202.088379 
	C44.537552,201.026962 44.142567,200.593582 43.747581,200.160202 
	C43.747578,200.160202 43.937267,199.991745 43.897224,199.765808 
	C43.504803,199.060776 43.152424,198.581650 42.800049,198.102539 
	C42.800049,198.102539 42.925720,198.011978 42.929626,197.721283 
	C42.584160,196.618668 42.234783,195.806763 41.885406,194.994843 
	C41.668255,193.361191 41.266281,191.727982 41.262276,190.093796 
	C41.217392,171.780945 41.258240,153.467865 41.218685,135.154968 
	C41.206974,129.732803 42.892502,125.186119 46.831310,121.279495 
	C69.762032,98.536148 92.590553,75.689781 115.473328,52.898029 
	C119.683479,48.704620 121.700432,48.662395 125.923462,52.861858 
	C148.706696,75.517937 171.439728,98.224503 194.215271,120.888313 
	C197.709457,124.365356 199.403244,128.439484 199.385101,133.400803 
	C199.313843,152.878830 199.451233,172.357986 199.309860,191.835251 
	C199.239975,201.464279 193.351639,208.106918 183.681519,208.453430 
	C169.216202,208.971756 154.720169,208.682175 140.237976,208.599625 
	C138.870483,208.591843 137.508545,207.611618 135.914597,206.492798 
	C135.433517,205.604080 135.181854,205.305481 134.930206,205.006866 
M189.408035,131.780045 
	C189.263535,131.521881 189.119034,131.263702 188.470459,130.579239 
	C187.513428,129.437622 186.637238,128.215088 185.587418,127.166344 
	C164.629105,106.229607 143.652237,85.311432 122.668442,64.400230 
	C122.102036,63.835789 121.416725,63.390652 120.857887,62.946346 
	C120.352676,63.224079 120.011726,63.325092 119.789795,63.545784 
	C97.957626,85.256340 76.098717,106.940399 54.391026,128.774796 
	C52.940350,130.233948 51.935398,132.829803 51.914738,134.908798 
	C51.727875,153.713913 51.815018,172.521667 51.801960,191.328659 
	C51.798855,195.805420 53.927738,198.189056 58.456814,198.173828 
	C71.268547,198.130722 84.080147,198.045197 97.249016,197.835190 
	C97.336555,197.744141 97.512894,197.594208 97.497696,197.571304 
	C97.365898,197.372589 97.199699,197.196701 96.871490,196.088211 
	C96.936592,183.052231 97.001694,170.016266 97.381332,156.831879 
	C97.449348,156.739395 97.595024,156.600266 97.572227,156.562332 
	C97.460243,156.375900 97.303520,156.216339 97.231979,155.328644 
	C99.491936,154.269760 101.727638,152.361343 104.015961,152.295990 
	C115.165787,151.977631 126.329948,152.106247 137.488495,152.171051 
	C143.147598,152.203903 144.844833,153.961685 144.872498,159.738571 
	C144.925125,170.730682 144.887939,181.723236 144.888046,192.715607 
	C144.888062,194.461182 144.888046,196.206741 144.888046,198.190308 
	C157.210297,198.190308 168.694916,198.206207 180.179474,198.184570 
	C187.482559,198.170807 188.923920,196.705353 188.943283,189.424377 
	C188.994232,170.273834 189.043976,151.123276 189.408035,131.780045 
z"/>
<path fill="#629ED2" opacity="1.000000" stroke="none" 
	d="
M41.859447,195.340607 
	C42.234783,195.806763 42.584160,196.618668 42.885536,197.784958 
	C42.502857,197.321671 42.168171,196.504028 41.859447,195.340607 
z"/>
<path fill="#629ED2" opacity="1.000000" stroke="none" 
	d="
M42.812710,198.407074 
	C43.152424,198.581650 43.504803,199.060776 43.813789,199.861298 
	C43.455391,199.692352 43.140381,199.201981 42.812710,198.407074 
z"/>
<path fill="#629ED2" opacity="1.000000" stroke="none" 
	d="
M43.794510,200.456299 
	C44.142567,200.593582 44.537552,201.026962 44.942787,201.777039 
	C44.582500,201.646606 44.211967,201.199509 43.794510,200.456299 
z"/>
<path fill="#2C84C7" opacity="1.000000" stroke="none" 
	d="
M106.997849,163.743637 
	C106.785408,163.798706 106.621513,163.623657 106.493744,163.425323 
	C106.477730,163.400467 106.652321,163.252823 106.914902,163.090210 
	C107.091217,163.018341 107.057465,163.506393 106.997849,163.743637 
z"/>
<path fill="#2C84C7" opacity="1.000000" stroke="none" 
	d="
M106.879097,204.718185 
	C106.660812,204.767838 106.515823,204.606033 106.416763,204.419830 
	C106.395554,204.379929 106.540779,204.251480 106.763023,204.094604 
	C106.916710,204.025375 106.968819,204.498016 106.879097,204.718185 
z"/>
<path fill="#6AA3D5" opacity="1.000000" stroke="none" 
	d="
M134.945160,205.304184 
	C135.181854,205.305481 135.433517,205.604080 135.691162,206.203461 
	C135.451477,206.203308 135.205795,205.902405 134.945160,205.304184 
z"/>
<path fill="#FCFDFE" opacity="1.000000" stroke="none" 
	d="
M189.162506,77.955856 
	C193.005051,82.043472 196.758789,86.219177 200.708038,90.200966 
	C209.858353,99.426636 219.104782,108.556938 228.308472,117.729713 
	C230.324600,119.739098 233.032501,121.930557 230.014404,124.762581 
	C227.224609,127.380386 225.189667,124.599327 223.347183,122.762505 
	C190.902100,90.417000 158.466232,58.062233 126.078712,25.659143 
	C124.679314,24.259068 123.762856,22.376265 122.621429,20.718332 
	C121.834900,20.633867 121.048370,20.549402 120.261833,20.464937 
	C119.193359,22.172594 118.403137,24.158215 117.015610,25.547136 
	C84.754257,57.840832 52.429592,90.071274 20.107784,122.304535 
	C19.050560,123.358864 18.044968,124.807701 16.753923,125.190079 
	C15.417308,125.585945 13.239715,125.411377 12.400368,124.545570 
	C11.640425,123.761673 11.881222,121.624817 12.263064,120.245743 
	C12.536844,119.256958 13.754092,118.517250 14.578837,117.694923 
	C48.437378,83.935463 82.296646,50.176739 116.163261,16.425375 
	C121.129776,11.475765 121.866478,11.505615 126.986450,16.627062 
	C141.708267,31.353117 156.429367,46.079906 171.609711,61.241039 
	C172.659561,62.003670 173.250443,62.331665 173.841324,62.659664 
	C173.930145,62.102650 174.018967,61.545631 174.107788,60.988617 
	C174.107788,53.215591 174.107788,45.442566 174.107788,37.337883 
	C179.287231,37.337883 183.829422,37.337883 188.984756,37.337883 
	C188.984756,50.298347 188.984756,63.200947 189.019501,76.800987 
	C189.054245,77.498428 189.162506,77.955849 189.162506,77.955856 
z"/>
<path fill="#3988C9" opacity="1.000000" stroke="none" 
	d="
M173.713104,60.994659 
	C174.018967,61.545631 173.930145,62.102650 173.841324,62.659664 
	C173.250443,62.331665 172.659561,62.003670 171.905319,61.379951 
	C172.267456,61.056385 172.792938,61.028542 173.713104,60.994659 
z"/>
<path fill="#2C84C7" opacity="1.000000" stroke="none" 
	d="
M189.307678,77.868683 
	C189.162506,77.955849 189.054245,77.498428 189.093597,77.266708 
	C189.239594,77.283829 189.346222,77.532669 189.307678,77.868683 
z"/>
<path fill="#FEFFFF" opacity="1.000000" stroke="none" 
	d="
M96.891800,197.976410 
	C84.080147,198.045197 71.268547,198.130722 58.456814,198.173828 
	C53.927738,198.189056 51.798855,195.805420 51.801960,191.328659 
	C51.815018,172.521667 51.727875,153.713913 51.914738,134.908798 
	C51.935398,132.829803 52.940350,130.233948 54.391026,128.774796 
	C76.098717,106.940399 97.957626,85.256340 119.789795,63.545784 
	C120.011726,63.325092 120.352676,63.224079 120.857887,62.946346 
	C121.416725,63.390652 122.102036,63.835789 122.668442,64.400230 
	C143.652237,85.311432 164.629105,106.229607 185.587418,127.166344 
	C186.637238,128.215088 187.513428,129.437622 188.714600,131.038864 
	C188.958740,131.498489 189.094208,131.972733 189.094208,131.972733 
	C189.043976,151.123276 188.994232,170.273834 188.943283,189.424377 
	C188.923920,196.705353 187.482559,198.170807 180.179474,198.184570 
	C168.694916,198.206207 157.210297,198.190308 144.888046,198.190308 
	C144.888046,196.206741 144.888062,194.461182 144.888046,192.715607 
	C144.887939,181.723236 144.925125,170.730682 144.872498,159.738571 
	C144.844833,153.961685 143.147598,152.203903 137.488495,152.171051 
	C126.329948,152.106247 115.165787,151.977631 104.015961,152.295990 
	C101.727638,152.361343 99.491936,154.269760 97.120743,155.915817 
	C97.009499,156.502991 97.066788,156.980286 97.066788,156.980286 
	C97.001694,170.016266 96.936592,183.052231 96.896820,196.788101 
	C96.922157,197.487991 96.891800,197.976395 96.891800,197.976410 
z"/>
<path fill="#2C84C7" opacity="1.000000" stroke="none" 
	d="
M189.251129,131.876389 
	C189.094208,131.972733 188.958740,131.498489 188.966644,131.252014 
	C189.119034,131.263702 189.263535,131.521881 189.251129,131.876389 
z"/>
<path fill="#2C84C7" opacity="1.000000" stroke="none" 
	d="
M97.224060,156.906082 
	C97.066788,156.980286 97.009499,156.502991 97.086044,156.275146 
	C97.303520,156.216339 97.460243,156.375900 97.572227,156.562332 
	C97.595024,156.600266 97.449348,156.739395 97.224060,156.906082 
z"/>
<path fill="#2C84C7" opacity="1.000000" stroke="none" 
	d="
M97.070404,197.905792 
	C96.891800,197.976395 96.922157,197.487991 96.982941,197.251007 
	C97.199699,197.196701 97.365898,197.372589 97.497696,197.571304 
	C97.512894,197.594208 97.336555,197.744141 97.070404,197.905792 
z"/>
</svg>