<svg width="36" height="36" viewBox="0 0 36 36" fill="none" xmlns="http://www.w3.org/2000/svg">
<mask id="path-1-outside-1_59_807" maskUnits="userSpaceOnUse" x="2" y="2" width="31" height="32" fill="black">
<rect fill="white" x="2" y="2" width="31" height="32"/>
<path fill-rule="evenodd" clip-rule="evenodd" d="M28.8786 20.0911L31.3821 21.6558L31.3821 21.6558C31.6771 21.8405 31.887 22.1343 31.9658 22.4734C32.0446 22.8123 31.9859 23.1687 31.8026 23.4646L31.8024 23.4644L28.6672 28.4819C28.483 28.777 28.1894 28.9872 27.8505 29.066C27.5117 29.145 27.1554 29.0866 26.8596 28.9033L25.5133 28.0609C25.0172 27.751 24.4264 27.6289 23.8478 27.717C23.2694 27.805 22.7415 28.0975 22.3601 28.5411C21.9787 28.9849 21.769 29.5505 21.7688 30.1358V31.7176C21.7685 32.0659 21.6301 32.3999 21.3837 32.6463C21.1375 32.8927 20.8035 33.0312 20.4551 33.0317H14.544C14.1958 33.0312 13.8621 32.8927 13.6156 32.6466C13.3695 32.4003 13.231 32.0668 13.2303 31.7185V30.1367C13.2303 29.5514 13.0206 28.9855 12.6392 28.5417C12.258 28.0976 11.7301 27.805 11.1515 27.7169C10.5729 27.6286 9.9821 27.7507 9.48581 28.0609L8.1405 28.8977C7.84391 29.0812 7.4868 29.1399 7.147 29.0606C6.80743 28.9816 6.51294 28.771 6.32824 28.4751L3.20026 23.4655C3.01649 23.1689 2.95778 22.8118 3.03707 22.472C3.11612 22.1325 3.32693 21.838 3.62281 21.6533L6.12163 20.09C6.83708 19.6427 7.27166 18.8586 7.27166 18.0149C7.27166 17.171 6.83707 16.3869 6.12163 15.9396V15.9394L3.6182 14.3747C3.32324 14.1905 3.11335 13.8967 3.0343 13.558C2.95547 13.2192 3.01373 12.8629 3.19657 12.5671L3.1968 12.5673L6.33194 7.54982C6.51639 7.25509 6.80998 7.0452 7.14863 6.96615C7.48747 6.88733 7.84371 6.94558 8.13959 7.12842L9.48584 7.97073C9.98191 8.28071 10.5728 8.40276 11.1513 8.31469C11.7297 8.22664 12.2577 7.9342 12.6391 7.49061C13.0205 7.04679 13.2302 6.48116 13.2304 5.89587V4.3141C13.2306 3.96577 13.3691 3.63175 13.6155 3.38534C13.8617 3.13893 14.1957 3.00046 14.544 3H20.4552C20.8035 3.00046 21.1375 3.13892 21.3837 3.38534C21.6301 3.63174 21.7686 3.96575 21.7688 4.3141V5.89499C21.7688 6.4803 21.9785 7.04614 22.3599 7.48996C22.7411 7.93403 23.269 8.22668 23.8476 8.31475C24.4262 8.40305 25.017 8.281 25.5133 7.97079L26.8586 7.13398C27.1549 6.95021 27.5123 6.89127 27.8521 6.97056C28.1919 7.04984 28.4864 7.26042 28.6709 7.55653L31.7988 12.5661C31.9826 12.8627 32.0413 13.2198 31.962 13.5596C31.883 13.8992 31.6722 14.1937 31.3763 14.3784L28.8784 15.9405C28.163 16.3878 27.7284 17.1721 27.7284 18.0158C27.7284 18.8595 28.163 19.6438 28.8784 20.0911H28.8786ZM26.3383 26.7421L27.4774 27.455L30.3552 22.8441L28.0531 21.4056C26.8844 20.6743 26.1748 19.3927 26.1748 18.0141C26.1748 16.6356 26.8844 15.354 28.0531 14.6226V14.6229L30.3552 13.1844L27.4752 8.57604L26.3361 9.28893C25.5247 9.79585 24.5587 9.99511 23.613 9.85087C22.6674 9.70689 21.8047 9.22863 21.1813 8.50302C20.5581 7.7774 20.2153 6.85254 20.2153 5.89579V4.5532H14.7836V5.89579C14.7841 6.85302 14.4413 7.77829 13.8178 8.50438C13.1942 9.23041 12.331 9.70893 11.3847 9.85294C10.4386 9.99695 9.47213 9.797 8.66077 9.28938L7.52164 8.57649L4.64166 13.1848L6.94586 14.6259C8.11458 15.3572 8.82422 16.6388 8.82422 18.0174C8.82422 19.3959 8.11458 20.6775 6.94586 21.4088V21.4086L4.64379 22.8471L7.52377 27.4554L8.6629 26.7426C9.47426 26.2356 10.4403 26.0364 11.3859 26.1806C12.3316 26.3246 13.1943 26.8029 13.8177 27.5285C14.4409 28.2541 14.7837 29.1789 14.7837 30.1357V31.4783H20.2175V30.135C20.2175 29.1785 20.5603 28.2537 21.1835 27.528C21.8069 26.8025 22.6696 26.3242 23.6152 26.18C24.5609 26.0359 25.5269 26.2352 26.3383 26.7421ZM13.3409 13.8575C14.4437 12.7547 15.9396 12.135 17.4994 12.135L17.4994 12.1349C19.0585 12.1368 20.5534 12.757 21.656 13.8594C22.7584 14.962 23.3786 16.4568 23.3804 18.016C23.3804 19.5758 22.7607 21.0716 21.6579 22.1745C20.5551 23.2773 19.0592 23.897 17.4994 23.897C15.9396 23.897 14.4438 23.2773 13.3409 22.1745C12.2381 21.0717 11.6184 19.5758 11.6184 18.016C11.6184 16.4562 12.2381 14.9604 13.3409 13.8575ZM14.4394 21.0763C15.251 21.8879 16.3517 22.344 17.4994 22.344L17.4995 22.3439C18.6469 22.3428 19.747 21.8863 20.5583 21.0752C21.3694 20.2638 21.826 19.1638 21.8271 18.0163C21.8271 16.8686 21.3711 15.7678 20.5595 14.9562C19.7479 14.1446 18.6471 13.6886 17.4994 13.6886C16.3517 13.6886 15.251 14.1446 14.4394 14.9562C13.6278 15.7678 13.1717 16.8686 13.1717 18.0163C13.1717 19.164 13.6278 20.2647 14.4394 21.0763Z"/>
</mask>
<path fill-rule="evenodd" clip-rule="evenodd" d="M28.8786 20.0911L31.3821 21.6558L31.3821 21.6558C31.6771 21.8405 31.887 22.1343 31.9658 22.4734C32.0446 22.8123 31.9859 23.1687 31.8026 23.4646L31.8024 23.4644L28.6672 28.4819C28.483 28.777 28.1894 28.9872 27.8505 29.066C27.5117 29.145 27.1554 29.0866 26.8596 28.9033L25.5133 28.0609C25.0172 27.751 24.4264 27.6289 23.8478 27.717C23.2694 27.805 22.7415 28.0975 22.3601 28.5411C21.9787 28.9849 21.769 29.5505 21.7688 30.1358V31.7176C21.7685 32.0659 21.6301 32.3999 21.3837 32.6463C21.1375 32.8927 20.8035 33.0312 20.4551 33.0317H14.544C14.1958 33.0312 13.8621 32.8927 13.6156 32.6466C13.3695 32.4003 13.231 32.0668 13.2303 31.7185V30.1367C13.2303 29.5514 13.0206 28.9855 12.6392 28.5417C12.258 28.0976 11.7301 27.805 11.1515 27.7169C10.5729 27.6286 9.9821 27.7507 9.48581 28.0609L8.1405 28.8977C7.84391 29.0812 7.4868 29.1399 7.147 29.0606C6.80743 28.9816 6.51294 28.771 6.32824 28.4751L3.20026 23.4655C3.01649 23.1689 2.95778 22.8118 3.03707 22.472C3.11612 22.1325 3.32693 21.838 3.62281 21.6533L6.12163 20.09C6.83708 19.6427 7.27166 18.8586 7.27166 18.0149C7.27166 17.171 6.83707 16.3869 6.12163 15.9396V15.9394L3.6182 14.3747C3.32324 14.1905 3.11335 13.8967 3.0343 13.558C2.95547 13.2192 3.01373 12.8629 3.19657 12.5671L3.1968 12.5673L6.33194 7.54982C6.51639 7.25509 6.80998 7.0452 7.14863 6.96615C7.48747 6.88733 7.84371 6.94558 8.13959 7.12842L9.48584 7.97073C9.98191 8.28071 10.5728 8.40276 11.1513 8.31469C11.7297 8.22664 12.2577 7.9342 12.6391 7.49061C13.0205 7.04679 13.2302 6.48116 13.2304 5.89587V4.3141C13.2306 3.96577 13.3691 3.63175 13.6155 3.38534C13.8617 3.13893 14.1957 3.00046 14.544 3H20.4552C20.8035 3.00046 21.1375 3.13892 21.3837 3.38534C21.6301 3.63174 21.7686 3.96575 21.7688 4.3141V5.89499C21.7688 6.4803 21.9785 7.04614 22.3599 7.48996C22.7411 7.93403 23.269 8.22668 23.8476 8.31475C24.4262 8.40305 25.017 8.281 25.5133 7.97079L26.8586 7.13398C27.1549 6.95021 27.5123 6.89127 27.8521 6.97056C28.1919 7.04984 28.4864 7.26042 28.6709 7.55653L31.7988 12.5661C31.9826 12.8627 32.0413 13.2198 31.962 13.5596C31.883 13.8992 31.6722 14.1937 31.3763 14.3784L28.8784 15.9405C28.163 16.3878 27.7284 17.1721 27.7284 18.0158C27.7284 18.8595 28.163 19.6438 28.8784 20.0911H28.8786ZM26.3383 26.7421L27.4774 27.455L30.3552 22.8441L28.0531 21.4056C26.8844 20.6743 26.1748 19.3927 26.1748 18.0141C26.1748 16.6356 26.8844 15.354 28.0531 14.6226V14.6229L30.3552 13.1844L27.4752 8.57604L26.3361 9.28893C25.5247 9.79585 24.5587 9.99511 23.613 9.85087C22.6674 9.70689 21.8047 9.22863 21.1813 8.50302C20.5581 7.7774 20.2153 6.85254 20.2153 5.89579V4.5532H14.7836V5.89579C14.7841 6.85302 14.4413 7.77829 13.8178 8.50438C13.1942 9.23041 12.331 9.70893 11.3847 9.85294C10.4386 9.99695 9.47213 9.797 8.66077 9.28938L7.52164 8.57649L4.64166 13.1848L6.94586 14.6259C8.11458 15.3572 8.82422 16.6388 8.82422 18.0174C8.82422 19.3959 8.11458 20.6775 6.94586 21.4088V21.4086L4.64379 22.8471L7.52377 27.4554L8.6629 26.7426C9.47426 26.2356 10.4403 26.0364 11.3859 26.1806C12.3316 26.3246 13.1943 26.8029 13.8177 27.5285C14.4409 28.2541 14.7837 29.1789 14.7837 30.1357V31.4783H20.2175V30.135C20.2175 29.1785 20.5603 28.2537 21.1835 27.528C21.8069 26.8025 22.6696 26.3242 23.6152 26.18C24.5609 26.0359 25.5269 26.2352 26.3383 26.7421ZM13.3409 13.8575C14.4437 12.7547 15.9396 12.135 17.4994 12.135L17.4994 12.1349C19.0585 12.1368 20.5534 12.757 21.656 13.8594C22.7584 14.962 23.3786 16.4568 23.3804 18.016C23.3804 19.5758 22.7607 21.0716 21.6579 22.1745C20.5551 23.2773 19.0592 23.897 17.4994 23.897C15.9396 23.897 14.4438 23.2773 13.3409 22.1745C12.2381 21.0717 11.6184 19.5758 11.6184 18.016C11.6184 16.4562 12.2381 14.9604 13.3409 13.8575ZM14.4394 21.0763C15.251 21.8879 16.3517 22.344 17.4994 22.344L17.4995 22.3439C18.6469 22.3428 19.747 21.8863 20.5583 21.0752C21.3694 20.2638 21.826 19.1638 21.8271 18.0163C21.8271 16.8686 21.3711 15.7678 20.5595 14.9562C19.7479 14.1446 18.6471 13.6886 17.4994 13.6886C16.3517 13.6886 15.251 14.1446 14.4394 14.9562C13.6278 15.7678 13.1717 16.8686 13.1717 18.0163C13.1717 19.164 13.6278 20.2647 14.4394 21.0763Z" fill="#7889B3"/>
<path d="M31.3821 21.6558L31.6487 21.5182L31.6109 21.445L31.5411 21.4014L31.3821 21.6558ZM28.8786 20.0911L29.0376 19.8367L28.9647 19.7911H28.8786V20.0911ZM31.3821 21.6558L31.1155 21.7934L31.1532 21.8665L31.2229 21.9101L31.3821 21.6558ZM31.9658 22.4734L31.6736 22.5413L31.6736 22.5414L31.9658 22.4734ZM31.8026 23.4646L31.5896 23.6759L31.8573 23.9459L32.0576 23.6226L31.8026 23.4646ZM31.8024 23.4644L32.0154 23.2531L31.7486 22.9842L31.5479 23.3054L31.8024 23.4644ZM28.6672 28.4819L28.4128 28.3229L28.4127 28.323L28.6672 28.4819ZM27.8505 29.066L27.7826 28.7738L27.7824 28.7738L27.8505 29.066ZM26.8596 28.9033L26.7004 29.1576L26.7016 29.1583L26.8596 28.9033ZM25.5133 28.0609L25.6724 27.8066L25.6723 27.8065L25.5133 28.0609ZM23.8478 27.717L23.8027 27.4204L23.8027 27.4204L23.8478 27.717ZM22.3601 28.5411L22.1326 28.3455L22.1325 28.3455L22.3601 28.5411ZM21.7688 30.1358L21.4688 30.1357V30.1358H21.7688ZM21.7688 31.7176L22.0688 31.7178V31.7176H21.7688ZM21.3837 32.6463L21.1715 32.4342L21.1714 32.4343L21.3837 32.6463ZM20.4551 33.0317L20.4551 33.3317L20.4555 33.3317L20.4551 33.0317ZM14.544 33.0317L14.5436 33.3317H14.544V33.0317ZM13.6156 32.6466L13.4035 32.8587L13.4036 32.8588L13.6156 32.6466ZM13.2303 31.7185L12.9303 31.7185L12.9303 31.719L13.2303 31.7185ZM12.6392 28.5417L12.4116 28.7371L12.4117 28.7372L12.6392 28.5417ZM11.1515 27.7169L11.1062 28.0135L11.1063 28.0135L11.1515 27.7169ZM9.48581 28.0609L9.64426 28.3156L9.64482 28.3153L9.48581 28.0609ZM8.1405 28.8977L8.29837 29.1528L8.29896 29.1524L8.1405 28.8977ZM7.147 29.0606L7.21517 28.7685L7.21502 28.7685L7.147 29.0606ZM6.32824 28.4751L6.58273 28.3163L6.58271 28.3162L6.32824 28.4751ZM3.20026 23.4655L2.94524 23.6235L2.94579 23.6244L3.20026 23.4655ZM3.03707 22.472L3.32922 22.5402L3.32925 22.5401L3.03707 22.472ZM3.62281 21.6533L3.78167 21.9078L3.78193 21.9076L3.62281 21.6533ZM6.12163 20.09L5.96261 19.8356L5.96252 19.8356L6.12163 20.09ZM6.12163 15.9396H5.82163V16.1058L5.9626 16.194L6.12163 15.9396ZM6.12163 15.9394H6.42163V15.7731L6.28064 15.685L6.12163 15.9394ZM3.6182 14.3747L3.7772 14.1203L3.77711 14.1202L3.6182 14.3747ZM3.0343 13.558L2.7421 13.626L2.74215 13.6262L3.0343 13.558ZM3.19657 12.5671L3.40897 12.3552L3.14091 12.0864L2.94137 12.4093L3.19657 12.5671ZM3.1968 12.5673L2.9844 12.7791L3.2511 13.0465L3.45122 12.7263L3.1968 12.5673ZM6.33194 7.54982L6.07764 7.39066L6.07752 7.39085L6.33194 7.54982ZM7.14863 6.96615L7.08065 6.67395L7.08043 6.674L7.14863 6.96615ZM8.13959 7.12842L8.29871 6.87409L8.29729 6.87322L8.13959 7.12842ZM9.48584 7.97073L9.32672 8.22505L9.32686 8.22514L9.48584 7.97073ZM11.1513 8.31469L11.1965 8.61127L11.1965 8.61127L11.1513 8.31469ZM12.6391 7.49061L12.8666 7.68619L12.8666 7.68614L12.6391 7.49061ZM13.2304 5.89587L13.5304 5.89599V5.89587H13.2304ZM13.2304 4.3141L12.9304 4.3139V4.3141H13.2304ZM13.6155 3.38534L13.8276 3.59747L13.8277 3.59737L13.6155 3.38534ZM14.544 3L14.544 2.7L14.5436 2.7L14.544 3ZM20.4552 3L20.4556 2.7H20.4552V3ZM21.3837 3.38534L21.1715 3.59737L21.1716 3.59747L21.3837 3.38534ZM21.7688 4.3141L22.0688 4.3141L22.0688 4.3139L21.7688 4.3141ZM22.3599 7.48996L22.5875 7.29455L22.5874 7.29443L22.3599 7.48996ZM23.8476 8.31475L23.8929 8.01818L23.8928 8.01817L23.8476 8.31475ZM25.5133 7.97079L25.3548 7.71605L25.3543 7.7164L25.5133 7.97079ZM26.8586 7.13398L26.7005 6.87902L26.7001 6.87924L26.8586 7.13398ZM28.6709 7.55653L28.4162 7.71516L28.4164 7.71542L28.6709 7.55653ZM31.7988 12.5661L32.0539 12.4081L32.0533 12.4072L31.7988 12.5661ZM31.962 13.5596L31.6699 13.4915L31.6698 13.4916L31.962 13.5596ZM31.3763 14.3784L31.2174 14.1239L31.2172 14.124L31.3763 14.3784ZM28.8784 15.9405L29.0374 16.1949L29.0375 16.1949L28.8784 15.9405ZM28.8784 20.0911L28.7194 20.3455L28.7923 20.3911H28.8784V20.0911ZM27.4774 27.455L27.3183 27.7093L27.5729 27.8687L27.7319 27.6139L27.4774 27.455ZM26.3383 26.7421L26.4974 26.4878L26.4972 26.4877L26.3383 26.7421ZM30.3552 22.8441L30.6097 23.003L30.7685 22.7486L30.5142 22.5897L30.3552 22.8441ZM28.0531 21.4056L27.894 21.6599L27.8942 21.66L28.0531 21.4056ZM28.0531 14.6226H28.3531V14.081L27.894 14.3683L28.0531 14.6226ZM28.0531 14.6229H27.7531V15.1641L28.2121 14.8773L28.0531 14.6229ZM30.3552 13.1844L30.5142 13.4388L30.7686 13.2798L30.6096 13.0254L30.3552 13.1844ZM27.4752 8.57604L27.7296 8.41704L27.5705 8.16248L27.3161 8.32173L27.4752 8.57604ZM26.3361 9.28893L26.4951 9.54335L26.4952 9.54323L26.3361 9.28893ZM23.613 9.85087L23.6583 9.5543L23.6582 9.55429L23.613 9.85087ZM21.1813 8.50302L20.9537 8.69848L20.9537 8.69852L21.1813 8.50302ZM20.2153 4.5532H20.5153V4.2532H20.2153V4.5532ZM14.7836 4.5532V4.2532H14.4836V4.5532H14.7836ZM14.7836 5.89579L14.4836 5.89579L14.4836 5.89593L14.7836 5.89579ZM13.8178 8.50438L14.0454 8.69986L14.0454 8.69981L13.8178 8.50438ZM11.3847 9.85294L11.3396 9.55635L11.3396 9.55636L11.3847 9.85294ZM8.66077 9.28938L8.50162 9.54369L8.50166 9.54371L8.66077 9.28938ZM7.52164 8.57649L7.68079 8.32218L7.42632 8.16294L7.26723 8.4175L7.52164 8.57649ZM4.64166 13.1848L4.38726 13.0258L4.22832 13.2801L4.48259 13.4392L4.64166 13.1848ZM6.94586 14.6259L7.105 14.3716L7.10493 14.3715L6.94586 14.6259ZM6.94586 21.4088H6.64586V21.9505L7.105 21.6632L6.94586 21.4088ZM6.94586 21.4086H7.24586V20.8674L6.78688 21.1542L6.94586 21.4086ZM4.64379 22.8471L4.48482 22.5927L4.23039 22.7517L4.38939 23.0061L4.64379 22.8471ZM7.52377 27.4554L7.26936 27.6144L7.42845 27.869L7.68292 27.7098L7.52377 27.4554ZM8.6629 26.7426L8.50394 26.4881L8.50375 26.4882L8.6629 26.7426ZM11.3859 26.1806L11.3407 26.4772L11.3408 26.4772L11.3859 26.1806ZM13.8177 27.5285L14.0453 27.333L14.0453 27.333L13.8177 27.5285ZM14.7837 31.4783H14.4837V31.7783H14.7837V31.4783ZM20.2175 31.4783V31.7783H20.5175V31.4783H20.2175ZM21.1835 27.528L20.9559 27.3325L20.9559 27.3326L21.1835 27.528ZM23.6152 26.18L23.5701 25.8834L23.57 25.8834L23.6152 26.18ZM17.4994 12.135V12.435H18.2237L17.7115 11.9228L17.4994 12.135ZM17.4994 12.1349L17.4997 11.8349L16.7742 11.834L17.2872 12.347L17.4994 12.1349ZM21.656 13.8594L21.8681 13.6472L21.8681 13.6472L21.656 13.8594ZM23.3804 18.016L23.6804 18.016L23.6804 18.0156L23.3804 18.016ZM17.4994 22.344V22.644H17.6223L17.7098 22.5578L17.4994 22.344ZM14.4394 21.0763L14.2272 21.2885L14.2272 21.2885L14.4394 21.0763ZM17.4995 22.3439L17.4992 22.0439L17.3765 22.0441L17.289 22.1301L17.4995 22.3439ZM20.5583 21.0752L20.7704 21.2873L20.7705 21.2873L20.5583 21.0752ZM21.8271 18.0163L22.1271 18.0166V18.0163H21.8271ZM14.4394 14.9562L14.2272 14.7441L14.2272 14.7441L14.4394 14.9562ZM31.5411 21.4014L29.0376 19.8367L28.7196 20.3455L31.2231 21.9102L31.5411 21.4014ZM31.6487 21.5183L31.6487 21.5182L31.1155 21.7934L31.1155 21.7934L31.6487 21.5183ZM32.258 22.4055C32.1612 21.989 31.9034 21.6283 31.5413 21.4016L31.2229 21.9101C31.4507 22.0528 31.6127 22.2796 31.6736 22.5413L32.258 22.4055ZM32.0576 23.6226C32.2827 23.2593 32.3548 22.8217 32.258 22.4055L31.6736 22.5414C31.7344 22.803 31.6891 23.0781 31.5476 23.3066L32.0576 23.6226ZM31.5893 23.6756L31.5896 23.6759L32.0156 23.2534L32.0154 23.2531L31.5893 23.6756ZM28.9216 28.6408L32.0568 23.6234L31.5479 23.3054L28.4128 28.3229L28.9216 28.6408ZM27.9185 29.3582C28.3349 29.2613 28.6955 29.0032 28.9217 28.6407L28.4127 28.323C28.2705 28.5509 28.0439 28.713 27.7826 28.7738L27.9185 29.3582ZM26.7016 29.1583C27.0649 29.3834 27.5025 29.4552 27.9187 29.3581L27.7824 28.7738C27.5209 28.8348 27.2459 28.7897 27.0176 28.6482L26.7016 29.1583ZM25.3542 28.3153L26.7004 29.1576L27.0187 28.6489L25.6724 27.8066L25.3542 28.3153ZM23.893 28.0136C24.4007 27.9363 24.9191 28.0434 25.3543 28.3154L25.6723 27.8065C25.1154 27.4585 24.4521 27.3215 23.8027 27.4204L23.893 28.0136ZM22.5875 28.7367C22.9222 28.3474 23.3855 28.0908 23.893 28.0136L23.8027 27.4204C23.1534 27.5192 22.5607 27.8475 22.1326 28.3455L22.5875 28.7367ZM22.0688 30.1359C22.069 29.6223 22.253 29.126 22.5876 28.7366L22.1325 28.3455C21.7044 28.8438 21.469 29.4787 21.4688 30.1357L22.0688 30.1359ZM22.0688 31.7176V30.1358H21.4688V31.7176H22.0688ZM21.5958 32.8585C21.8984 32.5558 22.0685 32.1456 22.0688 31.7178L21.4688 31.7174C21.4686 31.9862 21.3617 32.244 21.1715 32.4342L21.5958 32.8585ZM20.4555 33.3317C20.8832 33.3311 21.2934 33.1611 21.5959 32.8584L21.1714 32.4343C20.9815 32.6244 20.7238 32.7313 20.4547 32.7317L20.4555 33.3317ZM14.544 33.3317H20.4551V32.7317H14.544V33.3317ZM13.4036 32.8588C13.7061 33.1611 14.116 33.3311 14.5436 33.3317L14.5444 32.7317C14.2757 32.7313 14.018 32.6244 13.8277 32.4343L13.4036 32.8588ZM12.9303 31.719C12.9312 32.1467 13.1012 32.5563 13.4035 32.8587L13.8278 32.4345C13.6378 32.2444 13.5308 31.9869 13.5303 31.7179L12.9303 31.719ZM12.9303 30.1367V31.7185H13.5303V30.1367H12.9303ZM12.4117 28.7372C12.7463 29.1266 12.9303 29.6231 12.9303 30.1367H13.5303C13.5303 29.4797 13.2949 28.8444 12.8668 28.3462L12.4117 28.7372ZM11.1063 28.0135C11.614 28.0908 12.0772 28.3475 12.4116 28.7371L12.8669 28.3463C12.4389 27.8477 11.8462 27.5192 11.1966 27.4203L11.1063 28.0135ZM9.64482 28.3153C10.0803 28.0431 10.5986 27.936 11.1062 28.0135L11.1968 27.4204C10.5472 27.3212 9.88392 27.4582 9.3268 27.8065L9.64482 28.3153ZM8.29896 29.1524L9.64426 28.3156L9.32736 27.8061L7.98205 28.6429L8.29896 29.1524ZM7.07883 29.3528C7.496 29.4501 7.93438 29.378 8.29837 29.1528L7.98264 28.6426C7.75345 28.7844 7.4776 28.8297 7.21517 28.7685L7.07883 29.3528ZM6.07375 28.634C6.30049 28.9972 6.66203 29.2558 7.07898 29.3528L7.21502 28.7685C6.95283 28.7074 6.72538 28.5448 6.58273 28.3163L6.07375 28.634ZM2.94579 23.6244L6.07377 28.634L6.58271 28.3162L3.45473 23.3066L2.94579 23.6244ZM2.74491 22.4039C2.64757 22.821 2.71967 23.2595 2.94524 23.6235L3.45528 23.3075C3.31331 23.0784 3.26799 22.8026 3.32922 22.5402L2.74491 22.4039ZM3.46396 21.3988C3.10082 21.6255 2.84197 21.9869 2.74488 22.404L3.32925 22.5401C3.39027 22.278 3.55304 22.0505 3.78167 21.9078L3.46396 21.3988ZM5.96252 19.8356L3.4637 21.3989L3.78193 21.9076L6.28075 20.3443L5.96252 19.8356ZM6.97166 18.0149C6.97166 18.7552 6.59037 19.4431 5.96261 19.8356L6.28066 20.3443C7.0838 19.8423 7.57166 18.9621 7.57166 18.0149H6.97166ZM5.9626 16.194C6.59035 16.5864 6.97166 17.2744 6.97166 18.0149H7.57166C7.57166 17.0676 7.0838 16.1873 6.28067 15.6852L5.9626 16.194ZM5.82163 15.9394V15.9396H6.42163V15.9394H5.82163ZM3.4592 14.6291L5.96263 16.1938L6.28064 15.685L3.7772 14.1203L3.4592 14.6291ZM2.74215 13.6262C2.83921 14.042 3.09691 14.4028 3.45928 14.6292L3.77711 14.1202C3.54957 13.9781 3.38749 13.7513 3.32644 13.4898L2.74215 13.6262ZM2.94137 12.4093C2.71683 12.7727 2.64535 13.2101 2.7421 13.626L3.32649 13.49C3.2656 13.2283 3.31063 12.9532 3.45177 12.7248L2.94137 12.4093ZM3.40921 12.3554L3.40897 12.3552L2.98416 12.7789L2.9844 12.7791L3.40921 12.3554ZM6.07752 7.39085L2.94238 12.4083L3.45122 12.7263L6.58636 7.70879L6.07752 7.39085ZM7.08043 6.674C6.66458 6.77108 6.30411 7.0288 6.07764 7.39066L6.58624 7.70897C6.72868 7.48138 6.95538 7.31932 7.21682 7.25829L7.08043 6.674ZM8.29729 6.87322C7.93394 6.64868 7.49656 6.5772 7.08065 6.67395L7.2166 7.25835C7.47838 7.19745 7.75348 7.24248 7.98188 7.38362L8.29729 6.87322ZM9.64496 7.71641L8.29871 6.8741L7.98046 7.38274L9.32672 8.22505L9.64496 7.71641ZM11.1062 8.01811C10.5985 8.09539 10.0801 7.98828 9.64482 7.71632L9.32686 8.22514C9.88377 8.57314 10.547 8.71013 11.1965 8.61127L11.1062 8.01811ZM12.4116 7.29502C12.077 7.68423 11.6137 7.94085 11.1062 8.01811L11.1965 8.61127C11.8458 8.51243 12.4384 8.18416 12.8666 7.68619L12.4116 7.29502ZM12.9304 5.89576C12.9302 6.40938 12.7462 6.90568 12.4116 7.29508L12.8666 7.68614C13.2948 7.1879 13.5301 6.55294 13.5304 5.89599L12.9304 5.89576ZM12.9304 4.3141V5.89587H13.5304V4.3141H12.9304ZM13.4034 3.1732C13.1007 3.47583 12.9307 3.88607 12.9304 4.3139L13.5304 4.3143C13.5306 4.04547 13.6374 3.78767 13.8276 3.59747L13.4034 3.1732ZM14.5436 2.7C14.1159 2.70057 13.7057 2.87057 13.4033 3.17331L13.8277 3.59737C14.0176 3.40729 14.2754 3.30036 14.5444 3.3L14.5436 2.7ZM20.4552 2.7H14.544V3.3H20.4552V2.7ZM21.5959 3.1733C21.2935 2.87056 20.8832 2.70057 20.4556 2.7L20.4548 3.3C20.7238 3.30036 20.9815 3.40728 21.1715 3.59737L21.5959 3.1733ZM22.0688 4.3139C22.0685 3.88605 21.8984 3.47582 21.5958 3.1732L21.1716 3.59747C21.3618 3.78767 21.4686 4.04545 21.4688 4.3143L22.0688 4.3139ZM22.0688 5.89499V4.3141H21.4688V5.89499H22.0688ZM22.5874 7.29443C22.2528 6.90504 22.0688 6.40858 22.0688 5.89499H21.4688C21.4688 6.55201 21.7041 7.18723 22.1323 7.68548L22.5874 7.29443ZM23.8928 8.01817C23.3851 7.94089 22.9219 7.68414 22.5875 7.29455L22.1322 7.68536C22.5602 8.18393 23.1529 8.51246 23.8025 8.61133L23.8928 8.01817ZM25.3543 7.7164C24.9188 7.98858 24.4005 8.09565 23.8929 8.01818L23.8023 8.61132C24.4519 8.71045 25.1152 8.57342 25.6723 8.22518L25.3543 7.7164ZM26.7001 6.87924L25.3548 7.71605L25.6717 8.22553L27.017 7.38872L26.7001 6.87924ZM27.9203 6.6784C27.503 6.58104 27.0643 6.65344 26.7005 6.87902L27.0167 7.38894C27.2456 7.24699 27.5216 7.2015 27.7839 7.26271L27.9203 6.6784ZM28.9255 7.39791C28.6989 7.03421 28.3373 6.77571 27.9203 6.6784L27.7839 7.26271C28.0465 7.32397 28.2739 7.48664 28.4162 7.71516L28.9255 7.39791ZM32.0533 12.4072L28.9253 7.39764L28.4164 7.71542L31.5444 12.725L32.0533 12.4072ZM32.2542 13.6278C32.3515 13.2106 32.2794 12.7722 32.0539 12.4081L31.5438 12.7241C31.6858 12.9533 31.7311 13.229 31.6699 13.4915L32.2542 13.6278ZM31.5351 14.6329C31.8983 14.4062 32.1571 14.0447 32.2542 13.6277L31.6698 13.4916C31.6088 13.7537 31.4461 13.9812 31.2174 14.1239L31.5351 14.6329ZM29.0375 16.1949L31.5354 14.6327L31.2172 14.124L28.7193 15.6862L29.0375 16.1949ZM28.0284 18.0158C28.0284 17.2755 28.4097 16.5873 29.0374 16.1949L28.7194 15.6861C27.9162 16.1882 27.4284 17.0687 27.4284 18.0158H28.0284ZM29.0374 19.8367C28.4097 19.4443 28.0284 18.7561 28.0284 18.0158H27.4284C27.4284 18.963 27.9162 19.8434 28.7194 20.3455L29.0374 19.8367ZM28.8786 19.7911H28.8784V20.3911H28.8786V19.7911ZM27.6366 27.2007L26.4974 26.4878L26.1791 26.9964L27.3183 27.7093L27.6366 27.2007ZM30.1007 22.6853L27.2229 27.2962L27.7319 27.6139L30.6097 23.003L30.1007 22.6853ZM27.8942 21.66L30.1962 23.0985L30.5142 22.5897L28.2121 21.1512L27.8942 21.66ZM25.8748 18.0141C25.8748 19.496 26.6376 20.8737 27.894 21.6599L28.2123 21.1513C27.1312 20.4748 26.4748 19.2893 26.4748 18.0141H25.8748ZM27.894 14.3683C26.6376 15.1545 25.8748 16.5322 25.8748 18.0141H26.4748C26.4748 16.7389 27.1312 15.5535 28.2123 14.8769L27.894 14.3683ZM28.3531 14.6229V14.6226H27.7531V14.6229H28.3531ZM30.1962 12.9299L27.8942 14.3685L28.2121 14.8773L30.5142 13.4388L30.1962 12.9299ZM27.2208 8.73503L30.1008 13.3434L30.6096 13.0254L27.7296 8.41704L27.2208 8.73503ZM26.4952 9.54323L27.6344 8.83034L27.3161 8.32173L26.1769 9.03462L26.4952 9.54323ZM23.5678 10.1474C24.5843 10.3025 25.6228 10.0883 26.4951 9.54335L26.1771 9.0345C25.4266 9.5034 24.533 9.68773 23.6583 9.5543L23.5678 10.1474ZM20.9537 8.69852C21.6239 9.47853 22.5512 9.99267 23.5679 10.1475L23.6582 9.55429C22.7835 9.42111 21.9855 8.97874 21.4088 8.30752L20.9537 8.69852ZM19.9153 5.89579C19.9153 6.92428 20.2838 7.91848 20.9537 8.69848L21.4089 8.30756C20.8324 7.63633 20.5153 6.7808 20.5153 5.89579H19.9153ZM19.9153 4.5532V5.89579H20.5153V4.5532H19.9153ZM14.7836 4.8532H20.2153V4.2532H14.7836V4.8532ZM15.0836 5.89579V4.5532H14.4836V5.89579H15.0836ZM14.0454 8.69981C14.7156 7.91933 15.0841 6.92468 15.0836 5.89564L14.4836 5.89593C14.484 6.78135 14.1669 7.63725 13.5902 8.30895L14.0454 8.69981ZM11.4298 10.1495C12.4472 9.99471 13.375 9.4803 14.0454 8.69986L13.5903 8.3089C13.0134 8.98051 12.2149 9.42314 11.3396 9.55635L11.4298 10.1495ZM8.50166 9.54371C9.37385 10.0894 10.4128 10.3043 11.4298 10.1495L11.3396 9.55636C10.4644 9.68957 9.57041 9.50461 8.81989 9.03506L8.50166 9.54371ZM7.36249 8.8308L8.50162 9.54369L8.81992 9.03508L7.68079 8.32218L7.36249 8.8308ZM4.89607 13.3438L7.77604 8.73548L7.26723 8.4175L4.38726 13.0258L4.89607 13.3438ZM7.10493 14.3715L4.80074 12.9305L4.48259 13.4392L6.78678 14.8802L7.10493 14.3715ZM9.12422 18.0174C9.12422 16.5354 8.36138 15.1578 7.105 14.3716L6.78671 14.8802C7.86778 15.5567 8.52422 16.7421 8.52422 18.0174H9.12422ZM7.105 21.6632C8.36138 20.877 9.12422 19.4993 9.12422 18.0174H8.52422C8.52422 19.2926 7.86778 20.478 6.78671 21.1545L7.105 21.6632ZM6.64586 21.4086V21.4088H7.24586V21.4086H6.64586ZM4.80277 23.1015L7.10483 21.663L6.78688 21.1542L4.48482 22.5927L4.80277 23.1015ZM7.77817 27.2965L4.8982 22.6881L4.38939 23.0061L7.26936 27.6144L7.77817 27.2965ZM8.50375 26.4882L7.36462 27.2011L7.68292 27.7098L8.82205 26.9969L8.50375 26.4882ZM11.4312 25.884C10.4147 25.729 9.37616 25.9432 8.50394 26.4881L8.82186 26.997C9.57237 26.5281 10.466 26.3438 11.3407 26.4772L11.4312 25.884ZM14.0453 27.333C13.3751 26.553 12.4478 26.0388 11.4311 25.884L11.3408 26.4772C12.2155 26.6104 13.0135 27.0527 13.5902 27.724L14.0453 27.333ZM15.0837 30.1357C15.0837 29.1072 14.7152 28.113 14.0453 27.333L13.5901 27.7239C14.1666 28.3952 14.4837 29.2507 14.4837 30.1357H15.0837ZM15.0837 31.4783V30.1357H14.4837V31.4783H15.0837ZM20.2175 31.1783H14.7837V31.7783H20.2175V31.1783ZM19.9175 30.135V31.4783H20.5175V30.135H19.9175ZM20.9559 27.3326C20.286 28.1126 19.9175 29.1068 19.9175 30.135H20.5175C20.5175 29.2503 20.8346 28.3947 21.4111 27.7235L20.9559 27.3326ZM23.57 25.8834C22.5535 26.0385 21.6261 26.5526 20.9559 27.3325L21.411 27.7236C21.9877 27.0524 22.7857 26.61 23.6605 26.4765L23.57 25.8834ZM26.4972 26.4877C25.625 25.9428 24.5866 25.7286 23.5701 25.8834L23.6604 26.4765C24.5352 26.3433 25.4288 26.5277 26.1793 26.9966L26.4972 26.4877ZM17.4994 11.835C15.86 11.835 14.2879 12.4863 13.1288 13.6454L13.5531 14.0697C14.5996 13.0231 16.0192 12.435 17.4994 12.435V11.835ZM17.2872 12.347L17.2873 12.3471L17.7115 11.9228L17.7115 11.9228L17.2872 12.347ZM21.8681 13.6472C20.7093 12.4887 19.1383 11.8369 17.4997 11.8349L17.499 12.4349C18.9787 12.4367 20.3974 13.0253 21.4439 14.0715L21.8681 13.6472ZM23.6804 18.0156C23.6785 16.377 23.0267 14.806 21.8681 13.6472L21.4438 14.0715C22.4901 15.1179 23.0787 16.5366 23.0804 18.0164L23.6804 18.0156ZM21.87 22.3866C23.0291 21.2275 23.6804 19.6554 23.6804 18.016H23.0804C23.0804 19.4962 22.4924 20.9157 21.4458 21.9623L21.87 22.3866ZM17.4994 24.197C19.1388 24.197 20.711 23.5456 21.87 22.3866L21.4458 21.9623C20.3992 23.0089 18.9797 23.597 17.4994 23.597V24.197ZM13.1288 22.3866C14.2879 23.5457 15.86 24.197 17.4994 24.197V23.597C16.0192 23.597 14.5997 23.0089 13.5531 21.9623L13.1288 22.3866ZM11.3184 18.016C11.3184 19.6554 11.9698 21.2275 13.1288 22.3866L13.5531 21.9623C12.5065 20.9158 11.9184 19.4962 11.9184 18.016H11.3184ZM13.1288 13.6454C11.9697 14.8045 11.3184 16.3766 11.3184 18.016H11.9184C11.9184 16.5358 12.5065 15.1163 13.5531 14.0697L13.1288 13.6454ZM17.4994 22.044C16.4313 22.044 15.4069 21.6196 14.6515 20.8642L14.2272 21.2885C15.0951 22.1563 16.2721 22.644 17.4994 22.644V22.044ZM17.289 22.1301L17.289 22.1302L17.7098 22.5578L17.7099 22.5578L17.289 22.1301ZM20.3462 20.863C19.591 21.618 18.5671 22.0429 17.4992 22.0439L17.4998 22.6439C18.7267 22.6427 19.9029 22.1546 20.7704 21.2873L20.3462 20.863ZM21.5271 18.016C21.5261 19.084 21.1011 20.1078 20.3462 20.8631L20.7705 21.2873C21.6377 20.4197 22.1259 19.2436 22.1271 18.0166L21.5271 18.016ZM20.3473 15.1684C21.1027 15.9237 21.5271 16.9482 21.5271 18.0163H22.1271C22.1271 16.789 21.6394 15.612 20.7716 14.7441L20.3473 15.1684ZM17.4994 13.9886C18.5675 13.9886 19.592 14.413 20.3473 15.1684L20.7716 14.7441C19.9038 13.8763 18.7267 13.3886 17.4994 13.3886V13.9886ZM14.6515 15.1684C15.4069 14.413 16.4313 13.9886 17.4994 13.9886V13.3886C16.2721 13.3886 15.0951 13.8763 14.2272 14.7441L14.6515 15.1684ZM13.4717 18.0163C13.4717 16.9482 13.8961 15.9237 14.6515 15.1684L14.2272 14.7441C13.3594 15.612 12.8717 16.789 12.8717 18.0163H13.4717ZM14.6515 20.8642C13.8961 20.1088 13.4717 19.0844 13.4717 18.0163H12.8717C12.8717 19.2436 13.3594 20.4206 14.2272 21.2885L14.6515 20.8642Z" fill="#7889B3" mask="url(#path-1-outside-1_59_807)"/>
</svg>
