<svg width="20" height="21" viewBox="0 0 20 21" fill="none" xmlns="http://www.w3.org/2000/svg">
<path d="M6.86104 9.1698L14.9251 18.1634C15.3019 18.5904 15.9551 18.5904 16.357 18.2136L17.7136 16.857C18.1155 16.4551 18.0904 15.8019 17.6634 15.4251L8.6698 7.36104C9.22248 6.07984 8.97126 4.54742 7.94127 3.51743C7.03689 2.61305 5.78081 2.31159 4.62521 2.61305C4.47448 2.63817 4.42424 2.81402 4.52473 2.91451L6.60983 4.99961L4.49961 7.10983L2.41451 5.02473C2.31402 4.92424 2.13817 4.97448 2.11305 5.12521C1.81159 6.28081 2.11305 7.53689 3.01743 8.44127C4.04742 9.47126 5.60496 9.72248 6.86104 9.1698Z" stroke="white" stroke-width="1.5"/>
<path d="M7.56413 11.2051L9.77484 13.667L5.42879 18.013C4.92636 18.5155 4.22295 18.616 3.62003 18.3648C3.41906 18.2894 3.24321 18.1638 3.09248 18.013C2.94175 17.8623 2.81614 17.6865 2.74077 17.4855C2.48956 16.8826 2.59004 16.154 3.09248 15.6767L7.56413 11.2051Z" stroke="white" stroke-width="1.5"/>
<path d="M17.4118 4.84896L15.4524 7.336L14.6987 7.56209L14.548 7.43649L12.3875 9.59695L11.458 8.76793L13.6687 6.55723L13.518 6.4065L13.7692 5.65285L16.2311 3.69336L17.4118 4.84896Z" stroke="white" stroke-width="1.5"/>
</svg>
