<svg width="16" height="16" viewBox="0 0 16 16" fill="none" xmlns="http://www.w3.org/2000/svg">
<g id="Group">
<g id="file-add">
<path d="M6.66667 11.4V10.1H5.33333V8.8H6.66667V7.5H8V8.8H9.33333V10.1H8V11.4H6.66667Z" fill="#3F3F46"/>
<path fill-rule="evenodd" clip-rule="evenodd" d="M4 2C2.89543 2 2 2.87304 2 3.95V12.05C2 13.127 2.89543 14 4 14H12C13.1046 14 14 13.127 14 12.05V6.55C14 4.0371 11.9107 2 9.33333 2H4ZM4 3.3H8.66667V6.55H12.6667V12.05C12.6667 12.409 12.3682 12.7 12 12.7H4C3.63181 12.7 3.33333 12.409 3.33333 12.05V3.95C3.33333 3.59101 3.63181 3.3 4 3.3ZM10 3.36501C11.0742 3.57762 11.9608 4.29389 12.3893 5.25H10V3.36501Z" fill="#3F3F46"/>
</g>
</g>
</svg>
