<svg width="40" height="40" viewBox="0 0 40 40" fill="none" xmlns="http://www.w3.org/2000/svg">
<g id="react-icons/fi/FiAlertTriangle">
<path id="Vector (Stroke)" fill-rule="evenodd" clip-rule="evenodd" d="M17.547 3.80518C18.2958 3.38359 19.1406 3.16211 20 3.16211C20.8593 3.16211 21.7041 3.38359 22.4529 3.80518C23.2018 4.22677 23.8293 4.83424 24.275 5.56897L24.2798 5.57688L38.3964 29.1436L38.4099 29.1666C38.8465 29.9226 39.0775 30.7798 39.08 31.6529C39.0824 32.5259 38.8562 33.3844 38.4239 34.1429C37.9915 34.9014 37.3681 35.5335 36.6157 35.9762C35.8632 36.419 35.0079 36.657 34.1349 36.6666L34.1166 36.6668L5.86497 36.6667C4.99196 36.6571 4.13669 36.419 3.38424 35.9762C2.63178 35.5335 2.00837 34.9014 1.57604 34.1429C1.1437 33.3844 0.917497 32.5259 0.919941 31.6529C0.922386 30.7798 1.15339 29.9226 1.58997 29.1666L1.60351 29.1436L15.7249 5.56896C16.1706 4.83422 16.7982 4.22677 17.547 3.80518ZM20 6.49544C19.7135 6.49544 19.4319 6.56927 19.1823 6.7098C18.9338 6.84969 18.7254 7.05099 18.577 7.29441L4.4711 30.8431C4.32914 31.0927 4.25407 31.3749 4.25326 31.6622C4.25245 31.9532 4.32785 32.2394 4.47196 32.4922C4.61607 32.7451 4.82388 32.9557 5.07469 33.1033C5.32332 33.2496 5.60561 33.3289 5.89395 33.3334H34.106C34.3943 33.3289 34.6766 33.2496 34.9252 33.1033C35.176 32.9557 35.3838 32.745 35.5279 32.4922C35.6721 32.2394 35.7475 31.9532 35.7466 31.6622C35.7458 31.3749 35.6708 31.0928 35.5289 30.8431L21.425 7.29773C21.4243 7.29662 21.4236 7.29552 21.4229 7.29441C21.2745 7.05099 21.0661 6.84969 20.8176 6.7098C20.568 6.56927 20.2864 6.49544 20 6.49544Z" fill="#FF9900"/>
<path id="Vector (Stroke)_2" fill-rule="evenodd" clip-rule="evenodd" d="M20 13.333C20.9205 13.333 21.6667 14.0792 21.6667 14.9997V21.6663C21.6667 22.5868 20.9205 23.333 20 23.333C19.0796 23.333 18.3334 22.5868 18.3334 21.6663V14.9997C18.3334 14.0792 19.0796 13.333 20 13.333Z" fill="#FF9900"/>
<path id="Vector (Stroke)_3" fill-rule="evenodd" clip-rule="evenodd" d="M18.3334 28.3337C18.3334 27.4132 19.0796 26.667 20 26.667H20.0167C20.9372 26.667 21.6834 27.4132 21.6834 28.3337C21.6834 29.2541 20.9372 30.0003 20.0167 30.0003H20C19.0796 30.0003 18.3334 29.2541 18.3334 28.3337Z" fill="#FF9900"/>
</g>
</svg>
