<svg width="13" height="13" viewBox="0 0 13 13" fill="none" xmlns="http://www.w3.org/2000/svg">
<g id="ArrowRise-s">
<path id="Vector 647 (Stroke)" fill-rule="evenodd" clip-rule="evenodd" d="M6.95676 4.54733L11.0001 3.375L9.99369 7.46278L8.73823 6.25754L6.71309 8.36707C6.64434 8.43868 6.54936 8.47917 6.45008 8.47917C6.35081 8.47917 6.25583 8.43868 6.18708 8.36707L4.70008 6.81812L2.51309 9.09624C2.37364 9.24149 2.14285 9.2462 1.9976 9.10676C1.85234 8.96731 1.84763 8.73652 1.98708 8.59126L4.43708 6.03918C4.50583 5.96757 4.60081 5.92708 4.70008 5.92708C4.79936 5.92708 4.89434 5.96757 4.96309 6.03918L6.45008 7.58813L8.21222 5.75257L6.95676 4.54733Z" fill="#1C9878"/>
</g>
</svg>
