<svg width="13" height="13" viewBox="0 0 13 13" fill="none" xmlns="http://www.w3.org/2000/svg">
<g id="ArrowFall-s">
<path id="Vector 647 (Stroke)" fill-rule="evenodd" clip-rule="evenodd" d="M11.2525 3.11134C11.3977 3.25079 11.4025 3.48158 11.263 3.62684L8.81301 6.17892C8.74426 6.25053 8.64927 6.29102 8.55 6.29102C8.45073 6.29102 8.35575 6.25053 8.28699 6.17892L6.8 4.62997L5.03786 6.46553L6.29332 7.67077L2.25 8.8431L3.25639 4.75532L4.51185 5.96056L6.53699 3.85103C6.60575 3.77942 6.70073 3.73893 6.8 3.73893C6.89927 3.73893 6.99426 3.77942 7.06301 3.85103L8.55 5.39998L10.737 3.12186C10.8764 2.97661 11.1072 2.9719 11.2525 3.11134Z" fill="#D76C6C"/>
</g>
</svg>
