<svg width="95" height="79" viewBox="0 0 95 79" fill="none" xmlns="http://www.w3.org/2000/svg">
<g id="Group 1000003799">
<path id="Vector 4959" d="M94.1169 23.5311H79.9577C79.7038 23.5311 79.4593 23.4345 79.274 23.2608L74.3285 18.6273C73.8666 18.1946 73.1241 18.2943 72.7928 18.8336L68.762 25.3938C68.4154 25.9579 67.6263 26.0356 67.1764 25.55L63.0502 21.0965C62.6582 20.6734 61.9906 20.6687 61.5927 21.0862L60.4171 22.3198C59.8953 22.8674 58.9778 22.6597 58.7427 21.9407L52.7473 3.60618C52.4304 2.63708 51.0364 2.70814 50.8197 3.70443L43.2238 38.6234C43.0049 39.6296 41.5917 39.6881 41.2904 38.7034L35.8373 20.8809C35.5871 20.063 34.4923 19.9163 34.0356 20.6395L31.3541 24.8851C30.9212 25.5706 29.8953 25.483 29.5848 24.734L27.3864 19.4296C27.0881 18.7097 26.1174 18.5926 25.6564 19.2208L22.7932 23.1227C22.6048 23.3794 22.3054 23.5311 21.987 23.5311H0.661834" stroke="#DC616B" stroke-width="2"/>
<path id="Vector 4960" opacity="0.1" d="M79.9577 23.5311H93.1169C93.6692 23.5311 94.1169 23.9788 94.1169 24.5311V77.5265C94.1169 78.0788 93.6692 78.5265 93.1169 78.5265H1.66183C1.10955 78.5265 0.661835 78.0788 0.661835 77.5265V24.5311C0.661835 23.9788 1.10955 23.5311 1.66183 23.5311H21.987C22.3055 23.5311 22.6049 23.3794 22.7932 23.1227L25.6564 19.2208C26.1174 18.5926 27.0881 18.7097 27.3864 19.4296L29.5848 24.734C29.8953 25.483 30.9212 25.5706 31.3541 24.8851L34.0356 20.6395C34.4923 19.9163 35.5871 20.063 35.8373 20.8809L41.2904 38.7034C41.5917 39.6881 43.0049 39.6296 43.2238 38.6234L50.8197 3.70443C51.0364 2.70814 52.4304 2.63709 52.7473 3.60618L58.7427 21.9407C58.9778 22.6597 59.8953 22.8674 60.4171 22.3198L61.5927 21.0862C61.9906 20.6687 62.6582 20.6734 63.0502 21.0964L67.1764 25.55C67.6263 26.0356 68.4154 25.9579 68.762 25.3938L72.7928 18.8336C73.1241 18.2943 73.8666 18.1946 74.3285 18.6273L79.274 23.2608C79.4593 23.4345 79.7038 23.5311 79.9577 23.5311Z" fill="url(#paint0_linear_594_18024)"/>
</g>
<defs>
<linearGradient id="paint0_linear_594_18024" x1="47.3894" y1="-15.3349" x2="47.3894" y2="78.5265" gradientUnits="userSpaceOnUse">
<stop stop-color="#DC616B"/>
<stop offset="0.91635" stop-color="#DC616B" stop-opacity="0"/>
</linearGradient>
</defs>
</svg>
