<svg width="33" height="33" viewBox="0 0 33 33" fill="none" xmlns="http://www.w3.org/2000/svg">
<g id="blood_drop">
<g id="Group 1000003807">
<path id="Vector" d="M21.4501 31.3504C21.1465 31.3504 20.9001 31.1045 20.9001 30.8004V2.20039C20.9001 1.89624 21.1465 1.65039 21.4501 1.65039C21.7537 1.65039 22.0001 1.89624 22.0001 2.20039V30.8004C22.0001 31.1045 21.7537 31.3504 21.4501 31.3504Z" fill="white"/>
<path id="Vector_2" d="M23.6501 7.51699H21.4501C21.1465 7.51699 20.9001 7.27114 20.9001 6.96699C20.9001 6.66284 21.1465 6.41699 21.4501 6.41699H23.6501C23.9537 6.41699 24.2001 6.66284 24.2001 6.96699C24.2001 7.27114 23.9537 7.51699 23.6501 7.51699Z" fill="white"/>
<path id="Vector_3" d="M23.6501 5.1332H21.4501C21.1465 5.1332 20.9001 4.88735 20.9001 4.5832C20.9001 4.27905 21.1465 4.0332 21.4501 4.0332H23.6501C23.9537 4.0332 24.2001 4.27905 24.2001 4.5832C24.2001 4.88735 23.9537 5.1332 23.6501 5.1332Z" fill="white"/>
<path id="Vector_4" d="M23.6501 14.6674H21.4501C21.1465 14.6674 20.9001 14.4215 20.9001 14.1174C20.9001 13.8132 21.1465 13.5674 21.4501 13.5674H23.6501C23.9537 13.5674 24.2001 13.8132 24.2001 14.1174C24.2001 14.4215 23.9537 14.6674 23.6501 14.6674Z" fill="white"/>
<path id="Vector_5" d="M23.6501 12.2836H21.4501C21.1465 12.2836 20.9001 12.0377 20.9001 11.7336C20.9001 11.4294 21.1465 11.1836 21.4501 11.1836H23.6501C23.9537 11.1836 24.2001 11.4294 24.2001 11.7336C24.2001 12.0377 23.9537 12.2836 23.6501 12.2836Z" fill="white"/>
<path id="Vector_6" d="M23.6501 21.8168H21.4501C21.1465 21.8168 20.9001 21.5709 20.9001 21.2668C20.9001 20.9626 21.1465 20.7168 21.4501 20.7168H23.6501C23.9537 20.7168 24.2001 20.9626 24.2001 21.2668C24.2001 21.5709 23.9537 21.8168 23.6501 21.8168Z" fill="white"/>
<path id="Vector_7" d="M23.6501 19.434H21.4501C21.1465 19.434 20.9001 19.1881 20.9001 18.884C20.9001 18.5798 21.1465 18.334 21.4501 18.334H23.6501C23.9537 18.334 24.2001 18.5798 24.2001 18.884C24.2001 19.1881 23.9537 19.434 23.6501 19.434Z" fill="white"/>
<path id="Vector_8" d="M23.6501 28.9672H21.4501C21.1465 28.9672 20.9001 28.7213 20.9001 28.4172C20.9001 28.113 21.1465 27.8672 21.4501 27.8672H23.6501C23.9537 27.8672 24.2001 28.113 24.2001 28.4172C24.2001 28.7213 23.9537 28.9672 23.6501 28.9672Z" fill="white"/>
<path id="Vector_9" d="M23.6501 26.5834H21.4501C21.1465 26.5834 20.9001 26.3375 20.9001 26.0334C20.9001 25.7292 21.1465 25.4834 21.4501 25.4834H23.6501C23.9537 25.4834 24.2001 25.7292 24.2001 26.0334C24.2001 26.3375 23.9537 26.5834 23.6501 26.5834Z" fill="white"/>
<path id="Vector_10" d="M25.8501 24.2006H21.4501C21.1465 24.2006 20.9001 23.9547 20.9001 23.6506C20.9001 23.3464 21.1465 23.1006 21.4501 23.1006H25.8501C26.1537 23.1006 26.4001 23.3464 26.4001 23.6506C26.4001 23.9547 26.1537 24.2006 25.8501 24.2006Z" fill="white"/>
<path id="Vector_11" d="M25.8501 9.90078H21.4501C21.1465 9.90078 20.9001 9.65493 20.9001 9.35078C20.9001 9.04663 21.1465 8.80078 21.4501 8.80078H25.8501C26.1537 8.80078 26.4001 9.04663 26.4001 9.35078C26.4001 9.65493 26.1537 9.90078 25.8501 9.90078Z" fill="white"/>
<path id="Vector_12" d="M25.8501 17.0502H21.4501C21.1465 17.0502 20.9001 16.8043 20.9001 16.5002C20.9001 16.196 21.1465 15.9502 21.4501 15.9502H25.8501C26.1537 15.9502 26.4001 16.196 26.4001 16.5002C26.4001 16.8043 26.1537 17.0502 25.8501 17.0502Z" fill="white"/>
<path id="Vector_13" d="M25.8501 2.75039H21.4501C21.1465 2.75039 20.9001 2.50454 20.9001 2.20039C20.9001 1.89624 21.1465 1.65039 21.4501 1.65039H25.8501C26.1537 1.65039 26.4001 1.89624 26.4001 2.20039C26.4001 2.50454 26.1537 2.75039 25.8501 2.75039Z" fill="white"/>
<path id="Vector_14" d="M25.8501 31.35H21.4501C21.1465 31.35 20.9001 31.1041 20.9001 30.8C20.9001 30.4958 21.1465 30.25 21.4501 30.25H25.8501C26.1537 30.25 26.4001 30.4958 26.4001 30.8C26.4001 31.1041 26.1537 31.35 25.8501 31.35Z" fill="white"/>
<path id="Vector_15" d="M18.15 14.8502C17.8464 14.8502 17.6 14.6043 17.6 14.3002C17.6 12.7838 16.3664 11.5502 14.85 11.5502C14.5464 11.5502 14.3 11.3043 14.3 11.0002C14.3 10.696 14.5464 10.4502 14.85 10.4502C16.973 10.4502 18.7 12.1777 18.7 14.3002C18.7 14.6043 18.4536 14.8502 18.15 14.8502Z" fill="white"/>
<path id="Vector_16" d="M18.1501 21.2366C17.8465 21.2366 17.6001 20.9907 17.6001 20.6866V14.3C17.6001 13.9959 17.8465 13.75 18.1501 13.75C18.4537 13.75 18.7001 13.9959 18.7001 14.3V20.6866C18.7001 20.9907 18.4537 21.2366 18.1501 21.2366Z" fill="white"/>
<path id="Vector_17" d="M14.8501 11.5502H10.4501C10.1465 11.5502 9.90015 11.3043 9.90015 11.0002C9.90015 10.696 10.1465 10.4502 10.4501 10.4502H14.8501C15.1537 10.4502 15.4001 10.696 15.4001 11.0002C15.4001 11.3043 15.1537 11.5502 14.8501 11.5502Z" fill="white"/>
<path id="Vector_18" d="M7.1501 14.8502C6.8465 14.8502 6.6001 14.6043 6.6001 14.3002C6.6001 12.1777 8.3271 10.4502 10.4501 10.4502C10.7537 10.4502 11.0001 10.696 11.0001 11.0002C11.0001 11.3043 10.7537 11.5502 10.4501 11.5502C8.93375 11.5502 7.7001 12.7838 7.7001 14.3002C7.7001 14.6043 7.4537 14.8502 7.1501 14.8502Z" fill="white"/>
<path id="Vector_19" d="M7.1501 21.2366C6.8465 21.2366 6.6001 20.9907 6.6001 20.6866V14.3C6.6001 13.9959 6.8465 13.75 7.1501 13.75C7.4537 13.75 7.7001 13.9959 7.7001 14.3V20.6866C7.7001 20.9907 7.4537 21.2366 7.1501 21.2366Z" fill="white"/>
<path id="Vector_20" d="M17.0501 22.301C16.2301 22.301 15.4001 21.7466 15.4001 20.6867C15.4001 20.3826 15.6465 20.1367 15.9501 20.1367C16.2537 20.1367 16.5001 20.3826 16.5001 20.6867C16.5001 21.1762 16.9583 21.201 17.0501 21.201C17.142 21.201 17.6001 21.1762 17.6001 20.6867C17.6001 20.3826 17.8465 20.1367 18.1501 20.1367C18.4537 20.1367 18.7001 20.3826 18.7001 20.6867C18.7001 21.7466 17.8702 22.301 17.0501 22.301Z" fill="white"/>
<path id="Vector_21" d="M8.2501 22.301C7.43005 22.301 6.6001 21.7466 6.6001 20.6867C6.6001 20.3826 6.8465 20.1367 7.1501 20.1367C7.4537 20.1367 7.7001 20.3826 7.7001 20.6867C7.7001 21.1762 8.15825 21.201 8.2501 21.201C8.34195 21.201 8.8001 21.1762 8.8001 20.6867C8.8001 20.3826 9.0465 20.1367 9.3501 20.1367C9.6537 20.1367 9.9001 20.3826 9.9001 20.6867C9.9001 21.7466 9.07015 22.301 8.2501 22.301Z" fill="white"/>
<path id="Vector_22" d="M9.35005 21.45C9.04645 21.45 8.80005 21.2041 8.80005 20.9V14.3C8.80005 13.9958 9.04645 13.75 9.35005 13.75C9.65365 13.75 9.90005 13.9958 9.90005 14.3V20.9C9.90005 21.2041 9.65365 21.45 9.35005 21.45Z" fill="white"/>
<path id="Vector_23" d="M15.9501 21.45C15.6465 21.45 15.4001 21.2041 15.4001 20.9V14.3C15.4001 13.9958 15.6465 13.75 15.9501 13.75C16.2537 13.75 16.5001 13.9958 16.5001 14.3V20.9C16.5001 21.2041 16.2537 21.45 15.9501 21.45Z" fill="white"/>
<path id="Vector_24" d="M9.35005 29.7006C9.04645 29.7006 8.80005 29.4547 8.80005 29.1506V20.9006C8.80005 20.5964 9.04645 20.3506 9.35005 20.3506C9.65365 20.3506 9.90005 20.5964 9.90005 20.9006V29.1506C9.90005 29.4547 9.65365 29.7006 9.35005 29.7006Z" fill="white"/>
<path id="Vector_25" d="M15.9501 29.7006C15.6465 29.7006 15.4001 29.4547 15.4001 29.1506V20.9006C15.4001 20.5964 15.6465 20.3506 15.9501 20.3506C16.2537 20.3506 16.5001 20.5964 16.5001 20.9006V29.1506C16.5001 29.4547 16.2537 29.7006 15.9501 29.7006Z" fill="white"/>
<path id="Vector_26" d="M12.6501 29.7006C12.3465 29.7006 12.1001 29.4547 12.1001 29.1506V20.9006C12.1001 20.5964 12.3465 20.3506 12.6501 20.3506C12.9537 20.3506 13.2001 20.5964 13.2001 20.9006V29.1506C13.2001 29.4547 12.9537 29.7006 12.6501 29.7006Z" fill="white"/>
<path id="Vector_27" d="M14.3001 31.2967C13.7363 31.2967 13.2061 31.1075 12.8074 30.7643C12.3514 30.3727 12.1001 29.7996 12.1001 29.1506C12.1001 28.8464 12.3465 28.6006 12.6501 28.6006C12.9537 28.6006 13.2001 28.8464 13.2001 29.1506C13.2001 29.9222 13.7924 30.1967 14.3001 30.1967C14.8077 30.1967 15.4001 29.9222 15.4001 29.1506C15.4001 28.8464 15.6465 28.6006 15.9501 28.6006C16.2537 28.6006 16.5001 28.8464 16.5001 29.1506C16.5001 30.5597 15.3935 31.2967 14.3001 31.2967Z" fill="white"/>
<path id="Vector_28" d="M11 31.2967C10.4363 31.2967 9.9061 31.1075 9.50735 30.7643C9.0514 30.3727 8.80005 29.7996 8.80005 29.1506C8.80005 28.8464 9.04645 28.6006 9.35005 28.6006C9.65365 28.6006 9.90005 28.8464 9.90005 29.1506C9.90005 29.9222 10.4924 30.1967 11 30.1967C11.5077 30.1967 12.1 29.9222 12.1 29.1506C12.1 28.8464 12.3464 28.6006 12.65 28.6006C12.9536 28.6006 13.2 28.8464 13.2 29.1506C13.2 30.5597 12.0934 31.2967 11 31.2967Z" fill="white"/>
<path id="Vector_29" d="M12.65 9.35039C10.5633 9.35039 8.80005 7.58709 8.80005 5.50039C8.80005 3.41369 10.5633 1.65039 12.65 1.65039C14.7367 1.65039 16.5 3.41369 16.5 5.50039C16.5 7.58709 14.7367 9.35039 12.65 9.35039ZM12.65 2.75039C11.1595 2.75039 9.90005 4.00989 9.90005 5.50039C9.90005 6.99089 11.1595 8.25039 12.65 8.25039C14.1405 8.25039 15.4 6.99089 15.4 5.50039C15.4 4.00989 14.1405 2.75039 12.65 2.75039Z" fill="white"/>
</g>
</g>
</svg>
