<svg width="36" height="36" viewBox="0 0 36 36" fill="none" xmlns="http://www.w3.org/2000/svg">
<g id="blood_drop">
<g id="Group 1000003806">
<path id="Vector" d="M26.3993 7.2002H9.60064C8.96394 7.2002 8.35331 7.45312 7.9031 7.90334C7.45288 8.35356 7.19995 8.96418 7.19995 9.60088V26.3995C7.19995 27.0362 7.45288 27.6468 7.9031 28.0971C8.35331 28.5473 8.96394 28.8002 9.60064 28.8002H26.3993C27.036 28.8002 27.6466 28.5473 28.0968 28.0971C28.547 27.6468 28.8 27.0362 28.8 26.3995V9.60088C28.8 8.96418 28.547 8.35356 28.0968 7.90334C27.6466 7.45312 27.036 7.2002 26.3993 7.2002ZM27.6336 26.3995C27.6336 26.7269 27.5035 27.0408 27.272 27.2723C27.0406 27.5038 26.7266 27.6338 26.3993 27.6338H9.60064C9.27866 27.6257 8.97259 27.4922 8.74775 27.2616C8.5229 27.0309 8.39711 26.7216 8.39721 26.3995V9.60088C8.40503 9.28418 8.53433 8.9826 8.75835 8.75859C8.98236 8.53458 9.28393 8.40528 9.60064 8.39745H26.3993C26.7213 8.39735 27.0307 8.52315 27.2613 8.74799C27.4919 8.97283 27.6255 9.27891 27.6336 9.60088V26.3995Z" fill="white"/>
<path id="Vector_2" d="M23.9985 10.1992H12.0013C11.5233 10.1992 11.065 10.3891 10.727 10.727C10.3891 11.065 10.1992 11.5233 10.1992 12.0013V13.5009C10.1998 14.9739 10.7709 16.3894 11.7927 17.4503C12.8145 18.5113 14.2075 19.1351 15.6794 19.191H20.3204C21.7923 19.1351 23.1853 18.5113 24.2071 17.4503C25.2289 16.3894 25.8001 14.9739 25.8006 13.5009V12.0013C25.8006 11.7646 25.754 11.5303 25.6634 11.3117C25.5729 11.093 25.4401 10.8944 25.2728 10.727C25.1054 10.5597 24.9068 10.427 24.6881 10.3364C24.4695 10.2458 24.2352 10.1992 23.9985 10.1992ZM17.679 17.9999H16.9693V17.9505C17.0526 17.8172 17.1624 17.7023 17.2919 17.6132C17.4214 17.524 17.5679 17.4624 17.7222 17.4321C17.8115 17.401 17.9053 17.3843 17.9999 17.3828H18.0554C18.2749 17.3825 18.4895 17.4469 18.6726 17.5679C18.8317 17.6701 18.9632 17.81 19.0552 17.9752L17.679 17.9999ZM24.5972 13.5009C24.6031 14.658 24.1613 15.7724 23.3641 16.611C22.5669 17.4496 21.4762 17.9473 20.3204 17.9999C20.2248 17.6193 20.0312 17.2703 19.7588 16.9878L20.993 15.0253C21.0368 14.8951 21.0359 14.7541 20.9905 14.6244C20.9451 14.4948 20.8578 14.3841 20.7423 14.3097C20.6269 14.2353 20.4899 14.2016 20.3531 14.2138C20.2163 14.2261 20.0875 14.2836 19.9871 14.3773L18.7528 16.3336C18.2477 16.1648 17.7006 16.1696 17.1985 16.3474C16.6964 16.5252 16.2682 16.8658 15.9818 17.3149C15.8461 17.5261 15.7441 17.7572 15.6794 17.9999C14.5257 17.9474 13.4369 17.4514 12.64 16.6155C11.8431 15.7795 11.3999 14.6682 11.4026 13.5133V12.0013C11.4026 11.8376 11.4677 11.6806 11.5834 11.5649C11.6991 11.4492 11.8561 11.3841 12.0198 11.3841H12.6369V12.5999C12.6141 12.6909 12.6124 12.7859 12.6318 12.8777C12.6512 12.9695 12.6913 13.0556 12.749 13.1296C12.8067 13.2036 12.8805 13.2634 12.9649 13.3045C13.0492 13.3457 13.1417 13.3671 13.2356 13.3671C13.3294 13.3671 13.422 13.3457 13.5063 13.3045C13.5906 13.2634 13.6644 13.2036 13.7221 13.1296C13.7798 13.0556 13.8199 12.9695 13.8393 12.8777C13.8588 12.7859 13.857 12.6909 13.8342 12.5999V11.4026H15.0314V12.5999C15.0625 12.7363 15.139 12.858 15.2483 12.9452C15.3576 13.0324 15.4933 13.0799 15.6332 13.0799C15.773 13.0799 15.9087 13.0324 16.018 12.9452C16.1273 12.858 16.2038 12.7363 16.2349 12.5999V11.4026H17.3828V12.5999C17.4138 12.7363 17.4903 12.858 17.5996 12.9452C17.7089 13.0324 17.8446 13.0799 17.9845 13.0799C18.1243 13.0799 18.26 13.0324 18.3693 12.9452C18.4787 12.858 18.5551 12.7363 18.5862 12.5999V11.4026H19.7834V12.5999C19.8145 12.7363 19.891 12.858 20.0003 12.9452C20.1096 13.0324 20.2453 13.0799 20.3852 13.0799C20.525 13.0799 20.6607 13.0324 20.77 12.9452C20.8793 12.858 20.9558 12.7363 20.9869 12.5999V11.4026H22.1841V12.5999C22.1841 12.7636 22.2492 12.9206 22.3649 13.0363C22.4806 13.152 22.6376 13.217 22.8013 13.217C22.965 13.217 23.1219 13.152 23.2377 13.0363C23.3534 12.9206 23.4184 12.7636 23.4184 12.5999V11.4026H24.0356C24.1992 11.4026 24.3562 11.4677 24.4719 11.5834C24.5877 11.6991 24.6527 11.8561 24.6527 12.0198L24.5972 13.5009Z" fill="white"/>
</g>
</g>
</svg>
