<svg width="34" height="34" viewBox="0 0 34 34" fill="none" xmlns="http://www.w3.org/2000/svg">
<g id="blood_bag">
<path id="Vector" fill-rule="evenodd" clip-rule="evenodd" d="M12.7499 28.3338H16.2916V31.1672H17.7083V28.3338H21.2499V26.9172H24.0832C25.648 26.9172 26.9166 25.6487 26.9166 24.0839V7.16478C26.9166 5.6 25.648 4.33147 24.0832 4.33147H19.8333L19.0314 3.50671C17.9188 2.36235 16.081 2.36235 14.9684 3.50671L14.1666 4.33147H9.91658C8.35181 4.33147 7.08325 5.6 7.08325 7.16478V24.0838C7.08325 25.6487 8.35181 26.9172 9.91658 26.9172H12.7499V28.3338ZM18.8175 5.319C19.0843 5.59335 19.4506 5.74814 19.8333 5.74814H24.0832C24.8657 5.74814 25.4999 6.3824 25.4999 7.16478V19.5071C25.3032 19.3545 25.0846 19.2036 24.8447 19.064C23.5521 18.3118 21.6824 17.9204 19.4734 19.2237C17.6545 20.2969 15.9439 20.5872 14.0829 20.6268C13.2536 20.6444 12.4058 20.6123 11.4967 20.5779C11.3728 20.5732 11.2475 20.5684 11.1212 20.5638C10.2938 20.5333 9.42203 20.5066 8.49992 20.5215V7.16478C8.49992 6.3824 9.13416 5.74814 9.91658 5.74814H14.1666C14.5492 5.74814 14.9156 5.59335 15.1823 5.319L15.9842 4.49424C16.5405 3.92205 17.4593 3.92205 18.0157 4.49424L18.8175 5.319ZM8.49992 23.6384V24.0838C8.49992 24.8662 9.13416 25.5005 9.91658 25.5005H24.0832C24.8657 25.5005 25.4999 24.8662 25.4999 24.0839V23.1837C25.4377 23.1053 25.3522 23.0029 25.2444 22.8873C24.9848 22.6089 24.608 22.2654 24.1321 21.9884C23.2155 21.4551 21.8978 21.1382 20.1933 22.1438C18.0986 23.3797 16.1259 23.7003 14.1131 23.7431C13.2387 23.7617 12.3459 23.7278 11.4418 23.6935C11.3177 23.6888 11.1934 23.6841 11.069 23.6795C10.2382 23.6488 9.38881 23.6233 8.49992 23.6384Z" fill="white"/>
</g>
</svg>
