<svg width="36" height="36" viewBox="0 0 36 36" fill="none" xmlns="http://www.w3.org/2000/svg">
<g id="blood_drop">
<g id="Group 1000003805">
<path id="Vector" fill-rule="evenodd" clip-rule="evenodd" d="M9.2793 14.3434H26.723L27.3148 25.8239C27.3346 26.195 27.2512 26.4865 27.0941 26.6783C26.9385 26.8719 26.7286 26.9911 26.3843 26.9911H9.61738C9.27374 26.9911 9.06561 26.8719 8.90821 26.6783C8.7508 26.4865 8.66741 26.195 8.68548 25.8239L9.2793 14.3434ZM13.4576 7.20054C12.9419 7.20054 12.5236 7.61854 12.5236 8.13418V11.3142C12.5236 11.8315 12.9419 12.2478 13.4576 12.2478C13.9749 12.2478 14.3915 11.8319 14.3915 11.3142V10.2301C14.8186 10.532 15.0736 11.0226 15.0736 11.5473C15.0736 12.4396 14.3498 13.1637 13.4576 13.1637C12.5653 13.1637 11.8415 12.4396 11.8415 11.5473V8.87636H10.6976C10.0607 8.87636 9.45407 9.03759 8.97839 9.41389C8.50445 9.79193 8.2039 10.3784 8.14031 11.048L7.20667 25.7649C7.16498 26.44 7.31508 27.0932 7.71675 27.5873C8.11877 28.0811 8.75393 28.3906 9.45963 28.3906H26.5413C27.2456 28.3906 27.8808 28.0811 28.2825 27.5873C28.6841 27.0929 28.836 26.4396 28.7929 25.7649L27.861 11.0477C27.7957 10.3781 27.4972 9.79158 27.0212 9.41354C26.5472 9.03724 25.9409 8.87601 25.3036 8.87601H23.476V8.13383C23.476 7.61819 23.0601 7.20228 22.542 7.2002C22.0264 7.2002 21.6105 7.61819 21.6105 8.13383V11.3138C21.6105 11.8312 22.0264 12.2475 22.542 12.2475C23.0601 12.2475 23.476 11.8315 23.476 11.3138V10.2297C23.903 10.5317 24.1584 11.0223 24.1584 11.547C24.1601 12.4393 23.436 13.1634 22.542 13.1634C21.6501 13.1634 20.9259 12.4393 20.9259 11.547V8.87601H14.3915V8.13383C14.3915 7.61854 13.9753 7.20228 13.4576 7.20054Z" fill="white"/>
<path id="Vector_2" d="M19.5112 22.6592L20.637 23.843C20.8812 24.1015 20.8798 24.4924 20.6842 24.7909C20.4365 25.1693 20.0001 25.924 20.0001 25.924C19.5459 26.6171 18.6411 26.0977 18.9559 25.4389L19.327 24.6606L18.2864 23.9514C18.286 23.2061 18.858 22.6592 19.5112 22.6592Z" fill="white"/>
<path id="Vector_3" d="M16.5344 19.4463C16.3568 19.4463 16.1758 19.5061 16.0531 19.6454L14.4044 21.488C14.0372 21.9856 14.5924 22.7566 15.1066 22.2819L16.4784 21.1367V22.1391H19.524V21.1367L20.8957 22.2819C21.4096 22.7562 21.9649 21.9856 21.5976 21.488L19.9493 19.6454C19.8259 19.5061 19.6435 19.4463 19.468 19.4463H16.5344Z" fill="white"/>
<path id="Vector_4" fill-rule="evenodd" clip-rule="evenodd" d="M19.9093 17.1066C19.9093 18.1601 19.0549 19.0145 18.0021 19.0145C16.9468 19.0145 16.0928 18.1601 16.0928 17.1066C16.0928 16.0517 16.9465 15.1973 18.0021 15.1973C19.0553 15.1976 19.9093 16.0517 19.9093 17.1066Z" fill="white"/>
<path id="Vector_5" d="M16.491 22.6592L15.3652 23.843C15.121 24.1015 15.123 24.4924 15.3183 24.7909C15.5661 25.1693 16.0021 25.924 16.0021 25.924C16.4566 26.6171 17.3614 26.0977 17.0463 25.4389L16.6752 24.6606L17.7176 23.9514C17.7176 23.2061 17.1442 22.6592 16.491 22.6592Z" fill="white"/>
</g>
</g>
</svg>
