<svg width="21" height="21" viewBox="0 0 21 21" fill="none" xmlns="http://www.w3.org/2000/svg">
<g id="react-icons/fa/FaBoxOpen">
<path id="Vector" d="M14.3032 10.5002C13.7751 10.5002 13.2782 10.2189 13.0095 9.76893L11.0001 6.43768L8.99385 9.76893C8.72198 10.2221 8.2251 10.5033 7.69698 10.5033C7.55635 10.5033 7.41573 10.4846 7.28135 10.4439L3.0001 9.21893V14.7814C3.0001 15.2408 3.3126 15.6408 3.75635 15.7502L10.5126 17.4408C10.8314 17.5189 11.1657 17.5189 11.4814 17.4408L18.2439 15.7502C18.6876 15.6377 19.0001 15.2377 19.0001 14.7814V9.21893L14.7189 10.4408C14.5845 10.4814 14.4439 10.5002 14.3032 10.5002ZM20.947 6.99393L19.3376 3.78143C19.2407 3.58768 19.0314 3.47518 18.8157 3.5033L11.0001 4.50018L13.8657 9.2533C13.9845 9.45018 14.222 9.54393 14.4439 9.48143L20.6282 7.7158C20.9376 7.62518 21.0876 7.28143 20.947 6.99393ZM2.6626 3.78143L1.05323 6.99393C0.909477 7.28143 1.0626 7.62518 1.36885 7.71268L7.55323 9.4783C7.7751 9.5408 8.0126 9.44705 8.13135 9.25018L11.0001 4.50018L3.18135 3.5033C2.96573 3.4783 2.75948 3.58768 2.6626 3.78143Z" fill="#1F489F"/>
</g>
</svg>
