<svg width="41" height="40" viewBox="0 0 41 40" fill="none" xmlns="http://www.w3.org/2000/svg">
<path id="Breakfast 5" opacity="0.8" d="M33.0007 38.6567L26.7924 31.3929C23.9551 33.3198 20.6035 34.3481 17.1738 34.3439C12.6202 34.341 8.25362 32.5309 5.03363 29.3112C1.81365 26.0915 0.00335691 21.7255 0 17.172C0.00335624 12.6188 1.81359 8.25307 5.03312 5.03345C8.25264 1.81382 12.6185 0.00349625 17.1717 0C21.7249 0.00349625 26.0902 1.81382 29.3097 5.03345C32.5293 8.25307 34.3395 12.6188 34.3429 17.172C34.3475 20.591 33.3257 23.9328 31.4094 26.7643L38.6768 32.9748C39.0848 33.3403 39.4144 33.7849 39.6451 34.2817C39.8759 34.7784 40.0029 35.317 40.019 35.8645C40.035 36.412 39.9397 36.957 39.7385 37.4665C39.5372 37.9759 39.2344 38.4391 38.8485 38.8278C38.4754 39.2008 38.0321 39.4964 37.5444 39.6975C37.0568 39.8987 36.5344 40.0015 36.0068 40C35.4393 40.0014 34.8775 39.8824 34.3594 39.6508C33.8412 39.4193 33.3782 39.0805 33.0007 38.6567ZM28.196 30.3242L34.314 37.4888C34.5175 37.7211 34.7668 37.909 35.0462 38.0406C35.3256 38.1723 35.629 38.2449 35.9377 38.254C36.2465 38.2631 36.5539 38.2084 36.8406 38.0933C37.1273 37.9783 37.3869 37.8054 37.6037 37.5854C37.8237 37.3686 37.9966 37.1087 38.1116 36.822C38.2267 36.5354 38.2816 36.2281 38.2725 35.9193C38.2635 35.6106 38.1907 35.307 38.0591 35.0276C37.9274 34.7482 37.7397 34.4989 37.5073 34.2954L30.3436 28.1752C29.6918 28.953 28.9734 29.6721 28.196 30.3242ZM1.76244 17.172C1.76057 19.1962 2.15812 21.201 2.9319 23.0715C3.70569 24.9421 4.84082 26.6417 6.27219 28.073C7.70356 29.5044 9.4028 30.6395 11.2733 31.4133C13.1439 32.187 15.149 32.5844 17.1732 32.5825C20.2307 32.5876 23.2199 31.6801 25.7586 29.9762L26.3876 29.501C27.5773 28.6101 28.633 27.5528 29.5217 26.3615L29.9842 25.7426C31.6837 23.2072 32.5889 20.2227 32.5845 17.1704C32.5863 15.1461 32.1889 13.1413 31.4151 11.2707C30.6412 9.40013 29.5062 7.7005 28.0748 6.26907C26.6434 4.83763 24.9437 3.70248 23.0731 2.92856C21.2026 2.15464 19.1981 1.75714 17.1738 1.7588C15.1492 1.75686 13.1437 2.15421 11.2728 2.92812C9.40199 3.70203 7.70219 4.8373 6.27064 6.26894C4.8391 7.70059 3.70414 9.4005 2.93036 11.2714C2.15658 13.1423 1.75933 15.1474 1.76141 17.172H1.76244ZM34.7471 35.6265C34.7471 35.393 34.8399 35.1691 35.0049 35.0041C35.17 34.839 35.3939 34.7463 35.6273 34.7463C35.8609 34.7463 36.085 34.839 36.2502 35.004C36.4154 35.1691 36.5083 35.3929 36.5085 35.6265C36.5083 35.86 36.4154 36.0839 36.2502 36.2489C36.085 36.414 35.8609 36.5067 35.6273 36.5067C35.5116 36.5068 35.3975 36.4841 35.2906 36.44C35.1837 36.3958 35.0863 36.331 35.0044 36.2492C34.9226 36.1675 34.8574 36.0704 34.8131 35.9636C34.7688 35.8567 34.7461 35.7421 34.7461 35.6265H34.7471ZM14.9751 27.0072C13.6903 26.6178 12.5519 25.8512 11.708 24.807C10.8346 23.7222 10.2921 22.4088 10.1456 21.0238C9.93014 19.3309 9.50185 17.672 8.87099 16.0864L8.86532 16.0711C8.67576 15.5462 8.49545 15.0509 8.34814 14.5588C8.0417 13.6797 7.95529 12.7388 8.09599 11.8185C8.34712 10.7491 8.91787 9.78159 9.73262 9.04483C10.4512 8.3695 11.2961 7.84234 12.2185 7.49346C13.1409 7.14457 14.123 6.98078 15.1086 7.01146H15.1246C15.4256 7.01146 15.7282 7.02782 16.0223 7.05475C17.2796 7.17744 18.5063 7.51686 19.6478 8.05797C20.8748 8.63216 21.9924 9.41543 22.9509 10.3728C24.8523 12.1801 26.0405 14.6106 26.299 17.2211C26.39 18.5098 26.1972 19.8028 25.7338 21.0087C25.2704 22.2147 24.5477 23.3042 23.6171 24.2003C22.6573 25.1774 21.5294 25.9733 20.2872 26.55C19.2423 27.0331 18.1067 27.2878 16.9556 27.2971C16.2843 27.298 15.6165 27.2003 14.9735 27.0072H14.9751ZM15.1231 12.4806C14.7945 12.8065 14.5341 13.1945 14.3568 13.622C14.1796 14.0495 14.0892 14.5079 14.0908 14.9707C14.0895 15.4336 14.1802 15.8921 14.3574 16.3197C14.5345 16.7473 14.7948 17.1355 15.1231 17.4618C15.4494 17.7901 15.8376 18.0503 16.2652 18.2274C16.6928 18.4045 17.1518 18.495 17.6146 18.4936C18.0773 18.4948 18.5356 18.4042 18.963 18.2271C19.3904 18.05 19.7784 17.7899 20.1046 17.4618C20.7641 16.8007 21.1343 15.905 21.1343 14.9712C21.1343 14.0374 20.7641 13.1417 20.1046 12.4806C19.7785 12.1523 19.3905 11.8921 18.963 11.715C18.5355 11.5379 18.0773 11.4474 17.6146 11.4489C17.1516 11.4471 16.6925 11.5374 16.2647 11.7145C15.8368 11.8916 15.4483 12.152 15.122 12.4806H15.1231ZM17.8719 14.713C17.7898 14.6315 17.725 14.5345 17.6806 14.4277C17.6362 14.3208 17.6134 14.2062 17.6136 14.0905C17.6132 13.9747 17.6357 13.8601 17.6801 13.7532C17.7245 13.6463 17.7896 13.5493 17.8719 13.468C17.9533 13.3857 18.0507 13.3206 18.1576 13.2763C18.2645 13.2321 18.3791 13.2096 18.4948 13.2103C18.6105 13.2097 18.7251 13.2322 18.832 13.2764C18.9389 13.3207 19.0358 13.3858 19.1172 13.468C19.1995 13.5493 19.2646 13.6463 19.309 13.7532C19.3534 13.8601 19.3764 13.9747 19.376 14.0905C19.3764 14.2062 19.3534 14.3209 19.309 14.4278C19.2646 14.5347 19.1995 14.6316 19.1172 14.713C19.0356 14.795 18.9384 14.8599 18.8315 14.9041C18.7247 14.9484 18.6105 14.971 18.4948 14.9707C18.379 14.9712 18.2641 14.9487 18.1571 14.9045C18.05 14.8603 17.9526 14.7952 17.8709 14.713H17.8719Z" fill="#648BE3"/>
</svg>
