<svg width="20" height="20" viewBox="0 0 20 20" fill="none" xmlns="http://www.w3.org/2000/svg">
<path d="M17.5 11.0452C15.1171 12.0087 12.5704 12.5025 10 12.4993C7.3475 12.4993 4.81667 11.9827 2.5 11.0452M10 9.99935H10.0083M13.3333 4.99935V3.33268C13.3333 2.89065 13.1577 2.46673 12.8452 2.15417C12.5326 1.84161 12.1087 1.66602 11.6667 1.66602H8.33333C7.89131 1.66602 7.46738 1.84161 7.15482 2.15417C6.84226 2.46673 6.66667 2.89065 6.66667 3.33268V4.99935H13.3333ZM4.16667 16.666H15.8333C16.2754 16.666 16.6993 16.4904 17.0118 16.1779C17.3244 15.8653 17.5 15.4414 17.5 14.9993V6.66602C17.5 6.22399 17.3244 5.80006 17.0118 5.4875C16.6993 5.17494 16.2754 4.99935 15.8333 4.99935H4.16667C3.72464 4.99935 3.30072 5.17494 2.98816 5.4875C2.67559 5.80006 2.5 6.22399 2.5 6.66602V14.9993C2.5 15.4414 2.67559 15.8653 2.98816 16.1779C3.30072 16.4904 3.72464 16.666 4.16667 16.666Z" stroke="white" stroke-width="2" stroke-linecap="round" stroke-linejoin="round"/>
</svg>
