<svg width="21" height="20" viewBox="0 0 21 20" fill="none" xmlns="http://www.w3.org/2000/svg">
<path d="M18 11.0452C15.6171 12.0087 13.0704 12.5025 10.5 12.4993C7.8475 12.4993 5.31667 11.9827 3 11.0452M10.5 9.99935H10.5083M13.8333 4.99935V3.33268C13.8333 2.89065 13.6577 2.46673 13.3452 2.15417C13.0326 1.84161 12.6087 1.66602 12.1667 1.66602H8.83333C8.39131 1.66602 7.96738 1.84161 7.65482 2.15417C7.34226 2.46673 7.16667 2.89065 7.16667 3.33268V4.99935H13.8333ZM4.66667 16.666H16.3333C16.7754 16.666 17.1993 16.4904 17.5118 16.1779C17.8244 15.8653 18 15.4414 18 14.9993V6.66602C18 6.22399 17.8244 5.80006 17.5118 5.4875C17.1993 5.17494 16.7754 4.99935 16.3333 4.99935H4.66667C4.22464 4.99935 3.80072 5.17494 3.48816 5.4875C3.17559 5.80006 3 6.22399 3 6.66602V14.9993C3 15.4414 3.17559 15.8653 3.48816 16.1779C3.80072 16.4904 4.22464 16.666 4.66667 16.666Z" stroke="#566388" stroke-width="2" stroke-linecap="round" stroke-linejoin="round"/>
</svg>
