<svg width="21" height="20" viewBox="0 0 21 20" fill="none" xmlns="http://www.w3.org/2000/svg">
<path d="M18 11.0462C15.6171 12.0097 13.0704 12.5035 10.5 12.5003C7.8475 12.5003 5.31667 11.9837 3 11.0462M10.5 10.0003H10.5083M13.8333 5.00033V3.33366C13.8333 2.89163 13.6577 2.46771 13.3452 2.15515C13.0326 1.84259 12.6087 1.66699 12.1667 1.66699H8.83333C8.39131 1.66699 7.96738 1.84259 7.65482 2.15515C7.34226 2.46771 7.16667 2.89163 7.16667 3.33366V5.00033H13.8333ZM4.66667 16.667H16.3333C16.7754 16.667 17.1993 16.4914 17.5118 16.1788C17.8244 15.8663 18 15.4424 18 15.0003V6.66699C18 6.22496 17.8244 5.80104 17.5118 5.48848C17.1993 5.17592 16.7754 5.00033 16.3333 5.00033H4.66667C4.22464 5.00033 3.80072 5.17592 3.48816 5.48848C3.17559 5.80104 3 6.22496 3 6.66699V15.0003C3 15.4424 3.17559 15.8663 3.48816 16.1788C3.80072 16.4914 4.22464 16.667 4.66667 16.667Z" stroke="#566388" stroke-width="2" stroke-linecap="round" stroke-linejoin="round"/>
</svg>
