<svg width="18" height="18" viewBox="0 0 18 18" fill="none" xmlns="http://www.w3.org/2000/svg">
<g id="Icons/calendar">
<path id="Combined Shape" fill-rule="evenodd" clip-rule="evenodd" d="M3 1V2H1.995C0.892 2 0 2.893 0 3.994V16.006C0 17.106 0.893 18 1.995 18H16.005C17.108 18 18 17.107 18 16.006V3.994C18 2.895 17.107 2 16.005 2H15V1C15 0.448 14.552 0 14 0C13.448 0 13 0.448 13 1V2H5V1C5 0.448 4.552 0 4 0C3.448 0 3 0.448 3 1ZM16 6H2V15C2 15.5523 2.44772 16 3 16H15C15.5523 16 16 15.5523 16 15V6ZM6 10V7.999H4V10H6ZM14 7.999V10H12V7.999H14ZM8 10H10.001V7.999H8V10ZM6 12V14H4V12H6ZM8 14H10.001V12H8V14ZM14 12V14H12V12H14Z" fill="#9DAAC0"/>
</g>
</svg>
