<svg width="25" height="25" viewBox="0 0 25 25" fill="none" xmlns="http://www.w3.org/2000/svg">
<g id="cardiogram">
<path id="Vector" fill-rule="evenodd" clip-rule="evenodd" d="M9.16797 4.26953C9.16797 3.44111 9.83952 2.76953 10.668 2.76953H14.668C15.4964 2.76953 16.168 3.44111 16.168 4.26953H18.168C18.9964 4.26953 19.668 4.94111 19.668 5.76953V21.2695C19.668 22.098 18.9964 22.7695 18.168 22.7695H7.16797C6.33952 22.7695 5.66797 22.098 5.66797 21.2695V5.76953C5.66797 4.94111 6.33952 4.26953 7.16797 4.26953H9.16797ZM9.16797 5.26953H7.16797C6.89182 5.26953 6.66797 5.49339 6.66797 5.76953V11.2638H9.48427L11.1783 8.25223L12.2368 11.957L13.5322 10.2916H16.2767C16.5529 10.2916 16.7767 10.5155 16.7767 10.7916C16.7767 11.0678 16.5529 11.2916 16.2767 11.2916H14.0213L11.8166 14.1262L10.8751 10.831L10.0691 12.2638H6.66797V21.2695C6.66797 21.5457 6.89182 21.7695 7.16797 21.7695H18.168C18.4441 21.7695 18.668 21.5457 18.668 21.2695V5.76953C18.668 5.49339 18.4441 5.26953 18.168 5.26953H16.168C16.168 6.09798 15.4964 6.76953 14.668 6.76953H10.668C9.83952 6.76953 9.16797 6.09798 9.16797 5.26953ZM10.668 3.76953C10.3918 3.76953 10.168 3.99339 10.168 4.26953V5.26953C10.168 5.54567 10.3918 5.76953 10.668 5.76953H14.668C14.9441 5.76953 15.168 5.54567 15.168 5.26953V4.26953C15.168 3.99339 14.9441 3.76953 14.668 3.76953H10.668ZM8.66797 16.2695C8.66797 15.9934 8.89182 15.7695 9.16797 15.7695H16.168C16.4441 15.7695 16.668 15.9934 16.668 16.2695C16.668 16.5457 16.4441 16.7695 16.168 16.7695H9.16797C8.89182 16.7695 8.66797 16.5457 8.66797 16.2695ZM8.66797 19.2695C8.66797 18.9934 8.89182 18.7695 9.16797 18.7695H12.168C12.4441 18.7695 12.668 18.9934 12.668 19.2695C12.668 19.5457 12.4441 19.7695 12.168 19.7695H9.16797C8.89182 19.7695 8.66797 19.5457 8.66797 19.2695Z" fill="white"/>
</g>
</svg>
