<svg width="20" height="20" viewBox="0 0 20 20" fill="none" xmlns="http://www.w3.org/2000/svg">
<g id="Group">
<path id="Vector" d="M15.8333 8.33366H16.6667C16.8877 8.33366 17.0996 8.42146 17.2559 8.57774C17.4122 8.73402 17.5 8.94598 17.5 9.16699V17.5003C17.5 17.7213 17.4122 17.9333 17.2559 18.0896C17.0996 18.2459 16.8877 18.3337 16.6667 18.3337H3.33333C3.11232 18.3337 2.90036 18.2459 2.74408 18.0896C2.5878 17.9333 2.5 17.7213 2.5 17.5003V9.16699C2.5 8.94598 2.5878 8.73402 2.74408 8.57774C2.90036 8.42146 3.11232 8.33366 3.33333 8.33366H4.16667V7.50033C4.16667 6.73428 4.31755 5.97574 4.6107 5.26801C4.90386 4.56027 5.33354 3.91721 5.87521 3.37554C6.41689 2.83386 7.05995 2.40418 7.76768 2.11103C8.47541 1.81788 9.23396 1.66699 10 1.66699C10.766 1.66699 11.5246 1.81788 12.2323 2.11103C12.9401 2.40418 13.5831 2.83386 14.1248 3.37554C14.6665 3.91721 15.0961 4.56027 15.3893 5.26801C15.6825 5.97574 15.8333 6.73428 15.8333 7.50033V8.33366ZM4.16667 10.0003V16.667H15.8333V10.0003H4.16667ZM9.16667 11.667H10.8333V15.0003H9.16667V11.667ZM14.1667 8.33366V7.50033C14.1667 6.39526 13.7277 5.33545 12.9463 4.55405C12.1649 3.77265 11.1051 3.33366 10 3.33366C8.89493 3.33366 7.83512 3.77265 7.05372 4.55405C6.27232 5.33545 5.83333 6.39526 5.83333 7.50033V8.33366H14.1667Z" fill="#3F3F46"/>
</g>
</svg>
