<svg width="21" height="20" viewBox="0 0 21 20" fill="none" xmlns="http://www.w3.org/2000/svg">
<path d="M8 15.8333V10.8333C8 10.3913 7.8244 9.96738 7.51184 9.65482C7.19928 9.34226 6.77536 9.16667 6.33333 9.16667H4.66667C4.22464 9.16667 3.80072 9.34226 3.48816 9.65482C3.17559 9.96738 3 10.3913 3 10.8333V15.8333C3 16.2754 3.17559 16.6993 3.48816 17.0118C3.80072 17.3244 4.22464 17.5 4.66667 17.5H6.33333C6.77536 17.5 7.19928 17.3244 7.51184 17.0118C7.8244 16.6993 8 16.2754 8 15.8333ZM8 15.8333V7.5C8 7.05797 8.17559 6.63405 8.48816 6.32149C8.80072 6.00893 9.22464 5.83333 9.66667 5.83333H11.3333C11.7754 5.83333 12.1993 6.00893 12.5118 6.32149C12.8244 6.63405 13 7.05797 13 7.5V15.8333M8 15.8333C8 16.2754 8.17559 16.6993 8.48816 17.0118C8.80072 17.3244 9.22464 17.5 9.66667 17.5H11.3333C11.7754 17.5 12.1993 17.3244 12.5118 17.0118C12.8244 16.6993 13 16.2754 13 15.8333M13 15.8333V4.16667C13 3.72464 13.1756 3.30072 13.4882 2.98816C13.8007 2.67559 14.2246 2.5 14.6667 2.5H16.3333C16.7754 2.5 17.1993 2.67559 17.5118 2.98816C17.8244 3.30072 18 3.72464 18 4.16667V15.8333C18 16.2754 17.8244 16.6993 17.5118 17.0118C17.1993 17.3244 16.7754 17.5 16.3333 17.5H14.6667C14.2246 17.5 13.8007 17.3244 13.4882 17.0118C13.1756 16.6993 13 16.2754 13 15.8333Z" stroke="#566388" stroke-width="2" stroke-linecap="round" stroke-linejoin="round"/>
</svg>
