<svg width="140" height="107" viewBox="0 0 140 107" fill="none" xmlns="http://www.w3.org/2000/svg">
<g id="Group 1000003795">
<path id="Vector" d="M127.014 27.7369C122.998 16.877 112.107 9.08925 100.575 11.7682C89.7206 14.2914 81.9179 23.9037 71.5618 27.7546C60.7038 31.7919 51.2882 28.9317 41.5045 24.1395C33.0689 20.0092 22.9906 16.6966 15.9483 25.7454C8.31154 35.5581 9.33283 50.5812 13.0931 61.4972C16.8009 72.2591 24.1002 81.1399 33.5413 86.904C52.3585 98.392 78.9074 99.3313 98.8616 88.6653C119.489 77.6413 135.769 51.4107 127.014 27.7369Z" stroke="#EFF7FE" stroke-width="20" stroke-miterlimit="10"/>
<path id="Vector_2" d="M116.863 9.54233C109.506 0.601419 96.6635 -3.18203 86.6487 3.13444C77.2232 9.07896 73.0062 20.7193 64.4867 27.7549C55.5548 35.1311 45.7217 35.518 34.9073 34.2016C25.5858 33.067 14.9758 33.2451 11.2928 44.1038C7.2987 55.8787 13.1926 69.7358 20.326 78.8132C27.3593 87.7627 37.1684 93.7571 47.9781 96.1045C69.5229 100.783 94.9105 92.9591 110.26 76.3367C126.128 59.1533 132.9 29.0336 116.863 9.54233Z" fill="#C8DEF4"/>
<path id="Vector_3" d="M69.5483 22.8451L36.5166 51.2239L37.131 64.066C37.131 65.5962 38.9786 87.3129 40.736 87.3129L71.5795 66.6708L99.3706 85.1926C101.128 85.1926 104.521 65.0124 104.521 63.4806L106.575 51.1941L73.5134 22.8451C72.3532 22.0412 70.7085 22.0412 69.5483 22.8451Z" fill="#211F44"/>
<path id="Vector_4" d="M44.8201 33.0107H98.1148C98.7968 33.0107 99.4509 33.2817 99.9331 33.7639C100.415 34.2462 100.686 34.9002 100.686 35.5822V89.8688C100.686 90.5508 100.415 91.2048 99.9331 91.6871C99.4509 92.1693 98.7968 92.4403 98.1148 92.4403H44.8201C44.1382 92.4403 43.4842 92.1694 43.0021 91.6872C42.5199 91.205 42.249 90.5511 42.249 89.8692V35.5822C42.249 34.9003 42.5199 34.2463 43.0021 33.764C43.4842 33.2818 44.1382 33.0108 44.8201 33.0107Z" fill="white"/>
<path id="Vector_5" d="M59.9026 67.6291H47.516C47.2856 67.6291 47.0646 67.5376 46.9017 67.3748C46.7387 67.2119 46.6471 66.9909 46.647 66.7605V54.3739C46.647 54.1434 46.7385 53.9224 46.9015 53.7594C47.0645 53.5964 47.2855 53.5049 47.516 53.5049H59.9026C60.133 53.505 60.3539 53.5966 60.5168 53.7596C60.6797 53.9225 60.7712 54.1435 60.7712 54.3739V66.7605C60.7712 66.9909 60.6797 67.2118 60.5168 67.3747C60.3539 67.5376 60.133 67.6291 59.9026 67.6291ZM48.3847 65.8914H59.0335V55.243H48.3847V65.8914Z" fill="#C8DEF4"/>
<path id="Vector_6" d="M97.8011 64.2418H66.8838C66.6566 64.237 66.4403 64.1433 66.2812 63.9809C66.1222 63.8185 66.0332 63.6003 66.0332 63.373C66.0332 63.1457 66.1222 62.9274 66.2812 62.765C66.4403 62.6026 66.6566 62.5089 66.8838 62.5041H97.8011C97.9168 62.5016 98.0318 62.5223 98.1393 62.5649C98.2469 62.6074 98.3449 62.671 98.4275 62.752C98.5102 62.8329 98.5759 62.9295 98.6207 63.0361C98.6655 63.1428 98.6886 63.2573 98.6886 63.373C98.6886 63.4886 98.6655 63.6032 98.6207 63.7098C98.5759 63.8164 98.5102 63.9131 98.4275 63.994C98.3449 64.0749 98.2469 64.1385 98.1393 64.1811C98.0318 64.2236 97.9168 64.2443 97.8011 64.2418Z" fill="#749DD3"/>
<path id="Vector_7" d="M52.8644 64.8226H52.8432C52.6871 64.8189 52.5349 64.7732 52.4026 64.6903C52.2702 64.6075 52.1626 64.4905 52.0911 64.3517L50.5762 61.3981C50.4711 61.1931 50.4517 60.9548 50.5223 60.7355C50.5929 60.5161 50.7477 60.3339 50.9527 60.2287C51.1577 60.1236 51.396 60.1042 51.6154 60.1748C51.8347 60.2454 52.0169 60.4002 52.1221 60.6052L52.9068 62.1377L56.0111 56.7492C56.1283 56.5538 56.3175 56.4122 56.538 56.355C56.7586 56.2978 56.9927 56.3294 57.1901 56.4432C57.3876 56.5569 57.5324 56.7436 57.5935 56.9631C57.6547 57.1826 57.6271 57.4172 57.5169 57.6166L53.6158 64.389C53.5394 64.5207 53.4299 64.6301 53.298 64.7062C53.1662 64.7823 53.0166 64.8224 52.8644 64.8226Z" fill="#314982"/>
<path id="Vector_8" d="M82.4252 56.8936H66.8787C66.4028 56.8936 66.0171 57.2792 66.0171 57.755C66.0171 58.2307 66.4028 58.6164 66.8787 58.6164H82.4252C82.9011 58.6164 83.2868 58.2307 83.2868 57.755C83.2868 57.2792 82.9011 56.8936 82.4252 56.8936Z" fill="#C8DEF4"/>
<path id="Vector_9" d="M59.9026 51.5286H47.516C47.4019 51.5286 47.2889 51.5061 47.1835 51.4624C47.078 51.4187 46.9822 51.3547 46.9015 51.274C46.8208 51.1933 46.7568 51.0975 46.7131 50.9921C46.6695 50.8866 46.647 50.7736 46.647 50.6595V38.273C46.6471 38.0425 46.7387 37.8216 46.9017 37.6587C47.0646 37.4958 47.2856 37.4043 47.516 37.4043H59.9026C60.133 37.4043 60.3539 37.4958 60.5168 37.6587C60.6797 37.8216 60.7712 38.0426 60.7712 38.273V50.6595C60.7712 50.8899 60.6797 51.1109 60.5168 51.2739C60.3539 51.4369 60.133 51.5285 59.9026 51.5286ZM48.3847 49.7905H59.0335V39.142H48.3847V49.7905Z" fill="#C8DEF4"/>
<path id="Vector_10" d="M90.4123 42.5307H66.7782C66.358 42.5307 66.0171 42.1419 66.0171 41.662C66.0171 41.1822 66.358 40.793 66.7782 40.793H90.4123C90.8326 40.793 91.1735 41.1822 91.1735 41.662C91.1735 42.1419 90.8333 42.5307 90.4123 42.5307Z" fill="#C8DEF4"/>
<path id="Vector_11" d="M95.9445 48.1401H66.8351C66.3832 48.1401 66.0171 47.7509 66.0171 47.271C66.0171 46.7912 66.3832 46.4023 66.8351 46.4023H95.9445C96.3961 46.4023 96.7626 46.7912 96.7626 47.271C96.7626 47.7509 96.3945 48.1401 95.9445 48.1401Z" fill="#749DD3"/>
<path id="Vector_12" d="M52.8644 48.7216H52.8432C52.6871 48.718 52.5349 48.6724 52.4025 48.5895C52.2701 48.5066 52.1626 48.3896 52.0911 48.2508L50.5762 45.2972C50.5242 45.1957 50.4926 45.0849 50.4833 44.9712C50.4741 44.8575 50.4873 44.7431 50.5223 44.6345C50.5572 44.5259 50.6132 44.4253 50.6871 44.3383C50.7609 44.2514 50.8512 44.1798 50.9527 44.1278C51.0542 44.0757 51.165 44.0442 51.2787 44.0349C51.3924 44.0256 51.5068 44.0389 51.6154 44.0738C51.7239 44.1088 51.8246 44.1648 51.9115 44.2386C51.9985 44.3125 52.07 44.4027 52.1221 44.5042L52.9068 46.0368L56.0111 40.6482C56.0675 40.5482 56.1431 40.4604 56.2337 40.3898C56.3242 40.3192 56.4278 40.2672 56.5386 40.2369C56.6493 40.2066 56.765 40.1985 56.8788 40.2131C56.9927 40.2278 57.1025 40.2648 57.202 40.3222C57.3015 40.3795 57.3886 40.456 57.4584 40.5472C57.5281 40.6383 57.5791 40.7425 57.6084 40.8535C57.6377 40.9645 57.6447 41.0802 57.629 41.1939C57.6133 41.3077 57.5752 41.4172 57.5169 41.5161L53.6158 48.2881C53.5395 48.4198 53.4299 48.5292 53.298 48.6053C53.1662 48.6813 53.0167 48.7215 52.8644 48.7216Z" fill="#314982"/>
<path id="Vector_13" d="M72.2569 72.6868L88.1954 57.0041C92.3814 52.8844 98.3573 50.5322 104.627 50.5322C106.1 50.5322 107.295 51.468 107.295 52.6223V94.5384C107.295 95.6927 105.304 97.4449 103.831 97.4449H94.7732L72.2569 75.2908C71.5036 74.55 71.5036 73.4275 72.2569 72.6868Z" fill="#262F5F"/>
<path id="Vector_14" d="M70.9024 72.6584L54.9639 56.9757C50.7779 52.8561 44.802 50.5039 38.5322 50.5039C37.0598 50.5039 35.8643 51.4397 35.8643 52.594V94.7635C35.8643 95.9174 37.5737 97.4472 39.0462 97.4472L48.3842 97.4186L70.9024 75.2637C71.6558 74.5217 71.6558 73.3992 70.9024 72.6584Z" fill="#262F5F"/>
<path id="Vector_15" d="M107.293 85.9593V94.9987C107.293 96.3499 105.868 97.445 104.112 97.445H39.0473C37.2907 97.445 35.8657 96.3499 35.8657 94.9987V85.9593L69.597 65.3024C70.1463 64.9665 70.8035 64.7888 71.4673 64.7711C72.2053 64.7507 72.9508 64.9281 73.5621 65.3024L107.293 85.9593Z" fill="#2C447D"/>
<path id="Vector_16" d="M77.8966 67.1094L107.294 82.1141V85.9599L77.3677 67.6296L77.8966 67.1094Z" fill="#211F44"/>
<path id="Vector_17" d="M65.2627 67.1094L35.8657 82.1141V85.9599L65.7912 67.6296L65.2627 67.1094Z" fill="#211F44"/>
<path id="Vector_18" d="M54.783 17.0859L47.889 39.4763L46.7842 43.0643L43.6348 40.4065L35.4028 33.4615L54.783 17.0859Z" fill="#2C447D"/>
<path id="Vector_19" d="M54.783 17.0859L30.8303 30.9195L19.9351 27.3087L54.783 17.0859Z" fill="#262F5F"/>
<path id="Vector_20" d="M54.7832 17.0859L35.4034 33.4619L31.6788 40.9088L30.8306 30.9195L54.7832 17.0859Z" fill="#211F44"/>
<path id="Vector_21" d="M62.0203 92.8631C61.9823 92.8632 61.9445 92.8577 61.9081 92.847C61.1081 92.6089 60.3053 92.337 59.5222 92.0356C59.425 91.9984 59.3466 91.9241 59.3042 91.829C59.2618 91.7339 59.2589 91.6259 59.2962 91.5287C59.3334 91.4315 59.4078 91.3531 59.5028 91.3107C59.5979 91.2684 59.7059 91.2655 59.8031 91.3027C60.5674 91.5958 61.3509 91.8622 62.1321 92.0949C62.2223 92.1219 62.2998 92.1804 62.3504 92.2598C62.401 92.3392 62.4214 92.4341 62.4078 92.5273C62.3943 92.6204 62.3477 92.7056 62.2765 92.7673C62.2054 92.8289 62.1144 92.8629 62.0203 92.8631ZM56.6266 90.7181C56.5654 90.7181 56.505 90.7035 56.4504 90.6758C55.705 90.2995 54.9619 89.8911 54.2446 89.4595C54.1998 89.4332 54.1607 89.3983 54.1295 89.3568C54.0982 89.3153 54.0756 89.2681 54.0627 89.2177C54.0499 89.1674 54.0472 89.115 54.0548 89.0637C54.0624 89.0123 54.0801 88.9629 54.1069 88.9184C54.1337 88.874 54.1691 88.8352 54.2109 88.8045C54.2528 88.7738 54.3004 88.7517 54.3508 88.7395C54.4013 88.7273 54.4537 88.7253 54.505 88.7335C54.5563 88.7417 54.6054 88.76 54.6496 88.7874C55.3499 89.2091 56.0746 89.6093 56.8036 89.977C56.8824 90.0167 56.9456 90.0819 56.9828 90.162C57.02 90.2421 57.0291 90.3324 57.0087 90.4183C56.9882 90.5042 56.9393 90.5807 56.87 90.6354C56.8007 90.6901 56.7149 90.7198 56.6266 90.7197V90.7181ZM51.6924 87.6625C51.6075 87.6628 51.5248 87.6352 51.457 87.584C50.7857 87.0822 50.1265 86.5494 49.4952 85.9997C49.431 85.9419 49.3878 85.8643 49.3724 85.7792C49.0041 85.9088 48.6294 86.0197 48.2499 86.1115C48.1998 86.1236 48.1478 86.1258 48.0969 86.1178C48.046 86.1098 47.9972 86.0919 47.9532 86.065C47.9093 86.0382 47.871 86.0029 47.8407 85.9613C47.8103 85.9197 47.7884 85.8724 47.7763 85.8224C47.7642 85.7723 47.7621 85.7203 47.7701 85.6694C47.7781 85.6185 47.796 85.5697 47.8228 85.5257C47.8497 85.4817 47.8849 85.4435 47.9266 85.4131C47.9682 85.3828 48.0154 85.3609 48.0655 85.3488C48.8444 85.1619 49.5994 84.8864 50.3156 84.5276C50.3617 84.504 50.412 84.4897 50.4636 84.4856C50.5152 84.4815 50.5671 84.4876 50.6163 84.5037C50.6655 84.5197 50.711 84.5453 50.7503 84.579C50.7896 84.6128 50.8218 84.6539 50.8451 84.7001C50.8684 84.7464 50.8823 84.7967 50.886 84.8484C50.8898 84.9 50.8833 84.9518 50.8669 85.0009C50.8505 85.05 50.8245 85.0954 50.7905 85.1344C50.7565 85.1735 50.7151 85.2054 50.6688 85.2283C50.4857 85.3207 50.2994 85.4079 50.11 85.49C50.6958 85.9973 51.3071 86.4897 51.9286 86.9547C51.9945 87.0041 52.0431 87.073 52.0677 87.1516C52.0922 87.2302 52.0914 87.3145 52.0654 87.3926C52.0394 87.4708 51.9894 87.5387 51.9226 87.5869C51.8558 87.635 51.7755 87.6609 51.6932 87.6609L51.6924 87.6625ZM44.8604 86.4329H44.8415C43.9884 86.3901 43.1408 86.2711 42.3089 86.0774C42.2576 86.067 42.2088 86.0463 42.1656 86.0168C42.1223 85.9872 42.0854 85.9492 42.0571 85.9052C42.0288 85.8611 42.0095 85.8118 42.0005 85.7602C41.9916 85.7085 41.993 85.6557 42.0048 85.6046C42.0166 85.5535 42.0385 85.5054 42.0692 85.4629C42.0999 85.4205 42.1388 85.3846 42.1836 85.3574C42.2284 85.3303 42.2782 85.3123 42.3301 85.3047C42.3819 85.2971 42.4347 85.3 42.4855 85.3131C43.2717 85.496 44.0726 85.6084 44.8788 85.6489C44.9829 85.6514 45.0817 85.6951 45.1536 85.7704C45.2254 85.8457 45.2644 85.9465 45.2619 86.0505C45.2595 86.1546 45.2158 86.2534 45.1405 86.3252C45.0652 86.3971 44.9644 86.4361 44.8604 86.4336V86.4329ZM39.258 85.0204C39.2028 85.0203 39.1483 85.0087 39.0979 84.9863C38.3268 84.6393 37.5763 84.2481 36.8501 83.8147C36.762 83.7609 36.6986 83.6745 36.6738 83.5743C36.6489 83.4741 36.6646 83.3681 36.7173 83.2793C36.7701 83.1906 36.8557 83.1262 36.9557 83.1002C37.0556 83.0741 37.1617 83.0885 37.2511 83.1402C37.9513 83.558 38.675 83.9352 39.4185 84.2698C39.5005 84.3065 39.5675 84.3702 39.6082 84.4504C39.6489 84.5305 39.6609 84.6222 39.6421 84.7101C39.6233 84.798 39.5749 84.8767 39.505 84.9332C39.4351 84.9897 39.3479 85.0205 39.258 85.0204ZM47.3714 83.7868C47.3171 83.7869 47.2633 83.7757 47.2135 83.7538C47.1638 83.732 47.1191 83.7001 47.0823 83.6601C46.5061 83.0335 45.9792 82.3632 45.5066 81.6552C45.4781 81.6123 45.4583 81.5642 45.4484 81.5136C45.4384 81.463 45.4386 81.411 45.4487 81.3605C45.4589 81.31 45.479 81.262 45.5077 81.2192C45.5364 81.1764 45.5733 81.1397 45.6162 81.1112C45.6592 81.0827 45.7073 81.0629 45.7578 81.053C45.8084 81.043 45.8604 81.0432 45.911 81.0534C45.9615 81.0635 46.0095 81.0836 46.0523 81.1123C46.095 81.1411 46.1317 81.1779 46.1602 81.2209C46.6101 81.8949 47.1118 82.533 47.6606 83.1293C47.7121 83.1854 47.7461 83.2553 47.7586 83.3304C47.771 83.4056 47.7613 83.4827 47.7306 83.5524C47.7 83.6221 47.6497 83.6814 47.5859 83.7231C47.5221 83.7647 47.4476 83.7868 47.3714 83.7868ZM53.139 83.298C53.0628 83.2979 52.9882 83.2756 52.9245 83.2339C52.8607 83.1921 52.8105 83.1327 52.7799 83.0629C52.7494 82.993 52.7399 82.9158 52.7525 82.8407C52.7651 82.7655 52.7993 82.6956 52.851 82.6396C53.095 82.375 53.3206 82.0941 53.5263 81.7988C53.7701 81.4468 53.9803 81.0727 54.154 80.6814C54.175 80.6343 54.2051 80.5918 54.2425 80.5564C54.2799 80.5209 54.3239 80.4932 54.372 80.4748C54.4202 80.4563 54.4715 80.4476 54.523 80.4489C54.5745 80.4503 54.6252 80.4618 54.6723 80.4828C54.7194 80.5038 54.7619 80.5339 54.7973 80.5713C54.8328 80.6087 54.8605 80.6528 54.8789 80.7009C54.8974 80.749 54.9061 80.8003 54.9047 80.8518C54.9034 80.9033 54.8918 80.9541 54.8708 81.0011C54.6769 81.4373 54.4424 81.8542 54.1705 82.2465C53.9443 82.5714 53.6962 82.8806 53.4278 83.1716C53.391 83.2115 53.3463 83.2433 53.2966 83.2651C53.2469 83.2868 53.1933 83.298 53.139 83.298ZM34.3151 81.9887C34.2275 81.9889 34.1423 81.9594 34.0735 81.9051C33.4159 81.3892 32.7724 80.8344 32.1603 80.2572C32.0847 80.1858 32.0405 80.0871 32.0376 79.9831C32.0347 79.8791 32.0732 79.7781 32.1447 79.7025C32.2161 79.6268 32.3148 79.5827 32.4188 79.5797C32.5228 79.5768 32.6238 79.6153 32.6994 79.6868C33.2942 80.249 33.9193 80.7881 34.5576 81.2891C34.6219 81.3395 34.6688 81.4087 34.6919 81.487C34.715 81.5654 34.713 81.649 34.6864 81.7262C34.6597 81.8033 34.6096 81.8703 34.543 81.9176C34.4765 81.9649 34.3968 81.9903 34.3151 81.9903V81.9887ZM44.377 78.8569C44.2931 78.857 44.2114 78.8301 44.1439 78.7804C44.0764 78.7306 44.0267 78.6605 44.0019 78.5803C43.7665 77.8137 43.6461 77.0666 43.6461 76.3596C43.6461 76.2345 43.65 76.1085 43.6574 75.9857C43.6637 75.8816 43.7111 75.7844 43.7891 75.7152C43.8672 75.6461 43.9695 75.6108 44.0735 75.6171C44.1776 75.6234 44.2749 75.6708 44.344 75.7488C44.4131 75.8268 44.4484 75.9291 44.4421 76.0332C44.4355 76.1403 44.4323 76.2502 44.4323 76.3596C44.4323 76.9874 44.5402 77.6575 44.7537 78.3489C44.7689 78.3981 44.7743 78.4499 44.7695 78.5012C44.7647 78.5525 44.7498 78.6024 44.7257 78.648C44.7016 78.6936 44.6688 78.734 44.6291 78.7669C44.5894 78.7998 44.5436 78.8245 44.4943 78.8397C44.4565 78.8512 44.4173 78.857 44.3778 78.8569H44.377ZM55.1886 78.0071C55.0846 78.0071 54.9848 77.9658 54.9112 77.8922C54.8376 77.8186 54.7963 77.7188 54.7963 77.6147C54.7972 76.8274 54.6624 76.0457 54.3977 75.3042C54.3801 75.2557 54.3723 75.2043 54.3747 75.1528C54.3771 75.1014 54.3895 75.0508 54.4114 75.0042C54.4333 74.9575 54.4641 74.9157 54.5022 74.8809C54.5403 74.8462 54.5848 74.8193 54.6333 74.8018C54.6817 74.7843 54.7332 74.7765 54.7846 74.7788C54.8361 74.7812 54.8866 74.7937 54.9333 74.8155C54.9799 74.8374 55.0218 74.8683 55.0565 74.9063C55.0913 74.9444 55.1182 74.9889 55.1357 75.0374C55.4309 75.8635 55.5816 76.7343 55.581 77.6116C55.581 77.7157 55.5397 77.8155 55.4661 77.8891C55.3925 77.9626 55.2927 78.004 55.1886 78.004V78.0071ZM30.1601 77.9416C30.1025 77.9417 30.0455 77.9291 29.9933 77.9047C29.9411 77.8802 29.8949 77.8446 29.858 77.8003C29.3229 77.1561 28.8093 76.4797 28.3318 75.7891C28.3025 75.7467 28.2818 75.6989 28.2709 75.6485C28.2601 75.5981 28.2593 75.546 28.2686 75.4953C28.2778 75.4446 28.297 75.3961 28.325 75.3528C28.353 75.3095 28.3892 75.2721 28.4316 75.2428C28.4741 75.2135 28.5218 75.1928 28.5723 75.1819C28.6227 75.1711 28.6747 75.1703 28.7255 75.1796C28.7762 75.1888 28.8246 75.208 28.868 75.236C28.9113 75.264 28.9487 75.3002 28.978 75.3426C29.4421 76.014 29.9416 76.6719 30.4622 77.2981C30.5098 77.3554 30.5401 77.4251 30.5496 77.499C30.5591 77.5728 30.5473 77.6479 30.5157 77.7153C30.4841 77.7828 30.434 77.8398 30.3711 77.8798C30.3083 77.9198 30.2354 77.9411 30.1609 77.9412L30.1601 77.9416ZM45.2723 73.3809C45.1964 73.3809 45.1221 73.3589 45.0584 73.3175C44.9947 73.2762 44.9444 73.2172 44.9135 73.1478C44.8827 73.0783 44.8727 73.0015 44.8847 72.9265C44.8967 72.8515 44.9303 72.7816 44.9812 72.7253C45.5615 72.0838 46.3344 71.5855 47.2176 71.2842C47.2664 71.2675 47.318 71.2606 47.3694 71.2639C47.4208 71.2672 47.4711 71.2806 47.5173 71.3033C47.5636 71.326 47.6049 71.3576 47.639 71.3963C47.673 71.435 47.6991 71.48 47.7157 71.5288C47.7324 71.5776 47.7392 71.6291 47.7359 71.6806C47.7327 71.732 47.7193 71.7822 47.6966 71.8285C47.6738 71.8748 47.6422 71.9161 47.6036 71.9501C47.5649 71.9842 47.5199 72.0102 47.4711 72.0269C46.7142 72.285 46.0547 72.7084 45.5639 73.2514C45.5271 73.2922 45.4821 73.3248 45.4319 73.3471C45.3816 73.3694 45.3273 73.3809 45.2723 73.3809ZM26.9299 73.1223C26.8586 73.1223 26.7886 73.1029 26.7275 73.0661C26.6664 73.0294 26.6164 72.9766 26.5831 72.9136C26.1907 72.1713 25.825 71.4038 25.5006 70.6329C25.4795 70.5852 25.4682 70.5338 25.4672 70.4818C25.4663 70.4297 25.4757 70.3779 25.4949 70.3295C25.5141 70.2811 25.5428 70.237 25.5793 70.1998C25.6157 70.1626 25.6592 70.133 25.7073 70.1128C25.7553 70.0926 25.8068 70.0822 25.8589 70.0821C25.911 70.082 25.9626 70.0923 26.0107 70.1124C26.0587 70.1324 26.1023 70.1619 26.1389 70.1989C26.1755 70.236 26.2043 70.28 26.2237 70.3284C26.5376 71.0782 26.8934 71.8244 27.2763 72.5464C27.308 72.6061 27.3237 72.6731 27.3218 72.7407C27.32 72.8083 27.3007 72.8743 27.2658 72.9322C27.231 72.9902 27.1817 73.0381 27.1229 73.0714C27.064 73.1048 26.9975 73.1223 26.9299 73.1223ZM52.8687 72.8932C52.7824 72.8933 52.6984 72.8647 52.6301 72.812C52.0416 72.3596 51.3169 72.0316 50.5369 71.8633C50.4866 71.8524 50.4388 71.8317 50.3965 71.8024C50.3541 71.7731 50.3179 71.7357 50.29 71.6924C50.2621 71.6491 50.2429 71.6007 50.2337 71.55C50.2245 71.4993 50.2253 71.4473 50.2362 71.397C50.2471 71.3466 50.2677 71.2989 50.2971 71.2565C50.3264 71.2141 50.3638 71.1779 50.4071 71.15C50.4504 71.1221 50.4987 71.103 50.5494 71.0937C50.6001 71.0845 50.6521 71.0854 50.7025 71.0962C51.5749 71.2797 52.3962 71.653 53.108 72.1897C53.173 72.2397 53.2208 72.3087 53.2445 72.3872C53.2683 72.4657 53.2668 72.5496 53.2404 72.6272C53.214 72.7048 53.164 72.7722 53.0973 72.8199C53.0306 72.8676 52.9507 72.8933 52.8687 72.8932ZM24.761 67.742C24.6757 67.7419 24.5927 67.714 24.5247 67.6626C24.4566 67.6111 24.4072 67.5388 24.3839 67.4568C24.1532 66.6466 23.9586 65.8191 23.806 64.9975C23.7954 64.9464 23.7952 64.8937 23.8053 64.8425C23.8153 64.7913 23.8355 64.7426 23.8646 64.6993C23.8937 64.656 23.9312 64.6189 23.9748 64.5902C24.0184 64.5616 24.0673 64.5419 24.1186 64.5324C24.1699 64.5229 24.2226 64.5237 24.2736 64.5348C24.3246 64.5458 24.3729 64.567 24.4156 64.597C24.4583 64.627 24.4946 64.6652 24.5224 64.7093C24.5502 64.7535 24.5689 64.8028 24.5774 64.8543C24.7257 65.6516 24.9144 66.4551 25.1384 67.2422C25.1551 67.3005 25.1579 67.362 25.1468 67.4217C25.1356 67.4814 25.1108 67.5376 25.0742 67.5861C25.0376 67.6345 24.9903 67.6738 24.9359 67.7009C24.8816 67.728 24.8217 67.742 24.761 67.742ZM23.7911 62.0235C23.6909 62.0237 23.5945 61.9855 23.5215 61.9169C23.4486 61.8482 23.4046 61.7543 23.3987 61.6543C23.3677 61.125 23.3521 60.5863 23.3521 60.0539C23.3521 59.7471 23.3571 59.4355 23.3673 59.1287C23.369 59.0772 23.3809 59.0265 23.4022 58.9795C23.4235 58.9326 23.4538 58.8903 23.4914 58.8551C23.5674 58.7839 23.6686 58.7459 23.7727 58.7493C23.8242 58.751 23.8749 58.7628 23.9218 58.7841C23.9688 58.8054 24.0111 58.8357 24.0463 58.8734C24.0815 58.911 24.109 58.9552 24.1271 59.0035C24.1453 59.0517 24.1538 59.1031 24.1521 59.1546C24.1422 59.4532 24.1371 59.7557 24.1371 60.0539C24.1371 60.5714 24.1524 61.0944 24.1823 61.6084C24.1853 61.6598 24.1782 61.7114 24.1613 61.7601C24.1444 61.8087 24.118 61.8536 24.0838 61.8921C24.0495 61.9307 24.008 61.962 23.9616 61.9845C23.9153 62.007 23.8649 62.0201 23.8135 62.0231L23.7911 62.0235ZM24.0701 56.2292C24.05 56.2294 24.0299 56.2279 24.01 56.2249C23.959 56.2171 23.9101 56.1993 23.866 56.1726C23.8219 56.1459 23.7835 56.1107 23.753 56.0692C23.7225 56.0276 23.7005 55.9804 23.6883 55.9303C23.676 55.8802 23.6738 55.8282 23.6816 55.7772C23.8091 54.9494 23.9751 54.1164 24.1752 53.3015C24.2 53.2004 24.264 53.1133 24.353 53.0594C24.442 53.0054 24.5489 52.9891 24.6499 53.0139C24.751 53.0387 24.8381 53.1027 24.8921 53.1917C24.946 53.2808 24.9624 53.3876 24.9375 53.4887C24.7414 54.2812 24.5813 55.0914 24.4573 55.8965C24.4431 55.9888 24.3965 56.073 24.3258 56.134C24.2551 56.195 24.165 56.2287 24.0716 56.2292H24.0701ZM25.5363 50.6186C25.4728 50.6186 25.4104 50.6032 25.3542 50.5738C25.298 50.5443 25.2498 50.5017 25.2137 50.4496C25.1776 50.3974 25.1547 50.3373 25.1469 50.2744C25.1391 50.2114 25.1467 50.1475 25.169 50.0881C25.4641 49.3011 25.7968 48.5187 26.1597 47.7658C26.2078 47.6774 26.2881 47.6109 26.3839 47.58C26.4797 47.5491 26.5837 47.5562 26.6744 47.5999C26.7651 47.6435 26.8356 47.7203 26.8712 47.8145C26.9069 47.9086 26.905 48.0128 26.866 48.1056C26.5128 48.8389 26.1895 49.5965 25.9027 50.3636C25.8746 50.4377 25.8247 50.5015 25.7595 50.5467C25.6944 50.5919 25.6171 50.6163 25.5378 50.6166L25.5363 50.6186ZM28.1289 45.4294C28.0585 45.4293 27.9894 45.4103 27.9289 45.3744C27.8683 45.3384 27.8186 45.2869 27.7848 45.2251C27.7511 45.1633 27.7346 45.0935 27.7371 45.0232C27.7396 44.9528 27.7609 44.8844 27.799 44.8251C28.2537 44.1154 28.7453 43.4217 29.2601 42.7637C29.325 42.6841 29.4185 42.633 29.5205 42.6216C29.6226 42.6101 29.7251 42.6392 29.806 42.7025C29.8869 42.7657 29.9398 42.8582 29.9533 42.9601C29.9667 43.0619 29.9397 43.165 29.878 43.2471C29.3786 43.8858 28.9015 44.5591 28.4597 45.2481C28.4241 45.3031 28.3754 45.3483 28.3179 45.3796C28.2604 45.4109 28.196 45.4273 28.1305 45.4274L28.1289 45.4294Z" fill="#749DD3"/>
<path id="Vector_22" d="M82.3899 92.4544C82.3669 92.4544 82.344 92.4524 82.3213 92.4485C82.2705 92.4396 82.222 92.4207 82.1786 92.393C82.1351 92.3653 82.0975 92.3293 82.068 92.2871C82.0384 92.2449 82.0175 92.1972 82.0063 92.1469C81.9952 92.0966 81.9941 92.0446 82.0031 91.9938C82.1557 91.1455 82.4085 90.3182 82.756 89.5294C82.798 89.4346 82.8758 89.3603 82.9724 89.3227C83.0691 89.285 83.1767 89.2872 83.2717 89.3287C83.3667 89.3702 83.4415 89.4476 83.4796 89.544C83.5178 89.6405 83.5162 89.7481 83.4752 89.8433C83.1525 90.5752 82.9177 91.3428 82.7756 92.13C82.7597 92.2207 82.7123 92.303 82.6418 92.3623C82.5712 92.4216 82.4821 92.4542 82.3899 92.4544ZM99.7181 89.3133C99.7068 89.3133 99.695 89.3133 99.6832 89.3133C98.7795 89.2258 97.9169 88.8925 97.189 88.3496C97.1071 88.287 97.0531 88.1946 97.0388 88.0925C97.0244 87.9903 97.0509 87.8867 97.1124 87.8039C97.174 87.7211 97.2656 87.6659 97.3676 87.6502C97.4695 87.6344 97.5735 87.6595 97.6571 87.7199C98.2682 88.1766 98.9926 88.4573 99.7519 88.5317C99.8559 88.5362 99.954 88.5818 100.024 88.6585C100.095 88.7353 100.132 88.8369 100.127 88.9409C100.123 89.045 100.077 89.143 100.001 89.2134C99.9238 89.2838 99.8222 89.3209 99.7181 89.3164V89.3133ZM102.643 88.0817C102.57 88.0817 102.498 88.0614 102.436 88.0231C102.374 87.9848 102.324 87.9299 102.292 87.8648C102.259 87.7996 102.245 87.7267 102.252 87.6541C102.259 87.5815 102.285 87.5122 102.329 87.4539C102.732 86.9172 102.945 86.229 102.945 85.4639C102.945 85.4282 102.945 85.3921 102.945 85.3564C102.942 85.2523 102.981 85.1514 103.052 85.0759C103.124 85.0004 103.223 84.9564 103.327 84.9536C103.431 84.9509 103.532 84.9896 103.607 85.0612C103.683 85.1328 103.727 85.2315 103.73 85.3356C103.73 85.3784 103.73 85.4211 103.73 85.4639C103.73 86.4004 103.462 87.2514 102.956 87.9251C102.92 87.9737 102.872 88.0132 102.818 88.0403C102.764 88.0675 102.704 88.0816 102.643 88.0817ZM84.8264 87.2432C84.7529 87.2432 84.6809 87.2224 84.6186 87.1834C84.5563 87.1445 84.5062 87.0887 84.474 87.0226C84.4418 86.9566 84.4288 86.8828 84.4365 86.8097C84.4443 86.7365 84.4724 86.6671 84.5177 86.6092C85.0427 85.9399 85.618 85.3116 86.2385 84.7298C86.3145 84.6595 86.4152 84.622 86.5186 84.6256C86.6221 84.6292 86.7199 84.6736 86.7908 84.749C86.8618 84.8244 86.9 84.9248 86.8972 85.0283C86.8944 85.1318 86.8509 85.23 86.776 85.3015C86.1847 85.8558 85.6364 86.4545 85.136 87.0922C85.0993 87.1392 85.0523 87.1773 84.9987 87.2035C84.945 87.2296 84.8861 87.2432 84.8264 87.2432ZM95.808 85.6373C95.7114 85.6372 95.6182 85.6015 95.5463 85.537C95.4745 85.4725 95.4289 85.3837 95.4184 85.2877C95.3989 85.109 95.3891 84.9293 95.3889 84.7494C95.3933 84.0318 95.5373 83.3219 95.8131 82.6594C95.8526 82.5634 95.9286 82.4871 96.0243 82.447C96.1201 82.407 96.2278 82.4065 96.3239 82.4457C96.42 82.4849 96.4966 82.5605 96.5371 82.6561C96.5775 82.7516 96.5785 82.8593 96.5397 82.9556C96.3024 83.5241 96.178 84.1334 96.1736 84.7494C96.1738 84.9007 96.182 85.0518 96.1984 85.2022C96.2094 85.3054 96.179 85.4088 96.1139 85.4897C96.0488 85.5706 95.9543 85.6224 95.8511 85.6338C95.8368 85.6357 95.8224 85.6369 95.808 85.6373ZM89.1235 83.3672C89.0386 83.3673 88.9561 83.34 88.8881 83.2893C88.8201 83.2386 88.7704 83.1672 88.7464 83.0858C88.7224 83.0045 88.7254 82.9175 88.755 82.838C88.7845 82.7585 88.8391 82.6907 88.9104 82.6449C89.6234 82.1849 90.3665 81.7735 91.1347 81.4133C91.2289 81.3692 91.3369 81.3644 91.4347 81.3999C91.5325 81.4354 91.6122 81.5083 91.6563 81.6026C91.7004 81.6968 91.7052 81.8048 91.6697 81.9026C91.6342 82.0004 91.5613 82.0801 91.467 82.1242C90.7308 82.4692 90.0188 82.8635 89.3357 83.3044C89.2725 83.3453 89.1988 83.367 89.1235 83.3672ZM102.168 82.6959C102.111 82.6959 102.055 82.6837 102.004 82.6601C101.952 82.6364 101.907 82.6019 101.87 82.5589C101.735 82.4021 101.589 82.2562 101.431 82.1226C101 81.7605 100.514 81.4678 99.9924 81.2551C99.898 81.2142 99.8235 81.1378 99.7849 81.0424C99.7463 80.9471 99.7467 80.8404 99.786 80.7453C99.8253 80.6502 99.9004 80.5744 99.995 80.5341C100.09 80.4939 100.196 80.4924 100.292 80.5301C100.89 80.7736 101.446 81.1088 101.94 81.5235C102.129 81.6841 102.306 81.8593 102.467 82.0477C102.516 82.1046 102.548 82.1744 102.558 82.2487C102.569 82.3231 102.558 82.3989 102.526 82.4671C102.495 82.5354 102.445 82.5932 102.382 82.6337C102.319 82.6743 102.245 82.6958 102.17 82.6959H102.168ZM94.4273 81.057C94.3311 81.057 94.2383 81.0217 94.1664 80.9578C94.0946 80.8939 94.0487 80.8058 94.0375 80.7103C94.0263 80.6147 94.0506 80.5185 94.1058 80.4397C94.1609 80.3609 94.2431 80.3051 94.3366 80.2829C94.485 80.2476 94.6341 80.2142 94.78 80.1844C95.4726 80.0403 96.1769 79.9598 96.8842 79.9439C96.9882 79.9418 97.0889 79.9812 97.1639 80.0533C97.239 80.1254 97.2823 80.2243 97.2844 80.3284C97.2865 80.4325 97.2471 80.5331 97.175 80.6081C97.1029 80.6832 97.0039 80.7265 96.8999 80.7286C96.2405 80.7435 95.5838 80.8186 94.9381 80.953C94.8 80.9813 94.6592 81.0127 94.5187 81.046C94.4888 81.0533 94.4581 81.057 94.4273 81.057ZM98.1809 80.5999C98.0983 80.6006 98.0176 80.5751 97.9503 80.5272C97.8829 80.4793 97.8325 80.4114 97.806 80.3331C97.7796 80.2549 97.7785 80.1702 97.803 80.0913C97.8275 80.0124 97.8763 79.9432 97.9424 79.8937C98.2699 79.6435 98.6208 79.4257 98.9903 79.2432C99.4097 79.0391 99.8456 78.8709 100.293 78.7402C100.343 78.7243 100.396 78.7185 100.448 78.7231C100.5 78.7278 100.55 78.7428 100.597 78.7673C100.643 78.7918 100.684 78.8253 100.717 78.8657C100.75 78.9062 100.774 78.9529 100.789 79.003C100.804 79.0532 100.808 79.1058 100.803 79.1577C100.797 79.2097 100.781 79.2599 100.755 79.3055C100.73 79.3512 100.695 79.3912 100.654 79.4233C100.613 79.4555 100.565 79.4791 100.515 79.4927C100.111 79.6109 99.7168 79.763 99.338 79.9474C99.0143 80.1074 98.7068 80.2984 98.4199 80.5175C98.3516 80.5708 98.2675 80.5999 98.1809 80.5999ZM103.681 79.0215C103.577 79.0243 103.476 78.9856 103.4 78.9141C103.325 78.8425 103.281 78.7438 103.278 78.6397C103.275 78.5357 103.314 78.4348 103.385 78.3592C103.457 78.2836 103.556 78.2396 103.66 78.2368C104.12 78.2113 104.584 78.1956 105.033 78.1803L105.229 78.1736C105.599 78.1607 105.883 78.1489 106.15 78.1344C106.202 78.1316 106.253 78.139 106.302 78.1562C106.351 78.1734 106.396 78.2 106.434 78.2344C106.472 78.2689 106.504 78.3106 106.526 78.3572C106.548 78.4037 106.561 78.4542 106.564 78.5057C106.566 78.5573 106.559 78.6088 106.542 78.6575C106.525 78.7061 106.498 78.7509 106.464 78.7893C106.429 78.8277 106.387 78.8589 106.341 78.8812C106.294 78.9034 106.244 78.9163 106.192 78.9191C105.918 78.9336 105.631 78.9461 105.256 78.9583L105.06 78.965C104.615 78.9799 104.155 78.9956 103.703 79.0207L103.681 79.0215ZM109.448 78.4439C109.354 78.444 109.262 78.4098 109.191 78.3477C109.119 78.2856 109.073 78.1997 109.06 78.1059C109.046 78.012 109.068 77.9167 109.119 77.8373C109.171 77.758 109.25 77.7 109.341 77.6741C109.939 77.5091 110.513 77.2652 111.047 76.9487C111.182 76.8662 111.311 76.7745 111.433 76.674C111.473 76.6415 111.519 76.6173 111.568 76.6026C111.617 76.5879 111.669 76.5831 111.721 76.5884C111.772 76.5938 111.822 76.6092 111.867 76.6338C111.912 76.6584 111.952 76.6916 111.985 76.7317C112.017 76.7718 112.041 76.8178 112.056 76.8672C112.071 76.9167 112.075 76.9685 112.07 77.0198C112.065 77.071 112.049 77.1207 112.025 77.166C112 77.2113 111.967 77.2513 111.927 77.2838C111.776 77.4071 111.617 77.5199 111.451 77.6212C110.858 77.973 110.221 78.2444 109.557 78.4282C109.522 78.4377 109.486 78.4423 109.449 78.442L109.448 78.4439ZM113.757 74.801C113.69 74.8011 113.623 74.7835 113.564 74.7499C113.474 74.6986 113.407 74.6135 113.38 74.5132C113.352 74.4129 113.365 74.3057 113.416 74.2152C113.812 73.5175 114.129 72.7779 114.361 72.0102C114.392 71.9105 114.46 71.8269 114.552 71.7777C114.643 71.7285 114.751 71.7178 114.851 71.7479C114.95 71.7779 115.034 71.8464 115.083 71.9381C115.132 72.0298 115.143 72.1373 115.113 72.2369C114.864 73.0604 114.524 73.8536 114.099 74.602C114.065 74.6625 114.015 74.7127 113.955 74.7477C113.895 74.7826 113.827 74.801 113.757 74.801ZM115.191 69.2401C115.088 69.2402 114.989 69.2 114.916 69.1282C114.843 69.0564 114.8 68.9587 114.798 68.856C114.78 68.0556 114.669 67.2599 114.468 66.4851C114.454 66.4348 114.45 66.3822 114.456 66.3303C114.463 66.2785 114.479 66.2284 114.505 66.1831C114.531 66.1378 114.566 66.0982 114.608 66.0665C114.649 66.0349 114.697 66.0119 114.747 65.9988C114.798 65.9857 114.851 65.9829 114.902 65.9905C114.954 65.998 115.004 66.0159 115.048 66.0429C115.093 66.0699 115.132 66.1056 115.163 66.1478C115.193 66.1901 115.215 66.238 115.227 66.2889C115.444 67.1223 115.564 67.9782 115.583 68.8392C115.584 68.8907 115.575 68.9419 115.556 68.9899C115.537 69.0379 115.509 69.0818 115.474 69.1189C115.438 69.1561 115.395 69.1859 115.348 69.2065C115.301 69.2272 115.25 69.2383 115.198 69.2394L115.191 69.2401Z" fill="#749DD3"/>
<path id="Vector_23" d="M109.749 64.3294C114.29 64.3294 117.972 60.6477 117.972 56.1061C117.972 51.5645 114.29 47.8828 109.749 47.8828C105.207 47.8828 101.525 51.5645 101.525 56.1061C101.525 60.6477 105.207 64.3294 109.749 64.3294Z" fill="#749DD3"/>
<path id="Vector_24" d="M112.912 57.1655V55.3073C112.912 54.8919 112.83 54.4806 112.671 54.0969C112.512 53.7131 112.279 53.3644 111.985 53.0707C111.692 52.777 111.343 52.5441 110.959 52.3852C110.575 52.2262 110.164 52.1445 109.749 52.1445C108.91 52.1445 108.105 52.4777 107.512 53.0709C106.919 53.664 106.586 54.4685 106.586 55.3073V57.1655C106.586 58.1762 106.309 58.5622 105.785 59.4266H113.713C113.189 58.5622 112.912 58.1762 112.912 57.1655Z" fill="white"/>
<path id="Vector_25" d="M109.749 61.0387C109.432 61.0385 109.129 60.9127 108.905 60.6888C108.681 60.4649 108.555 60.1613 108.555 59.8447H110.943C110.943 60.1614 110.817 60.4651 110.593 60.689C110.369 60.9129 110.065 61.0387 109.749 61.0387Z" fill="white"/>
<path id="Vector_26" d="M109.749 51.1738C109.557 51.1738 109.37 51.2305 109.21 51.337C109.051 51.4434 108.927 51.5947 108.853 51.7718C108.78 51.9489 108.761 52.1437 108.798 52.3318C108.835 52.5198 108.927 52.6925 109.063 52.8281C109.199 52.9636 109.371 53.056 109.559 53.0934C109.747 53.1308 109.942 53.1117 110.119 53.0383C110.296 52.965 110.448 52.8408 110.554 52.6814C110.661 52.522 110.718 52.3346 110.718 52.1429C110.718 51.886 110.615 51.6395 110.434 51.4578C110.252 51.2761 110.006 51.1739 109.749 51.1738ZM109.749 52.7248C109.634 52.7248 109.521 52.6906 109.425 52.6266C109.33 52.5626 109.255 52.4717 109.211 52.3653C109.167 52.2589 109.155 52.1418 109.178 52.0288C109.2 51.9159 109.256 51.8121 109.337 51.7307C109.419 51.6493 109.522 51.5939 109.635 51.5714C109.748 51.549 109.865 51.5606 109.972 51.6047C110.078 51.6489 110.169 51.7235 110.233 51.8194C110.297 51.9152 110.331 52.0278 110.331 52.1429C110.331 52.2195 110.316 52.2954 110.287 52.3662C110.258 52.437 110.215 52.5013 110.161 52.5555C110.107 52.6097 110.043 52.6527 109.972 52.682C109.901 52.7114 109.825 52.7264 109.749 52.7264V52.7248Z" fill="white"/>
<path id="Vector_27" d="M109.749 66.161C107.422 66.1602 105.168 65.3529 103.37 63.8764C101.572 62.4 100.342 60.3458 99.8889 58.0639C99.4358 55.782 99.7879 53.4136 100.885 51.3623C101.983 49.3109 103.757 47.7035 105.907 46.8139C108.057 45.9244 110.448 45.8077 112.674 46.4838C114.9 47.1599 116.823 48.5869 118.115 50.5217C119.407 52.4566 119.988 54.7794 119.759 57.0946C119.53 59.4097 118.505 61.5739 116.86 63.2183C115.928 64.1546 114.82 64.8968 113.599 65.4019C112.378 65.907 111.07 66.165 109.749 66.161ZM109.749 46.8337C107.604 46.8337 105.525 47.5775 103.867 48.9382C102.209 50.299 101.074 52.1926 100.656 54.2963C100.237 56.4001 100.561 58.5838 101.572 60.4755C102.583 62.3672 104.219 63.8497 106.201 64.6706C108.183 65.4914 110.388 65.5997 112.44 64.977C114.493 64.3544 116.266 63.0393 117.458 61.2558C118.649 59.4723 119.186 57.3308 118.975 55.1962C118.765 53.0616 117.821 51.0659 116.305 49.5492C115.445 48.6859 114.424 48.0015 113.298 47.5356C112.173 47.0698 110.967 46.8317 109.749 46.8353V46.8337Z" fill="#749DD3"/>
<path id="Vector_28" d="M102.344 31.4436C102.267 31.4437 102.191 31.4207 102.126 31.3776C102.062 31.3345 102.011 31.2733 101.982 31.2016C101.952 31.1299 101.944 31.051 101.959 30.9748C101.974 30.8987 102.012 30.8288 102.067 30.7739L104.638 28.2028C104.674 28.1653 104.717 28.1354 104.765 28.1149C104.813 28.0943 104.865 28.0835 104.917 28.083C104.969 28.0826 105.021 28.0925 105.069 28.1122C105.117 28.132 105.161 28.1611 105.198 28.1979C105.234 28.2348 105.264 28.2786 105.283 28.3268C105.303 28.375 105.313 28.4267 105.313 28.4788C105.312 28.5309 105.301 28.5823 105.281 28.6302C105.26 28.6781 105.23 28.7214 105.193 28.7576L102.622 31.3287C102.548 31.4022 102.448 31.4436 102.344 31.4436Z" fill="#262F5F"/>
<path id="Vector_29" d="M102.344 31.5413C102.247 31.5413 102.152 31.5125 102.072 31.4587C101.991 31.4048 101.928 31.3282 101.891 31.2385C101.854 31.1489 101.844 31.0503 101.863 30.9551C101.882 30.86 101.929 30.7726 101.997 30.704L104.568 28.1329C104.66 28.0409 104.785 27.9893 104.915 27.9893C105.045 27.9893 105.17 28.0409 105.262 28.1329C105.354 28.2249 105.406 28.3497 105.406 28.4798C105.406 28.6098 105.354 28.7346 105.262 28.8266L102.69 31.3985C102.645 31.444 102.591 31.48 102.532 31.5045C102.472 31.5291 102.408 31.5415 102.344 31.5413ZM104.915 28.1859C104.837 28.1858 104.762 28.2167 104.707 28.2718L102.136 30.8429C102.108 30.8701 102.085 30.9025 102.07 30.9384C102.054 30.9744 102.046 31.013 102.046 31.052C102.046 31.0911 102.053 31.1299 102.068 31.166C102.083 31.2022 102.105 31.235 102.132 31.2626C102.16 31.2902 102.193 31.3121 102.229 31.3269C102.265 31.3416 102.304 31.3491 102.343 31.3487C102.382 31.3483 102.421 31.3402 102.457 31.3248C102.492 31.3093 102.525 31.2869 102.552 31.2588L105.123 28.6877C105.164 28.6466 105.192 28.5942 105.204 28.5372C105.215 28.4801 105.209 28.421 105.187 28.3673C105.165 28.3135 105.127 28.2676 105.079 28.2353C105.03 28.203 104.973 28.1858 104.915 28.1859Z" fill="#262F5F"/>
<path id="Vector_30" d="M107.842 35.123C107.822 35.1229 107.803 35.1215 107.783 35.1187L103.505 34.4757C103.453 34.4688 103.403 34.4517 103.358 34.4254C103.313 34.3991 103.274 34.3641 103.242 34.3224C103.211 34.2807 103.188 34.2332 103.175 34.1826C103.163 34.132 103.16 34.0794 103.168 34.0278C103.176 33.9763 103.194 33.9268 103.221 33.8822C103.248 33.8377 103.284 33.7991 103.326 33.7686C103.369 33.738 103.417 33.7162 103.467 33.7045C103.518 33.6927 103.571 33.6912 103.622 33.7L107.9 34.3415C107.998 34.3561 108.087 34.4073 108.149 34.4846C108.21 34.562 108.241 34.6599 108.233 34.7586C108.226 34.8574 108.181 34.9497 108.109 35.0171C108.036 35.0844 107.941 35.1219 107.842 35.1219V35.123Z" fill="#262F5F"/>
<path id="Vector_31" d="M107.842 35.2216C107.817 35.2215 107.793 35.2197 107.768 35.2161L103.489 34.5734C103.361 34.554 103.245 34.4844 103.168 34.3797C103.09 34.275 103.058 34.1439 103.077 34.0153C103.097 33.8866 103.166 33.7709 103.271 33.6936C103.376 33.6163 103.507 33.5838 103.635 33.6031L107.914 34.2462C108.037 34.2646 108.147 34.3286 108.225 34.4253C108.302 34.522 108.339 34.6442 108.33 34.7675C108.321 34.8908 108.266 35.0062 108.175 35.0904C108.084 35.1745 107.965 35.2214 107.842 35.2216ZM103.562 33.7926C103.488 33.7931 103.417 33.8214 103.363 33.8719C103.309 33.9223 103.276 33.9913 103.271 34.065C103.265 34.1388 103.288 34.2119 103.334 34.2698C103.38 34.3277 103.446 34.3662 103.519 34.3776L107.798 35.0207C107.812 35.0227 107.827 35.0238 107.842 35.0238C107.916 35.0239 107.988 34.9958 108.042 34.9452C108.097 34.8947 108.13 34.8253 108.136 34.7512C108.141 34.677 108.118 34.6036 108.072 34.5456C108.025 34.4875 107.958 34.4493 107.885 34.4384L103.608 33.7958C103.593 33.7935 103.578 33.7924 103.562 33.7926Z" fill="#262F5F"/>
<path id="Vector_32" d="M99.3072 30.2248C99.2133 30.2247 99.1225 30.1909 99.0514 30.1295C98.9802 30.0682 98.9335 29.9834 98.9196 29.8905L98.2769 25.6115C98.2613 25.5086 98.2872 25.4037 98.3489 25.3199C98.4107 25.2361 98.5032 25.1802 98.6061 25.1646C98.709 25.149 98.8139 25.1749 98.8977 25.2366C98.9815 25.2984 99.0374 25.3909 99.053 25.4938L99.6956 29.7728C99.7111 29.8756 99.685 29.9804 99.6232 30.064C99.5614 30.1477 99.4689 30.2034 99.3661 30.2189C99.3466 30.2224 99.327 30.2243 99.3072 30.2248Z" fill="#262F5F"/>
<path id="Vector_33" d="M99.3071 30.3237C99.1899 30.323 99.0767 30.2805 98.9879 30.204C98.8991 30.1274 98.8405 30.0217 98.8226 29.9058L98.1811 25.6268C98.164 25.4992 98.1978 25.37 98.2751 25.2671C98.3524 25.1642 98.4671 25.0958 98.5944 25.0767C98.7217 25.0576 98.8514 25.0893 98.9555 25.165C99.0597 25.2407 99.1299 25.3543 99.151 25.4813L99.7937 29.7602C99.8128 29.8888 99.7802 30.0197 99.703 30.1243C99.6257 30.2289 99.5102 30.2986 99.3817 30.3182C99.357 30.3218 99.3321 30.3236 99.3071 30.3237ZM98.6653 25.26C98.6504 25.2599 98.6356 25.2609 98.6209 25.2631C98.5438 25.2748 98.4745 25.3166 98.4282 25.3794C98.3818 25.4421 98.3623 25.5206 98.3737 25.5978L99.0164 29.8768C99.0272 29.9463 99.0624 30.0097 99.1157 30.0556C99.1689 30.1015 99.2368 30.127 99.3071 30.1275C99.3219 30.1275 99.3366 30.1263 99.3511 30.124C99.4283 30.1123 99.4977 30.0706 99.5441 30.0078C99.5905 29.9451 99.6101 29.8665 99.5987 29.7893L98.9556 25.5103C98.945 25.4408 98.9099 25.3774 98.8567 25.3315C98.8035 25.2856 98.7356 25.2602 98.6653 25.26Z" fill="#262F5F"/>
</g>
</svg>
