<svg width="21" height="20" viewBox="0 0 21 20" fill="none" xmlns="http://www.w3.org/2000/svg">
<g opacity="0.87">
<path fill-rule="evenodd" clip-rule="evenodd" d="M7.79303 14.7074C7.60556 14.5199 7.50024 14.2656 7.50024 14.0004C7.50024 13.7352 7.60556 13.4809 7.79303 13.2934L11.086 10.0004L7.79303 6.70741C7.61087 6.5188 7.51008 6.2662 7.51236 6.00401C7.51463 5.74181 7.6198 5.491 7.80521 5.30559C7.99062 5.12018 8.24143 5.01501 8.50363 5.01273C8.76583 5.01045 9.01843 5.11125 9.20703 5.29341L13.207 9.29341C13.3945 9.48094 13.4998 9.73524 13.4998 10.0004C13.4998 10.2656 13.3945 10.5199 13.207 10.7074L9.20703 14.7074C9.0195 14.8949 8.76519 15.0002 8.50003 15.0002C8.23487 15.0002 7.98056 14.8949 7.79303 14.7074Z" fill="#566388"/>
</g>
</svg>
