<svg width="21" height="20" viewBox="0 0 21 20" fill="none" xmlns="http://www.w3.org/2000/svg">
<g opacity="0.87">
<path fill-rule="evenodd" clip-rule="evenodd" d="M7.79279 14.7074C7.60532 14.5199 7.5 14.2656 7.5 14.0004C7.5 13.7352 7.60532 13.4809 7.79279 13.2934L11.0858 10.0004L7.79279 6.70741C7.61063 6.5188 7.50983 6.2662 7.51211 6.00401C7.51439 5.74181 7.61956 5.491 7.80497 5.30559C7.99038 5.12018 8.24119 5.01501 8.50339 5.01273C8.76558 5.01045 9.01818 5.11125 9.20679 5.29341L13.2068 9.29341C13.3943 9.48094 13.4996 9.73524 13.4996 10.0004C13.4996 10.2656 13.3943 10.5199 13.2068 10.7074L9.20679 14.7074C9.01926 14.8949 8.76495 15.0002 8.49979 15.0002C8.23462 15.0002 7.98031 14.8949 7.79279 14.7074Z" fill="#566388"/>
</g>
</svg>
