<svg width="21" height="20" viewBox="0 0 21 20" fill="none" xmlns="http://www.w3.org/2000/svg">
<g opacity="0.87">
<path fill-rule="evenodd" clip-rule="evenodd" d="M7.79279 14.7064C7.60532 14.5189 7.5 14.2646 7.5 13.9994C7.5 13.7343 7.60532 13.48 7.79279 13.2924L11.0858 9.99943L7.79279 6.70643C7.61063 6.51783 7.50983 6.26523 7.51211 6.00303C7.51439 5.74083 7.61956 5.49002 7.80497 5.30461C7.99038 5.1192 8.24119 5.01403 8.50339 5.01176C8.76558 5.00948 9.01818 5.11027 9.20679 5.29243L13.2068 9.29243C13.3943 9.47996 13.4996 9.73427 13.4996 9.99943C13.4996 10.2646 13.3943 10.5189 13.2068 10.7064L9.20679 14.7064C9.01926 14.8939 8.76495 14.9992 8.49979 14.9992C8.23462 14.9992 7.98031 14.8939 7.79279 14.7064Z" fill="#566388"/>
</g>
</svg>
