<svg width="21" height="20" viewBox="0 0 21 20" fill="none" xmlns="http://www.w3.org/2000/svg">
<g opacity="0.87">
<path fill-rule="evenodd" clip-rule="evenodd" d="M7.79303 14.7064C7.60556 14.5189 7.50024 14.2646 7.50024 13.9994C7.50024 13.7343 7.60556 13.48 7.79303 13.2924L11.086 9.99943L7.79303 6.70643C7.61087 6.51783 7.51008 6.26523 7.51236 6.00303C7.51463 5.74083 7.6198 5.49002 7.80521 5.30461C7.99062 5.1192 8.24143 5.01403 8.50363 5.01176C8.76583 5.00948 9.01843 5.11027 9.20703 5.29243L13.207 9.29243C13.3945 9.47996 13.4998 9.73427 13.4998 9.99943C13.4998 10.2646 13.3945 10.5189 13.207 10.7064L9.20703 14.7064C9.0195 14.8939 8.76519 14.9992 8.50003 14.9992C8.23487 14.9992 7.98056 14.8939 7.79303 14.7064Z" fill="#566388"/>
</g>
</svg>
