<svg width="24" height="24" viewBox="0 0 24 24" fill="none" xmlns="http://www.w3.org/2000/svg">
<g id="close">
<path id="close_2" d="M6.2253 4.81145C5.83477 4.42092 5.20161 4.42092 4.81108 4.81145C4.42056 5.20197 4.42056 5.83514 4.81108 6.22566L10.5858 12.0004L4.81114 17.7751C4.42062 18.1656 4.42062 18.7988 4.81114 19.1893C5.20167 19.5798 5.83483 19.5798 6.22535 19.1893L12 13.4146L17.7747 19.1893C18.1652 19.5798 18.7984 19.5798 19.1889 19.1893C19.5794 18.7988 19.5794 18.1656 19.1889 17.7751L13.4142 12.0004L19.189 6.22566C19.5795 5.83514 19.5795 5.20197 19.189 4.81145C18.7985 4.42092 18.1653 4.42092 17.7748 4.81145L12 10.5862L6.2253 4.81145Z" fill="black"/>
</g>
</svg>
