<svg width="12" height="12" viewBox="0 0 12 12" fill="none" xmlns="http://www.w3.org/2000/svg">
<path id="Combined Shape" fill-rule="evenodd" clip-rule="evenodd" d="M6.00016 0C5.35214 0 4.82682 0.525318 4.82682 1.17333V4.82667H1.16512C0.522133 4.82667 0 5.35233 0 6.00001C0 6.65355 0.522133 7.17334 1.16512 7.17334H4.82682V10.8267C4.82682 11.4747 5.35214 12 6.00016 12C6.64817 12 7.17349 11.4747 7.17349 10.8267V7.17334H10.8349C11.4779 7.17334 12 6.64769 12 6.00001C12 5.34763 11.4779 4.82667 10.8349 4.82667H7.17349V1.17333C7.17349 0.525319 6.64817 0 6.00016 0Z" fill="#1F489F"/>
</svg>
