<svg width="18" height="19" viewBox="0 0 18 19" fill="none" xmlns="http://www.w3.org/2000/svg">
<path fill-rule="evenodd" clip-rule="evenodd" d="M9 0.683594C8.44772 0.683594 8 1.13131 8 1.68359V8.68359H0.993C0.445 8.68359 0 9.13159 0 9.68359C0 10.2406 0.445 10.6836 0.993 10.6836H8V17.6836C8 18.2359 8.44772 18.6836 9 18.6836C9.55229 18.6836 10 18.2359 10 17.6836V10.6836H17.007C17.555 10.6836 18 10.2356 18 9.68359C18 9.12759 17.555 8.68359 17.007 8.68359H10V1.68359C10 1.13131 9.55229 0.683594 9 0.683594Z" fill="white"/>
</svg>
