<svg width="21" height="20" viewBox="0 0 21 20" fill="none" xmlns="http://www.w3.org/2000/svg">
<path d="M19.0253 5H7.93006C7.64556 5 7.43693 5.22759 7.43693 5.49312V9.17256L8.40421 8.33805L8.42318 8.31908V6.00521H18.5321V14.54H8.42318V12.6244C8.10075 12.7572 7.77833 12.833 7.41797 12.871V15.0521C7.41797 15.3366 7.64556 15.5452 7.91109 15.5452H19.0063C19.2908 15.5452 19.4994 15.3176 19.4994 15.0521V5.51209C19.5184 5.22759 19.2908 5 19.0253 5Z" fill="#677394"/>
<path d="M10.1106 10.386C10.5279 10.0256 10.5469 9.38075 10.1106 9.02039C9.76925 8.7359 9.25716 8.75486 8.91577 9.05832L7.81573 9.98767C7.45538 10.2911 6.96226 10.348 6.545 10.1584L5.90015 9.87387C5.50186 9.70317 5.08461 9.60834 4.64838 9.60834H2.82763C2.08795 9.60834 1.5 10.1963 1.5 10.936V14.9568C1.5 15.2792 1.76553 15.5637 2.10692 15.5637H5.06564C5.38806 15.5637 5.67256 15.2982 5.67256 14.9568V11.7326L5.80532 11.7895C6.86743 12.2636 8.10023 12.0929 8.97267 11.3532L10.1106 10.386Z" fill="#677394"/>
<path d="M3.58617 9.07762C4.68602 9.07762 5.57762 8.18602 5.57762 7.08617C5.57762 5.98633 4.68602 5.09473 3.58617 5.09473C2.48633 5.09473 1.59473 5.98633 1.59473 7.08617C1.59473 8.18602 2.48633 9.07762 3.58617 9.07762Z" fill="#677394"/>
<path d="M14.1693 8.43294H16.6349C16.9194 8.43294 17.128 8.20535 17.128 7.93982C17.128 7.67429 16.9004 7.42773 16.6159 7.42773H14.1503C13.8659 7.42773 13.6572 7.65533 13.6572 7.92085C13.6572 8.18638 13.8848 8.43294 14.1693 8.43294Z" fill="#677394"/>
<path d="M14.1699 10.7655H16.6355C16.92 10.7655 17.1286 10.5379 17.1286 10.2724C17.1286 10.0069 16.901 9.7793 16.6355 9.7793H14.1699C13.8854 9.7793 13.6768 10.0069 13.6768 10.2724C13.6768 10.5379 13.8854 10.7655 14.1699 10.7655Z" fill="#677394"/>
<path d="M14.169 13.1181H16.6346C16.9191 13.1181 17.1278 12.8905 17.1278 12.625C17.1278 12.3405 16.9002 12.1318 16.6346 12.1318H14.169C13.8845 12.1318 13.6759 12.3594 13.6759 12.625C13.6569 12.8905 13.8845 13.1181 14.169 13.1181Z" fill="#677394"/>
<path d="M11.9121 8.43294H12.4052C12.6897 8.43294 12.8983 8.20535 12.8983 7.93982C12.8983 7.67429 12.6707 7.42773 12.4052 7.42773H11.9121C11.6276 7.42773 11.4189 7.65533 11.4189 7.92085C11.4189 8.18638 11.6465 8.43294 11.9121 8.43294Z" fill="#677394"/>
<path d="M11.9121 10.7655H12.4052C12.6897 10.7655 12.8983 10.5379 12.8983 10.2724C12.8983 10.0069 12.6707 9.7793 12.4052 9.7793H11.9121C11.6276 9.7793 11.4189 10.0069 11.4189 10.2724C11.4189 10.5379 11.6465 10.7655 11.9121 10.7655Z" fill="#677394"/>
<path d="M11.9121 13.1181H12.4052C12.6897 13.1181 12.8983 12.8905 12.8983 12.625C12.8983 12.3405 12.6707 12.1318 12.4052 12.1318H11.9121C11.6276 12.1318 11.4189 12.3594 11.4189 12.625C11.4189 12.8905 11.6465 13.1181 11.9121 13.1181Z" fill="#677394"/>
</svg>
