<svg width="21" height="20" viewBox="0 0 21 20" fill="none" xmlns="http://www.w3.org/2000/svg">
<path d="M19.025 5H7.92981C7.64532 5 7.43669 5.22759 7.43669 5.49312V9.17256L8.40397 8.33805L8.42293 8.31908V6.00521H18.5319V14.54H8.42293V12.6244C8.10051 12.7572 7.77808 12.833 7.41772 12.871V15.0521C7.41772 15.3366 7.64532 15.5452 7.91084 15.5452H19.0061C19.2905 15.5452 19.4992 15.3176 19.4992 15.0521V5.51209C19.5181 5.22759 19.2905 5 19.025 5Z" fill="#677394"/>
<path d="M10.1106 10.386C10.5279 10.0256 10.5469 9.38075 10.1106 9.02039C9.76925 8.7359 9.25716 8.75486 8.91577 9.05832L7.81573 9.98767C7.45538 10.2911 6.96226 10.348 6.545 10.1584L5.90015 9.87387C5.50186 9.70317 5.08461 9.60834 4.64838 9.60834H2.82763C2.08795 9.60834 1.5 10.1963 1.5 10.936V14.9568C1.5 15.2792 1.76553 15.5637 2.10692 15.5637H5.06564C5.38806 15.5637 5.67256 15.2982 5.67256 14.9568V11.7326L5.80532 11.7895C6.86743 12.2636 8.10023 12.0929 8.97267 11.3532L10.1106 10.386Z" fill="#677394"/>
<path d="M3.58642 9.07762C4.68626 9.07762 5.57787 8.18602 5.57787 7.08617C5.57787 5.98633 4.68626 5.09473 3.58642 5.09473C2.48657 5.09473 1.59497 5.98633 1.59497 7.08617C1.59497 8.18602 2.48657 9.07762 3.58642 9.07762Z" fill="#677394"/>
<path d="M14.1696 8.43294H16.6352C16.9197 8.43294 17.1283 8.20535 17.1283 7.93982C17.1283 7.67429 16.9007 7.42773 16.6162 7.42773H14.1506C13.8661 7.42773 13.6575 7.65533 13.6575 7.92085C13.6575 8.18638 13.8851 8.43294 14.1696 8.43294Z" fill="#677394"/>
<path d="M14.1694 10.7655H16.635C16.9195 10.7655 17.1281 10.5379 17.1281 10.2724C17.1281 10.0069 16.9005 9.7793 16.635 9.7793H14.1694C13.8849 9.7793 13.6763 10.0069 13.6763 10.2724C13.6763 10.5379 13.8849 10.7655 14.1694 10.7655Z" fill="#677394"/>
<path d="M14.1693 13.1181H16.6349C16.9194 13.1181 17.128 12.8905 17.128 12.625C17.128 12.3405 16.9004 12.1318 16.6349 12.1318H14.1693C13.8848 12.1318 13.6762 12.3594 13.6762 12.625C13.6572 12.8905 13.8848 13.1181 14.1693 13.1181Z" fill="#677394"/>
<path d="M11.9126 8.43294H12.4057C12.6902 8.43294 12.8988 8.20535 12.8988 7.93982C12.8988 7.67429 12.6712 7.42773 12.4057 7.42773H11.9126C11.6281 7.42773 11.4194 7.65533 11.4194 7.92085C11.4194 8.18638 11.647 8.43294 11.9126 8.43294Z" fill="#677394"/>
<path d="M11.9126 10.7655H12.4057C12.6902 10.7655 12.8988 10.5379 12.8988 10.2724C12.8988 10.0069 12.6712 9.7793 12.4057 9.7793H11.9126C11.6281 9.7793 11.4194 10.0069 11.4194 10.2724C11.4194 10.5379 11.647 10.7655 11.9126 10.7655Z" fill="#677394"/>
<path d="M11.9126 13.1181H12.4057C12.6902 13.1181 12.8988 12.8905 12.8988 12.625C12.8988 12.3405 12.6712 12.1318 12.4057 12.1318H11.9126C11.6281 12.1318 11.4194 12.3594 11.4194 12.625C11.4194 12.8905 11.647 13.1181 11.9126 13.1181Z" fill="#677394"/>
</svg>
