<svg width="18" height="20" viewBox="0 0 18 20" fill="none" xmlns="http://www.w3.org/2000/svg">
<path d="M17.1687 16.8485V7.50739C17.1687 7.37731 17.0965 7.25803 16.981 7.19806L11.8677 4.53485C11.7596 4.47853 11.63 4.48268 11.5257 4.54598C11.4215 4.60927 11.3577 4.72224 11.3577 4.84418V8.21907H14.5687V9.14939H11.3576V11.166H14.5685V12.0964L11.3576 12.0965V14.113H14.5685V15.0433H11.3576V16.8483H10.4272V1.06151C10.4272 0.752014 10.1755 0.5 9.86606 0.5H1.393C1.0835 0.5 0.831485 0.751853 0.831485 1.06151V16.8483H0V17.7786H18V16.8483L17.1687 16.8485ZM6.64747 3.22344H7.5778V4.9394H6.64747V3.22344ZM6.64747 6.648H7.5778V8.36397H6.64747V6.648ZM6.64747 10.0724H7.5778V11.7884H6.64747V10.0724ZM3.68158 3.22356H4.61191V4.93953H3.68158V3.22356ZM3.68158 6.64813H4.61191V8.36409H3.68158V6.64813ZM3.68158 10.0726H4.61191V11.7885H3.68158V10.0726ZM7.69411 16.8487H3.56531V14.2607C3.56531 14.1277 3.67346 14.0195 3.80653 14.0195H7.45289C7.58595 14.0195 7.69411 14.1277 7.69411 14.2607L7.69411 16.8487Z" fill="#515667"/>
</svg>
