<svg width="21" height="20" viewBox="0 0 21 20" fill="none" xmlns="http://www.w3.org/2000/svg">
<path d="M7.36104 8.6698L15.4251 17.6634C15.8019 18.0904 16.4551 18.0904 16.857 17.7136L18.2136 16.357C18.6155 15.9551 18.5904 15.3019 18.1634 14.9251L9.1698 6.86104C9.72248 5.57984 9.47126 4.04742 8.44127 3.01743C7.53689 2.11305 6.28081 1.81159 5.12521 2.11305C4.97448 2.13817 4.92424 2.31402 5.02473 2.41451L7.10983 4.49961L4.99961 6.60983L2.91451 4.52473C2.81402 4.42424 2.63817 4.47448 2.61305 4.62521C2.31159 5.78081 2.61305 7.03689 3.51743 7.94127C4.54742 8.97126 6.10496 9.22248 7.36104 8.6698Z" stroke="#566388" stroke-width="1.5"/>
<path d="M8.06413 10.7051L10.2748 13.167L5.92879 17.513C5.42636 18.0155 4.72295 18.116 4.12003 17.8648C3.91906 17.7894 3.74321 17.6638 3.59248 17.513C3.44175 17.3623 3.31614 17.1865 3.24077 16.9855C2.98956 16.3826 3.09004 15.654 3.59248 15.1767L8.06413 10.7051Z" stroke="#566388" stroke-width="1.5"/>
<path d="M17.9118 4.34896L15.9524 6.836L15.1987 7.06209L15.048 6.93649L12.8875 9.09695L11.958 8.26793L14.1687 6.05723L14.018 5.9065L14.2692 5.15285L16.7311 3.19336L17.9118 4.34896Z" stroke="#566388" stroke-width="1.5"/>
</svg>
