<svg width="124" height="124" viewBox="0 0 124 124" fill="none" xmlns="http://www.w3.org/2000/svg">
<path id="Ellipse 1041 (Stroke)" fill-rule="evenodd" clip-rule="evenodd" d="M123.993 62.9403L110.641 62.7418C110.644 62.4951 110.646 62.2478 110.646 62C110.646 61.7522 110.644 61.5049 110.641 61.2582L123.993 61.0597C123.998 61.3726 124 61.686 124 62C124 62.314 123.998 62.6275 123.993 62.9403ZM123.937 59.1893L110.597 59.7845C110.575 59.2914 110.546 58.8005 110.509 58.3119L123.826 57.3175C123.872 57.9389 123.909 58.5629 123.937 59.1893ZM123.659 55.455L110.378 56.8484C110.326 56.3588 110.268 55.8716 110.202 55.3869L123.435 53.5931C123.519 54.2109 123.593 54.8316 123.659 55.455ZM123.155 51.7417C123.053 51.1246 122.941 50.5107 122.82 49.9L109.72 52.4915C109.815 52.97 109.902 53.4512 109.983 53.9349L123.155 51.7417ZM122.428 48.067L109.413 51.0556C109.304 50.5785 109.187 50.1042 109.064 49.6327L121.982 46.2499C122.139 46.852 122.288 47.4578 122.428 48.067ZM121.479 44.4442L108.67 48.219C108.532 47.7493 108.386 47.2826 108.234 46.819L120.923 42.656C121.117 43.2482 121.303 43.8443 121.479 44.4442ZM120.312 40.8865L107.756 45.4336C107.59 44.973 107.416 44.5155 107.236 44.0614L119.647 39.1342C119.877 39.714 120.099 40.2982 120.312 40.8865ZM118.93 37.4048L106.674 42.7069C106.48 42.2575 106.278 41.8114 106.071 41.369L118.16 35.6971C118.425 36.2617 118.682 36.831 118.93 37.4048ZM117.339 34.0134L105.427 40.0495C105.206 39.6128 104.978 39.1797 104.744 38.7505L116.468 32.3566C116.766 32.9039 117.057 33.4563 117.339 34.0134ZM115.546 30.7253L104.021 37.4711C103.773 37.0482 103.52 36.6292 103.26 36.2144L114.575 29.1235C114.907 29.6521 115.23 30.1861 115.546 30.7253ZM113.557 27.5518L102.46 34.9808C102.188 34.5732 101.909 34.17 101.624 33.7711L112.492 26.011C112.854 26.5189 113.209 27.0326 113.557 27.5518ZM111.38 24.5035L100.751 32.5871C100.454 32.1966 100.151 31.8107 99.843 31.4294L110.224 23.0298C110.617 23.515 111.002 24.0063 111.38 24.5035ZM109.024 21.5916L98.9002 30.2994C98.5802 29.9274 98.2547 29.5602 97.9238 29.1981L107.782 20.1902C108.203 20.651 108.617 21.1182 109.024 21.5916ZM106.498 18.8265L96.9146 28.1263C96.5728 27.7742 96.2258 27.4272 95.8737 27.0854L105.173 17.5022C105.622 17.937 106.063 18.3785 106.498 18.8265ZM103.81 16.218L94.8019 26.0762C94.4398 25.7453 94.0726 25.4198 93.7006 25.0998L102.408 14.9756C102.882 15.3828 103.349 15.797 103.81 16.218ZM100.97 13.7757L92.5706 24.157C92.1893 23.8486 91.8034 23.5458 91.4129 23.2488L99.4965 12.6196C99.9937 12.9977 100.485 13.3831 100.97 13.7757ZM97.989 11.5085L90.2289 22.3762C89.83 22.0913 89.4267 21.8124 89.0192 21.5396L96.4482 10.4429C96.9674 10.7905 97.481 11.1458 97.989 11.5085ZM94.8765 9.42473L87.7856 20.7404C87.3708 20.4804 86.9518 20.2266 86.5289 19.979L93.2747 8.45434C93.8139 8.76995 94.3479 9.09346 94.8765 9.42473ZM91.6434 7.53236L85.2495 19.2559C84.8203 19.0219 84.3872 18.7941 83.9505 18.5728L89.9866 6.66099C90.5437 6.94333 91.0961 7.23384 91.6434 7.53236ZM88.3029 5.83969L82.631 17.9291C82.1886 17.7215 81.7426 17.5205 81.2931 17.326L86.5952 5.06991C87.169 5.31814 87.7383 5.57478 88.3029 5.83969ZM84.8658 4.35275L79.9386 16.7643C79.4845 16.5841 79.0271 16.4105 78.5664 16.2436L83.1135 3.68781C83.7018 3.90086 84.286 4.12256 84.8658 4.35275ZM81.344 3.07727L77.181 15.7656C76.7174 15.6135 76.2507 15.4682 75.7811 15.3298L79.5558 2.52058C80.1557 2.69736 80.7519 2.88298 81.344 3.07727ZM77.7502 2.01822L74.3673 14.9365C73.8958 14.813 73.4215 14.6964 72.9444 14.5869L75.9331 1.57179C76.5422 1.71167 77.148 1.86053 77.7502 2.01822ZM74.1001 1.18012L71.5085 14.2801C71.03 14.1854 70.5488 14.0978 70.0651 14.0172L72.2584 0.844707C72.8754 0.947446 73.4893 1.0593 74.1001 1.18012ZM70.407 0.565163L68.6131 13.798C68.1284 13.7323 67.6412 13.6737 67.1516 13.6223L68.5451 0.341358C69.1685 0.406767 69.7892 0.481415 70.407 0.565163ZM66.6826 0.174172L65.6882 13.4909C65.1996 13.4545 64.7087 13.4252 64.2155 13.4031L64.8107 0.0625756C65.4371 0.0905241 66.0611 0.127768 66.6826 0.174172ZM62.9403 0.00698626L62.7418 13.3594C62.4951 13.3557 62.2478 13.3538 62 13.3538C61.7522 13.3538 61.5049 13.3557 61.2582 13.3594L61.0597 0.00698537C61.3726 0.00233392 61.686 0 62 0C62.314 0 62.6275 0.00233422 62.9403 0.00698626ZM59.1893 0.062573L59.7845 13.4031C59.2914 13.4252 58.8005 13.4545 58.3119 13.4909L57.3175 0.174168C57.9389 0.127764 58.5629 0.090521 59.1893 0.062573ZM0.565163 53.593L13.798 55.3869C13.7323 55.8716 13.6737 56.3588 13.6223 56.8484L0.341357 55.4549C0.406767 54.8315 0.481415 54.2108 0.565163 53.593ZM0.174172 57.3174L13.4909 58.3118C13.4545 58.8004 13.4252 59.2913 13.4031 59.7845L0.0625755 59.1893C0.090524 58.5629 0.127768 57.9389 0.174172 57.3174ZM0.00698626 61.0597C0.00233422 61.3725 0 61.686 0 62C0 62.314 0.00233393 62.6274 0.0069854 62.9403L13.3594 62.7418C13.3557 62.4951 13.3538 62.2478 13.3538 62C13.3538 61.7522 13.3557 61.5049 13.3594 61.2582L0.00698626 61.0597ZM0.062573 64.8107L13.4031 64.2155C13.4252 64.7086 13.4545 65.1995 13.4909 65.6881L0.174169 66.6825C0.127764 66.0611 0.090521 65.4371 0.062573 64.8107ZM0.341352 68.545L13.6223 67.1516C13.6737 67.6412 13.7323 68.1284 13.798 68.6131L0.565156 70.4069C0.481409 69.7891 0.406761 69.1684 0.341352 68.545ZM0.8447 72.2583L14.0172 70.0651C14.0977 70.5488 14.1854 71.03 14.2801 71.5085L1.18011 74.1C1.05929 73.4893 0.947439 72.8754 0.8447 72.2583ZM1.57178 75.933L14.5869 72.9444C14.6964 73.4215 14.813 73.8958 14.9365 74.3673L2.01821 77.7501C1.86053 77.148 1.71166 76.5422 1.57178 75.933ZM2.52057 79.5558L15.3298 75.781C15.4682 76.2507 15.6135 76.7174 15.7656 77.181L3.07726 81.344C2.88297 80.7518 2.69735 80.1557 2.52057 79.5558ZM3.6878 83.1135L16.2436 78.5664C16.4105 79.027 16.5841 79.4845 16.7643 79.9386L4.35275 84.8658C4.12255 84.286 3.90085 83.7018 3.6878 83.1135ZM5.06991 86.5952L17.326 81.2931C17.5205 81.7425 17.7215 82.1886 17.9291 82.631L5.83969 88.3029C5.57478 87.7383 5.31813 87.169 5.06991 86.5952ZM6.66098 89.9866L18.5728 83.9505C18.7941 84.3872 19.0219 84.8203 19.2559 85.2495L7.53235 91.6434C7.23383 91.0961 6.94332 90.5437 6.66098 89.9866ZM8.45434 93.2747L19.979 86.5289C20.2266 86.9518 20.4804 87.3708 20.7404 87.7856L9.42473 94.8765C9.09346 94.3479 8.76995 93.8139 8.45434 93.2747ZM10.4429 96.4482L21.5396 89.0192C21.8124 89.4268 22.0913 89.83 22.3762 90.2289L11.5085 97.989C11.1458 97.481 10.7905 96.9674 10.4429 96.4482ZM12.6196 99.4965L23.2488 91.4129C23.5458 91.8034 23.8486 92.1893 24.157 92.5706L13.7757 100.97C13.3831 100.485 12.9977 99.9937 12.6196 99.4965ZM14.9756 102.408L25.0998 93.7006C25.4198 94.0726 25.7453 94.4398 26.0762 94.8019L16.218 103.81C15.797 103.349 15.3828 102.882 14.9756 102.408ZM17.5022 105.173L27.0854 95.8737C27.4272 96.2258 27.7742 96.5728 28.1263 96.9146L18.8265 106.498C18.3785 106.063 17.937 105.622 17.5022 105.173ZM20.1902 107.782L29.1981 97.9238C29.5602 98.2547 29.9274 98.5802 30.2994 98.9002L21.5916 109.024C21.1182 108.617 20.651 108.203 20.1902 107.782ZM23.0298 110.224L31.4294 99.843C31.8107 100.151 32.1966 100.454 32.5871 100.751L24.5035 111.38C24.0063 111.002 23.515 110.617 23.0298 110.224ZM26.011 112.492L33.7711 101.624C34.17 101.909 34.5733 102.188 34.9808 102.46L27.5518 113.557C27.0326 113.209 26.519 112.854 26.011 112.492ZM29.1235 114.575L36.2144 103.26C36.6292 103.52 37.0482 103.773 37.4711 104.021L30.7253 115.546C30.1861 115.23 29.6521 114.907 29.1235 114.575ZM32.3566 116.468L38.7505 104.744C39.1797 104.978 39.6128 105.206 40.0495 105.427L34.0134 117.339C33.4563 117.057 32.9039 116.766 32.3566 116.468ZM35.6971 118.16L41.369 106.071C41.8114 106.278 42.2575 106.48 42.7069 106.674L37.4048 118.93C36.831 118.682 36.2617 118.425 35.6971 118.16ZM39.1342 119.647L44.0614 107.236C44.5155 107.416 44.9729 107.59 45.4336 107.756L40.8865 120.312C40.2982 120.099 39.714 119.877 39.1342 119.647ZM42.6559 120.923L46.819 108.234C47.2826 108.386 47.7493 108.532 48.2189 108.67L44.4442 121.479C43.8443 121.303 43.2481 121.117 42.6559 120.923ZM46.2498 121.982L49.6327 109.064C50.1042 109.187 50.5785 109.304 51.0556 109.413L48.0669 122.428C47.4578 122.288 46.852 122.139 46.2498 121.982ZM49.8999 122.82L52.4915 109.72C52.97 109.815 53.4512 109.902 53.9349 109.983L51.7416 123.155C51.1246 123.053 50.5106 122.941 49.8999 122.82ZM53.593 123.435L55.3869 110.202C55.8716 110.268 56.3588 110.326 56.8484 110.378L55.4549 123.659C54.8315 123.593 54.2108 123.519 53.593 123.435ZM57.3174 123.826L58.3118 110.509C58.8004 110.546 59.2913 110.575 59.7845 110.597L59.1893 123.937C58.5629 123.909 57.9389 123.872 57.3174 123.826ZM61.0597 123.993L61.2582 110.641C61.5049 110.644 61.7522 110.646 62 110.646C62.2478 110.646 62.4951 110.644 62.7418 110.641L62.9403 123.993C62.6274 123.998 62.314 124 62 124C61.686 124 61.3725 123.998 61.0597 123.993ZM64.8107 123.937L64.2155 110.597C64.7086 110.575 65.1995 110.546 65.6881 110.509L66.6825 123.826C66.0611 123.872 65.4371 123.909 64.8107 123.937ZM68.545 123.659L67.1516 110.378C67.6412 110.326 68.1284 110.268 68.6131 110.202L70.4069 123.435C69.7891 123.519 69.1684 123.593 68.545 123.659ZM72.2583 123.155C72.8754 123.053 73.4893 122.941 74.1 122.82L71.5085 109.72C71.03 109.815 70.5488 109.902 70.0651 109.983L72.2583 123.155ZM75.933 122.428L72.9444 109.413C73.4215 109.304 73.8958 109.187 74.3673 109.064L77.7501 121.982C77.148 122.139 76.5422 122.288 75.933 122.428ZM79.5558 121.479L75.781 108.67C76.2507 108.532 76.7174 108.386 77.181 108.234L81.344 120.923C80.7518 121.117 80.1557 121.303 79.5558 121.479ZM83.1135 120.312L78.5664 107.756C79.027 107.59 79.4845 107.416 79.9386 107.236L84.8658 119.647C84.286 119.877 83.7018 120.099 83.1135 120.312ZM86.5952 118.93L81.2931 106.674C81.7425 106.48 82.1886 106.278 82.631 106.071L88.3029 118.16C87.7383 118.425 87.169 118.682 86.5952 118.93ZM89.9866 117.339L83.9505 105.427C84.3872 105.206 84.8203 104.978 85.2495 104.744L91.6434 116.468C91.0961 116.766 90.5437 117.057 89.9866 117.339ZM93.2747 115.546L86.5289 104.021C86.9518 103.773 87.3708 103.52 87.7856 103.26L94.8765 114.575C94.3479 114.907 93.8139 115.23 93.2747 115.546ZM96.4482 113.557L89.0192 102.46C89.4268 102.188 89.83 101.909 90.2289 101.624L97.989 112.492C97.481 112.854 96.9674 113.209 96.4482 113.557ZM99.4965 111.38L91.4129 100.751C91.8034 100.454 92.1893 100.151 92.5706 99.843L100.97 110.224C100.485 110.617 99.9937 111.002 99.4965 111.38ZM102.408 109.024L93.7006 98.9002C94.0726 98.5802 94.4398 98.2547 94.8019 97.9238L103.81 107.782C103.349 108.203 102.882 108.617 102.408 109.024ZM105.173 106.498L95.8737 96.9146C96.2258 96.5728 96.5728 96.2258 96.9146 95.8737L106.498 105.173C106.063 105.622 105.622 106.063 105.173 106.498ZM107.782 103.81L97.9238 94.8019C98.2547 94.4398 98.5802 94.0726 98.9002 93.7006L109.024 102.408C108.617 102.882 108.203 103.349 107.782 103.81ZM110.224 100.97L99.843 92.5706C100.151 92.1893 100.454 91.8034 100.751 91.4129L111.38 99.4965C111.002 99.9937 110.617 100.485 110.224 100.97ZM112.492 97.989L101.624 90.2289C101.909 89.83 102.188 89.4267 102.46 89.0192L113.557 96.4482C113.209 96.9674 112.854 97.481 112.492 97.989ZM114.575 94.8765L103.26 87.7856C103.52 87.3708 103.773 86.9518 104.021 86.5289L115.546 93.2747C115.23 93.8139 114.907 94.3479 114.575 94.8765ZM116.468 91.6434L104.744 85.2495C104.978 84.8203 105.206 84.3872 105.427 83.9505L117.339 89.9866C117.057 90.5437 116.766 91.0961 116.468 91.6434ZM118.16 88.3029C118.425 87.7383 118.682 87.169 118.93 86.5952L106.674 81.2931C106.48 81.7426 106.278 82.1886 106.071 82.631L118.16 88.3029ZM119.647 84.8658L107.236 79.9386C107.416 79.4845 107.59 79.0271 107.756 78.5664L120.312 83.1135C120.099 83.7018 119.877 84.286 119.647 84.8658ZM120.923 81.344L108.234 77.181C108.386 76.7174 108.532 76.2507 108.67 75.7811L121.479 79.5558C121.303 80.1557 121.117 80.7519 120.923 81.344ZM121.982 77.7502L109.064 74.3673C109.187 73.8958 109.304 73.4215 109.413 72.9444L122.428 75.9331C122.288 76.5423 122.139 77.148 121.982 77.7502ZM122.82 74.1001L109.72 71.5085C109.815 71.03 109.902 70.5488 109.983 70.0651L123.155 72.2584C123.053 72.8754 122.941 73.4893 122.82 74.1001ZM123.435 70.407L110.202 68.6131C110.268 68.1284 110.326 67.6412 110.378 67.1516L123.659 68.5451C123.593 69.1685 123.519 69.7892 123.435 70.407ZM123.826 66.6826L110.509 65.6882C110.546 65.1996 110.575 64.7087 110.597 64.2155L123.937 64.8107C123.909 65.4371 123.872 66.0611 123.826 66.6826Z" fill="#255ED6"/>
</svg>
