<svg width="20" height="20" viewBox="0 0 20 20" fill="none" xmlns="http://www.w3.org/2000/svg">
<g id="pocket">
<path id="pocket_2" fill-rule="evenodd" clip-rule="evenodd" d="M2.49992 3.33366H17.4999V9.16699C17.4999 13.3091 14.1421 16.667 9.99992 16.667C5.85778 16.667 2.49992 13.3091 2.49992 9.16699V3.33366ZM0.833252 1.66699H19.1666V9.16699C19.1666 14.2296 15.0625 18.3337 9.99992 18.3337C4.93731 18.3337 0.833252 14.2296 0.833252 9.16699V1.66699ZM9.41066 12.2449C9.7361 12.5703 10.2637 12.5703 10.5892 12.2449L14.1247 8.70935C14.4501 8.38391 14.4501 7.85627 14.1247 7.53084C13.7993 7.2054 13.2716 7.2054 12.9462 7.53084L9.99992 10.4771L7.05364 7.53084C6.7282 7.2054 6.20056 7.2054 5.87513 7.53084C5.54969 7.85627 5.54969 8.38391 5.87513 8.70935L9.41066 12.2449Z" fill="white"/>
</g>
</svg>
