<svg width="21" height="20" viewBox="0 0 21 20" fill="none" xmlns="http://www.w3.org/2000/svg">
<path d="M3.83398 5.83333V14.1667C3.83398 16.0083 6.81898 17.5 10.5007 17.5C14.1823 17.5 17.1673 16.0083 17.1673 14.1667V5.83333M3.83398 5.83333C3.83398 7.675 6.81898 9.16667 10.5007 9.16667C14.1823 9.16667 17.1673 7.675 17.1673 5.83333M3.83398 5.83333C3.83398 3.99167 6.81898 2.5 10.5007 2.5C14.1823 2.5 17.1673 3.99167 17.1673 5.83333M17.1673 10C17.1673 11.8417 14.1823 13.3333 10.5007 13.3333C6.81898 13.3333 3.83398 11.8417 3.83398 10" stroke="#566388" stroke-width="2" stroke-linecap="round" stroke-linejoin="round"/>
</svg>
