<svg width="21" height="20" viewBox="0 0 21 20" fill="none" xmlns="http://www.w3.org/2000/svg">
<path d="M3.83325 5.83333V14.1667C3.83325 16.0083 6.81825 17.5 10.4999 17.5C14.1816 17.5 17.1666 16.0083 17.1666 14.1667V5.83333M3.83325 5.83333C3.83325 7.675 6.81825 9.16667 10.4999 9.16667C14.1816 9.16667 17.1666 7.675 17.1666 5.83333M3.83325 5.83333C3.83325 3.99167 6.81825 2.5 10.4999 2.5C14.1816 2.5 17.1666 3.99167 17.1666 5.83333M17.1666 10C17.1666 11.8417 14.1816 13.3333 10.4999 13.3333C6.81825 13.3333 3.83325 11.8417 3.83325 10" stroke="#566388" stroke-width="2" stroke-linecap="round" stroke-linejoin="round"/>
</svg>
