<svg width="21" height="20" viewBox="0 0 21 20" fill="none" xmlns="http://www.w3.org/2000/svg">
<path d="M3.83301 5.83333V14.1667C3.83301 16.0083 6.81801 17.5 10.4997 17.5C14.1813 17.5 17.1663 16.0083 17.1663 14.1667V5.83333M3.83301 5.83333C3.83301 7.675 6.81801 9.16667 10.4997 9.16667C14.1813 9.16667 17.1663 7.675 17.1663 5.83333M3.83301 5.83333C3.83301 3.99167 6.81801 2.5 10.4997 2.5C14.1813 2.5 17.1663 3.99167 17.1663 5.83333M17.1663 10C17.1663 11.8417 14.1813 13.3333 10.4997 13.3333C6.81801 13.3333 3.83301 11.8417 3.83301 10" stroke="#566388" stroke-width="2" stroke-linecap="round" stroke-linejoin="round"/>
</svg>
