<svg width="21" height="20" viewBox="0 0 21 20" fill="none" xmlns="http://www.w3.org/2000/svg">
<path d="M3.8335 5.83333V14.1667C3.8335 16.0083 6.8185 17.5 10.5002 17.5C14.1818 17.5 17.1668 16.0083 17.1668 14.1667V5.83333M3.8335 5.83333C3.8335 7.675 6.8185 9.16667 10.5002 9.16667C14.1818 9.16667 17.1668 7.675 17.1668 5.83333M3.8335 5.83333C3.8335 3.99167 6.8185 2.5 10.5002 2.5C14.1818 2.5 17.1668 3.99167 17.1668 5.83333M17.1668 10C17.1668 11.8417 14.1818 13.3333 10.5002 13.3333C6.8185 13.3333 3.8335 11.8417 3.8335 10" stroke="#566388" stroke-width="2" stroke-linecap="round" stroke-linejoin="round"/>
</svg>
