<svg width="16" height="21" viewBox="0 0 16 21" fill="none" xmlns="http://www.w3.org/2000/svg">
<g id="Delete" opacity="0.7">
<path id="Vector" d="M1.26955 6.67492H14.325C15.0558 6.4749 15.5916 5.79983 15.5916 4.97502V4.42502C15.5916 3.45003 14.8366 2.67507 13.8867 2.67507H11.3534C11.3534 1.20013 10.1843 0 8.74712 0H6.87157C5.43454 0 4.26526 1.19995 4.26526 2.67507H1.70789C0.757959 2.67507 0.00292969 3.45003 0.00292969 4.42502V4.97502C0.00292969 5.80001 0.538788 6.4751 1.26955 6.67492ZM6.84734 1.52495H8.72289C9.35613 1.52495 9.86768 2.05003 9.86768 2.69994H5.70251C5.72681 2.04999 6.23837 1.52495 6.8473 1.52495H6.84734Z" fill="#3E445C"/>
<path id="Vector_2" d="M4.58239 20.6238H11.0127C12.7664 20.6238 14.1791 19.1738 14.1791 17.3738V7.92383H1.41602V17.8738C1.41602 19.1489 2.85304 20.6239 4.58231 20.6239L4.58239 20.6238ZM9.81917 10.7989H11.2807V17.2988H9.81917V10.7989ZM7.06678 10.7989H8.52829V17.2988H7.06678V10.7989ZM4.31455 10.7989H5.77607V17.2988H4.31455V10.7989Z" fill="#3E445C"/>
</g>
</svg>
