<svg width="42" height="42" viewBox="0 0 42 42" fill="none" xmlns="http://www.w3.org/2000/svg">
<g id="doctor">
<path id="Vector" fill-rule="evenodd" clip-rule="evenodd" d="M29.75 14C29.75 18.8325 25.8325 22.75 21 22.75C16.1676 22.75 12.25 18.8325 12.25 14C12.25 9.16755 16.1676 5.25 21 5.25C25.8325 5.25 29.75 9.16755 29.75 14ZM28 14C28 17.866 24.866 21 21 21C17.134 21 14 17.866 14 14C14 10.134 17.134 7 21 7C24.866 7 28 10.134 28 14Z" fill="#648BE3"/>
<path id="Vector_2" fill-rule="evenodd" clip-rule="evenodd" d="M15.6748 25.2482C15.6781 25.2547 15.6813 25.2611 15.6845 25.2675C15.7069 25.3121 15.7287 25.3552 15.75 25.3957H19.3059C20.0995 25.3956 20.4956 25.3957 20.8923 25.3957H20.914C21.3023 25.3958 21.6982 25.3959 22.4745 25.3957H26.0306C26.2303 25.0164 26.6851 24.4108 27.125 24.511C28.1134 24.7362 29.1091 25.0499 30.066 25.4357L30.0951 25.4212L30.1046 25.4405L30.1111 25.454C33.7121 26.9163 36.75 29.3967 36.75 31.9987V36.75H5.25V31.9987C5.25 28.6953 10.1463 25.588 14.875 24.511C15.2611 24.4231 15.4897 24.879 15.6748 25.2482ZM28.6163 26.7598C28.2405 26.6284 27.8598 26.5094 27.4775 26.404L27.087 27.1457H22.4745C21.6812 27.1459 21.2899 27.1458 20.9034 27.1457C20.5078 27.1457 20.1173 27.1456 19.3063 27.1457H14.6936L14.3314 26.4578C14.2261 26.4882 14.1209 26.5196 14.0159 26.5519C14.0101 26.6095 14.0056 26.6746 14.0029 26.7476C13.9915 27.0495 14.0141 27.4075 14.0638 27.7724C14.1134 28.1362 14.1872 28.4853 14.2692 28.7667C14.2823 28.8114 14.2953 28.8535 14.3081 28.8929C15.6127 29.0455 16.625 30.1545 16.625 31.5C16.625 32.9498 15.4498 34.125 14 34.125C12.5502 34.125 11.375 32.9498 11.375 31.5C11.375 30.5665 11.8624 29.7467 12.5965 29.2814L12.5892 29.2567C12.4799 28.8819 12.3896 28.447 12.3299 28.0088C12.2936 27.7429 12.2675 27.4676 12.2562 27.1967C11.1742 27.6586 10.1662 28.2168 9.32076 28.8336C7.6385 30.061 7 31.2085 7 31.9987V35H35V31.9987C35 31.2085 34.3615 30.061 32.6792 28.8336C31.993 28.3329 31.1996 27.8709 30.3466 27.4676C30.3328 27.6495 30.3131 27.8312 30.2888 28.0088C30.2485 28.3049 30.1942 28.5995 30.1294 28.875H30.625C30.9564 28.875 31.2594 29.0622 31.4076 29.3587L32.2826 31.1087C32.3434 31.2301 32.375 31.3642 32.375 31.5V33.25C32.375 33.7333 31.9833 34.125 31.5 34.125H29.75V32.375H30.625V31.7066L30.0842 30.625H27.6658L27.125 31.7066V32.375H28V34.125H26.25C25.7667 34.125 25.375 33.7333 25.375 33.25V31.5C25.375 31.3642 25.4066 31.2301 25.4674 31.1087L26.3424 29.3587C26.4906 29.0622 26.7936 28.875 27.125 28.875H28.3164C28.3273 28.8408 28.3384 28.8047 28.3495 28.7667C28.4315 28.4853 28.5053 28.1362 28.5549 27.7724C28.604 27.4124 28.6266 27.059 28.6163 26.7598ZM14.875 31.5C14.875 32.0024 14.4711 32.3879 14 32.3879C13.5289 32.3879 13.125 32.0024 13.125 31.5C13.125 30.9976 13.5289 30.6121 14 30.6121C14.4711 30.6121 14.875 30.9976 14.875 31.5Z" fill="#648BE3"/>
</g>
</svg>
