<svg width="21" height="20" viewBox="0 0 21 20" fill="none" xmlns="http://www.w3.org/2000/svg">
<g id="document-report">
<path id="Vector" d="M8.00008 14.1667V12.5M10.5001 14.1667V10.8333M13.0001 14.1667V9.16667M14.6667 17.5H6.33341C5.89139 17.5 5.46746 17.3244 5.1549 17.0118C4.84234 16.6993 4.66675 16.2754 4.66675 15.8333V4.16667C4.66675 3.72464 4.84234 3.30072 5.1549 2.98816C5.46746 2.67559 5.89139 2.5 6.33341 2.5H10.9884C11.2094 2.50005 11.4213 2.58788 11.5776 2.74417L16.0892 7.25583C16.2455 7.41208 16.3334 7.624 16.3334 7.845V15.8333C16.3334 16.2754 16.1578 16.6993 15.8453 17.0118C15.5327 17.3244 15.1088 17.5 14.6667 17.5Z" stroke="white" stroke-width="2" stroke-linecap="round" stroke-linejoin="round"/>
</g>
</svg>
