<svg width="20" height="20" viewBox="0 0 20 20" fill="none" xmlns="http://www.w3.org/2000/svg">
<g id="dots-vertical" opacity="0.8">
<path id="Vector" d="M10.0001 4.16634V4.17467M10.0001 9.99967V10.008M10.0001 15.833V15.8413M10.0001 4.99967C9.77907 4.99967 9.56711 4.91188 9.41083 4.7556C9.25455 4.59932 9.16675 4.38735 9.16675 4.16634C9.16675 3.94533 9.25455 3.73337 9.41083 3.57709C9.56711 3.42081 9.77907 3.33301 10.0001 3.33301C10.2211 3.33301 10.4331 3.42081 10.5893 3.57709C10.7456 3.73337 10.8334 3.94533 10.8334 4.16634C10.8334 4.38735 10.7456 4.59932 10.5893 4.7556C10.4331 4.91188 10.2211 4.99967 10.0001 4.99967ZM10.0001 10.833C9.77907 10.833 9.56711 10.7452 9.41083 10.5889C9.25455 10.4326 9.16675 10.2207 9.16675 9.99967C9.16675 9.77866 9.25455 9.5667 9.41083 9.41042C9.56711 9.25414 9.77907 9.16634 10.0001 9.16634C10.2211 9.16634 10.4331 9.25414 10.5893 9.41042C10.7456 9.5667 10.8334 9.77866 10.8334 9.99967C10.8334 10.2207 10.7456 10.4326 10.5893 10.5889C10.4331 10.7452 10.2211 10.833 10.0001 10.833ZM10.0001 16.6663C9.77907 16.6663 9.56711 16.5785 9.41083 16.4223C9.25455 16.266 9.16675 16.054 9.16675 15.833C9.16675 15.612 9.25455 15.4 9.41083 15.2438C9.56711 15.0875 9.77907 14.9997 10.0001 14.9997C10.2211 14.9997 10.4331 15.0875 10.5893 15.2438C10.7456 15.4 10.8334 15.612 10.8334 15.833C10.8334 16.054 10.7456 16.266 10.5893 16.4223C10.4331 16.5785 10.2211 16.6663 10.0001 16.6663Z" stroke="#3F3F46" stroke-width="2" stroke-linecap="round" stroke-linejoin="round"/>
</g>
</svg>
