<svg width="18" height="11" viewBox="0 0 18 11" fill="none" xmlns="http://www.w3.org/2000/svg">
<g id="eye" opacity="0.5">
<g id="Group">
<g id="Group_2">
<path id="Vector" fill-rule="evenodd" clip-rule="evenodd" d="M17.8721 4.9629C17.7017 4.75454 13.8753 0 9.0071 0C4.13891 0 0.312549 4.75454 0.142068 4.9629C-0.047356 5.19021 -0.047356 5.51223 0.142068 5.75848C0.312549 5.96685 4.13891 10.7214 9.0071 10.7214C13.8753 10.7214 17.7017 5.94791 17.8721 5.75848C18.0426 5.53118 18.0426 5.19021 17.8721 4.9629ZM9.0071 8.92186C7.0371 8.92186 5.44594 7.3307 5.44594 5.36069C5.44594 3.39069 7.0371 1.79953 9.0071 1.79953C10.9771 1.79953 12.5683 3.39069 12.5683 5.36069C12.5683 7.3307 10.9771 8.92186 9.0071 8.92186Z" fill="#51589A"/>
<path id="Vector_2" d="M9.00715 7.52004C10.1998 7.52004 11.1666 6.55323 11.1666 5.3606C11.1666 4.16798 10.1998 3.20117 9.00715 3.20117C7.81453 3.20117 6.84772 4.16798 6.84772 5.3606C6.84772 6.55323 7.81453 7.52004 9.00715 7.52004Z" fill="#51589A"/>
</g>
</g>
</g>
</svg>
