<svg width="24" height="24" viewBox="0 0 24 24" fill="none" xmlns="http://www.w3.org/2000/svg">
<g id="react-icons/fa/FaArrowLeft">
<path id="Vector" d="M13.5702 20.8639L12.5296 21.9045C12.089 22.3451 11.3765 22.3451 10.9405 21.9045L1.82803 12.7967C1.3874 12.3561 1.3874 11.6436 1.82803 11.2076L10.9405 2.09512C11.3812 1.65449 12.0937 1.65449 12.5296 2.09512L13.5702 3.13574C14.0155 3.58105 14.0062 4.30762 13.5515 4.74355L7.90303 10.1248H21.3749C21.9983 10.1248 22.4999 10.6264 22.4999 11.2498V12.7498C22.4999 13.3732 21.9983 13.8748 21.3749 13.8748H7.90303L13.5515 19.2561C14.0108 19.692 14.0202 20.4186 13.5702 20.8639Z" fill="white"/>
</g>
</svg>
