<svg width="22" height="22" viewBox="0 0 22 22" fill="none" xmlns="http://www.w3.org/2000/svg">
<path fill-rule="evenodd" clip-rule="evenodd" d="M4.21875 4.375H7.89626C8.10646 4.37532 8.31449 4.41747 8.50823 4.499C8.70182 4.58047 8.87728 4.69962 9.02439 4.84953C9.0245 4.84964 9.02428 4.84941 9.02439 4.84953L13.289 9.18646C13.5846 9.48875 13.7501 9.89478 13.75 10.3176C13.75 10.3177 13.75 10.3175 13.75 10.3176V17.0312C13.75 18.3096 12.7419 19.375 11.4473 19.375H4.17969C2.8836 19.375 1.875 18.3101 1.875 17.0312V6.71509C1.87863 6.09558 2.12635 5.50248 2.56441 5.06441C3.00248 4.62635 3.59558 4.37864 4.21509 4.37501L4.21875 4.375ZM4.22078 5.625C3.93084 5.62713 3.65335 5.74324 3.4483 5.9483C3.24324 6.15335 3.12713 6.43084 3.125 6.72078V17.0312C3.125 17.6509 3.60468 18.125 4.17969 18.125H11.4473C12.0199 18.125 12.5 17.6513 12.5 17.0312V10.3176C12.5 10.2218 12.4626 10.1295 12.3958 10.0609C12.3956 10.0607 12.3959 10.061 12.3958 10.0609L8.13288 5.72571C8.10184 5.69407 8.06425 5.66834 8.0234 5.65114C7.98266 5.634 7.93892 5.62512 7.89472 5.625H4.22078Z" fill="white"/>
<path fill-rule="evenodd" clip-rule="evenodd" d="M7.81254 4.375C8.15772 4.375 8.43754 4.65482 8.43754 5V9.21426C8.4398 9.33903 8.49036 9.4581 8.57865 9.54639C8.66694 9.63469 8.78602 9.68524 8.91078 9.6875H13.125C13.4702 9.6875 13.75 9.96732 13.75 10.3125C13.75 10.6577 13.4702 10.9375 13.125 10.9375H8.89884C8.44666 10.9321 8.01453 10.75 7.69477 10.4303C7.37501 10.1105 7.19298 9.67838 7.18759 9.2262L7.1875 9.21875L7.18754 5C7.18754 4.65482 7.46737 4.375 7.81254 4.375Z" fill="white"/>
<path fill-rule="evenodd" clip-rule="evenodd" d="M8.59375 0.625H12.2665C12.4769 0.625293 12.6852 0.667216 12.8793 0.748354C13.0734 0.829492 13.2496 0.948242 13.3976 1.09776L13.3992 1.09928L17.6618 5.43422C17.662 5.43443 17.6622 5.43464 17.6625 5.43485C17.9589 5.73529 18.1251 6.14041 18.125 6.5625C18.125 6.56257 18.125 6.56243 18.125 6.5625V13.2812C18.125 14.5596 17.1169 15.625 15.8223 15.625H13.4375V14.375H15.8223C16.3949 14.375 16.875 13.9013 16.875 13.2812V6.5625C16.875 6.46904 16.8382 6.37914 16.7725 6.31266L16.7715 6.31165L12.5094 1.97724C12.5092 1.97705 12.5096 1.97743 12.5094 1.97724C12.4775 1.94517 12.439 1.91912 12.3973 1.90168C12.3554 1.88417 12.3105 1.87511 12.2651 1.875H8.59578C8.30584 1.87713 8.02835 1.99324 7.8233 2.1983C7.61824 2.40335 7.50213 2.68084 7.5 2.97078V5H6.25V2.96509C6.25363 2.34558 6.50135 1.75248 6.93941 1.31441C7.37748 0.876348 7.97058 0.628639 8.59009 0.625011L8.59375 0.625Z" fill="white"/>
<path fill-rule="evenodd" clip-rule="evenodd" d="M12.1875 0.625C12.5327 0.625 12.8125 0.904822 12.8125 1.25V5.46426C12.8148 5.58903 12.8654 5.7081 12.9536 5.79639C13.0419 5.88469 13.161 5.93524 13.2858 5.9375H17.5C17.8452 5.9375 18.125 6.21732 18.125 6.5625C18.125 6.90768 17.8452 7.1875 17.5 7.1875H13.2738C12.8217 7.18211 12.3895 7.00004 12.0698 6.68028C11.75 6.36052 11.568 5.92838 11.5626 5.4762L11.5625 5.46875L11.5625 1.25C11.5625 0.904822 11.8424 0.625 12.1875 0.625Z" fill="white"/>
</svg>
