<svg width="20" height="21" viewBox="0 0 20 21" fill="none" xmlns="http://www.w3.org/2000/svg">
<path d="M5.83333 15.4993H14.1667V13.8327H5.83333V15.4993Z" fill="white"/>
<path d="M14.1667 12.166H5.83333V10.4993H14.1667V12.166Z" fill="white"/>
<path d="M5.83333 8.83268H9.16667V7.16602H5.83333V8.83268Z" fill="white"/>
<path fill-rule="evenodd" clip-rule="evenodd" d="M5 2.16602C3.61929 2.16602 2.5 3.2853 2.5 4.66602V16.3327C2.5 17.7134 3.61929 18.8327 5 18.8327H15C16.3807 18.8327 17.5 17.7134 17.5 16.3327V7.99935C17.5 4.77769 14.8883 2.16602 11.6667 2.16602H5ZM5 3.83268H10.8333V7.99935H15.8333V16.3327C15.8333 16.7929 15.4602 17.166 15 17.166H5C4.53976 17.166 4.16667 16.7929 4.16667 16.3327V4.66602C4.16667 4.20578 4.53976 3.83268 5 3.83268ZM12.5 3.91603C13.8428 4.1886 14.9511 5.1069 15.4866 6.33268H12.5V3.91603Z" fill="white"/>
</svg>
