<svg width="21" height="20" viewBox="0 0 21 20" fill="none" xmlns="http://www.w3.org/2000/svg">
<g id="file-document">
<g id="file-document_2">
<path d="M6.33333 14.9993H14.6667V13.3327H6.33333V14.9993Z" fill="white"/>
<path d="M14.6667 11.666H6.33333V9.99935H14.6667V11.666Z" fill="white"/>
<path d="M6.33333 8.33268H9.66667V6.66602H6.33333V8.33268Z" fill="white"/>
<path fill-rule="evenodd" clip-rule="evenodd" d="M5.5 1.66602C4.11929 1.66602 3 2.7853 3 4.16602V15.8327C3 17.2134 4.11929 18.3327 5.5 18.3327H15.5C16.8807 18.3327 18 17.2134 18 15.8327V7.49935C18 4.27769 15.3883 1.66602 12.1667 1.66602H5.5ZM5.5 3.33268H11.3333V7.49935H16.3333V15.8327C16.3333 16.2929 15.9602 16.666 15.5 16.666H5.5C5.03976 16.666 4.66667 16.2929 4.66667 15.8327V4.16602C4.66667 3.70578 5.03976 3.33268 5.5 3.33268ZM13 3.41603C14.3428 3.6886 15.4511 4.6069 15.9866 5.83268H13V3.41603Z" fill="white"/>
</g>
</g>
</svg>
