<svg width="21" height="20" viewBox="0 0 21 20" fill="none" xmlns="http://www.w3.org/2000/svg">
<path d="M6.33333 15.0003H14.6667V13.3337H6.33333V15.0003Z" fill="#566388"/>
<path d="M14.6667 11.667H6.33333V10.0003H14.6667V11.667Z" fill="#566388"/>
<path d="M6.33333 8.33366H9.66667V6.66699H6.33333V8.33366Z" fill="#566388"/>
<path fill-rule="evenodd" clip-rule="evenodd" d="M5.5 1.66699C4.11929 1.66699 3 2.78628 3 4.16699V15.8337C3 17.2144 4.11929 18.3337 5.5 18.3337H15.5C16.8807 18.3337 18 17.2144 18 15.8337V7.50033C18 4.27866 15.3883 1.66699 12.1667 1.66699H5.5ZM5.5 3.33366H11.3333V7.50033H16.3333V15.8337C16.3333 16.2939 15.9602 16.667 15.5 16.667H5.5C5.03976 16.667 4.66667 16.2939 4.66667 15.8337V4.16699C4.66667 3.70676 5.03976 3.33366 5.5 3.33366ZM13 3.41701C14.3428 3.68958 15.4511 4.60787 15.9866 5.83366H13V3.41701Z" fill="#566388"/>
</svg>
