<svg width="20" height="20" viewBox="0 0 20 20" fill="none" xmlns="http://www.w3.org/2000/svg">
<g id="file-document">
<g id="file-document_2">
<path d="M5.83333 15.0003H14.1667V13.3337H5.83333V15.0003Z" fill="white"/>
<path d="M14.1667 11.667H5.83333V10.0003H14.1667V11.667Z" fill="white"/>
<path d="M5.83333 8.33366H9.16667V6.66699H5.83333V8.33366Z" fill="white"/>
<path fill-rule="evenodd" clip-rule="evenodd" d="M5 1.66699C3.61929 1.66699 2.5 2.78628 2.5 4.16699V15.8337C2.5 17.2144 3.61929 18.3337 5 18.3337H15C16.3807 18.3337 17.5 17.2144 17.5 15.8337V7.50033C17.5 4.27866 14.8883 1.66699 11.6667 1.66699H5ZM5 3.33366H10.8333V7.50033H15.8333V15.8337C15.8333 16.2939 15.4602 16.667 15 16.667H5C4.53976 16.667 4.16667 16.2939 4.16667 15.8337V4.16699C4.16667 3.70675 4.53976 3.33366 5 3.33366ZM12.5 3.41701C13.8428 3.68958 14.9511 4.60787 15.4866 5.83366H12.5V3.41701Z" fill="white"/>
</g>
</g>
</svg>
