<svg width="16" height="17" viewBox="0 0 16 17" fill="none" xmlns="http://www.w3.org/2000/svg">
<path d="M3.83333 13.4993H12.1667V11.8327H3.83333V13.4993Z" fill="white"/>
<path d="M12.1667 10.166H3.83333V8.49935H12.1667V10.166Z" fill="white"/>
<path d="M3.83333 6.83268H7.16667V5.16602H3.83333V6.83268Z" fill="white"/>
<path fill-rule="evenodd" clip-rule="evenodd" d="M3 0.166016C1.61929 0.166016 0.5 1.2853 0.5 2.66602V14.3327C0.5 15.7134 1.61929 16.8327 3 16.8327H13C14.3807 16.8327 15.5 15.7134 15.5 14.3327V5.99935C15.5 2.77769 12.8883 0.166016 9.66667 0.166016H3ZM3 1.83268H8.83333V5.99935H13.8333V14.3327C13.8333 14.7929 13.4602 15.166 13 15.166H3C2.53976 15.166 2.16667 14.7929 2.16667 14.3327V2.66602C2.16667 2.20578 2.53976 1.83268 3 1.83268ZM10.5 1.91603C11.8428 2.1886 12.9511 3.1069 13.4866 4.33268H10.5V1.91603Z" fill="white"/>
</svg>
