<svg width="21" height="24" viewBox="0 0 21 24" fill="none" xmlns="http://www.w3.org/2000/svg">
<g id="file-add">
<g id="file-add_2">
<path d="M8.83333 16.8V15.2H7.16667V13.6H8.83333V12H10.5V13.6H12.1667V15.2H10.5V16.8H8.83333Z" fill="white"/>
<path fill-rule="evenodd" clip-rule="evenodd" d="M5.5 4C4.11929 4 3 5.07452 3 6.4V17.6C3 18.9255 4.11929 20 5.5 20H15.5C16.8807 20 18 18.9255 18 17.6V9.6C18 6.50721 15.3883 4 12.1667 4H5.5ZM5.5 5.6H11.3333V9.6H16.3333V17.6C16.3333 18.0418 15.9602 18.4 15.5 18.4H5.5C5.03976 18.4 4.66667 18.0418 4.66667 17.6V6.4C4.66667 5.95817 5.03976 5.6 5.5 5.6ZM13 5.68001C14.3428 5.94168 15.4511 6.82324 15.9866 8H13V5.68001Z" fill="white"/>
</g>
</g>
</svg>
