<svg width="20" height="20" viewBox="0 0 20 20" fill="none" xmlns="http://www.w3.org/2000/svg">
<path d="M5.83333 14.9993H14.1667V13.3327H5.83333V14.9993Z" fill="white"/>
<path d="M14.1667 11.666H5.83333V9.99935H14.1667V11.666Z" fill="white"/>
<path d="M5.83333 8.33268H9.16667V6.66602H5.83333V8.33268Z" fill="white"/>
<path fill-rule="evenodd" clip-rule="evenodd" d="M5 1.66602C3.61929 1.66602 2.5 2.7853 2.5 4.16602V15.8327C2.5 17.2134 3.61929 18.3327 5 18.3327H15C16.3807 18.3327 17.5 17.2134 17.5 15.8327V7.49935C17.5 4.27769 14.8883 1.66602 11.6667 1.66602H5ZM5 3.33268H10.8333V7.49935H15.8333V15.8327C15.8333 16.2929 15.4602 16.666 15 16.666H5C4.53976 16.666 4.16667 16.2929 4.16667 15.8327V4.16602C4.16667 3.70578 4.53976 3.33268 5 3.33268ZM12.5 3.41603C13.8428 3.6886 14.9511 4.6069 15.4866 5.83268H12.5V3.41603Z" fill="white"/>
</svg>
