<svg width="20" height="21" viewBox="0 0 20 21" fill="none" xmlns="http://www.w3.org/2000/svg">
<path d="M5.83333 15.4998H14.1667V13.8332H5.83333V15.4998Z" fill="white"/>
<path d="M14.1667 12.1665H5.83333V10.4998H14.1667V12.1665Z" fill="white"/>
<path d="M5.83333 8.83317H9.16667V7.1665H5.83333V8.83317Z" fill="white"/>
<path fill-rule="evenodd" clip-rule="evenodd" d="M5 2.1665C3.61929 2.1665 2.5 3.28579 2.5 4.6665V16.3332C2.5 17.7139 3.61929 18.8332 5 18.8332H15C16.3807 18.8332 17.5 17.7139 17.5 16.3332V7.99984C17.5 4.77818 14.8883 2.1665 11.6667 2.1665H5ZM5 3.83317H10.8333V7.99984H15.8333V16.3332C15.8333 16.7934 15.4602 17.1665 15 17.1665H5C4.53976 17.1665 4.16667 16.7934 4.16667 16.3332V4.6665C4.16667 4.20627 4.53976 3.83317 5 3.83317ZM12.5 3.91652C13.8428 4.18909 14.9511 5.10738 15.4866 6.33317H12.5V3.91652Z" fill="white"/>
</svg>
