<svg width="20" height="21" viewBox="0 0 20 21" fill="none" xmlns="http://www.w3.org/2000/svg">
<g id="file-document">
<g id="file-document_2">
<path d="M5.83333 15.5003H14.1667V13.8337H5.83333V15.5003Z" fill="#F29C38"/>
<path d="M14.1667 12.167H5.83333V10.5003H14.1667V12.167Z" fill="#F29C38"/>
<path d="M5.83333 8.83366H9.16667V7.16699H5.83333V8.83366Z" fill="#F29C38"/>
<path fill-rule="evenodd" clip-rule="evenodd" d="M5 2.16699C3.61929 2.16699 2.5 3.28628 2.5 4.66699V16.3337C2.5 17.7144 3.61929 18.8337 5 18.8337H15C16.3807 18.8337 17.5 17.7144 17.5 16.3337V8.00033C17.5 4.77866 14.8883 2.16699 11.6667 2.16699H5ZM5 3.83366H10.8333V8.00033H15.8333V16.3337C15.8333 16.7939 15.4602 17.167 15 17.167H5C4.53976 17.167 4.16667 16.7939 4.16667 16.3337V4.66699C4.16667 4.20675 4.53976 3.83366 5 3.83366ZM12.5 3.91701C13.8428 4.18958 14.9511 5.10787 15.4866 6.33366H12.5V3.91701Z" fill="#F29C38"/>
</g>
</g>
</svg>
