<svg width="17" height="17" viewBox="0 0 17 17" fill="none" xmlns="http://www.w3.org/2000/svg">
<g id="react-icons/gr/GrLike">
<path id="Vector (Stroke)" fill-rule="evenodd" clip-rule="evenodd" d="M6.72115 0.269531H8.7194C9.48883 0.269531 10.1884 0.46234 10.6908 0.964793C11.1933 1.46725 11.3861 2.16677 11.3861 2.9362V6.26953H16.0527V13.6029C16.0527 14.3723 15.8599 15.0718 15.3575 15.5743C14.855 16.0767 14.1555 16.2695 13.3861 16.2695H0.0527344V6.9362H5.38607C5.89494 6.9362 6.21455 6.769 6.40623 6.57469C6.60506 6.37315 6.70891 6.09966 6.70891 5.82003C6.70891 5.37712 6.71154 4.15517 6.71416 3.0451L6.7194 0.93518L6.7194 0.934496L6.72115 0.269531ZM8.05103 1.60286L8.04749 3.04825C8.04487 4.15914 8.04225 5.37911 8.04225 5.82004C8.04225 6.42425 7.818 7.04218 7.35541 7.51109C6.88568 7.98724 6.21053 8.26953 5.38607 8.26953H4.7194V14.9362H13.3861C13.95 14.9362 14.2505 14.7957 14.4147 14.6315C14.5789 14.4672 14.7194 14.1668 14.7194 13.6029V7.60286H10.0527V2.9362C10.0527 2.37229 9.91221 2.07182 9.748 1.9076C9.58378 1.74339 9.28331 1.60286 8.7194 1.60286H8.05103ZM3.38607 14.9362V8.26953H1.38607V14.9362H3.38607Z" fill="#6CA66F"/>
</g>
</svg>
