<svg width="20" height="24" viewBox="0 0 20 24" fill="none" xmlns="http://www.w3.org/2000/svg">
<path d="M2.5 4.78711H15.8375C16.7558 4.78711 17.5 5.53544 17.5 6.44544V19.7954C17.5 20.7113 16.7558 21.4538 15.8375 21.4538H2.5V4.78711ZM5.83333 6.45378H4.16667V19.7871H5.83333V6.45378ZM7.5 19.7871H15.8333V6.45378H7.5V19.7871ZM9.16667 16.4538C9.16667 15.7907 9.43006 15.1549 9.8989 14.686C10.3677 14.2172 11.0036 13.9538 11.6667 13.9538C12.3297 13.9538 12.9656 14.2172 13.4344 14.686C13.9033 15.1549 14.1667 15.7907 14.1667 16.4538H9.16667ZM11.6667 13.1204C11.2246 13.1204 10.8007 12.9448 10.4882 12.6323C10.1756 12.3197 10 11.8958 10 11.4538C10 11.0117 10.1756 10.5878 10.4882 10.2753C10.8007 9.9627 11.2246 9.78711 11.6667 9.78711C12.1087 9.78711 12.5326 9.9627 12.8452 10.2753C13.1577 10.5878 13.3333 11.0117 13.3333 11.4538C13.3333 11.8958 13.1577 12.3197 12.8452 12.6323C12.5326 12.9448 12.1087 13.1204 11.6667 13.1204ZM18.3333 8.12044H20V11.4538H18.3333V8.12044ZM18.3333 13.1204H20V16.4538H18.3333V13.1204Z" fill="white"/>
<circle cx="16" cy="4.87891" r="4" fill="#FF5E03"/>
</svg>
