<svg width="21" height="24" viewBox="0 0 21 24" fill="none" xmlns="http://www.w3.org/2000/svg">
<path d="M3 4.78809H16.3375C17.2558 4.78809 18 5.53642 18 6.44642V19.7964C18 20.7123 17.2558 21.4548 16.3375 21.4548H3V4.78809ZM6.33333 6.45475H4.66667V19.7881H6.33333V6.45475ZM8 19.7881H16.3333V6.45475H8V19.7881ZM9.66667 16.4548C9.66667 15.7917 9.93006 15.1558 10.3989 14.687C10.8677 14.2181 11.5036 13.9548 12.1667 13.9548C12.8297 13.9548 13.4656 14.2181 13.9344 14.687C14.4033 15.1558 14.6667 15.7917 14.6667 16.4548H9.66667ZM12.1667 13.1214C11.7246 13.1214 11.3007 12.9458 10.9882 12.6333C10.6756 12.3207 10.5 11.8968 10.5 11.4548C10.5 11.0127 10.6756 10.5888 10.9882 10.2762C11.3007 9.96368 11.7246 9.78809 12.1667 9.78809C12.6087 9.78809 13.0326 9.96368 13.3452 10.2762C13.6577 10.5888 13.8333 11.0127 13.8333 11.4548C13.8333 11.8968 13.6577 12.3207 13.3452 12.6333C13.0326 12.9458 12.6087 13.1214 12.1667 13.1214ZM18.8333 8.12142H20.5V11.4548H18.8333V8.12142ZM18.8333 13.1214H20.5V16.4548H18.8333V13.1214Z" fill="white"/>
<circle cx="16.5" cy="4.87891" r="4" fill="#FF5E03"/>
</svg>
