<svg width="21" height="24" viewBox="0 0 21 24" fill="none" xmlns="http://www.w3.org/2000/svg">
<path d="M3 4.78711H16.3375C17.2558 4.78711 18 5.53544 18 6.44544V19.7954C18 20.7113 17.2558 21.4538 16.3375 21.4538H3V4.78711ZM6.33333 6.45378H4.66667V19.7871H6.33333V6.45378ZM8 19.7871H16.3333V6.45378H8V19.7871ZM9.66667 16.4538C9.66667 15.7907 9.93006 15.1549 10.3989 14.686C10.8677 14.2172 11.5036 13.9538 12.1667 13.9538C12.8297 13.9538 13.4656 14.2172 13.9344 14.686C14.4033 15.1549 14.6667 15.7907 14.6667 16.4538H9.66667ZM12.1667 13.1204C11.7246 13.1204 11.3007 12.9448 10.9882 12.6323C10.6756 12.3197 10.5 11.8958 10.5 11.4538C10.5 11.0117 10.6756 10.5878 10.9882 10.2753C11.3007 9.9627 11.7246 9.78711 12.1667 9.78711C12.6087 9.78711 13.0326 9.9627 13.3452 10.2753C13.6577 10.5878 13.8333 11.0117 13.8333 11.4538C13.8333 11.8958 13.6577 12.3197 13.3452 12.6323C13.0326 12.9448 12.6087 13.1204 12.1667 13.1204ZM18.8333 8.12044H20.5V11.4538H18.8333V8.12044ZM18.8333 13.1204H20.5V16.4538H18.8333V13.1204Z" fill="white"/>
<circle cx="16.5" cy="4.87891" r="4" fill="#FF5E03"/>
</svg>
