<svg width="119" height="21" viewBox="0 0 119 21" fill="none" xmlns="http://www.w3.org/2000/svg">
<path d="M0.404012 0H7.33799C11.7722 0 15.3668 4.91843 15.3668 10.9856V11.3595H9.94719L7.91909 5.50116L6.23442 11.7249L4.46902 3.51201L2.21081 10.6187H0.0521051C0.0434467 10.4096 0.0390625 10.199 0.0390625 9.98694V0.499351C0.0390625 0.22357 0.202447 0 0.404012 0Z" fill="#133C93"/>
<path d="M0.187488 12.1004C0.907583 17.1564 4.16204 20.9726 8.06789 20.9726H15.0019C15.2034 20.9726 15.3668 20.749 15.3668 20.4732V12.8412H9.26192L8.04136 9.31555L6.11642 16.427L4.27219 7.84747L2.92079 12.1004H0.187488Z" fill="#01CDFF"/>
<path d="M34.3116 17.2599V11.1436C34.3116 9.38462 33.5879 8.46517 32.495 8.46517C31.3872 8.46517 30.6635 9.38462 30.6635 11.1436V17.2599H28.5958V11.1436C28.5958 9.38462 27.8721 8.46517 26.7792 8.46517C25.6567 8.46517 24.933 9.38462 24.933 11.1436V17.2599H22.8652V6.18653H24.933V7.52573C25.4499 6.60628 26.3213 6.02662 27.3404 6.02662C28.6106 6.02662 29.6592 6.76618 30.2204 8.14536C30.7521 6.88611 31.8303 6.02662 33.0267 6.02662C34.991 6.02662 36.3793 7.70562 36.3793 10.7638V17.2599H34.3116Z" fill="#133C93"/>
<path d="M41.5612 8.30526C40.5717 8.30526 39.7889 9.16475 39.6264 10.6838H43.5108C43.4813 9.22471 42.6246 8.30526 41.5612 8.30526ZM45.4456 13.782C45.0025 15.8208 43.6437 17.4398 41.6203 17.4398C39.2424 17.4398 37.5144 15.2011 37.5144 11.7232C37.5144 8.22531 39.1981 6.00664 41.6203 6.00664C43.9834 6.00664 45.6524 8.18533 45.6524 11.4834C45.6524 11.8431 45.6376 12.2029 45.5933 12.5627H39.6117C39.715 14.2017 40.5421 15.1212 41.576 15.1212C42.4622 15.1212 42.9496 14.5215 43.2154 13.782H45.4456Z" fill="#133C93"/>
<path d="M47.1912 13.822V8.48515H46.2164V6.18653H47.1912V3.44816H49.2737V6.18653H51.1051V8.48515H49.2737V13.842C49.2737 14.5815 49.4952 14.9013 50.1451 14.9013H51.1051V17.2599H49.8054C48.2398 17.2599 47.1912 16.3605 47.1912 13.822Z" fill="#133C93"/>
<path d="M52.6219 13.822V8.48515H51.6471V6.18653H52.6219V3.44816H54.7044V6.18653H56.5358V8.48515H54.7044V13.842C54.7044 14.5815 54.9259 14.9013 55.5758 14.9013H56.5358V17.2599H55.2361C53.6705 17.2599 52.6219 16.3605 52.6219 13.822Z" fill="#133C93"/>
<path d="M57.7276 17.2599V2.46875H59.7953V17.2599H57.7276Z" fill="#133C93"/>
<path d="M65.058 8.30526C64.0685 8.30526 63.2857 9.16475 63.1232 10.6838H67.0076C66.978 9.22471 66.1214 8.30526 65.058 8.30526ZM68.9424 13.782C68.4993 15.8208 67.1405 17.4398 65.1171 17.4398C62.7392 17.4398 61.0112 15.2011 61.0112 11.7232C61.0112 8.22531 62.6949 6.00664 65.1171 6.00664C67.4802 6.00664 69.1492 8.18533 69.1492 11.4834C69.1492 11.8431 69.1344 12.2029 69.0901 12.5627H63.1084C63.2118 14.2017 64.0389 15.1212 65.0728 15.1212C65.959 15.1212 66.4463 14.5215 66.7122 13.782H68.9424Z" fill="#133C93"/>
<path d="M72.4308 11.7432V17.2599H70.363V6.18653H72.4308V7.9055C72.9477 6.76618 73.8043 6.02662 74.9416 6.02662V8.96487H74.3951C73.1692 8.96487 72.4308 9.60449 72.4308 11.7432Z" fill="#133C93"/>
<path d="M76.2014 17.2599V2.46875H77.2352V8.20532C77.7522 6.86612 78.8156 6.14655 80.0414 6.14655C81.8286 6.14655 83.2612 7.66564 83.2612 10.8637V17.2599H82.2421V11.0236C82.2421 8.60508 81.2673 7.36582 79.7904 7.36582C78.2839 7.36582 77.2352 8.64506 77.2352 11.3035V17.2599H76.2014Z" fill="#133C93"/>
<path d="M88.6936 7.38581C87.2314 7.38581 85.9465 8.66505 85.8283 11.2035H91.4998C91.5441 8.66505 90.1853 7.38581 88.6936 7.38581ZM92.4303 13.802C92.0611 15.8607 90.7613 17.4198 88.7379 17.4198C86.4486 17.4198 84.7797 15.2611 84.7797 11.8032C84.7797 8.32525 86.4191 6.18653 88.7379 6.18653C91.101 6.18653 92.5484 8.46517 92.5484 11.2435C92.5484 11.6832 92.5484 11.9631 92.5189 12.3428H85.8283C85.9169 14.9013 87.2314 16.2405 88.7379 16.2405C90.1115 16.2405 91.042 15.2611 91.3373 13.802H92.4303Z" fill="#133C93"/>
<path d="M93.672 11.7832C93.672 8.36523 95.3114 6.18653 97.5268 6.18653C99.1515 6.18653 100.259 7.36582 100.717 8.745V6.34643H101.751V17.2599H100.717V14.8414C100.244 16.2405 99.1219 17.4198 97.512 17.4198C95.3114 17.4198 93.672 15.2011 93.672 11.7832ZM100.717 11.8032C100.717 9.0848 99.373 7.4058 97.7188 7.4058C96.0203 7.4058 94.7206 9.00484 94.7206 11.7832C94.7206 14.5415 96.0203 16.2005 97.7188 16.2005C99.373 16.2005 100.717 14.5215 100.717 11.8032Z" fill="#133C93"/>
<path d="M103.816 17.2599V2.46875H104.85V17.2599H103.816Z" fill="#133C93"/>
<path d="M107.191 14.3017V7.52573H106.068V6.34643H107.191V3.60807H108.239V6.34643H110.455V7.52573H108.239V14.3017C108.239 15.6409 108.579 16.0606 109.51 16.0606H110.455V17.2599H109.347C107.944 17.2599 107.191 16.4804 107.191 14.3017Z" fill="#133C93"/>
<path d="M111.865 17.2599V2.46875H112.898V8.20532C113.415 6.86612 114.479 6.14655 115.705 6.14655C117.492 6.14655 118.924 7.66564 118.924 10.8637V17.2599H117.905V11.0236C117.905 8.60508 116.93 7.36582 115.454 7.36582C113.947 7.36582 112.898 8.64506 112.898 11.3035V17.2599H111.865Z" fill="#133C93"/>
</svg>
