<svg width="160" height="19" viewBox="0 0 160 19" fill="none" xmlns="http://www.w3.org/2000/svg">
<path d="M0.439021 0H8.78034C14.1145 0 18.4387 4.37194 18.4387 9.765V10.0973H11.9191L9.47938 4.88992L7.45278 10.4221L5.32908 3.12178L2.61253 9.43882H0.0156897C0.00527408 9.25298 0 9.06576 0 8.87728V0.443867C0 0.198729 0.196546 0 0.439021 0Z" fill="#566388"/>
<path d="M0.17855 10.7559C1.0448 15.2501 4.95978 18.6423 9.65838 18.6423H17.9997C18.2422 18.6423 18.4387 18.4436 18.4387 18.1984V11.4144H11.0948L9.62647 8.28049L7.31083 14.6018L5.0923 6.97552L3.46661 10.7559H0.17855Z" fill="#01CDFF"/>
<path d="M40.1216 17.68V11.2769C40.1216 9.43545 39.0963 8.47289 37.5478 8.47289C35.9784 8.47289 34.9531 9.43545 34.9531 11.2769V17.68H32.0235V11.2769C32.0235 9.43545 30.9982 8.47289 29.4497 8.47289C27.8594 8.47289 26.8341 9.43545 26.8341 11.2769V17.68H23.9045V6.08741H26.8341V7.4894C27.5665 6.52684 28.8011 5.92001 30.2449 5.92001C32.0445 5.92001 33.5302 6.69424 34.3253 8.13808C35.0786 6.81979 36.6062 5.92001 38.3011 5.92001C41.0842 5.92001 43.0512 7.67773 43.0512 10.8793V17.68H40.1216Z" fill="#566388"/>
<path d="M50.3928 8.30549C48.9908 8.30549 47.8818 9.20527 47.6516 10.7956H53.155C53.1131 9.26805 51.8994 8.30549 50.3928 8.30549ZM55.8962 14.039C55.2684 16.1734 53.3433 17.8683 50.4765 17.8683C47.1076 17.8683 44.6593 15.5247 44.6593 11.8837C44.6593 8.22179 47.0448 5.89908 50.4765 5.89908C53.8246 5.89908 56.1891 8.17993 56.1891 11.6326C56.1891 12.0093 56.1682 12.3859 56.1054 12.7626H47.6307C47.7772 14.4784 48.949 15.441 50.4137 15.441C51.6693 15.441 52.3598 14.8132 52.7365 14.039H55.8962Z" fill="#566388"/>
<path d="M58.3693 14.0809V8.49381H56.9882V6.08741H58.3693V3.22065H61.3197V6.08741H63.9145V8.49381H61.3197V14.1018C61.3197 14.876 61.6336 15.2108 62.5543 15.2108H63.9145V17.68H62.073C59.855 17.68 58.3693 16.7384 58.3693 14.0809Z" fill="#566388"/>
<path d="M66.0634 14.0809V8.49381H64.6823V6.08741H66.0634V3.22065H69.0139V6.08741H71.6086V8.49381H69.0139V14.1018C69.0139 14.876 69.3277 15.2108 70.2484 15.2108H71.6086V17.68H69.7672C67.5491 17.68 66.0634 16.7384 66.0634 14.0809Z" fill="#566388"/>
<path d="M73.2972 17.68V2.19531H76.2267V17.68H73.2972Z" fill="#566388"/>
<path d="M83.6828 8.30549C82.2808 8.30549 81.1718 9.20527 80.9416 10.7956H86.4449C86.4031 9.26805 85.1894 8.30549 83.6828 8.30549ZM89.1861 14.039C88.5584 16.1734 86.6333 17.8683 83.7665 17.8683C80.3975 17.8683 77.9493 15.5247 77.9493 11.8837C77.9493 8.22179 80.3347 5.89908 83.7665 5.89908C87.1145 5.89908 89.4791 8.17993 89.4791 11.6326C89.4791 12.0093 89.4582 12.3859 89.3954 12.7626H80.9207C81.0671 14.4784 82.2389 15.441 83.7037 15.441C84.9592 15.441 85.6498 14.8132 86.0264 14.039H89.1861Z" fill="#566388"/>
<path d="M94.1284 11.9046V17.68H91.1989V6.08741H94.1284V7.88698C94.8608 6.69424 96.0745 5.92001 97.6857 5.92001V8.99602H96.9115C95.1747 8.99602 94.1284 9.66563 94.1284 11.9046Z" fill="#566388"/>
<path d="M99.4706 17.68V2.19531H100.935V8.20086C101.668 6.79887 103.174 6.04556 104.911 6.04556C107.443 6.04556 109.473 7.63588 109.473 10.9839V17.68H108.029V11.1513C108.029 8.61937 106.648 7.322 104.555 7.322C102.421 7.322 100.935 8.66122 100.935 11.4443V17.68H99.4706Z" fill="#566388"/>
<path d="M117.169 7.34293C115.098 7.34293 113.277 8.68214 113.11 11.3397H121.145C121.208 8.68214 119.283 7.34293 117.169 7.34293ZM122.464 14.0599C121.94 16.2152 120.099 17.8474 117.232 17.8474C113.989 17.8474 111.624 15.5875 111.624 11.9674C111.624 8.32641 113.947 6.08741 117.232 6.08741C120.58 6.08741 122.631 8.47289 122.631 11.3815C122.631 11.8419 122.631 12.1348 122.589 12.5324H113.11C113.235 15.2108 115.098 16.6128 117.232 16.6128C119.178 16.6128 120.497 15.5875 120.915 14.0599H122.464Z" fill="#566388"/>
<path d="M124.223 11.9465C124.223 8.36826 126.545 6.08741 129.684 6.08741C131.986 6.08741 133.555 7.322 134.204 8.76584V6.25481H135.669V17.68H134.204V15.148C133.534 16.6128 131.944 17.8474 129.663 17.8474C126.545 17.8474 124.223 15.5247 124.223 11.9465ZM134.204 11.9674C134.204 9.12157 132.3 7.36385 129.956 7.36385C127.55 7.36385 125.708 9.03787 125.708 11.9465C125.708 14.8342 127.55 16.571 129.956 16.571C132.3 16.571 134.204 14.8132 134.204 11.9674Z" fill="#566388"/>
<path d="M138.594 17.68V2.19531H140.059V17.68H138.594Z" fill="#566388"/>
<path d="M143.376 14.5831V7.4894H141.786V6.25481H143.376V3.38805H144.862V6.25481H148.001V7.4894H144.862V14.5831C144.862 15.9851 145.343 16.4245 146.661 16.4245H148.001V17.68H146.431C144.443 17.68 143.376 16.8639 143.376 14.5831Z" fill="#566388"/>
<path d="M149.998 17.68V2.19531H151.462V8.20086C152.195 6.79887 153.701 6.04556 155.438 6.04556C157.97 6.04556 160 7.63588 160 10.9839V17.68H158.556V11.1513C158.556 8.61937 157.175 7.322 155.083 7.322C152.948 7.322 151.462 8.66122 151.462 11.4443V17.68H149.998Z" fill="#566388"/>
</svg>
