<svg width="119" height="21" viewBox="0 0 119 21" fill="none" xmlns="http://www.w3.org/2000/svg">
<path d="M0.404012 0H7.33799C11.7722 0 15.3668 4.91843 15.3668 10.9856V11.3595H9.94719L7.91909 5.50116L6.23442 11.7249L4.46902 3.51201L2.21081 10.6187H0.0521051C0.0434467 10.4096 0.0390625 10.199 0.0390625 9.98694V0.499351C0.0390625 0.22357 0.202447 0 0.404012 0Z" fill="#133C93"/>
<path d="M0.187488 12.1004C0.907583 17.1564 4.16204 20.9726 8.06789 20.9726H15.0019C15.2034 20.9726 15.3668 20.749 15.3668 20.4732V12.8412H9.26192L8.04136 9.31555L6.11642 16.427L4.27219 7.84747L2.92079 12.1004H0.187488Z" fill="#01CDFF"/>
<path d="M34.3126 17.2599V11.1436C34.3126 9.38462 33.5889 8.46517 32.4959 8.46517C31.3882 8.46517 30.6645 9.38462 30.6645 11.1436V17.2599H28.5968V11.1436C28.5968 9.38462 27.8731 8.46517 26.7801 8.46517C25.6576 8.46517 24.9339 9.38462 24.9339 11.1436V17.2599H22.8662V6.18653H24.9339V7.52573C25.4509 6.60628 26.3223 6.02662 27.3414 6.02662C28.6115 6.02662 29.6602 6.76618 30.2214 8.14536C30.7531 6.88611 31.8313 6.02662 33.0276 6.02662C34.992 6.02662 36.3803 7.70562 36.3803 10.7638V17.2599H34.3126Z" fill="#133C93"/>
<path d="M41.5622 8.30526C40.5727 8.30526 39.7899 9.16475 39.6274 10.6838H43.5118C43.4822 9.22471 42.6256 8.30526 41.5622 8.30526ZM45.4466 13.782C45.0035 15.8208 43.6447 17.4398 41.6213 17.4398C39.2434 17.4398 37.5154 15.2011 37.5154 11.7232C37.5154 8.22531 39.1991 6.00664 41.6213 6.00664C43.9844 6.00664 45.6534 8.18533 45.6534 11.4834C45.6534 11.8431 45.6386 12.2029 45.5943 12.5627H39.6126C39.716 14.2017 40.5431 15.1212 41.577 15.1212C42.4631 15.1212 42.9505 14.5215 43.2164 13.782H45.4466Z" fill="#133C93"/>
<path d="M47.1922 13.822V8.48515H46.2174V6.18653H47.1922V3.44816H49.2747V6.18653H51.1061V8.48515H49.2747V13.842C49.2747 14.5815 49.4962 14.9013 50.1461 14.9013H51.1061V17.2599H49.8064C48.2408 17.2599 47.1922 16.3605 47.1922 13.822Z" fill="#133C93"/>
<path d="M52.6228 13.822V8.48515H51.6481V6.18653H52.6228V3.44816H54.7053V6.18653H56.5368V8.48515H54.7053V13.842C54.7053 14.5815 54.9269 14.9013 55.5767 14.9013H56.5368V17.2599H55.237C53.6715 17.2599 52.6228 16.3605 52.6228 13.822Z" fill="#133C93"/>
<path d="M57.7286 17.2599V2.46875H59.7963V17.2599H57.7286Z" fill="#133C93"/>
<path d="M65.059 8.30526C64.0694 8.30526 63.2867 9.16475 63.1242 10.6838H67.0086C66.979 9.22471 66.1224 8.30526 65.059 8.30526ZM68.9434 13.782C68.5003 15.8208 67.1415 17.4398 65.1181 17.4398C62.7402 17.4398 61.0121 15.2011 61.0121 11.7232C61.0121 8.22531 62.6959 6.00664 65.1181 6.00664C67.4812 6.00664 69.1501 8.18533 69.1501 11.4834C69.1501 11.8431 69.1354 12.2029 69.0911 12.5627H63.1094C63.2128 14.2017 64.0399 15.1212 65.0738 15.1212C65.9599 15.1212 66.4473 14.5215 66.7132 13.782H68.9434Z" fill="#133C93"/>
<path d="M72.4317 11.7432V17.2599H70.364V6.18653H72.4317V7.9055C72.9487 6.76618 73.8053 6.02662 74.9426 6.02662V8.96487H74.3961C73.1702 8.96487 72.4317 9.60449 72.4317 11.7432Z" fill="#133C93"/>
<path d="M76.2024 17.2599V2.46875H77.2362V8.20532C77.7531 6.86612 78.8166 6.14655 80.0424 6.14655C81.8295 6.14655 83.2622 7.66564 83.2622 10.8637V17.2599H82.2431V11.0236C82.2431 8.60508 81.2683 7.36582 79.7913 7.36582C78.2848 7.36582 77.2362 8.64506 77.2362 11.3035V17.2599H76.2024Z" fill="#133C93"/>
<path d="M88.6946 7.38581C87.2324 7.38581 85.9475 8.66505 85.8293 11.2035H91.5008C91.5451 8.66505 90.1863 7.38581 88.6946 7.38581ZM92.4313 13.802C92.062 15.8607 90.7623 17.4198 88.7389 17.4198C86.4496 17.4198 84.7807 15.2611 84.7807 11.8032C84.7807 8.32525 86.4201 6.18653 88.7389 6.18653C91.102 6.18653 92.5494 8.46517 92.5494 11.2435C92.5494 11.6832 92.5494 11.9631 92.5199 12.3428H85.8293C85.9179 14.9013 87.2324 16.2405 88.7389 16.2405C90.1125 16.2405 91.0429 15.2611 91.3383 13.802H92.4313Z" fill="#133C93"/>
<path d="M93.6729 11.7832C93.6729 8.36523 95.3124 6.18653 97.5278 6.18653C99.1524 6.18653 100.26 7.36582 100.718 8.745V6.34643H101.752V17.2599H100.718V14.8414C100.245 16.2405 99.1229 17.4198 97.513 17.4198C95.3124 17.4198 93.6729 15.2011 93.6729 11.7832ZM100.718 11.8032C100.718 9.0848 99.374 7.4058 97.7198 7.4058C96.0213 7.4058 94.7216 9.00484 94.7216 11.7832C94.7216 14.5415 96.0213 16.2005 97.7198 16.2005C99.374 16.2005 100.718 14.5215 100.718 11.8032Z" fill="#133C93"/>
<path d="M103.817 17.2599V2.46875H104.851V17.2599H103.817Z" fill="#133C93"/>
<path d="M107.192 14.3017V7.52573H106.069V6.34643H107.192V3.60807H108.24V6.34643H110.456V7.52573H108.24V14.3017C108.24 15.6409 108.58 16.0606 109.511 16.0606H110.456V17.2599H109.348C107.945 17.2599 107.192 16.4804 107.192 14.3017Z" fill="#133C93"/>
<path d="M111.866 17.2599V2.46875H112.899V8.20532C113.416 6.86612 114.48 6.14655 115.706 6.14655C117.493 6.14655 118.925 7.66564 118.925 10.8637V17.2599H117.906V11.0236C117.906 8.60508 116.931 7.36582 115.454 7.36582C113.948 7.36582 112.899 8.64506 112.899 11.3035V17.2599H111.866Z" fill="#133C93"/>
</svg>
