<svg width="119" height="21" viewBox="0 0 119 21" fill="none" xmlns="http://www.w3.org/2000/svg">
<path d="M0.404256 0H7.33823C11.7724 0 15.3671 4.91843 15.3671 10.9856V11.3595H9.94743L7.91933 5.50116L6.23466 11.7249L4.46926 3.51201L2.21105 10.6187H0.0523492C0.0436909 10.4096 0.0393066 10.199 0.0393066 9.98694V0.499351C0.0393066 0.22357 0.202691 0 0.404256 0Z" fill="#133C93"/>
<path d="M0.187732 12.1004C0.907827 17.1564 4.16228 20.9726 8.06813 20.9726H15.0021C15.2037 20.9726 15.3671 20.749 15.3671 20.4732V12.8412H9.26217L8.04161 9.31555L6.11666 16.427L4.27244 7.84747L2.92103 12.1004H0.187732Z" fill="#01CDFF"/>
<path d="M34.3128 17.2599V11.1436C34.3128 9.38462 33.5891 8.46517 32.4962 8.46517C31.3885 8.46517 30.6648 9.38462 30.6648 11.1436V17.2599H28.597V11.1436C28.597 9.38462 27.8733 8.46517 26.7804 8.46517C25.6579 8.46517 24.9342 9.38462 24.9342 11.1436V17.2599H22.8665V6.18653H24.9342V7.52573C25.4511 6.60628 26.3225 6.02662 27.3416 6.02662C28.6118 6.02662 29.6604 6.76618 30.2217 8.14536C30.7534 6.88611 31.8315 6.02662 33.0279 6.02662C34.9922 6.02662 36.3806 7.70562 36.3806 10.7638V17.2599H34.3128Z" fill="#133C93"/>
<path d="M41.5625 8.30526C40.5729 8.30526 39.7901 9.16475 39.6276 10.6838H43.512C43.4825 9.22471 42.6259 8.30526 41.5625 8.30526ZM45.4468 13.782C45.0037 15.8208 43.645 17.4398 41.6215 17.4398C39.2436 17.4398 37.5156 15.2011 37.5156 11.7232C37.5156 8.22531 39.1993 6.00664 41.6215 6.00664C43.9847 6.00664 45.6536 8.18533 45.6536 11.4834C45.6536 11.8431 45.6388 12.2029 45.5945 12.5627H39.6129C39.7163 14.2017 40.5434 15.1212 41.5772 15.1212C42.4634 15.1212 42.9508 14.5215 43.2166 13.782H45.4468Z" fill="#133C93"/>
<path d="M47.1924 13.822V8.48515H46.2176V6.18653H47.1924V3.44816H49.2749V6.18653H51.1063V8.48515H49.2749V13.842C49.2749 14.5815 49.4964 14.9013 50.1463 14.9013H51.1063V17.2599H49.8066C48.241 17.2599 47.1924 16.3605 47.1924 13.822Z" fill="#133C93"/>
<path d="M52.6231 13.822V8.48515H51.6483V6.18653H52.6231V3.44816H54.7056V6.18653H56.537V8.48515H54.7056V13.842C54.7056 14.5815 54.9271 14.9013 55.577 14.9013H56.537V17.2599H55.2373C53.6717 17.2599 52.6231 16.3605 52.6231 13.822Z" fill="#133C93"/>
<path d="M57.7288 17.2599V2.46875H59.7966V17.2599H57.7288Z" fill="#133C93"/>
<path d="M65.0592 8.30526C64.0697 8.30526 63.2869 9.16475 63.1244 10.6838H67.0088C66.9793 9.22471 66.1226 8.30526 65.0592 8.30526ZM68.9436 13.782C68.5005 15.8208 67.1417 17.4398 65.1183 17.4398C62.7404 17.4398 61.0124 15.2011 61.0124 11.7232C61.0124 8.22531 62.6961 6.00664 65.1183 6.00664C67.4814 6.00664 69.1504 8.18533 69.1504 11.4834C69.1504 11.8431 69.1356 12.2029 69.0913 12.5627H63.1097C63.213 14.2017 64.0401 15.1212 65.074 15.1212C65.9602 15.1212 66.4476 14.5215 66.7134 13.782H68.9436Z" fill="#133C93"/>
<path d="M72.432 11.7432V17.2599H70.3643V6.18653H72.432V7.9055C72.9489 6.76618 73.8055 6.02662 74.9428 6.02662V8.96487H74.3963C73.1705 8.96487 72.432 9.60449 72.432 11.7432Z" fill="#133C93"/>
<path d="M76.2026 17.2599V2.46875H77.2365V8.20532C77.7534 6.86612 78.8168 6.14655 80.0427 6.14655C81.8298 6.14655 83.2624 7.66564 83.2624 10.8637V17.2599H82.2433V11.0236C82.2433 8.60508 81.2685 7.36582 79.7916 7.36582C78.2851 7.36582 77.2365 8.64506 77.2365 11.3035V17.2599H76.2026Z" fill="#133C93"/>
<path d="M88.6948 7.38581C87.2326 7.38581 85.9477 8.66505 85.8295 11.2035H91.501C91.5453 8.66505 90.1865 7.38581 88.6948 7.38581ZM92.4315 13.802C92.0623 15.8607 90.7626 17.4198 88.7391 17.4198C86.4499 17.4198 84.7809 15.2611 84.7809 11.8032C84.7809 8.32525 86.4203 6.18653 88.7391 6.18653C91.1023 6.18653 92.5497 8.46517 92.5497 11.2435C92.5497 11.6832 92.5497 11.9631 92.5201 12.3428H85.8295C85.9182 14.9013 87.2326 16.2405 88.7391 16.2405C90.1127 16.2405 91.0432 15.2611 91.3386 13.802H92.4315Z" fill="#133C93"/>
<path d="M93.6732 11.7832C93.6732 8.36523 95.3126 6.18653 97.528 6.18653C99.1527 6.18653 100.26 7.36582 100.718 8.745V6.34643H101.752V17.2599H100.718V14.8414C100.246 16.2405 99.1231 17.4198 97.5133 17.4198C95.3126 17.4198 93.6732 15.2011 93.6732 11.7832ZM100.718 11.8032C100.718 9.0848 99.3742 7.4058 97.72 7.4058C96.0215 7.4058 94.7218 9.00484 94.7218 11.7832C94.7218 14.5415 96.0215 16.2005 97.72 16.2005C99.3742 16.2005 100.718 14.5215 100.718 11.8032Z" fill="#133C93"/>
<path d="M103.817 17.2599V2.46875H104.851V17.2599H103.817Z" fill="#133C93"/>
<path d="M107.192 14.3017V7.52573H106.07V6.34643H107.192V3.60807H108.241V6.34643H110.456V7.52573H108.241V14.3017C108.241 15.6409 108.58 16.0606 109.511 16.0606H110.456V17.2599H109.348C107.945 17.2599 107.192 16.4804 107.192 14.3017Z" fill="#133C93"/>
<path d="M111.866 17.2599V2.46875H112.9V8.20532C113.417 6.86612 114.48 6.14655 115.706 6.14655C117.493 6.14655 118.926 7.66564 118.926 10.8637V17.2599H117.906V11.0236C117.906 8.60508 116.932 7.36582 115.455 7.36582C113.948 7.36582 112.9 8.64506 112.9 11.3035V17.2599H111.866Z" fill="#133C93"/>
</svg>
