<svg width="24" height="24" viewBox="0 0 24 24" fill="none" xmlns="http://www.w3.org/2000/svg">
<path d="M18 7C18 5.346 16.654 4 15 4H9C7.346 4 6 5.346 6 7C4.346 7 3 8.346 3 10V17C3 18.654 4.346 20 6 20H18C19.654 20 21 18.654 21 17V10C21 8.346 19.654 7 18 7ZM9 6H15C15.551 6 16 6.449 16 7H8C8 6.449 8.449 6 9 6ZM19 17C19 17.551 18.551 18 18 18H6C5.449 18 5 17.551 5 17V16H19V17ZM5 15V10C5 9.449 5.449 9 6 9H18C18.551 9 19 9.449 19 10V15H5ZM13 12H11C10.45 12 10 12.45 10 13C10 13.55 10.45 14 11 14H13C13.55 14 14 13.55 14 13C14 12.45 13.55 12 13 12Z" fill="#515667"/>
</svg>
