<svg width="119" height="21" viewBox="0 0 119 21" fill="none" xmlns="http://www.w3.org/2000/svg">
<path d="M0.4045 0H7.33848C11.7727 0 15.3673 4.91843 15.3673 10.9856V11.3595H9.94768L7.91958 5.50116L6.2349 11.7249L4.46951 3.51201L2.21129 10.6187H0.0525934C0.043935 10.4096 0.0395508 10.199 0.0395508 9.98694V0.499351C0.0395508 0.22357 0.202935 0 0.4045 0Z" fill="#133C93"/>
<path d="M0.187976 12.1004C0.908072 17.1564 4.16252 20.9726 8.06838 20.9726H15.0024C15.2039 20.9726 15.3673 20.749 15.3673 20.4732V12.8412H9.26241L8.04185 9.31555L6.1169 16.427L4.27268 7.84747L2.92128 12.1004H0.187976Z" fill="#01CDFF"/>
<path d="M34.3131 17.2599V11.1436C34.3131 9.38462 33.5894 8.46517 32.4964 8.46517C31.3887 8.46517 30.665 9.38462 30.665 11.1436V17.2599H28.5973V11.1436C28.5973 9.38462 27.8736 8.46517 26.7806 8.46517C25.6581 8.46517 24.9344 9.38462 24.9344 11.1436V17.2599H22.8667V6.18653H24.9344V7.52573C25.4514 6.60628 26.3228 6.02662 27.3419 6.02662C28.612 6.02662 29.6607 6.76618 30.2219 8.14536C30.7536 6.88611 31.8318 6.02662 33.0281 6.02662C34.9925 6.02662 36.3808 7.70562 36.3808 10.7638V17.2599H34.3131Z" fill="#133C93"/>
<path d="M41.5627 8.30526C40.5731 8.30526 39.7904 9.16475 39.6279 10.6838H43.5123C43.4827 9.22471 42.6261 8.30526 41.5627 8.30526ZM45.4471 13.782C45.004 15.8208 43.6452 17.4398 41.6218 17.4398C39.2439 17.4398 37.5159 15.2011 37.5159 11.7232C37.5159 8.22531 39.1996 6.00664 41.6218 6.00664C43.9849 6.00664 45.6539 8.18533 45.6539 11.4834C45.6539 11.8431 45.6391 12.2029 45.5948 12.5627H39.6131C39.7165 14.2017 40.5436 15.1212 41.5775 15.1212C42.4636 15.1212 42.951 14.5215 43.2169 13.782H45.4471Z" fill="#133C93"/>
<path d="M47.1927 13.822V8.48515H46.2179V6.18653H47.1927V3.44816H49.2751V6.18653H51.1066V8.48515H49.2751V13.842C49.2751 14.5815 49.4967 14.9013 50.1466 14.9013H51.1066V17.2599H49.8069C48.2413 17.2599 47.1927 16.3605 47.1927 13.822Z" fill="#133C93"/>
<path d="M52.6233 13.822V8.48515H51.6485V6.18653H52.6233V3.44816H54.7058V6.18653H56.5372V8.48515H54.7058V13.842C54.7058 14.5815 54.9274 14.9013 55.5772 14.9013H56.5372V17.2599H55.2375C53.672 17.2599 52.6233 16.3605 52.6233 13.822Z" fill="#133C93"/>
<path d="M57.7291 17.2599V2.46875H59.7968V17.2599H57.7291Z" fill="#133C93"/>
<path d="M65.0595 8.30526C64.0699 8.30526 63.2871 9.16475 63.1247 10.6838H67.0091C66.9795 9.22471 66.1229 8.30526 65.0595 8.30526ZM68.9439 13.782C68.5008 15.8208 67.142 17.4398 65.1186 17.4398C62.7407 17.4398 61.0126 15.2011 61.0126 11.7232C61.0126 8.22531 62.6964 6.00664 65.1186 6.00664C67.4817 6.00664 69.1506 8.18533 69.1506 11.4834C69.1506 11.8431 69.1359 12.2029 69.0916 12.5627H63.1099C63.2133 14.2017 64.0404 15.1212 65.0742 15.1212C65.9604 15.1212 66.4478 14.5215 66.7137 13.782H68.9439Z" fill="#133C93"/>
<path d="M72.4322 11.7432V17.2599H70.3645V6.18653H72.4322V7.9055C72.9492 6.76618 73.8058 6.02662 74.943 6.02662V8.96487H74.3966C73.1707 8.96487 72.4322 9.60449 72.4322 11.7432Z" fill="#133C93"/>
<path d="M76.2028 17.2599V2.46875H77.2367V8.20532C77.7536 6.86612 78.817 6.14655 80.0429 6.14655C81.83 6.14655 83.2627 7.66564 83.2627 10.8637V17.2599H82.2436V11.0236C82.2436 8.60508 81.2688 7.36582 79.7918 7.36582C78.2853 7.36582 77.2367 8.64506 77.2367 11.3035V17.2599H76.2028Z" fill="#133C93"/>
<path d="M88.6951 7.38581C87.2329 7.38581 85.9479 8.66505 85.8298 11.2035H91.5013C91.5456 8.66505 90.1868 7.38581 88.6951 7.38581ZM92.4318 13.802C92.0625 15.8607 90.7628 17.4198 88.7394 17.4198C86.4501 17.4198 84.7811 15.2611 84.7811 11.8032C84.7811 8.32525 86.4206 6.18653 88.7394 6.18653C91.1025 6.18653 92.5499 8.46517 92.5499 11.2435C92.5499 11.6832 92.5499 11.9631 92.5204 12.3428H85.8298C85.9184 14.9013 87.2329 16.2405 88.7394 16.2405C90.1129 16.2405 91.0434 15.2611 91.3388 13.802H92.4318Z" fill="#133C93"/>
<path d="M93.6734 11.7832C93.6734 8.36523 95.3128 6.18653 97.5283 6.18653C99.1529 6.18653 100.261 7.36582 100.718 8.745V6.34643H101.752V17.2599H100.718V14.8414C100.246 16.2405 99.1234 17.4198 97.5135 17.4198C95.3128 17.4198 93.6734 15.2011 93.6734 11.7832ZM100.718 11.8032C100.718 9.0848 99.3745 7.4058 97.7203 7.4058C96.0218 7.4058 94.7221 9.00484 94.7221 11.7832C94.7221 14.5415 96.0218 16.2005 97.7203 16.2005C99.3745 16.2005 100.718 14.5215 100.718 11.8032Z" fill="#133C93"/>
<path d="M103.817 17.2599V2.46875H104.851V17.2599H103.817Z" fill="#133C93"/>
<path d="M107.192 14.3017V7.52573H106.07V6.34643H107.192V3.60807H108.241V6.34643H110.456V7.52573H108.241V14.3017C108.241 15.6409 108.581 16.0606 109.511 16.0606H110.456V17.2599H109.349C107.945 17.2599 107.192 16.4804 107.192 14.3017Z" fill="#133C93"/>
<path d="M111.866 17.2599V2.46875H112.9V8.20532C113.417 6.86612 114.48 6.14655 115.706 6.14655C117.493 6.14655 118.926 7.66564 118.926 10.8637V17.2599H117.907V11.0236C117.907 8.60508 116.932 7.36582 115.455 7.36582C113.948 7.36582 112.9 8.64506 112.9 11.3035V17.2599H111.866Z" fill="#133C93"/>
</svg>
