<svg width="180" height="21" viewBox="0 0 180 21" fill="none" xmlns="http://www.w3.org/2000/svg">
<path d="M0.493899 0H9.87788C15.8788 0 20.7436 4.91843 20.7436 10.9856V11.3595H13.409L10.6643 5.50116L8.38438 11.7249L5.99521 3.51201L2.93909 10.6187H0.0176509C0.00593334 10.4096 0 10.199 0 9.98694V0.499351C0 0.22357 0.221114 0 0.493899 0Z" fill="white"/>
<path d="M0.200869 12.1004C1.1754 17.1564 5.57976 20.9726 10.8657 20.9726H20.2497C20.5224 20.9726 20.7436 20.749 20.7436 20.4732V12.8412H12.4816L10.8298 9.31555L8.22469 16.427L5.72884 7.84747L3.89994 12.1004H0.200869Z" fill="#01CDFF"/>
<path d="M45.1368 19.8895V12.686C45.1368 10.6144 43.9833 9.53151 42.2413 9.53151C40.4757 9.53151 39.3222 10.6144 39.3222 12.686V19.8895H36.0265V12.686C36.0265 10.6144 34.873 9.53151 33.1309 9.53151C31.3418 9.53151 30.1883 10.6144 30.1883 12.686V19.8895H26.8926V6.84785H30.1883V8.42509C31.0122 7.34221 32.4012 6.65952 34.0255 6.65952C36.05 6.65952 37.7214 7.53053 38.616 9.15486C39.4634 7.67178 41.1819 6.65952 43.0887 6.65952C46.2197 6.65952 48.4325 8.63696 48.4325 12.2387V19.8895H45.1368Z" fill="white"/>
<path d="M56.6919 9.34319C55.1146 9.34319 53.867 10.3554 53.608 12.1446H59.7993C59.7522 10.4261 58.3868 9.34319 56.6919 9.34319ZM62.8832 15.7934C62.1769 18.1946 60.0112 20.1014 56.7861 20.1014C52.996 20.1014 50.2417 17.4648 50.2417 13.3687C50.2417 9.24902 52.9253 6.63598 56.7861 6.63598C60.5526 6.63598 63.2127 9.20194 63.2127 13.0862C63.2127 13.5099 63.1892 13.9337 63.1186 14.3574H53.5845C53.7493 16.2878 55.0676 17.3706 56.7154 17.3706C58.1279 17.3706 58.9047 16.6644 59.3285 15.7934H62.8832Z" fill="white"/>
<path d="M65.6654 15.8405V9.55505H64.1117V6.84785H65.6654V3.62274H68.9847V6.84785H71.9037V9.55505H68.9847V15.864C68.9847 16.735 69.3378 17.1117 70.3736 17.1117H71.9037V19.8895H69.8321C67.3368 19.8895 65.6654 18.8302 65.6654 15.8405Z" fill="white"/>
<path d="M74.3213 15.8405V9.55505H72.7676V6.84785H74.3213V3.62274H77.6406V6.84785H80.5596V9.55505H77.6406V15.864C77.6406 16.735 77.9937 17.1117 79.0295 17.1117H80.5596V19.8895H78.488C75.9927 19.8895 74.3213 18.8302 74.3213 15.8405Z" fill="white"/>
<path d="M82.4593 19.8895V2.46924H85.755V19.8895H82.4593Z" fill="white"/>
<path d="M94.1431 9.34319C92.5659 9.34319 91.3182 10.3554 91.0592 12.1446H97.2505C97.2034 10.4261 95.8381 9.34319 94.1431 9.34319ZM100.334 15.7934C99.6281 18.1946 97.4624 20.1014 94.2373 20.1014C90.4472 20.1014 87.6929 17.4648 87.6929 13.3687C87.6929 9.24902 90.3766 6.63598 94.2373 6.63598C98.0038 6.63598 100.664 9.20194 100.664 13.0862C100.664 13.5099 100.64 13.9337 100.57 14.3574H91.0357C91.2005 16.2878 92.5188 17.3706 94.1666 17.3706C95.5791 17.3706 96.356 16.6644 96.7797 15.7934H100.334Z" fill="white"/>
<path d="M105.894 13.3922V19.8895H102.599V6.84785H105.894V8.87237C106.718 7.53053 108.084 6.65952 109.896 6.65952V10.12H109.025C107.071 10.12 105.894 10.8733 105.894 13.3922Z" fill="white"/>
<path d="M111.904 19.8895V2.46924H113.552V9.22548C114.376 7.64824 116.071 6.80077 118.025 6.80077C120.873 6.80077 123.157 8.58988 123.157 12.3564V19.8895H121.533V12.5448C121.533 9.6963 119.979 8.23676 117.625 8.23676C115.224 8.23676 113.552 9.74338 113.552 12.8743V19.8895H111.904Z" fill="white"/>
<path d="M131.816 8.2603C129.485 8.2603 127.437 9.76692 127.249 12.7566H136.288C136.359 9.76692 134.193 8.2603 131.816 8.2603ZM137.771 15.8169C137.183 18.2417 135.111 20.0778 131.886 20.0778C128.237 20.0778 125.577 17.5354 125.577 13.4628C125.577 9.36673 128.19 6.84785 131.886 6.84785C135.653 6.84785 137.96 9.53151 137.96 12.8037C137.96 13.3216 137.96 13.6512 137.913 14.0985H127.249C127.39 17.1117 129.485 18.6889 131.886 18.6889C134.076 18.6889 135.559 17.5354 136.029 15.8169H137.771Z" fill="white"/>
<path d="M139.751 13.4393C139.751 9.41381 142.364 6.84785 145.895 6.84785C148.484 6.84785 150.25 8.23676 150.98 9.86109V7.03618H152.627V19.8895H150.98V17.0411C150.226 18.6889 148.437 20.0778 145.871 20.0778C142.364 20.0778 139.751 17.4648 139.751 13.4393ZM150.98 13.4628C150.98 10.2613 148.837 8.28384 146.201 8.28384C143.494 8.28384 141.422 10.1671 141.422 13.4393C141.422 16.688 143.494 18.6418 146.201 18.6418C148.837 18.6418 150.98 16.6644 150.98 13.4628Z" fill="white"/>
<path d="M155.919 19.8895V2.46924H157.566V19.8895H155.919Z" fill="white"/>
<path d="M161.298 16.4055V8.42509H159.509V7.03618H161.298V3.81107H162.969V7.03618H166.501V8.42509H162.969V16.4055C162.969 17.9827 163.511 18.4771 164.994 18.4771H166.501V19.8895H164.735C162.499 19.8895 161.298 18.9714 161.298 16.4055Z" fill="white"/>
<path d="M168.747 19.8895V2.46924H170.395V9.22548C171.219 7.64824 172.914 6.80077 174.868 6.80077C177.717 6.80077 180 8.58988 180 12.3564V19.8895H178.376V12.5448C178.376 9.6963 176.822 8.23676 174.468 8.23676C172.067 8.23676 170.395 9.74338 170.395 12.8743V19.8895H168.747Z" fill="white"/>
</svg>
