<svg width="161" height="21" viewBox="0 0 161 21" fill="none" xmlns="http://www.w3.org/2000/svg">
<path d="M0.493899 0H9.87788C15.8788 0 20.7436 4.91843 20.7436 10.9856V11.3595H13.409L10.6643 5.50116L8.38438 11.7249L5.99521 3.51201L2.93909 10.6187H0.0176509C0.00593334 10.4096 0 10.199 0 9.98694V0.499351C0 0.22357 0.221114 0 0.493899 0Z" fill="#133C93"/>
<path d="M0.200869 12.1004C1.1754 17.1564 5.57976 20.9726 10.8657 20.9726H20.2497C20.5224 20.9726 20.7436 20.749 20.7436 20.4732V12.8412H12.4816L10.8298 9.31555L8.22469 16.427L5.72884 7.84747L3.89994 12.1004H0.200869Z" fill="#01CDFF"/>
<path d="M46.3833 17.2599V11.1436C46.3833 9.38462 45.4039 8.46517 43.9248 8.46517C42.4257 8.46517 41.4463 9.38462 41.4463 11.1436V17.2599H38.6479V11.1436C38.6479 9.38462 37.6685 8.46517 36.1894 8.46517C34.6703 8.46517 33.6909 9.38462 33.6909 11.1436V17.2599H30.8926V6.18653H33.6909V7.52573C34.3905 6.60628 35.5698 6.02662 36.949 6.02662C38.6679 6.02662 40.0871 6.76618 40.8466 8.14536C41.5662 6.88611 43.0253 6.02662 44.6444 6.02662C47.3028 6.02662 49.1817 7.70562 49.1817 10.7638V17.2599H46.3833Z" fill="#133C93"/>
<path d="M56.1945 8.30526C54.8553 8.30526 53.7959 9.16475 53.5761 10.6838H58.8329C58.7929 9.22471 57.6336 8.30526 56.1945 8.30526ZM61.4514 13.782C60.8517 15.8208 59.0128 17.4398 56.2745 17.4398C53.0564 17.4398 50.7178 15.2011 50.7178 11.7232C50.7178 8.22531 52.9964 6.00664 56.2745 6.00664C59.4725 6.00664 61.7312 8.18533 61.7312 11.4834C61.7312 11.8431 61.7112 12.2029 61.6512 12.5627H53.5561C53.696 14.2017 54.8153 15.1212 56.2145 15.1212C57.4138 15.1212 58.0734 14.5215 58.4332 13.782H61.4514Z" fill="#133C93"/>
<path d="M63.8137 13.822V8.48515H62.4945V6.18653H63.8137V3.44816H66.632V6.18653H69.1105V8.48515H66.632V13.842C66.632 14.5815 66.9318 14.9013 67.8113 14.9013H69.1105V17.2599H67.3516C65.2329 17.2599 63.8137 16.3605 63.8137 13.822Z" fill="#133C93"/>
<path d="M71.1632 13.822V8.48515H69.844V6.18653H71.1632V3.44816H73.9815V6.18653H76.4601V8.48515H73.9815V13.842C73.9815 14.5815 74.2814 14.9013 75.1608 14.9013H76.4601V17.2599H74.7011C72.5824 17.2599 71.1632 16.3605 71.1632 13.822Z" fill="#133C93"/>
<path d="M78.073 17.2599V2.46875H80.8713V17.2599H78.073Z" fill="#133C93"/>
<path d="M87.9935 8.30526C86.6543 8.30526 85.5949 9.16475 85.375 10.6838H90.6319C90.5919 9.22471 89.4326 8.30526 87.9935 8.30526ZM93.2503 13.782C92.6507 15.8208 90.8118 17.4398 88.0734 17.4398C84.8553 17.4398 82.5167 15.2011 82.5167 11.7232C82.5167 8.22531 84.7954 6.00664 88.0734 6.00664C91.2715 6.00664 93.5302 8.18533 93.5302 11.4834C93.5302 11.8431 93.5102 12.2029 93.4502 12.5627H85.355C85.495 14.2017 86.6143 15.1212 88.0135 15.1212C89.2127 15.1212 89.8724 14.5215 90.2321 13.782H93.2503Z" fill="#133C93"/>
<path d="M97.9713 11.7432V17.2599H95.1729V6.18653H97.9713V7.9055C98.6708 6.76618 99.8302 6.02662 101.369 6.02662V8.96487H100.63C98.9707 8.96487 97.9713 9.60449 97.9713 11.7432Z" fill="#133C93"/>
<path d="M103.074 17.2599V2.46875H104.473V8.20532C105.173 6.86612 106.612 6.14655 108.271 6.14655C110.69 6.14655 112.628 7.66564 112.628 10.8637V17.2599H111.249V11.0236C111.249 8.60508 109.93 7.36582 107.931 7.36582C105.892 7.36582 104.473 8.64506 104.473 11.3035V17.2599H103.074Z" fill="#133C93"/>
<path d="M119.98 7.38581C118.001 7.38581 116.263 8.66505 116.103 11.2035H123.778C123.838 8.66505 121.999 7.38581 119.98 7.38581ZM125.037 13.802C124.538 15.8607 122.779 17.4198 120.04 17.4198C116.942 17.4198 114.683 15.2611 114.683 11.8032C114.683 8.32525 116.902 6.18653 120.04 6.18653C123.238 6.18653 125.197 8.46517 125.197 11.2435C125.197 11.6832 125.197 11.9631 125.157 12.3428H116.103C116.223 14.9013 118.001 16.2405 120.04 16.2405C121.899 16.2405 123.158 15.2611 123.558 13.802H125.037Z" fill="#133C93"/>
<path d="M126.718 11.7832C126.718 8.36523 128.936 6.18653 131.935 6.18653C134.133 6.18653 135.632 7.36582 136.252 8.745V6.34643H137.651V17.2599H136.252V14.8414C135.612 16.2405 134.093 17.4198 131.915 17.4198C128.936 17.4198 126.718 15.2011 126.718 11.7832ZM136.252 11.8032C136.252 9.0848 134.433 7.4058 132.194 7.4058C129.896 7.4058 128.137 9.00484 128.137 11.7832C128.137 14.5415 129.896 16.2005 132.194 16.2005C134.433 16.2005 136.252 14.5215 136.252 11.8032Z" fill="#133C93"/>
<path d="M140.446 17.2599V2.46875H141.845V17.2599H140.446Z" fill="#133C93"/>
<path d="M145.013 14.3017V7.52573H143.494V6.34643H145.013V3.60807H146.432V6.34643H149.431V7.52573H146.432V14.3017C146.432 15.6409 146.892 16.0606 148.151 16.0606H149.431V17.2599H147.931C146.033 17.2599 145.013 16.4804 145.013 14.3017Z" fill="#133C93"/>
<path d="M151.338 17.2599V2.46875H152.737V8.20532C153.437 6.86612 154.876 6.14655 156.535 6.14655C158.954 6.14655 160.893 7.66564 160.893 10.8637V17.2599H159.513V11.0236C159.513 8.60508 158.194 7.36582 156.195 7.36582C154.157 7.36582 152.737 8.64506 152.737 11.3035V17.2599H151.338Z" fill="#133C93"/>
</svg>
