<svg width="21" height="20" viewBox="0 0 21 20" fill="none" xmlns="http://www.w3.org/2000/svg">
<g id="Group">
<path id="Vector" d="M10.4999 11.6673V13.334C9.17384 13.334 7.90207 13.8608 6.96438 14.7984C6.0267 15.7361 5.49992 17.0079 5.49992 18.334H3.83325C3.83325 16.5659 4.53563 14.8702 5.78587 13.6199C7.03612 12.3697 8.73181 11.6673 10.4999 11.6673ZM10.4999 10.834C7.73742 10.834 5.49992 8.59648 5.49992 5.83398C5.49992 3.07148 7.73742 0.833984 10.4999 0.833984C13.2624 0.833984 15.4999 3.07148 15.4999 5.83398C15.4999 8.59648 13.2624 10.834 10.4999 10.834ZM10.4999 9.16732C12.3416 9.16732 13.8333 7.67565 13.8333 5.83398C13.8333 3.99232 12.3416 2.50065 10.4999 2.50065C8.65825 2.50065 7.16659 3.99232 7.16659 5.83398C7.16659 7.67565 8.65825 9.16732 10.4999 9.16732ZM12.6624 15.6773C12.5568 15.2327 12.5568 14.7695 12.6624 14.3248L11.8358 13.8473L12.6691 12.404L13.4958 12.8815C13.8276 12.5672 14.2286 12.3354 14.6666 12.2048V11.2507H16.3333V12.2048C16.7766 12.3365 17.1766 12.5715 17.5041 12.8815L18.3308 12.404L19.1641 13.8473L18.3374 14.3248C18.4429 14.7692 18.4429 15.2321 18.3374 15.6765L19.1641 16.154L18.3308 17.5973L17.5041 17.1198C17.1723 17.4341 16.7712 17.6659 16.3333 17.7965V18.7507H14.6666V17.7965C14.2286 17.6659 13.8276 17.4341 13.4958 17.1198L12.6691 17.5973L11.8358 16.154L12.6624 15.6773ZM15.4999 16.2507C15.8314 16.2507 16.1494 16.119 16.3838 15.8845C16.6182 15.6501 16.7499 15.3322 16.7499 15.0007C16.7499 14.6691 16.6182 14.3512 16.3838 14.1168C16.1494 13.8823 15.8314 13.7507 15.4999 13.7507C15.1684 13.7507 14.8505 13.8823 14.616 14.1168C14.3816 14.3512 14.2499 14.6691 14.2499 15.0007C14.2499 15.3322 14.3816 15.6501 14.616 15.8845C14.8505 16.119 15.1684 16.2507 15.4999 16.2507Z" fill="white"/>
</g>
</svg>
