<svg width="673" height="143" viewBox="0 0 673 143" fill="none" xmlns="http://www.w3.org/2000/svg">
<g filter="url(#filter0_d_594_18116)">
<path d="M8 64.553H26.1104L42.2086 49.4015L58.3067 72.1288L73.3988 38.0379L89.4969 93.9091L107.607 20.0455L119.681 128L136.785 16.2576L151.877 82.5455L168.982 34.25L183.067 69.2879L200.172 43.7197L209.227 62.6591H277.644L294.748 72.1288L313.865 38.0379L328.957 94.8561L345.055 15.3106L359.141 123.265L378.258 3L390.331 77.8106L405.423 30.4621L423.534 66.447L437.62 45.6136L454.724 62.6591H540.245L552.319 48.4545L568.417 69.2879L588.54 34.25L603.632 101.485L621.742 20.9924L637.841 122.318L652.933 8.68182L664 74.9697" stroke="#E07233" stroke-width="2"/>
</g>
<defs>
<filter id="filter0_d_594_18116" x="0" y="0.84082" width="672.986" height="141.311" filterUnits="userSpaceOnUse" color-interpolation-filters="sRGB">
<feFlood flood-opacity="0" result="BackgroundImageFix"/>
<feColorMatrix in="SourceAlpha" type="matrix" values="0 0 0 0 0 0 0 0 0 0 0 0 0 0 0 0 0 0 127 0" result="hardAlpha"/>
<feOffset dy="6"/>
<feGaussianBlur stdDeviation="4"/>
<feComposite in2="hardAlpha" operator="out"/>
<feColorMatrix type="matrix" values="0 0 0 0 1 0 0 0 0 0.595833 0 0 0 0 0.595833 0 0 0 0.75 0"/>
<feBlend mode="normal" in2="BackgroundImageFix" result="effect1_dropShadow_594_18116"/>
<feBlend mode="normal" in="SourceGraphic" in2="effect1_dropShadow_594_18116" result="shape"/>
</filter>
</defs>
</svg>
