<svg width="24" height="24" viewBox="0 0 24 24" fill="none" xmlns="http://www.w3.org/2000/svg">
<path d="M11.2769 14.7111C11.693 15.0963 12.307 15.0963 12.7231 14.7111L16.612 11.1111C17.0779 10.6798 17.1318 9.92226 16.7325 9.41907C16.3331 8.91588 15.6317 8.85761 15.1658 9.28891L12 12.2203L8.83423 9.28891C8.36831 8.85761 7.66687 8.91588 7.26751 9.41907C6.86816 9.92226 6.92211 10.6798 7.38803 11.1111L11.2769 14.7111Z" fill="#42526E"/>
<mask id="mask0_1273_7488" style="mask-type:luminance" maskUnits="userSpaceOnUse" x="7" y="9" width="10" height="6">
<path d="M11.2769 14.7111C11.693 15.0963 12.307 15.0963 12.7231 14.7111L16.612 11.1111C17.0779 10.6798 17.1318 9.92226 16.7325 9.41907C16.3331 8.91588 15.6317 8.85761 15.1658 9.28891L12 12.2203L8.83423 9.28891C8.36831 8.85761 7.66687 8.91588 7.26751 9.41907C6.86816 9.92226 6.92211 10.6798 7.38803 11.1111L11.2769 14.7111Z" fill="white"/>
</mask>
<g mask="url(#mask0_1273_7488)">
</g>
</svg>
