<svg width="21" height="20" viewBox="0 0 21 20" fill="none" xmlns="http://www.w3.org/2000/svg">
<path fill-rule="evenodd" clip-rule="evenodd" d="M18.4472 0H19.9762C20.2653 0 20.5 0.234317 20.5 0.523809C20.5 0.813302 20.2653 1.04762 19.9762 1.04762H18.971V18.7227C18.971 18.7597 18.9672 18.7953 18.9599 18.8303C18.9972 18.9755 18.9745 19.1348 18.8799 19.2657C18.7776 19.4075 18.6173 19.4833 18.4546 19.4833C18.3484 19.4833 18.2416 19.4511 18.1487 19.3844L16.4784 18.1811H16.4564L14.7855 19.3844C14.6025 19.5161 14.3556 19.5161 14.173 19.3844L12.502 18.1811H12.48L10.808 19.3848C10.625 19.5157 10.3785 19.5161 10.1958 19.3844L8.52419 18.1811H8.50219L6.83159 19.3844C6.6486 19.5161 6.40241 19.5164 6.21943 19.3848L4.54743 18.1811H4.52473L2.85133 19.3848C2.61597 19.5531 2.28876 19.5 2.1201 19.2654C2.02581 19.1344 2.00311 18.9752 2.04013 18.8303C2.03279 18.7957 2.02895 18.7594 2.02895 18.7227V1.04762H1.02381C0.734317 1.04762 0.5 0.813302 0.5 0.523809C0.5 0.234317 0.734317 0 1.02381 0H2.55311H18.4472ZM14.4509 2.63371H4.70806C4.41857 2.63371 4.18425 2.86803 4.18425 3.15752C4.18425 3.44702 4.41857 3.68133 4.70806 3.68133H14.4509C14.7401 3.68133 14.9747 3.44702 14.9747 3.15752C14.9747 2.86803 14.7401 2.63371 14.4509 2.63371ZM10.6795 5.86667H4.70806C4.41857 5.86667 4.18425 6.10098 4.18425 6.39048C4.18425 6.67997 4.41857 6.91429 4.70806 6.91429H10.6795C10.969 6.91429 11.2033 6.67997 11.2033 6.39048C11.2033 6.10098 10.969 5.86667 10.6795 5.86667ZM4.18425 9.62308C4.18425 9.91257 4.41857 10.1469 4.70806 10.1469H9.10841C9.39756 10.1469 9.63222 9.91257 9.63222 9.62308C9.63222 9.33359 9.39756 9.09927 9.10841 9.09927H4.70806C4.41857 9.09927 4.18425 9.33359 4.18425 9.62308ZM15.1965 12.9202C15.3447 13.0749 15.4188 13.2843 15.4188 13.5486C15.4188 13.8032 15.3367 14.0062 15.1723 14.1577C15.008 14.3059 14.784 14.38 14.5004 14.38C14.1588 14.38 13.8961 14.2785 13.7125 14.0755C13.532 13.8692 13.4417 13.5744 13.4417 13.1909H12.0447C12.0447 13.8515 12.2252 14.3816 12.5861 14.7812C12.9503 15.1776 13.4627 15.4113 14.1233 15.4822V16.4393H14.8919V15.4773C15.4914 15.4161 15.9619 15.2147 16.3035 14.8731C16.6451 14.5315 16.8159 14.0868 16.8159 13.5389C16.8159 13.2457 16.7708 12.9895 16.6805 12.7703C16.5903 12.5479 16.4598 12.3514 16.289 12.1806C16.1182 12.0065 15.9087 11.8519 15.6605 11.7165C15.4124 11.5779 15.095 11.4313 14.7083 11.2766C14.3248 11.1219 14.0621 10.9705 13.9203 10.8222C13.7785 10.674 13.7076 10.4774 13.7076 10.2325C13.7076 9.96821 13.7801 9.76196 13.9251 9.61372C14.0702 9.46226 14.2748 9.38652 14.5391 9.38652C14.8065 9.38652 15.0192 9.4832 15.1771 9.67656C15.3383 9.8667 15.4188 10.1551 15.4188 10.5418H16.8159C16.8159 9.91343 16.6547 9.40264 16.3325 9.00947C16.0102 8.61309 15.5639 8.37461 14.9935 8.29404V7.24507H14.22V8.27954C13.6432 8.33755 13.1807 8.54058 12.8327 8.88862C12.4846 9.23667 12.3106 9.68301 12.3106 10.2276C12.3106 10.5435 12.3605 10.8158 12.4604 11.0446C12.5636 11.2734 12.7054 11.4732 12.8858 11.644C13.0695 11.8116 13.2887 11.9614 13.5433 12.0936C13.7979 12.2225 14.1008 12.353 14.4521 12.4851C14.8033 12.6172 15.0515 12.7623 15.1965 12.9202Z" fill="#515667"/>
</svg>
