<svg width="20" height="20" viewBox="0 0 20 20" fill="none" xmlns="http://www.w3.org/2000/svg">
<path fill-rule="evenodd" clip-rule="evenodd" d="M17.9472 0H19.4762C19.7653 0 20 0.234317 20 0.523809C20 0.813302 19.7653 1.04762 19.4762 1.04762H18.471V18.7227C18.471 18.7597 18.4672 18.7953 18.4599 18.8303C18.4972 18.9755 18.4745 19.1348 18.3799 19.2657C18.2776 19.4075 18.1173 19.4833 17.9546 19.4833C17.8484 19.4833 17.7416 19.4511 17.6487 19.3844L15.9784 18.1811H15.9564L14.2855 19.3844C14.1025 19.5161 13.8556 19.5161 13.673 19.3844L12.002 18.1811H11.98L10.308 19.3848C10.125 19.5157 9.87848 19.5161 9.69584 19.3844L8.02419 18.1811H8.00219L6.33159 19.3844C6.1486 19.5161 5.90241 19.5164 5.71943 19.3848L4.04743 18.1811H4.02473L2.35133 19.3848C2.11597 19.5531 1.78876 19.5 1.6201 19.2654C1.52581 19.1344 1.50311 18.9752 1.54013 18.8303C1.53279 18.7957 1.52895 18.7594 1.52895 18.7227V1.04762H0.52381C0.234317 1.04762 0 0.813302 0 0.523809C0 0.234317 0.234317 0 0.52381 0H2.05311H17.9472ZM13.9509 2.63371H4.20806C3.91857 2.63371 3.68425 2.86803 3.68425 3.15752C3.68425 3.44702 3.91857 3.68133 4.20806 3.68133H13.9509C14.2401 3.68133 14.4747 3.44702 14.4747 3.15752C14.4747 2.86803 14.2401 2.63371 13.9509 2.63371ZM10.1795 5.86667H4.20806C3.91857 5.86667 3.68425 6.10098 3.68425 6.39048C3.68425 6.67997 3.91857 6.91429 4.20806 6.91429H10.1795C10.469 6.91429 10.7033 6.67997 10.7033 6.39048C10.7033 6.10098 10.469 5.86667 10.1795 5.86667ZM3.68425 9.62308C3.68425 9.91257 3.91857 10.1469 4.20806 10.1469H8.60841C8.89756 10.1469 9.13222 9.91257 9.13222 9.62308C9.13222 9.33359 8.89756 9.09927 8.60841 9.09927H4.20806C3.91857 9.09927 3.68425 9.33359 3.68425 9.62308ZM14.6965 12.9202C14.8447 13.0749 14.9188 13.2843 14.9188 13.5486C14.9188 13.8032 14.8367 14.0062 14.6723 14.1577C14.508 14.3059 14.284 14.38 14.0004 14.38C13.6588 14.38 13.3961 14.2785 13.2125 14.0755C13.032 13.8692 12.9417 13.5744 12.9417 13.1909H11.5447C11.5447 13.8515 11.7252 14.3816 12.0861 14.7812C12.4503 15.1776 12.9627 15.4113 13.6233 15.4822V16.4393H14.3919V15.4773C14.9914 15.4161 15.4619 15.2147 15.8035 14.8731C16.1451 14.5315 16.3159 14.0868 16.3159 13.5389C16.3159 13.2457 16.2708 12.9895 16.1805 12.7703C16.0903 12.5479 15.9598 12.3514 15.789 12.1806C15.6182 12.0065 15.4087 11.8519 15.1605 11.7165C14.9124 11.5779 14.595 11.4313 14.2083 11.2766C13.8248 11.1219 13.5621 10.9705 13.4203 10.8222C13.2785 10.674 13.2076 10.4774 13.2076 10.2325C13.2076 9.96821 13.2801 9.76196 13.4251 9.61372C13.5702 9.46226 13.7748 9.38652 14.0391 9.38652C14.3065 9.38652 14.5192 9.4832 14.6771 9.67656C14.8383 9.8667 14.9188 10.1551 14.9188 10.5418H16.3159C16.3159 9.91343 16.1547 9.40264 15.8325 9.00947C15.5102 8.61309 15.0639 8.37461 14.4935 8.29404V7.24507H13.72V8.27954C13.1432 8.33755 12.6807 8.54058 12.3327 8.88862C11.9846 9.23667 11.8106 9.68301 11.8106 10.2276C11.8106 10.5435 11.8605 10.8158 11.9604 11.0446C12.0636 11.2734 12.2054 11.4732 12.3858 11.644C12.5695 11.8116 12.7887 11.9614 13.0433 12.0936C13.2979 12.2225 13.6008 12.353 13.9521 12.4851C14.3033 12.6172 14.5515 12.7623 14.6965 12.9202Z" fill="#515667"/>
</svg>
