<svg width="120" height="131" viewBox="0 0 120 131" fill="none" xmlns="http://www.w3.org/2000/svg">
<g id="Isolation_Mode" clip-path="url(#clip0_177_5695)">
<g id="Background">
<path id="Vector" d="M8.58591 80.584C8.58597 80.8664 8.48618 81.1397 8.30413 81.3559C8.12207 81.5721 7.86939 81.7174 7.59058 81.7661C7.86939 81.8151 8.12198 81.9606 8.304 82.1769C8.48601 82.3932 8.58582 82.6666 8.58591 82.9491C8.58583 82.6666 8.68558 82.3931 8.86763 82.1767C9.04967 81.9604 9.30235 81.815 9.58124 81.7661C9.30235 81.7175 9.04958 81.5723 8.8675 81.3561C8.68541 81.1398 8.58569 80.8664 8.58591 80.584Z" fill="#D8DAED"/>
<path id="Vector_2" d="M4.98822 88.0215C4.98841 88.4632 4.83248 88.8908 4.54785 89.2292C4.26321 89.5676 3.86811 89.795 3.43201 89.8714C3.86811 89.9479 4.26321 90.1753 4.54785 90.5137C4.83248 90.852 4.98841 91.2797 4.98822 91.7214C4.98845 91.2795 5.14475 90.8519 5.42968 90.5135C5.71461 90.1752 6.10993 89.9479 6.54621 89.8714C6.10993 89.795 5.71461 89.5677 5.42968 89.2293C5.14475 88.891 4.98845 88.4634 4.98822 88.0215Z" fill="#D8DAED"/>
<path id="Vector_3" d="M12.3208 86.6854C12.4126 86.2988 12.1729 85.9112 11.7853 85.8196C11.3978 85.728 11.0092 85.9671 10.9174 86.3537C10.8255 86.7403 11.0653 87.128 11.4528 87.2196C11.8403 87.3112 12.2289 87.072 12.3208 86.6854Z" fill="#D8DAED"/>
<path id="Vector_4" d="M27.7117 107.011V103.556L25.0044 103.307C24.7586 102.133 24.2938 101.016 23.6342 100.013L25.3712 97.9286V97.9233L22.9292 95.4872L20.837 97.2244C20.5842 97.0592 20.3242 96.9046 20.0553 96.7643C19.2615 96.3415 18.4109 96.0346 17.5296 95.8531L17.4869 95.3948L17.2821 93.1621H13.8234L13.6186 95.3948L13.5776 95.8531C12.4281 96.0921 11.3326 96.5404 10.3459 97.1755C10.3192 97.1915 10.2943 97.2066 10.2694 97.2244L8.17543 95.4872L5.73517 97.9233V97.9286L7.47211 100.013C6.81273 101.016 6.3474 102.133 6.10018 103.307L3.39551 103.556V107.011L6.10018 107.258C6.347 108.432 6.81235 109.55 7.47211 110.552L5.73517 112.638V112.643L8.17543 115.078L10.2694 113.342C10.2943 113.359 10.3192 113.375 10.3459 113.391C11.3328 114.026 12.4282 114.474 13.5776 114.713L13.6186 115.171L13.8234 117.403H17.2777L17.4824 115.171L17.5251 114.713C18.0587 114.602 18.5817 114.446 19.0885 114.246C19.4176 114.117 19.7389 113.968 20.0509 113.802C20.318 113.663 20.5797 113.508 20.8325 113.344L22.9247 115.08L25.3667 112.645V112.639L23.6298 110.554C24.2896 109.552 24.7544 108.434 24.9999 107.26L27.7117 107.011ZM21.015 105.439C20.9847 106.503 20.6425 107.536 20.0306 108.408C19.4187 109.281 18.5639 109.956 17.5719 110.349C16.5799 110.743 15.4941 110.838 14.4486 110.622C13.403 110.407 12.4436 109.891 11.6887 109.138C10.9338 108.385 10.4166 107.428 10.2009 106.385C9.98518 105.342 10.0804 104.259 10.4749 103.269C10.8694 102.28 11.5458 101.427 12.4206 100.817C13.2954 100.206 14.3303 99.8648 15.3974 99.8346H15.5532C16.2707 99.8344 16.9812 99.9753 17.6442 100.249C18.3071 100.523 18.9095 100.925 19.4168 101.431C19.9242 101.937 20.3266 102.538 20.6012 103.199C20.8757 103.86 21.0169 104.569 21.0168 105.285C21.0159 105.335 21.0142 105.387 21.0142 105.438L21.015 105.439Z" fill="#D8DAED"/>
<path id="Vector_5" d="M116.321 95.0614V88.396L111.098 87.9173C110.624 85.6521 109.727 83.4961 108.453 81.5619L111.804 77.5396L111.797 77.5325L111.804 77.5219L107.094 72.8228L103.056 76.1737C102.569 75.8557 102.067 75.5573 101.549 75.2856C100.017 74.4705 98.3757 73.8783 96.6755 73.5271L96.5936 72.6443L96.1983 68.3369H89.5346L89.1384 72.6443L89.0592 73.5271C86.8412 73.9892 84.7272 74.8541 82.8227 76.0787C82.772 76.1098 82.7239 76.1399 82.675 76.1737L78.6358 72.8228L73.9271 77.5219L73.9351 77.5325L73.9271 77.5396L77.279 81.5619C76.0064 83.4969 75.1083 85.6525 74.6313 87.9173L69.4133 88.396V95.0614L74.6313 95.5401C75.1082 97.8049 76.0062 99.9606 77.279 101.895L73.9271 105.918L73.9351 105.926L73.9271 105.936L78.6358 110.635L82.675 107.285C82.7239 107.317 82.772 107.348 82.8227 107.373C84.7268 108.599 86.8409 109.464 89.0592 109.926L89.1384 110.809L89.5346 115.116H96.1983L96.5936 110.809L96.6755 109.926C97.7049 109.712 98.714 109.411 99.6918 109.025C100.327 108.774 100.947 108.486 101.549 108.165C102.067 107.898 102.569 107.598 103.056 107.277L107.094 110.627L111.804 105.928L111.797 105.918L111.804 105.91L108.453 101.887C109.727 99.9534 110.624 97.7974 111.098 95.5321L116.321 95.0614ZM103.401 92.0276C103.342 94.0813 102.681 96.0728 101.501 97.7563C100.32 99.4398 98.6712 100.741 96.7574 101.501C94.8436 102.26 92.7488 102.443 90.7318 102.028C88.7147 101.612 86.8638 100.617 85.4074 99.1643C83.9511 97.7115 82.9533 95.865 82.5371 93.8528C82.1209 91.8407 82.3046 89.751 83.0655 87.8418C83.8265 85.9326 85.1313 84.2876 86.8188 83.1099C88.5064 81.9321 90.5028 81.2733 92.5615 81.2147H92.8624C94.2467 81.2146 95.6175 81.4865 96.8964 82.0149C98.1753 82.5433 99.3374 83.3178 100.316 84.2943C101.295 85.2708 102.072 86.43 102.601 87.7058C103.131 88.9817 103.403 90.3491 103.403 91.73C103.403 91.8277 103.401 91.9299 103.401 92.0276Z" fill="#D8DAED"/>
<path id="Vector_6" d="M4.30452 115.961C-7.75166 119.992 8.4746 119.201 16.8753 127.046C22.6755 132.463 39.0486 129.489 42.0631 128.679C49.9866 126.548 48.0752 129.463 51.1146 129.463C64.9362 129.463 63.2829 125.575 66.017 126.041C68.8365 126.521 82.3189 124.976 80.0994 126.709C76.5641 129.462 84.8597 130.653 86.5094 130.841C92.2963 131.498 95.8992 127.206 97.3655 127.401C98.7009 127.579 100.028 127.787 101.364 127.946C103.866 128.245 106.329 128.259 108.79 127.68C110.28 127.325 111.656 126.678 113.134 126.306C114.612 125.934 120.175 122.645 119.995 119.953C119.428 111.49 45.3455 102.241 4.30452 115.961Z" fill="#D8DAED"/>
</g>
<g id="Mobile screen">
<path id="Vector_7" d="M71.5829 16.5241L79.4032 109.772C79.8982 115.676 75.9596 120.464 70.609 120.464H53.0954C52.3262 120.464 51.5739 120.491 50.8198 120.263C50.6624 120.217 50.4995 120.193 50.3355 120.192H46.5625C46.404 120.192 46.2465 120.216 46.0951 120.263C45.3749 120.491 44.6181 120.464 43.8489 120.464H26.3353C20.9847 120.464 16.2431 115.676 15.7481 109.772L7.927 16.5241C7.432 10.6199 11.3706 5.83203 16.7212 5.83203H60.9948C66.3499 5.83203 71.087 10.6199 71.5829 16.5241Z" fill="#C3CBE0"/>
<path id="Vector_8" d="M75.6586 13.0184L83.4788 106.267C83.9738 112.17 80.0361 116.958 74.6846 116.958H57.1719C56.4027 116.958 55.6504 116.985 54.8964 116.757C54.7387 116.711 54.5754 116.688 54.4112 116.686H50.6391C50.4806 116.687 50.3231 116.711 50.1717 116.757C49.4505 116.985 48.6938 116.958 47.9246 116.958H30.411C25.0604 116.958 20.3188 112.17 19.8238 106.267L12.0027 13.0184C11.5086 7.11412 15.4463 2.32715 20.7977 2.32715H65.0705C70.422 2.32715 75.1636 7.11412 75.6586 13.0184Z" fill="#D3D9EF"/>
<path id="Vector_9" d="M71.7993 11.612C71.1129 9.40947 69.5202 7.62168 67.5624 6.79573C66.8083 6.47276 65.9963 6.30539 65.1756 6.30371H21.3622C17.8456 6.30371 15.2558 9.44855 15.5807 13.327L23.3502 105.958C23.6547 109.587 26.403 112.574 29.6365 112.943C29.8596 112.969 30.084 112.982 30.3087 112.981H74.1229C77.6386 112.981 80.2284 109.836 79.9035 105.958L72.1367 13.327C72.0873 12.7448 71.9741 12.1697 71.7993 11.612Z" fill="#F1F2FF"/>
<path id="Vector_10" opacity="0.5" d="M79.0701 96.024L79.9035 105.958C80.2284 109.84 77.6386 112.984 74.1211 112.984H30.3077C30.0833 112.985 29.8591 112.971 29.6364 112.944C26.4038 112.574 23.6555 109.59 23.3511 105.958L22.5178 96.024C22.1928 92.1455 24.7818 88.998 28.2957 88.998H72.1099C72.9305 88.9997 73.7422 89.1674 74.4959 89.4909C76.4545 90.3205 78.0481 92.1056 78.7336 94.3072C78.9087 94.8654 79.0216 95.4411 79.0701 96.024Z" fill="white"/>
<path id="Vector_11" d="M31.4642 96.4969H46.6292C46.739 96.4988 46.8479 96.4774 46.9488 96.4341C47.0496 96.3908 47.1401 96.3267 47.2143 96.2459C47.2884 96.1652 47.3445 96.0696 47.3789 95.9656C47.4132 95.8616 47.4251 95.7515 47.4136 95.6426C47.3909 95.4114 47.2839 95.1967 47.1128 95.0392C46.9418 94.8816 46.7187 94.7923 46.4859 94.7882H31.3209C31.2111 94.7864 31.1021 94.8078 31.0012 94.851C30.9004 94.8943 30.8098 94.9584 30.7356 95.0392C30.6614 95.1199 30.6052 95.2154 30.5707 95.3195C30.5363 95.4235 30.5243 95.5336 30.5357 95.6426C30.5583 95.8738 30.6655 96.0887 30.8367 96.2463C31.008 96.4038 31.2313 96.493 31.4642 96.4969Z" fill="#F1F2FF"/>
<path id="Vector_12" d="M49.8459 96.4969H70.1638C70.2736 96.4988 70.3826 96.4774 70.4835 96.4341C70.5843 96.3908 70.6749 96.3267 70.7491 96.246C70.8233 96.1652 70.8795 96.0697 70.914 95.9657C70.9485 95.8617 70.9604 95.7515 70.949 95.6426C70.9264 95.4113 70.8192 95.1964 70.648 95.0389C70.4767 94.8813 70.2534 94.7921 70.0205 94.7882H49.7016C49.5918 94.7864 49.4829 94.8078 49.382 94.851C49.2811 94.8943 49.1905 94.9584 49.1163 95.0392C49.0421 95.1199 48.9859 95.2154 48.9515 95.3195C48.917 95.4235 48.905 95.5336 48.9164 95.6426C48.9393 95.8739 49.0466 96.0888 49.218 96.2463C49.3894 96.4039 49.6129 96.4931 49.8459 96.4969Z" fill="#F1F2FF"/>
<path id="Vector_13" d="M52.3841 99.0802H31.6806C31.5708 99.0783 31.4619 99.0998 31.361 99.143C31.2601 99.1863 31.1695 99.2504 31.0953 99.3312C31.0211 99.4119 30.9649 99.5074 30.9305 99.6115C30.896 99.7155 30.884 99.8256 30.8954 99.9346C30.9183 100.166 31.0255 100.381 31.1967 100.538C31.3679 100.696 31.5911 100.785 31.8239 100.789H52.5274C52.6372 100.791 52.7462 100.769 52.8471 100.726C52.948 100.683 53.0385 100.619 53.1127 100.538C53.1869 100.457 53.2431 100.362 53.2776 100.258C53.312 100.154 53.324 100.044 53.3127 99.9346C53.29 99.7033 53.1828 99.4884 53.0116 99.3309C52.8403 99.1733 52.617 99.0841 52.3841 99.0802Z" fill="#F1F2FF"/>
<path id="Vector_14" d="M70.3811 99.0802H55.6024C55.4926 99.0782 55.3836 99.0995 55.2827 99.1427C55.1818 99.186 55.0912 99.2501 55.0171 99.3309C54.9429 99.4117 54.8868 99.5073 54.8525 99.6114C54.8182 99.7155 54.8064 99.8256 54.8181 99.9346C54.8408 100.166 54.9478 100.38 55.1188 100.538C55.2899 100.696 55.513 100.785 55.7457 100.789H70.5244C70.6342 100.791 70.7431 100.769 70.8439 100.726C70.9448 100.683 71.0353 100.619 71.1094 100.538C71.1836 100.457 71.2397 100.362 71.274 100.258C71.3084 100.154 71.3202 100.043 71.3087 99.9346C71.2863 99.7034 71.1793 99.4885 71.0082 99.331C70.8371 99.1734 70.6139 99.0841 70.3811 99.0802Z" fill="#F1F2FF"/>
<path id="Vector_15" d="M59.0683 103.371H43.7127C43.6029 103.369 43.4939 103.391 43.3929 103.434C43.2919 103.477 43.2013 103.541 43.1271 103.622C43.0528 103.703 42.9967 103.798 42.9623 103.902C42.9278 104.006 42.916 104.117 42.9275 104.226C42.9504 104.457 43.0576 104.672 43.2288 104.829C43.4 104.987 43.6232 105.076 43.8561 105.08H59.2116C59.3214 105.082 59.4303 105.06 59.5312 105.017C59.6321 104.974 59.7227 104.91 59.7969 104.829C59.8711 104.748 59.9273 104.653 59.9618 104.549C59.9962 104.445 60.0082 104.335 59.9968 104.226C59.9741 103.994 59.867 103.779 59.6957 103.622C59.5245 103.464 59.3012 103.375 59.0683 103.371Z" fill="#F1F2FF"/>
<path id="Vector_16" d="M63.8313 11.5166L63.8669 11.9393H67.7129L67.6773 11.5166H63.8313Z" fill="#D3D9EF"/>
<path id="Vector_17" d="M63.9702 13.1718H67.8162L67.7806 12.749H63.9346L63.9702 13.1718Z" fill="#D3D9EF"/>
<path id="Vector_18" d="M64.0735 14.4052H67.9195L67.8839 13.9824H64.0378L64.0735 14.4052Z" fill="#D3D9EF"/>
<path id="Vector_19" d="M22.6789 10.7971C22.374 10.7927 22.0717 10.8528 21.7917 10.9734C21.5118 11.0941 21.2607 11.2725 21.0549 11.4969C20.849 11.7214 20.6932 11.9867 20.5977 12.2756C20.5021 12.5645 20.469 12.8703 20.5004 13.1728C20.6108 14.4837 21.7673 15.5485 23.0822 15.5485C23.3875 15.5536 23.6903 15.494 23.9707 15.3736C24.2512 15.2533 24.5028 15.0749 24.709 14.8504C24.9153 14.6259 25.0714 14.3602 25.1671 14.071C25.2628 13.7819 25.296 13.4757 25.2643 13.1728C25.1495 11.862 23.993 10.7971 22.6789 10.7971ZM24.0215 13.9943C24.0264 14.0414 24.0213 14.0889 24.0064 14.1339C23.9915 14.1788 23.9672 14.22 23.9351 14.2549C23.9031 14.2897 23.8639 14.3174 23.8203 14.336C23.7768 14.3546 23.7297 14.3638 23.6823 14.3629H23.3128L23.2104 13.1409H22.5401L22.6424 14.3629H22.2721C22.1716 14.3612 22.0753 14.3227 22.0014 14.2547C21.9275 14.1868 21.8813 14.0941 21.8715 13.9943L21.7682 12.7643L22.5365 11.8149C22.5651 11.783 22.6002 11.7575 22.6394 11.74C22.6786 11.7225 22.721 11.7135 22.764 11.7135C22.8069 11.7135 22.8493 11.7225 22.8885 11.74C22.9277 11.7575 22.9628 11.783 22.9914 11.8149L23.9182 12.7643L24.0215 13.9943Z" fill="#D3D9EF"/>
<path id="Vector_20" d="M67.4226 86.4533H32.5566C30.4582 86.4533 28.6153 84.757 28.4399 82.6637L24.5004 35.691C24.3224 33.5986 25.883 31.9014 27.9814 31.9014H62.8474C64.9458 31.9014 66.7887 33.5986 66.9641 35.691L70.9036 82.6637C71.0799 84.757 69.521 86.4533 67.4226 86.4533Z" fill="white"/>
<path id="Vector_21" d="M50.4682 22.3156C50.7353 25.5262 48.3467 28.1284 45.1265 28.1284C41.9064 28.1284 39.0806 25.5262 38.8118 22.3156C38.5429 19.105 40.9333 16.502 44.1534 16.502C47.3736 16.502 50.1993 19.1042 50.4682 22.3156Z" fill="white"/>
<path id="Vector_22" d="M46.0827 20.7847H45.7471C45.7293 20.4587 45.6411 19.8601 45.2672 19.4729C45.153 19.3563 45.0158 19.2645 44.8642 19.2034C44.7127 19.1422 44.5501 19.113 44.3867 19.1177C43.9977 19.1177 43.7003 19.2464 43.5062 19.5031C43.2089 19.8903 43.2391 20.4676 43.281 20.7882H42.9418C42.9014 20.7876 42.8612 20.7956 42.8241 20.8116C42.787 20.8276 42.7537 20.8513 42.7264 20.8811C42.6992 20.9109 42.6786 20.9461 42.666 20.9845C42.6534 21.0228 42.6491 21.0634 42.6533 21.1035L42.9204 24.2546C42.9293 24.3394 42.969 24.4181 43.0319 24.4758C43.0949 24.5336 43.1768 24.5664 43.2623 24.5681H46.4032C46.4435 24.5688 46.4836 24.5609 46.5207 24.5451C46.5578 24.5292 46.5911 24.5057 46.6184 24.4761C46.6458 24.4465 46.6665 24.4114 46.6793 24.3733C46.692 24.3351 46.6966 24.2946 46.6925 24.2546L46.4255 21.1035C46.4182 21.0174 46.3791 20.9371 46.3157 20.8782C46.2524 20.8192 46.1693 20.7859 46.0827 20.7847ZM45.0972 23.5689H44.2959C44.2959 23.5689 44.3734 22.9233 44.4277 22.5733C44.3567 22.54 44.2957 22.4888 44.2506 22.4248C44.2055 22.3608 44.1779 22.2862 44.1704 22.2083C44.165 22.1561 44.1707 22.1033 44.1873 22.0534C44.2038 22.0036 44.2307 21.9578 44.2663 21.9191C44.3019 21.8804 44.3453 21.8497 44.3937 21.829C44.4421 21.8082 44.4943 21.798 44.547 21.7989C44.6587 21.8004 44.766 21.843 44.8481 21.9186C44.9303 21.9941 44.9816 22.0973 44.9921 22.2083C44.9995 22.2819 44.9846 22.356 44.9493 22.421C44.9141 22.4861 44.8602 22.5391 44.7945 22.5733C44.9093 22.9233 45.0972 23.5689 45.0972 23.5689ZM45.3366 20.7847H43.6914C43.6487 20.5014 43.6335 20.036 43.8419 19.7642C43.9656 19.6026 44.1552 19.5235 44.4205 19.5235C44.524 19.5188 44.6272 19.5359 44.7236 19.5737C44.8199 19.6115 44.9072 19.6691 44.9796 19.7429C45.2574 20.0298 45.3224 20.5227 45.3393 20.7847H45.3366Z" fill="#D3D9EF"/>
<path id="Vector_23" d="M28.9519 35.0046L29.1086 36.8777H29.8484L29.8849 37.3111H28.5842L28.391 35.002L28.9519 35.0046Z" fill="#ADBCFF"/>
<path id="Vector_24" d="M30.9915 37.3372C30.7305 37.3462 30.4765 37.2524 30.2843 37.0761C30.0921 36.8998 29.9771 36.6551 29.9641 36.395C29.9152 35.8132 30.3033 35.4518 30.8402 35.4518C31.1019 35.4428 31.3567 35.5365 31.55 35.7128C31.7432 35.8892 31.8595 36.1341 31.8738 36.395C31.9227 36.9767 31.5319 37.3372 30.9915 37.3372ZM30.9506 36.8514C31.1518 36.8514 31.3271 36.7031 31.3013 36.395C31.2755 36.0868 31.0788 35.9385 30.8811 35.9385C30.6835 35.9385 30.5108 36.0823 30.5375 36.395C30.5642 36.7076 30.7467 36.8514 30.9506 36.8514Z" fill="#ADBCFF"/>
<path id="Vector_25" d="M32.7925 35.4536C32.9069 35.4493 33.0206 35.4731 33.1235 35.523C33.2265 35.5729 33.3155 35.6473 33.3828 35.7396L33.3614 35.4803H33.9241L34.0781 37.3098C34.1191 37.7992 33.8707 38.2166 33.235 38.2166C32.6884 38.2166 32.31 37.9404 32.2237 37.5061H32.7801C32.8282 37.6446 32.9742 37.7334 33.1682 37.7334C33.3819 37.7334 33.5404 37.6215 33.5146 37.3125L33.4932 37.0531C33.438 37.1461 33.3582 37.2222 33.2626 37.2731C33.167 37.324 33.0592 37.3478 32.951 37.3418C32.4996 37.3418 32.1097 36.9741 32.0607 36.3959C32.0118 35.8178 32.3412 35.4536 32.7925 35.4536ZM32.9982 35.943C32.7881 35.943 32.61 36.1011 32.635 36.3933C32.6599 36.6855 32.8638 36.8497 33.0748 36.8497C33.2858 36.8497 33.4629 36.689 33.438 36.3968C33.4131 36.1046 33.2128 35.9403 32.9982 35.9403V35.943Z" fill="#ADBCFF"/>
<path id="Vector_26" d="M34.2392 34.9856C34.2356 34.9442 34.2412 34.9026 34.2555 34.8637C34.2699 34.8248 34.2927 34.7894 34.3222 34.7603C34.3518 34.7311 34.3875 34.7088 34.4267 34.6949C34.4659 34.6811 34.5077 34.676 34.549 34.6801C34.6362 34.6764 34.7215 34.7059 34.7876 34.7627C34.8537 34.8194 34.8957 34.8991 34.9052 34.9856C34.9085 35.0265 34.9028 35.0676 34.8884 35.106C34.8741 35.1444 34.8515 35.1793 34.8222 35.2081C34.7929 35.2368 34.7577 35.2589 34.719 35.2726C34.6802 35.2863 34.6389 35.2914 34.598 35.2875C34.511 35.292 34.4255 35.2633 34.3589 35.2072C34.2923 35.1511 34.2495 35.0719 34.2392 34.9856ZM34.3283 35.4785H34.8918L35.0458 37.3116H34.4823L34.3283 35.4785Z" fill="#ADBCFF"/>
<path id="Vector_27" d="M36.6421 36.3153C36.6216 36.0657 36.472 35.9281 36.2575 35.9281C36.0429 35.9281 35.9165 36.0657 35.9379 36.3153L36.0216 37.3109H35.4571L35.3031 35.4778H35.8666L35.8871 35.7211C35.9461 35.6351 36.0261 35.5654 36.1196 35.5188C36.213 35.4722 36.3169 35.4501 36.4213 35.4547C36.846 35.4547 37.154 35.7433 37.1949 36.2362L37.284 37.3073H36.724L36.6421 36.3153Z" fill="#ADBCFF"/>
<path id="Vector_28" d="M66.1638 76.4064C66.1638 77.9677 66.1638 79.4352 66.1638 80.8088C66.1617 80.8449 66.1462 80.8789 66.1204 80.9044C66.0946 80.9298 66.0603 80.9448 66.0241 80.9465C63.6379 81.141 61.2399 81.141 58.8537 80.9465C58.8155 80.944 58.779 80.9292 58.7498 80.9044C58.7206 80.8796 58.7002 80.8461 58.6917 80.8088C58.459 79.4334 58.2115 77.9659 57.9492 76.4064C57.9456 76.3856 57.9465 76.3643 57.9519 76.3439C57.9572 76.3235 57.967 76.3046 57.9804 76.2883C58.0045 76.2602 58.0387 76.2427 58.0756 76.2394C60.7161 75.9996 63.3729 75.9996 66.0134 76.2394C66.0505 76.2429 66.0853 76.2589 66.1122 76.2847C66.1182 76.2897 66.1236 76.2953 66.1282 76.3016C66.1521 76.3312 66.1648 76.3683 66.1638 76.4064Z" fill="#F1F2FF"/>
<path id="Vector_29" opacity="0.25" d="M66.1256 76.301C66.1256 76.301 64.946 77.8507 63.1529 78.3579C62.1736 77.9262 61.4614 78.2584 61.1943 78.4333C60.1963 78.2175 59.1084 77.5879 57.9822 76.2885C57.9937 76.2738 58.0082 76.2618 58.0248 76.2532C58.0414 76.2446 58.0597 76.2397 58.0783 76.2388C60.7187 75.9972 63.3757 75.9972 66.0161 76.2388C66.0529 76.2409 66.0878 76.2564 66.114 76.2823C66.1181 76.2883 66.122 76.2946 66.1256 76.301Z" fill="#D3D9EF"/>
<path id="Vector_30" d="M66.1282 76.2988C66.1136 76.2812 66.0956 76.2669 66.0752 76.2567C66.0548 76.2464 66.0326 76.2405 66.0098 76.2393C66.0534 76.2442 66.0935 76.2654 66.122 76.2988C65.6228 76.8794 65.0326 77.3755 64.3743 77.7677C64.0088 77.9924 63.6152 78.168 63.2036 78.2899C62.8968 78.1441 62.5638 78.0611 62.2243 78.0457C61.8507 78.0619 61.4869 78.1696 61.1649 78.3592C60.0253 78.1025 58.9499 77.3663 57.9839 76.2863C57.992 76.2718 58.004 76.2598 58.0186 76.2517C58.0037 76.259 57.9906 76.2696 57.9803 76.2828C58.3758 76.7687 58.8276 77.2061 59.3265 77.5857C59.8299 77.9817 60.4096 78.2704 61.0296 78.4338C60.1606 78.9667 59.4048 79.9436 58.8929 80.7856C59.4716 79.9711 60.3173 78.9596 61.2361 78.4764C61.2931 78.4454 61.3474 78.4205 61.4053 78.3947C61.6658 78.273 61.9484 78.205 62.2359 78.1949C62.4867 78.2042 62.734 78.2567 62.9668 78.3503C63.0211 78.3699 63.0763 78.3912 63.1324 78.416C63.5307 78.5992 63.906 78.8284 64.2506 79.099C64.8915 79.6018 65.4805 80.1671 66.0089 80.7864C65.5114 80.1244 64.9373 79.5231 64.2987 78.9951C63.9996 78.7494 63.6766 78.5343 63.3345 78.353C63.7187 78.2303 64.0851 78.0577 64.4242 77.8397C65.0785 77.4315 65.6544 76.91 66.1246 76.2997L66.1282 76.2988Z" fill="#D3D9EF"/>
<path id="Vector_31" d="M32.3412 77.6726H42.8109C42.8867 77.6742 42.9621 77.6596 43.0319 77.6298C43.1017 77.6001 43.1643 77.5558 43.2156 77.5C43.2669 77.4442 43.3057 77.3782 43.3294 77.3062C43.3531 77.2343 43.3611 77.1582 43.353 77.0829C43.3373 76.9232 43.2634 76.7748 43.1452 76.6659C43.027 76.557 42.8729 76.4952 42.712 76.4923H32.245C32.1691 76.4908 32.0938 76.5055 32.024 76.5354C31.9543 76.5653 31.8917 76.6096 31.8405 76.6655C31.7893 76.7214 31.7506 76.7875 31.727 76.8595C31.7034 76.9315 31.6955 77.0076 31.7037 77.0829C31.7193 77.2419 31.7928 77.3897 31.9103 77.4984C32.0277 77.6071 32.181 77.669 32.3412 77.6726Z" fill="#F1F2FF"/>
<path id="Vector_32" d="M45.0357 77.6726H54.4646C54.5405 77.6742 54.6158 77.6596 54.6856 77.6298C54.7554 77.6001 54.818 77.5558 54.8693 77.5C54.9206 77.4442 54.9594 77.3782 54.9831 77.3062C55.0068 77.2343 55.0149 77.1582 55.0068 77.0829C54.9911 76.9232 54.9171 76.7748 54.799 76.6659C54.6808 76.557 54.5266 76.4952 54.3658 76.4923H44.9359C44.86 76.4908 44.7847 76.5055 44.715 76.5354C44.6452 76.5653 44.5827 76.6096 44.5314 76.6655C44.4802 76.7214 44.4415 76.7875 44.4179 76.8595C44.3943 76.9315 44.3864 77.0076 44.3946 77.0829C44.4103 77.2425 44.4843 77.3908 44.6025 77.4996C44.7207 77.6083 44.8749 77.6699 45.0357 77.6726Z" fill="#F1F2FF"/>
<path id="Vector_33" d="M46.7878 79.4552H32.4943C32.4183 79.4536 32.3429 79.4682 32.2731 79.498C32.2032 79.5278 32.1405 79.5722 32.0892 79.6281C32.0379 79.684 31.9991 79.7501 31.9755 79.8222C31.9518 79.8942 31.9439 79.9704 31.9521 80.0458C31.968 80.2054 32.0421 80.3535 32.1602 80.4622C32.2784 80.5709 32.4324 80.6326 32.5931 80.6355H46.8866C46.9625 80.6371 47.0378 80.6225 47.1076 80.5927C47.1774 80.563 47.24 80.5187 47.2913 80.4629C47.3426 80.4071 47.3814 80.3411 47.4051 80.2692C47.4288 80.1972 47.4369 80.1211 47.4288 80.0458C47.4131 79.8861 47.3391 79.7377 47.2209 79.6288C47.1028 79.5199 46.9486 79.4581 46.7878 79.4552Z" fill="#F1F2FF"/>
<path id="Vector_34" d="M30.7858 52.7089H30.4368L30.5062 53.5367H29.9427L29.7495 51.2275H30.662C31.2283 51.2275 31.5381 51.5464 31.5737 51.97C31.6057 52.3546 31.3752 52.7089 30.7858 52.7089ZM30.7057 52.2649C30.9291 52.2649 31.0155 52.1539 31.0003 51.9762C30.9852 51.7986 30.8811 51.6876 30.6567 51.6876H30.3505L30.3994 52.2649H30.7057Z" fill="#ADBCFF"/>
<path id="Vector_35" d="M32.5396 51.6772C32.6539 51.6733 32.7674 51.6973 32.8703 51.7472C32.9732 51.797 33.0623 51.8711 33.1299 51.9631L33.1085 51.7038H33.6765L33.8297 53.536H33.267L33.2447 53.2767C33.1891 53.3699 33.1087 53.446 33.0123 53.4965C32.916 53.547 32.8076 53.5699 32.699 53.5626C32.2539 53.5626 31.8621 53.195 31.8087 52.6168C31.7553 52.0386 32.0892 51.6772 32.5396 51.6772ZM32.7453 52.1665C32.5352 52.1665 32.3571 52.3246 32.3821 52.6168C32.407 52.909 32.6109 53.0733 32.8219 53.0733C33.0329 53.0733 33.21 52.9125 33.1851 52.6203C33.1602 52.3282 32.9643 52.1665 32.7453 52.1665Z" fill="#ADBCFF"/>
<path id="Vector_36" d="M34.9835 53.5632C34.493 53.5632 34.1413 53.2906 34.0852 52.9362H34.6416C34.6583 53.0016 34.6977 53.0589 34.7528 53.098C34.8079 53.137 34.8752 53.1552 34.9425 53.1494C35.0868 53.1494 35.1571 53.0836 35.1509 53.0019C35.1259 52.7062 34.1431 52.9193 34.0825 52.2461C34.0567 51.9335 34.3015 51.6777 34.7823 51.6777C35.263 51.6777 35.5417 51.9442 35.6085 52.2994H35.0885C35.0743 52.2358 35.0371 52.1796 34.9842 52.1415C34.9312 52.1034 34.866 52.0859 34.801 52.0925C34.6692 52.0925 34.6016 52.1449 34.6087 52.2337C34.6336 52.5259 35.6103 52.3225 35.677 53.0019C35.7082 53.3234 35.4447 53.5632 34.9835 53.5632Z" fill="#ADBCFF"/>
<path id="Vector_37" d="M36.821 53.5632C36.3305 53.5632 35.9779 53.2906 35.9227 52.9362H36.4792C36.4956 53.0017 36.535 53.0591 36.5902 53.0982C36.6454 53.1373 36.7127 53.1554 36.7801 53.1494C36.9243 53.1494 36.9946 53.0836 36.9884 53.0019C36.9635 52.7062 35.9806 52.9193 35.9201 52.2461C35.8942 51.9335 36.1391 51.6777 36.6198 51.6777C37.1006 51.6777 37.3792 51.9442 37.446 52.2994H36.9261C36.9118 52.2358 36.8747 52.1796 36.8217 52.1415C36.7687 52.1034 36.7035 52.0859 36.6385 52.0925C36.5068 52.0925 36.4391 52.1449 36.4462 52.2337C36.4712 52.5259 37.4478 52.3225 37.5146 53.0019C37.5448 53.3234 37.2822 53.5632 36.821 53.5632Z" fill="#ADBCFF"/>
<path id="Vector_38" d="M37.5645 51.707H38.128L38.4984 53.017L38.6978 51.707H39.2943L39.7163 53.0108L39.864 51.707H40.3982L40.0546 53.5392H39.4314L39.0423 52.3509L38.8402 53.5366H38.217L37.5645 51.707Z" fill="#ADBCFF"/>
<path id="Vector_39" d="M41.6 53.5628C41.3392 53.5713 41.0854 53.4774 40.8933 53.3011C40.7012 53.1249 40.586 52.8805 40.5726 52.6205C40.5246 52.0388 40.9118 51.6774 41.4487 51.6774C41.7105 51.6684 41.9654 51.7621 42.1588 51.9384C42.3522 52.1147 42.4687 52.3596 42.4832 52.6205C42.5304 53.2014 42.1395 53.5628 41.6 53.5628ZM41.56 53.077C41.7603 53.077 41.9357 52.9287 41.9098 52.6205C41.884 52.3124 41.6873 52.1632 41.4896 52.1632C41.292 52.1632 41.1193 52.3079 41.146 52.6205C41.1727 52.9332 41.3543 53.077 41.5591 53.077H41.56Z" fill="#ADBCFF"/>
<path id="Vector_40" d="M43.4216 53.5366H42.859L42.705 51.707H43.2676L43.2934 52.0126C43.3471 51.914 43.4265 51.8317 43.5232 51.7745C43.6199 51.7173 43.7303 51.6872 43.8427 51.6875L43.8926 52.2817H43.7368C43.4697 52.2817 43.3228 52.3705 43.3495 52.6893L43.4216 53.5366Z" fill="#ADBCFF"/>
<path id="Vector_41" d="M44.8104 51.6775C44.9236 51.6759 45.0356 51.7003 45.1378 51.7488C45.24 51.7973 45.3296 51.8686 45.3998 51.9573L45.3285 51.1064H45.8921L46.096 53.5363H45.5324L45.5102 53.2699C45.4211 53.4369 45.2386 53.5585 44.968 53.5585C44.5175 53.5585 44.1276 53.1909 44.0777 52.6127C44.0279 52.0345 44.3599 51.6775 44.8104 51.6775ZM45.0161 52.1669C44.8051 52.1669 44.627 52.3249 44.6519 52.6171C44.6769 52.9093 44.8816 53.0736 45.0917 53.0736C45.3018 53.0736 45.4799 52.9129 45.4559 52.6207C45.4318 52.3285 45.2297 52.1669 45.0161 52.1669Z" fill="#ADBCFF"/>
<path id="Vector_42" d="M63.436 46.9855H29.9124C29.7131 46.982 29.522 46.9056 29.3755 46.7706C29.2291 46.6356 29.1375 46.4516 29.1183 46.2537L28.6465 40.6372C28.6366 40.5439 28.6468 40.4495 28.6762 40.3604C28.7057 40.2713 28.7537 40.1894 28.8173 40.1202C28.8808 40.051 28.9584 39.9961 29.0448 39.9591C29.1313 39.922 29.2246 39.9037 29.3186 39.9054H62.8422C63.0416 39.9088 63.2328 39.9852 63.3794 40.1202C63.526 40.2551 63.6178 40.4391 63.6372 40.6372L64.1081 46.2537C64.118 46.347 64.1078 46.4413 64.0784 46.5305C64.0489 46.6196 64.0009 46.7014 63.9373 46.7706C63.8738 46.8398 63.7962 46.8947 63.7098 46.9318C63.6233 46.9688 63.53 46.9871 63.436 46.9855Z" fill="#F1F2FF"/>
<path id="Vector_43" d="M55.2213 66.5745H41.43C41.1309 66.5697 40.8341 66.6283 40.5594 66.7464C40.2846 66.8645 40.0382 67.0394 39.8362 67.2596C39.6342 67.4798 39.4814 67.7402 39.3879 68.0237C39.2943 68.3072 39.262 68.6072 39.2933 68.904C39.401 70.19 40.5335 71.2327 41.8226 71.2327H55.6113C55.9103 71.2374 56.207 71.1789 56.4817 71.0608C56.7563 70.9428 57.0028 70.7679 57.2047 70.5478C57.4066 70.3278 57.5595 70.0674 57.6531 69.7841C57.7468 69.5007 57.7791 69.2008 57.7479 68.904C57.6402 67.618 56.5069 66.5745 55.2213 66.5745Z" fill="#F1F2FF"/>
<path id="Vector_44" opacity="0.5" d="M28.8824 43.4473L29.1228 46.3132C29.1407 46.4956 29.2251 46.665 29.3601 46.7893C29.495 46.9136 29.671 46.984 29.8546 46.9873H63.4939C63.5805 46.9888 63.6664 46.9719 63.746 46.9378C63.8256 46.9036 63.897 46.853 63.9555 46.7893C64.014 46.7256 64.0582 46.6502 64.0853 46.5681C64.1124 46.486 64.1217 46.3992 64.1126 46.3132L63.8722 43.4473H28.8824Z" fill="#D3D9EF"/>
<path id="Vector_45" d="M34.8821 62.2607H31.2043C31.005 62.2573 30.8138 62.1808 30.6674 62.0458C30.5209 61.9109 30.4294 61.7269 30.4102 61.5289L30.0087 56.7437C29.9988 56.6505 30.0089 56.5563 30.0383 56.4673C30.0677 56.3783 30.1157 56.2965 30.1792 56.2274C30.2427 56.1583 30.3201 56.1034 30.4065 56.0664C30.4928 56.0294 30.586 56.0111 30.6799 56.0128H34.3586C34.5578 56.016 34.7489 56.0923 34.8954 56.2271C35.0419 56.3619 35.1335 56.5458 35.1527 56.7437L35.5542 61.5289C35.5641 61.6222 35.5539 61.7166 35.5245 61.8057C35.495 61.8948 35.4469 61.9767 35.3834 62.0459C35.3198 62.1151 35.2423 62.17 35.1559 62.207C35.0694 62.2441 34.9761 62.2624 34.8821 62.2607Z" fill="#F1F2FF"/>
<path id="Vector_46" opacity="0.5" d="M30.1796 58.7891L30.4342 61.8167C30.4462 61.9369 30.502 62.0486 30.5912 62.1305C30.6803 62.2124 30.7965 62.2587 30.9176 62.2607H35.1696C35.2267 62.2616 35.2833 62.2505 35.3357 62.228C35.3882 62.2055 35.4353 62.1722 35.4739 62.1302C35.5125 62.0883 35.5417 62.0387 35.5597 61.9846C35.5777 61.9306 35.584 61.8733 35.5782 61.8167L35.3245 58.7891H30.1796Z" fill="#D3D9EF"/>
<path id="Vector_47" d="M35.0877 61.6028H30.8357L30.8073 61.2617H35.0592L35.0877 61.6028Z" fill="#ADBCFF"/>
<path id="Vector_48" d="M40.8665 62.2607H37.1888C36.9894 62.2573 36.7983 62.1808 36.6518 62.0458C36.5054 61.9109 36.4138 61.7269 36.3946 61.5289L35.9913 56.7437C35.9815 56.6505 35.9916 56.5563 36.021 56.4673C36.0504 56.3783 36.0984 56.2965 36.1619 56.2274C36.2254 56.1583 36.3028 56.1034 36.3891 56.0664C36.4754 56.0294 36.5687 56.0111 36.6626 56.0128H40.3412C40.5405 56.016 40.7316 56.0923 40.8781 56.2271C41.0246 56.3619 41.1161 56.5458 41.1354 56.7437L41.5369 61.5289C41.5467 61.6221 41.5366 61.7163 41.5073 61.8053C41.4779 61.8943 41.43 61.976 41.3667 62.0452C41.3033 62.1144 41.226 62.1693 41.1398 62.2065C41.0535 62.2436 40.9604 62.2621 40.8665 62.2607Z" fill="#F1F2FF"/>
<path id="Vector_49" opacity="0.5" d="M36.1641 58.7891L36.4187 61.8167C36.4307 61.9369 36.4865 62.0486 36.5757 62.1305C36.6648 62.2124 36.781 62.2587 36.9021 62.2607H41.155C41.2121 62.2616 41.2687 62.2505 41.3211 62.228C41.3736 62.2055 41.4207 62.1722 41.4593 62.1302C41.4979 62.0883 41.5271 62.0387 41.5451 61.9846C41.5631 61.9306 41.5694 61.8733 41.5636 61.8167L41.3099 58.7891H36.1641Z" fill="#D3D9EF"/>
<path id="Vector_50" d="M41.0721 61.6028H36.8201L36.7916 61.2617H41.0436L41.0721 61.6028Z" fill="#ADBCFF"/>
<path id="Vector_51" d="M46.8528 62.2607H43.175C42.9757 62.2573 42.7846 62.1808 42.6381 62.0458C42.4916 61.9109 42.4001 61.7269 42.3809 61.5289L41.9794 56.7437C41.9695 56.6505 41.9796 56.5563 42.009 56.4673C42.0384 56.3783 42.0865 56.2965 42.1499 56.2274C42.2134 56.1583 42.2908 56.1034 42.3772 56.0664C42.4635 56.0294 42.5567 56.0111 42.6506 56.0128H46.3293C46.5286 56.016 46.7197 56.0923 46.8661 56.2271C47.0126 56.3619 47.1042 56.5458 47.1234 56.7437L47.5249 61.5289C47.5348 61.6222 47.5246 61.7166 47.4952 61.8057C47.4657 61.8948 47.4177 61.9767 47.3541 62.0459C47.2906 62.1151 47.213 62.17 47.1266 62.207C47.0401 62.2441 46.9468 62.2624 46.8528 62.2607Z" fill="#F1F2FF"/>
<path id="Vector_52" opacity="0.5" d="M42.1484 58.7891L42.4031 61.8167C42.4151 61.9369 42.4709 62.0486 42.56 62.1305C42.6492 62.2124 42.7653 62.2587 42.8865 62.2607H47.1385C47.1955 62.2616 47.2522 62.2505 47.3046 62.228C47.3571 62.2055 47.4042 62.1722 47.4428 62.1302C47.4814 62.0883 47.5106 62.0387 47.5286 61.9846C47.5466 61.9306 47.5529 61.8733 47.5471 61.8167L47.2934 58.7891H42.1484Z" fill="#D3D9EF"/>
<path id="Vector_53" d="M47.0566 61.6028H42.8046L42.7761 61.2617H47.0281L47.0566 61.6028Z" fill="#ADBCFF"/>
<path id="Vector_54" d="M52.8354 62.2607H49.1577C48.9583 62.2571 48.7672 62.1806 48.6206 62.0457C48.4741 61.9108 48.3823 61.7269 48.3627 61.5289L47.962 56.7437C47.9522 56.6505 47.9623 56.5563 47.9917 56.4673C48.0211 56.3783 48.0691 56.2965 48.1326 56.2274C48.1961 56.1583 48.2735 56.1034 48.3598 56.0664C48.4462 56.0294 48.5394 56.0111 48.6333 56.0128H52.3119C52.5112 56.016 52.7023 56.0923 52.8488 56.2271C52.9953 56.3619 53.0868 56.5458 53.1061 56.7437L53.5076 61.5289C53.5174 61.6222 53.5073 61.7166 53.4779 61.8057C53.4484 61.8948 53.4003 61.9767 53.3368 62.0459C53.2732 62.1151 53.1957 62.17 53.1092 62.207C53.0228 62.2441 52.9295 62.2624 52.8354 62.2607Z" fill="#F1F2FF"/>
<path id="Vector_55" opacity="0.5" d="M48.1329 58.7891L48.3867 61.8167C48.3991 61.9369 48.4552 62.0485 48.5444 62.1303C48.6336 62.2122 48.7498 62.2585 48.871 62.2607H53.123C53.18 62.2616 53.2367 62.2505 53.2891 62.228C53.3416 62.2055 53.3886 62.1722 53.4273 62.1302C53.4659 62.0883 53.4951 62.0387 53.5131 61.9846C53.5311 61.9306 53.5374 61.8733 53.5316 61.8167L53.2779 58.7891H48.1329Z" fill="#D3D9EF"/>
<path id="Vector_56" d="M53.0411 61.6028H48.7891L48.7606 61.2617H53.0126L53.0411 61.6028Z" fill="#ADBCFF"/>
<path id="Vector_57" d="M58.7326 62.2607H55.0549C54.8555 62.2573 54.6644 62.1808 54.518 62.0458C54.3715 61.9109 54.28 61.7269 54.2608 61.5289L53.8592 56.7437C53.8494 56.6505 53.8595 56.5563 53.8889 56.4673C53.9183 56.3783 53.9663 56.2965 54.0298 56.2274C54.0933 56.1583 54.1707 56.1034 54.257 56.0664C54.3434 56.0294 54.4366 56.0111 54.5305 56.0128H58.2092C58.4084 56.016 58.5995 56.0923 58.746 56.2271C58.8925 56.3619 58.9841 56.5458 59.0033 56.7437L59.4048 61.5289C59.4147 61.6222 59.4045 61.7166 59.3751 61.8057C59.3456 61.8948 59.2975 61.9767 59.234 62.0459C59.1704 62.1151 59.0929 62.17 59.0065 62.207C58.92 62.2441 58.8267 62.2624 58.7326 62.2607Z" fill="#F1F2FF"/>
<path id="Vector_58" opacity="0.5" d="M54.0302 58.7891L54.2848 61.8167C54.2967 61.9369 54.3526 62.0486 54.4418 62.1305C54.5309 62.2124 54.647 62.2587 54.7682 62.2607H59.0202C59.0772 62.2616 59.1339 62.2505 59.1863 62.228C59.2388 62.2055 59.2858 62.1722 59.3245 62.1302C59.3631 62.0883 59.3923 62.0387 59.4103 61.9846C59.4283 61.9306 59.4346 61.8733 59.4288 61.8167L59.1751 58.7891H54.0302Z" fill="#D3D9EF"/>
<path id="Vector_59" d="M58.9383 61.6028H54.6863L54.6578 61.2617H58.9098L58.9383 61.6028Z" fill="#ADBCFF"/>
<path id="Vector_60" d="M64.7171 62.2607H61.0394C60.84 62.2571 60.6489 62.1806 60.5023 62.0457C60.3558 61.9108 60.264 61.7269 60.2444 61.5289L59.8437 56.7437C59.8339 56.6505 59.844 56.5563 59.8734 56.4673C59.9028 56.3783 59.9508 56.2965 60.0143 56.2274C60.0778 56.1583 60.1552 56.1034 60.2415 56.0664C60.3279 56.0294 60.4211 56.0111 60.515 56.0128H64.1937C64.3929 56.016 64.584 56.0923 64.7305 56.2271C64.877 56.3619 64.9686 56.5458 64.9878 56.7437L65.3893 61.5289C65.3992 61.6222 65.389 61.7166 65.3596 61.8057C65.3301 61.8948 65.282 61.9767 65.2185 62.0459C65.1549 62.1151 65.0774 62.17 64.991 62.207C64.9045 62.2441 64.8112 62.2624 64.7171 62.2607Z" fill="#F1F2FF"/>
<path id="Vector_61" opacity="0.5" d="M60.0146 58.7891L60.2684 61.8167C60.2807 61.9369 60.3369 62.0485 60.4261 62.1303C60.5153 62.2122 60.6315 62.2585 60.7527 62.2607H65.0047C65.0617 62.2616 65.1184 62.2505 65.1708 62.228C65.2233 62.2055 65.2703 62.1722 65.3089 62.1302C65.3476 62.0883 65.3768 62.0387 65.3948 61.9846C65.4128 61.9306 65.4191 61.8733 65.4133 61.8167L65.1596 58.7891H60.0146Z" fill="#D3D9EF"/>
<path id="Vector_62" d="M64.9228 61.6028H60.6708L60.6423 61.2617H64.8943L64.9228 61.6028Z" fill="#ADBCFF"/>
</g>
<g id="Character">
<path id="Vector_63" d="M83.7647 42.8759C83.7647 42.8759 77.1089 44.558 76.2329 44.55C75.3569 44.542 73.9253 42.549 73.9253 41.2639C73.9253 39.0827 76.1252 38.5445 76.1252 38.5445L81.5737 36.834L83.7647 42.8759Z" fill="#BCA68E"/>
<path id="Vector_64" d="M89.8569 32.9785L87.3997 33.1331L79.5208 36.7086L81.5043 44.0667L85.8302 43.3917L89.8569 32.9785Z" fill="#00BCEA"/>
<path id="Vector_65" d="M87.1869 39.2959L85.1018 43.5065L81.7188 44.034C81.7677 44.026 87.1869 39.2959 87.1869 39.2959Z" fill="#39D8FF"/>
<g id="Hand">
<path id="Vector_66" d="M90.0661 25.0272C90.083 24.5361 89.5818 24.5192 89.5818 24.5192L88.0487 24.4677L89.872 20.893C89.872 20.893 89.6005 20.5688 89.353 20.7331C89.2399 20.8077 88.4369 22.1541 88.0612 22.5094C88.339 21.6648 89.0823 20.0546 89.0823 20.0546C89.0823 20.0546 88.7957 19.8504 88.6274 20.0608C88.5473 20.1612 87.519 21.6461 87.2181 22.147C87.3712 21.5484 87.8849 20.4596 88.0381 19.8592C87.8787 19.7535 87.6526 19.798 87.5929 19.8761C87.2706 20.2758 86.3884 21.8673 86.3884 21.8673L86.7747 20.0493C86.7747 20.0493 86.334 19.9436 86.2406 20.1203C86.0305 20.5093 85.312 23.2288 85.0921 23.8869C84.8045 24.7501 83.1833 26.3301 83.1833 26.3301C83.1833 26.3301 85.8435 27.7422 86.0563 27.8754C86.2272 27.5557 86.8531 26.4216 86.8531 26.4216C87.787 25.8256 88.6959 25.7572 90.0661 25.0272Z" fill="#C7B299"/>
<path id="Vector_67" d="M87.9233 22.8426C87.8939 22.8302 87.9304 22.6863 88.0034 22.5202C88.0764 22.3542 88.1592 22.2316 88.1877 22.244C88.2162 22.2565 88.1814 22.4012 88.1084 22.5664C88.0354 22.7316 87.9518 22.8533 87.9233 22.8426Z" fill="#BCA68E"/>
<path id="Vector_68" d="M87.0472 22.5135C87.0178 22.5011 87.0534 22.3563 87.1264 22.1911C87.1994 22.0259 87.2822 21.9025 87.3116 21.9149C87.341 21.9274 87.3045 22.0721 87.2315 22.2373C87.1585 22.4025 87.0757 22.526 87.0472 22.5135Z" fill="#BCA68E"/>
<path id="Vector_69" d="M86.2032 22.2781C86.1738 22.2648 86.2103 22.1209 86.2833 21.9557C86.3563 21.7905 86.4391 21.6662 86.4676 21.6786C86.4961 21.691 86.4614 21.8358 86.3884 22.001C86.3154 22.1662 86.2308 22.2905 86.2032 22.2781Z" fill="#BCA68E"/>
<path id="Vector_70" d="M86.5415 22.4028C86.5157 22.4268 86.4151 22.3397 86.2744 22.2927C86.1338 22.2456 86.0073 22.2518 85.9975 22.2225C85.9877 22.1932 86.1329 22.1213 86.3118 22.1843C86.4908 22.2474 86.5647 22.3877 86.5415 22.4028Z" fill="#BCA68E"/>
<path id="Vector_71" d="M87.3338 22.6323C87.308 22.6563 87.2074 22.5692 87.0668 22.5222C86.9261 22.4751 86.7997 22.4813 86.7899 22.452C86.7801 22.4227 86.9252 22.3507 87.1042 22.4138C87.2831 22.4769 87.3606 22.6172 87.3338 22.6323Z" fill="#BCA68E"/>
<path id="Vector_72" d="M88.1617 22.9315C88.1359 22.9554 88.0362 22.8684 87.8947 22.8204C87.7531 22.7725 87.6276 22.7805 87.6178 22.7503C87.608 22.7201 87.7531 22.6499 87.932 22.713C88.111 22.776 88.1867 22.9181 88.1617 22.9315Z" fill="#BCA68E"/>
</g>
<path id="Vector_73" d="M72.8855 42.6473C71.5304 37.7741 84.2535 25.1602 84.2535 25.1602L86.8486 26.4169C86.8486 26.4169 79.5198 42.1899 77.9618 43.8329C76.4395 45.4369 73.4775 44.7788 72.8855 42.6473Z" fill="#C7B299"/>
<g id="Foot">
<path id="Vector_74" d="M85.9147 110.844C85.9147 111.11 85.4223 115.116 85.4312 116.232C84.9567 116.765 81.7206 116.799 81.4455 116.232C81.1704 115.664 81.3431 110.842 81.3431 110.842L85.9147 110.844Z" fill="#C7B299"/>
<path id="Vector_75" d="M85.3663 121.022C84.9746 121.199 76.4742 121.18 75.6373 121.194C74.8005 121.208 75.0702 118.202 77.652 118.096L80.663 115.587C80.7867 114.983 80.9585 114.312 81.1179 114.038C81.4063 113.549 82.6643 113.469 83.4825 113.996C83.8617 114.242 84.0353 114.768 84.0941 115.292C84.9185 115.292 85.5363 115.38 85.5978 115.834C85.6824 116.461 85.758 120.84 85.3663 121.022Z" fill="#4F3F3D"/>
<path id="Vector_76" d="M80.1974 119.405C80.1261 119.114 78.8459 117.862 77.5354 118.119C77.5354 118.119 78.1088 117.245 79.3801 117.922C79.6468 118.062 79.8665 118.278 80.0117 118.541C80.157 118.805 80.2215 119.105 80.1974 119.405Z" fill="#432D29"/>
<path id="Vector_77" d="M83.8884 117.984C83.8973 118.459 84.1947 118.839 84.5535 118.832C84.9123 118.825 85.1963 118.436 85.1874 117.96C85.1785 117.485 84.882 117.105 84.5232 117.111C84.1644 117.118 83.8813 117.508 83.8884 117.984Z" fill="#432D29"/>
<path id="Vector_78" d="M81.2256 117.596C80.8553 117.397 78.9999 117.312 79.4104 117.055C79.8208 116.799 81.2016 117.068 81.3102 117.389C81.4188 117.709 81.2256 117.596 81.2256 117.596Z" fill="#432D29"/>
<path id="Vector_79" d="M81.7865 116.958C81.4161 116.758 79.5652 116.673 79.9712 116.417C80.3771 116.16 81.7624 116.429 81.871 116.75C81.9797 117.07 81.7865 116.958 81.7865 116.958Z" fill="#432D29"/>
<path id="Vector_80" d="M82.3482 116.319C81.977 116.119 80.1225 116.035 80.5329 115.779C80.9434 115.523 82.3242 115.79 82.4328 116.111C82.5414 116.432 82.3482 116.319 82.3482 116.319Z" fill="#432D29"/>
<path id="Vector_81" d="M85.58 120.256C85.58 120.249 81.8337 120.495 79.7371 120.522C79.5029 120.522 79.3026 119.93 77.2033 119.937C75.7495 119.922 75.2661 120.389 75.2153 120.441C75.1218 120.538 74.9545 121.443 75.3667 121.507C75.7789 121.571 85.2194 121.495 85.3761 121.329C85.6832 121.005 85.58 120.256 85.58 120.256Z" fill="#432D29"/>
</g>
<path id="Vector_82" d="M98.172 57.5755L86.4551 113.35L80.5125 112.705C80.5125 112.705 80.5579 76.2029 82.7382 56.8525L98.172 57.5755Z" fill="#4F3F3D"/>
<path id="Vector_83" d="M86.9751 83.9075C87.7015 83.2733 83.2412 83.1206 83.1638 83.3746C83.0863 83.6286 86.821 84.0416 86.9751 83.9075Z" fill="#432D29"/>
<path id="Vector_84" d="M88.5909 84.6378C88.8028 84.0534 83.6588 84.827 83.7603 85.5863C83.8618 86.3456 88.4013 85.1591 88.5909 84.6378Z" fill="#432D29"/>
<g id="Foot_2">
<path id="Vector_85" d="M107.138 111.014C107.176 111.275 107.185 115.314 107.334 116.42C106.93 117.01 103.723 117.445 103.38 116.918C103.037 116.39 102.603 111.584 102.603 111.584L107.138 111.014Z" fill="#C7B299"/>
<path id="Vector_86" d="M107.219 121.377C106.826 121.554 98.3261 121.534 97.4901 121.549C96.6541 121.564 96.923 118.556 99.5048 118.451L102.515 115.942C102.639 115.337 102.81 114.666 102.97 114.392C103.258 113.903 104.517 113.824 105.334 114.351C105.714 114.597 105.887 115.123 105.946 115.646C106.77 115.646 107.389 115.735 107.45 116.188C107.535 116.815 107.613 121.195 107.219 121.377Z" fill="#4F3F3D"/>
<path id="Vector_87" d="M102.05 119.76C101.978 119.467 100.698 118.216 99.3873 118.474C99.3873 118.474 99.9607 117.6 101.232 118.277C101.499 118.417 101.719 118.632 101.864 118.896C102.009 119.159 102.074 119.46 102.05 119.76Z" fill="#432D29"/>
<path id="Vector_88" d="M105.742 118.337C105.75 118.812 106.048 119.192 106.406 119.186C106.765 119.18 107.049 118.789 107.041 118.314C107.033 117.839 106.735 117.459 106.376 117.466C106.017 117.473 105.733 117.862 105.742 118.337Z" fill="#432D29"/>
<path id="Vector_89" d="M103.077 117.95C102.707 117.751 100.856 117.665 101.262 117.41C101.668 117.154 103.053 117.422 103.162 117.742C103.271 118.061 103.077 117.95 103.077 117.95Z" fill="#432D29"/>
<path id="Vector_90" d="M103.639 117.312C103.268 117.112 101.414 117.028 101.824 116.771C102.234 116.515 103.615 116.784 103.723 117.104C103.831 117.425 103.639 117.312 103.639 117.312Z" fill="#432D29"/>
<path id="Vector_91" d="M104.2 116.673C103.83 116.474 101.974 116.389 102.385 116.133C102.795 115.876 104.176 116.145 104.285 116.466C104.393 116.786 104.2 116.673 104.2 116.673Z" fill="#432D29"/>
<path id="Vector_92" d="M107.43 120.61C107.43 120.604 103.683 120.849 101.586 120.877C101.352 120.877 101.152 120.283 99.0526 120.291C97.5988 120.275 97.1153 120.743 97.0655 120.795C96.9711 120.892 96.8037 121.798 97.2159 121.861C97.6281 121.924 107.069 121.847 107.225 121.683C107.535 121.36 107.43 120.61 107.43 120.61Z" fill="#432D29"/>
</g>
<path id="Vector_93" d="M104.318 57.5004C104.977 73.753 108.18 113.634 108.18 113.634H101.633L90.1365 57.2686L104.318 57.5004Z" fill="#4F3F3D"/>
<path id="Vector_94" d="M103.004 84.6114C103.216 84.027 98.0724 84.8006 98.1738 85.5599C98.2753 86.3193 102.815 85.1327 103.004 84.6114Z" fill="#432D29"/>
<path id="Vector_95" d="M96.063 86.3257L93.6654 68.3581L90.4186 62.5889L92.2419 70.2294L96.063 86.3257Z" fill="#432D29"/>
<path id="Vector_96" d="M105.994 41.2627C105.994 41.2627 109.423 47.1998 109.555 47.9103C109.688 48.6208 103.344 51.5969 103.344 51.5969L100.645 44.0683L105.994 41.2627Z" fill="#BCA68E"/>
<path id="Vector_97" d="M97.5614 32.9795L100.344 33.7015C100.344 33.7015 106.511 40.8953 107.377 41.7142C108.242 42.533 102.244 45.6121 102.244 45.6121L97.4465 36.5533L97.5614 32.9795Z" fill="#00BCEA"/>
<path id="Vector_98" d="M102.341 45.4313C102.341 45.4313 100.205 41.3912 100.084 39.2952C100.068 38.9879 102.997 44.2314 102.997 44.2314L105.529 43.7145C105.529 43.7145 103.492 45.4996 102.341 45.4313Z" fill="#39D8FF"/>
<path id="Vector_99" d="M89.8533 32.9795H97.5578C100.167 40.1653 104.641 48.3777 105.278 57.3904C105.278 57.3904 102.314 60.9926 86.7863 59.3611C83.4033 59.0059 81.8533 58.3585 81.8533 58.3585C82.9296 50.0821 86.0839 37.7629 89.8533 32.9795Z" fill="#01CDFF"/>
<path id="Vector_100" d="M98.2656 22.555C98.2263 21.8782 97.9487 21.237 97.4817 20.7445C97.0147 20.2519 96.3883 19.9398 95.7131 19.8631C95.2769 19.3622 95.4051 18.6907 94.1177 18.6197C92.8865 18.5495 92.1502 19.3204 91.9873 19.9519C91.7447 19.8109 91.4695 19.7356 91.1887 19.7334C90.8598 19.7335 90.5387 19.8328 90.2674 20.0184C89.9962 20.2039 89.7875 20.4669 89.6689 20.7729C89.5503 21.0789 89.5272 21.4135 89.6027 21.7328C89.6781 22.0521 89.8487 22.3412 90.0919 22.5621C89.6659 22.5749 89.2619 22.7537 88.9665 23.0601C88.671 23.3665 88.5076 23.7761 88.5112 24.2012C88.5148 24.6264 88.6851 25.0332 88.9858 25.3345C89.2864 25.6359 89.6934 25.8078 90.1195 25.8135C90.1973 25.8132 90.275 25.8069 90.3519 25.7948C90.6835 26.4727 91.2431 27.0129 91.9331 27.3212C92.6231 27.6296 93.3997 27.6866 94.1275 27.4823C94.0675 27.7066 94.0564 27.9412 94.0949 28.1701C94.1333 28.3991 94.2205 28.6173 94.3505 28.8098C94.4805 29.0024 94.6504 29.165 94.8486 29.2866C95.0469 29.4083 95.269 29.4861 95.4999 29.515C95.7309 29.5438 95.9653 29.523 96.1875 29.454C96.4097 29.3849 96.6146 29.2691 96.7882 29.1145C96.9618 28.9599 97.1002 28.7699 97.1941 28.5575C97.288 28.345 97.3352 28.115 97.3326 27.8828C97.3321 27.7652 97.3192 27.6479 97.2943 27.5329C97.806 27.4181 98.2549 27.1139 98.5504 26.6816C98.8459 26.2494 98.9659 25.7213 98.8861 25.2042C100.198 23.5905 98.343 22.5834 98.2656 22.555Z" fill="#432D29"/>
<path id="Vector_101" d="M91.6196 32.167C91.4024 32.5222 91.0151 32.6048 91.016 32.9752C91.0204 34.0827 92.4066 34.9886 93.791 34.6315C94.7596 34.3829 96.1823 33.7265 96.5963 32.9752C96.7414 32.7132 96.2499 32.4423 96.2793 32.167H91.6196Z" fill="#39D8FF"/>
<path id="Vector_102" d="M92.4449 29.2536L91.7745 33.2039C91.7745 33.2039 93.6112 34.7493 95.7737 32.394L94.9724 28.7305L92.4449 29.2536Z" fill="#C7B299"/>
<path id="Vector_103" d="M94.8443 30.4579C94.3227 30.8828 93.693 31.155 93.0254 31.2439C92.7194 31.2875 92.4097 31.2988 92.1013 31.2776L92.445 29.2536L94.9707 28.7305L95.2556 30.0271C95.1353 30.1859 94.9974 30.3304 94.8443 30.4579Z" fill="#BCA68E"/>
<path id="Vector_104" d="M89.1589 22.5907C89.1589 22.5907 88.8918 30.2436 91.9392 30.4843C94.9867 30.725 96.323 27.5242 96.323 27.5242C96.323 27.5242 96.8848 27.8706 97.0183 27.311C97.1518 26.7515 97.8195 25.7639 97.1518 25.3909C96.4841 25.0179 96.2696 25.6307 96.2696 25.6307L96.6435 23.8971C96.6435 23.8971 89.239 20.0888 89.1589 22.5907Z" fill="#C7B299"/>
<path id="Vector_105" d="M96.5705 25.7343C96.5705 25.7343 96.9711 25.5176 97.1314 25.8302C97.2916 26.1428 96.9391 27.3347 96.4655 27.1908C96.647 27.1013 96.796 26.9575 96.8917 26.7796C96.9875 26.6016 97.0252 26.3982 96.9996 26.1979C96.9311 25.4696 96.6747 25.9661 96.5705 25.7343Z" fill="#432D29"/>
<path id="Vector_106" d="M89.8008 25.5344C89.7772 25.5375 89.7533 25.531 89.7345 25.5165C89.7156 25.5021 89.7033 25.4807 89.7002 25.4571C89.6971 25.4336 89.7036 25.4098 89.7181 25.3909C89.7326 25.3721 89.754 25.3598 89.7777 25.3568C90.5575 25.1561 90.87 24.6552 90.8727 24.6463C90.8845 24.6258 90.904 24.6108 90.9269 24.6046C90.9497 24.5985 90.9741 24.6016 90.9947 24.6134C91.0152 24.6252 91.0302 24.6446 91.0364 24.6674C91.0426 24.6903 91.0394 24.7146 91.0276 24.7351C91.0134 24.7582 90.6777 25.3026 89.8231 25.5229C89.8162 25.5277 89.8087 25.5315 89.8008 25.5344Z" fill="#432D29"/>
<path id="Vector_107" d="M94.5228 25.2396C93.3984 25.2396 92.9203 24.6703 92.8989 24.6455C92.8838 24.6271 92.8766 24.6035 92.879 24.5798C92.8813 24.5562 92.893 24.5344 92.9114 24.5194C92.9298 24.5043 92.9535 24.4971 92.9772 24.4995C93.0009 24.5018 93.0227 24.5134 93.0378 24.5318C93.0423 24.5371 93.5106 25.0833 94.5967 25.0585C94.6203 25.0585 94.6429 25.0678 94.6596 25.0845C94.6763 25.1011 94.6857 25.1237 94.6857 25.1473C94.6857 25.1708 94.6763 25.1934 94.6596 25.2101C94.6429 25.2267 94.6203 25.2361 94.5967 25.2361L94.5228 25.2396Z" fill="#432D29"/>
<path id="Vector_108" d="M91.8457 27.7602C91.8401 27.7611 91.8344 27.7611 91.8288 27.7602C91.3614 27.6714 91.2795 27.333 91.2769 27.3161C91.2722 27.2966 91.2743 27.276 91.2828 27.2577C91.2914 27.2395 91.3059 27.2247 91.3241 27.2158C91.5582 27.0994 91.7692 26.5239 91.8262 26.3117C91.8292 26.3003 91.8346 26.2897 91.8418 26.2804C91.8491 26.2711 91.8581 26.2634 91.8683 26.2576C91.8786 26.2518 91.8899 26.2481 91.9016 26.2467C91.9134 26.2453 91.9252 26.2463 91.9366 26.2495C91.948 26.2526 91.9588 26.2579 91.9682 26.2652C91.9776 26.2725 91.9854 26.2816 91.9912 26.2919C91.997 26.3023 92.0007 26.3137 92.002 26.3254C92.0033 26.3372 92.0023 26.3492 91.9989 26.3605C91.9766 26.4405 91.7817 27.1012 91.4754 27.3321C91.5166 27.4005 91.5729 27.4585 91.64 27.5017C91.7072 27.545 91.7833 27.5723 91.8627 27.5817C91.8863 27.5839 91.908 27.5954 91.9231 27.6137C91.9383 27.6319 91.9455 27.6554 91.9433 27.6789C91.941 27.7025 91.9295 27.7242 91.9112 27.7393C91.8929 27.7543 91.8694 27.7616 91.8457 27.7593V27.7602Z" fill="#432D29"/>
<path id="Vector_109" d="M92.0327 28.8812C92.0205 28.881 92.0085 28.8786 91.9971 28.8741C91.9862 28.8696 91.9762 28.8629 91.9679 28.8544C91.9595 28.846 91.953 28.836 91.9486 28.825C91.9442 28.814 91.942 28.8022 91.9423 28.7904C91.9425 28.7785 91.9451 28.7668 91.95 28.756C91.9966 28.6611 92.0621 28.5766 92.1427 28.5079C92.2232 28.4392 92.317 28.3876 92.4182 28.3563C92.7405 28.2578 93.1358 28.3563 93.5916 28.6494C93.6016 28.6558 93.6101 28.664 93.6169 28.6737C93.6236 28.6834 93.6284 28.6943 93.6309 28.7058C93.6334 28.7173 93.6337 28.7291 93.6316 28.7407C93.6295 28.7523 93.6251 28.7634 93.6188 28.7733C93.6124 28.7832 93.6041 28.7918 93.5944 28.7985C93.5848 28.8052 93.5738 28.81 93.5623 28.8125C93.5508 28.815 93.5389 28.8153 93.5272 28.8132C93.5156 28.8111 93.5045 28.8068 93.4946 28.8004C93.0859 28.534 92.7423 28.4452 92.4743 28.5269C92.3977 28.5503 92.3266 28.5889 92.2654 28.6405C92.2042 28.6921 92.1541 28.7556 92.1182 28.827C92.1112 28.8437 92.0992 28.8578 92.0839 28.8674C92.0687 28.8771 92.0508 28.8819 92.0327 28.8812Z" fill="#432D29"/>
<path id="Vector_110" d="M90.9502 26.3509C90.9502 26.6306 90.7944 26.8571 90.603 26.8571C90.4116 26.8571 90.2549 26.6306 90.2549 26.3509C90.2549 26.0711 90.4107 25.8438 90.603 25.8438C90.7953 25.8438 90.9502 26.0711 90.9502 26.3509Z" fill="#432D29"/>
<path id="Vector_111" d="M94.0776 26.3509C94.0776 26.6306 93.9218 26.8571 93.7304 26.8571C93.539 26.8571 93.3823 26.6306 93.3823 26.3509C93.3823 26.0711 93.5381 25.8438 93.7304 25.8438C93.9227 25.8438 94.0776 26.0711 94.0776 26.3509Z" fill="#432D29"/>
<path id="Vector_112" d="M96.6907 22.1249C96.3913 22.2831 96.0451 22.3297 95.7144 22.2563C95.3836 22.1829 95.09 21.9943 94.8861 21.7243C94.583 21.8952 94.2275 21.9488 93.8874 21.8751C93.5472 21.8014 93.2461 21.6055 93.0414 21.3247C92.9313 21.325 92.8217 21.3381 92.7147 21.3638C91.69 21.4404 90.6598 21.3324 89.6735 21.0449C89.5683 21.3531 89.5469 21.6836 89.6113 22.0028C89.6758 22.322 89.8237 22.6184 90.0403 22.862C90.2568 23.1056 90.5341 23.2877 90.844 23.3897C91.154 23.4917 91.4855 23.5101 91.8048 23.4428C92.8964 23.607 93.9441 23.9875 94.8861 24.5619C95.1852 24.4026 95.5315 24.3554 95.8625 24.4287C96.1935 24.502 96.4872 24.691 96.6907 24.9615C97.0684 24.9615 97.4308 24.8118 97.6979 24.5453C97.965 24.2788 98.1151 23.9174 98.1151 23.5405C98.1151 23.1637 97.965 22.8022 97.6979 22.5357C97.4308 22.2693 97.0684 22.1195 96.6907 22.1195V22.1249Z" fill="#432D29"/>
<path id="Vector_113" d="M90.9021 27.4407C90.9279 27.5926 90.7623 27.7471 90.5318 27.7853C90.3012 27.8235 90.0946 27.7329 90.0688 27.581C90.043 27.4291 90.2095 27.2746 90.4392 27.2355C90.6689 27.1965 90.8772 27.2888 90.9021 27.4407Z" fill="#BCA68E"/>
<path id="Vector_114" d="M94.0501 27.4407C94.075 27.5926 93.9094 27.7471 93.6797 27.7853C93.45 27.8235 93.2417 27.7329 93.2159 27.581C93.1901 27.4291 93.3566 27.2746 93.5862 27.2355C93.8159 27.1965 94.0243 27.2888 94.0501 27.4407Z" fill="#BCA68E"/>
<path id="Vector_115" d="M109.344 50.535C107.92 53.6763 92.5695 55.4197 92.5695 55.4197L92.1725 52.7828L104.773 47.1877C104.773 47.1877 111.687 45.3715 109.344 50.535Z" fill="#C7B299"/>
<path id="Vector_116" d="M105.561 52.5055C106.368 51.8021 108.531 49.5055 108.855 50.025C109.178 50.5446 105.561 52.5055 105.561 52.5055Z" fill="#BCA68E"/>
<path id="Vector_117" d="M90.4605 52.819C90.4297 52.5056 90.2993 52.2103 90.0884 51.9761C89.8774 51.7418 89.597 51.581 89.288 51.517L89.2461 51.0845L89.0253 51.1058L88.9773 50.6155L89.1972 50.5942L89.1402 50.009L88.9194 50.0303L88.8713 49.54L89.0921 49.5187L89.0342 48.9343L88.8135 48.9556L88.7654 48.4645L88.33 47.9316L88.0389 48.5214L88.3452 51.6298C88.1006 51.7466 87.8927 51.9281 87.7444 52.1546C87.596 52.3811 87.5128 52.6438 87.5038 52.9142C87.4947 53.1846 87.5602 53.4523 87.6931 53.6882C87.826 53.924 88.0212 54.1189 88.2575 54.2518C88.4938 54.3846 88.762 54.4502 89.0331 54.4415C89.3042 54.4327 89.5676 54.35 89.7948 54.2022C90.022 54.0545 90.2042 53.8474 90.3216 53.6035C90.4389 53.3596 90.487 53.0882 90.4605 52.819ZM89.6031 52.9078C89.6198 52.9928 89.6184 53.0804 89.5992 53.1648C89.5799 53.2493 89.5432 53.3288 89.4914 53.3983C89.4395 53.4678 89.3737 53.5257 89.2981 53.5683C89.2224 53.6109 89.1388 53.6373 89.0523 53.6458C88.9659 53.6542 88.8787 53.6445 88.7962 53.6174C88.7137 53.5902 88.6379 53.5462 88.5735 53.4881C88.5091 53.43 88.4576 53.3591 88.4222 53.28C88.3869 53.2008 88.3685 53.1152 88.3683 53.0286C88.3531 52.8655 88.4031 52.7031 88.5073 52.5765C88.6114 52.45 88.7615 52.3696 88.9247 52.3527C89.0883 52.3373 89.2514 52.387 89.3785 52.491C89.5055 52.5949 89.5862 52.7447 89.6031 52.9078Z" fill="#C3CBE0"/>
<path id="Vector_118" d="M88.3452 51.6296L88.777 51.4999L88.3301 47.9297L88.0389 48.5203L88.3452 51.6296Z" fill="#D3D9EF"/>
<path id="Vector_119" d="M89.7269 52.441C89.5327 52.1922 89.2637 52.0119 88.9593 51.9265C88.6549 51.8412 88.3312 51.8553 88.0354 51.9668L87.7683 51.6231L87.5903 51.759L87.2867 51.3708L87.4647 51.235L87.1024 50.7705L86.9243 50.9064L86.6207 50.5183L86.7988 50.3824L86.4365 49.9197L86.2584 50.0555L85.9539 49.6657L85.2996 49.4463L85.3708 50.0999L87.2956 52.5645C87.1515 52.7937 87.0732 53.0579 87.0693 53.3284C87.0653 53.5989 87.1359 53.8653 87.2732 54.0986C87.4105 54.3319 87.6093 54.5232 87.848 54.6516C88.0867 54.78 88.3562 54.8405 88.627 54.8268C88.8978 54.813 89.1597 54.7253 89.3841 54.5734C89.6084 54.4214 89.7867 54.211 89.8995 53.9649C90.0123 53.7189 90.0552 53.4467 90.0237 53.178C89.9922 52.9093 89.8874 52.6544 89.7207 52.441H89.7269ZM89.0467 52.9739C89.1361 53.0873 89.1832 53.2282 89.1798 53.3724C89.1765 53.5166 89.123 53.6552 89.0285 53.7644C88.934 53.8736 88.8044 53.9466 88.6618 53.9709C88.5193 53.9952 88.3727 53.9693 88.2472 53.8977C88.1217 53.826 88.0251 53.7131 87.9739 53.5781C87.9228 53.4432 87.9202 53.2947 87.9667 53.1581C88.0132 53.0216 88.1059 52.9054 88.2289 52.8295C88.3519 52.7536 88.4975 52.7227 88.6408 52.7421C88.8007 52.7618 88.9466 52.8435 89.0467 52.9695V52.9739Z" fill="#F1F2FF"/>
<path id="Vector_120" d="M87.3018 52.5645L87.5965 52.2243L85.3058 49.4463L85.377 50.0999L87.3018 52.5645Z" fill="#D3D9EF"/>
<path id="Vector_121" d="M88.404 57.3367C88.2019 57.2417 88.0817 56.9015 88.1369 56.7692C88.1711 56.6858 88.2186 56.6084 88.2776 56.5401C88.2776 56.5401 88.0149 56.5623 87.8903 56.4672C87.7915 56.3917 87.6695 55.8287 87.7042 55.7416C87.7657 55.5907 88.0034 55.4752 88.0034 55.4752C88.0034 55.4752 87.6793 55.4876 87.5645 55.3944C87.4683 55.3162 87.3455 54.6359 87.3864 54.5276C87.4683 54.3198 87.8217 54.2185 87.8217 54.2185C87.8217 54.2185 87.3205 54.1652 87.2288 54.0933C87.0962 53.9885 87.3455 53.2052 87.3455 53.2052C87.3455 53.2052 89.7893 52.5577 90.1391 52.5231C90.2415 52.2948 90.2576 52.1065 89.946 51.833C90.9778 51.9351 91.9518 52.3925 92.1717 52.778C92.8376 52.6376 93.8534 52.4804 93.8534 52.4804L93.9246 55.2425L90.0564 57.2124C90.0564 57.2124 88.7735 57.509 88.404 57.3367Z" fill="#C7B299"/>
<path id="Vector_122" d="M90.4294 52.5223C90.424 52.4895 90.0376 52.5223 89.5658 52.6058C89.0939 52.6893 88.7174 52.7781 88.7236 52.811C88.7298 52.8438 89.1153 52.811 89.5863 52.7275C90.0572 52.644 90.4356 52.5561 90.4294 52.5223Z" fill="#BCA68E"/>
<path id="Vector_123" d="M88.33 54.1419C88.3238 54.1081 88.2179 54.0984 88.0915 54.1197C87.965 54.141 87.8689 54.1854 87.8742 54.2191C87.8796 54.2529 87.9864 54.2627 88.1128 54.2413C88.2392 54.22 88.3398 54.1756 88.33 54.1419Z" fill="#BCA68E"/>
<path id="Vector_124" d="M88.6159 55.3726C88.6097 55.3389 88.4868 55.3318 88.3399 55.3566C88.193 55.3815 88.0799 55.4286 88.0853 55.4623C88.0906 55.4961 88.2144 55.5032 88.3613 55.4783C88.5082 55.4534 88.6212 55.4064 88.6159 55.3726Z" fill="#BCA68E"/>
<path id="Vector_125" d="M88.8402 56.4135C88.8304 56.3807 88.7146 56.3851 88.5811 56.4242C88.4475 56.4633 88.3469 56.5201 88.3567 56.553C88.3665 56.5858 88.4823 56.5805 88.6158 56.5423C88.7494 56.5041 88.85 56.4464 88.8402 56.4135Z" fill="#BCA68E"/>
<path id="Vector_126" d="M89.2604 18.8398C89.2604 18.8398 89.3075 16.7172 88.7369 16.7554C88.1662 16.7936 89.2604 18.8398 89.2604 18.8398Z" fill="#F1F2FF"/>
<path id="Vector_127" d="M87.9998 19.3119C87.9998 19.3119 86.4391 17.8696 86.0883 18.3208C85.7376 18.772 87.9998 19.3119 87.9998 19.3119Z" fill="#F1F2FF"/>
<path id="Vector_128" d="M88.549 19.0569C88.549 19.0569 87.6587 16.3792 86.9554 16.6821C86.2521 16.9849 88.549 19.0569 88.549 19.0569Z" fill="#F1F2FF"/>
</g>
<g id="Question mark">
<path id="Vector_129" d="M102.973 22.8657L103.062 22.4669C103.386 21.0522 104.131 19.8994 106.516 18.5921C108.179 17.6702 108.652 16.7839 108.887 15.7705C109.155 14.5937 108.721 13.1443 106.918 12.734C105.115 12.3237 104.056 13.2749 103.442 14.8611L100.98 14.3016C101.459 12.6621 103.283 9.77213 107.427 10.7242C111.224 11.599 111.867 14.4676 111.425 16.4082C111.028 18.148 110.202 19.1614 107.957 20.4287C106.463 21.2742 105.869 22.0504 105.599 23.2316L105.548 23.4554L102.973 22.8657ZM101.749 28.2255L102.578 24.5967L105.16 25.1828L104.331 28.8108L101.749 28.2255Z" fill="#D3D9EF"/>
<path id="Vector_130" d="M80.1181 19.0638L80.0656 18.9412C79.8768 18.5061 79.8501 18.0593 80.2241 17.2538C80.484 16.6907 80.4386 16.3657 80.3033 16.054C80.1457 15.6925 79.7513 15.395 79.1976 15.6339C78.6438 15.8728 78.5485 16.3275 78.6936 16.863L77.9378 17.1899C77.7464 16.6659 77.6707 15.5531 78.942 15.0069C80.111 14.506 80.8357 15.1374 81.0939 15.7325C81.3253 16.2653 81.3049 16.6934 80.9585 17.4581C80.7288 17.9688 80.7226 18.2876 80.8802 18.6499L80.9105 18.7192L80.1181 19.0638ZM80.8303 20.7104L80.3469 19.5949L81.1384 19.253L81.6218 20.3676L80.8303 20.7104Z" fill="#F1F2FF"/>
<path id="Vector_131" d="M83.7362 10.1025L83.7211 9.94351C83.6685 9.38133 83.8047 8.86355 84.5276 8.09089C85.0307 7.54736 85.1001 7.16191 85.0618 6.75871C85.0182 6.29067 84.6808 5.80664 83.9632 5.87059C83.2457 5.93453 82.9697 6.41767 82.9349 7.07932L81.9556 7.16813C81.9334 6.50293 82.2565 5.21427 83.9071 5.06151C85.4206 4.92563 86.0064 5.90966 86.0785 6.68055C86.1435 7.37329 85.9619 7.84932 85.2844 8.58913C84.8392 9.08381 84.7093 9.4435 84.7502 9.91243L84.7582 10.0012L83.7362 10.1025ZM83.9356 12.234L83.7994 10.7917L84.825 10.6958L84.9603 12.1398L83.9356 12.234Z" fill="#D3D9EF"/>
<path id="Vector_132" d="M94.9279 4.49943L94.9457 4.35467C95.0071 3.83956 95.2297 3.4026 96.0265 2.84931C96.5829 2.46031 96.72 2.12815 96.7637 1.75958C96.8153 1.3315 96.6061 0.832382 95.9508 0.754227C95.2956 0.676073 94.9546 1.05264 94.7935 1.64235L93.8978 1.53577C94.0064 0.935403 94.5459 -0.160539 96.0541 0.0259665C97.4349 0.195598 97.7706 1.19029 97.686 1.89102C97.6103 2.52425 97.3548 2.91591 96.6052 3.4479C96.1057 3.80315 95.9232 4.10244 95.8716 4.53141L95.8618 4.61311L94.9279 4.49943ZM94.6938 6.4533L94.8522 5.13355L95.7888 5.24546L95.6303 6.56521L94.6938 6.4533Z" fill="#F1F2FF"/>
</g>
</g>
<defs>
<clipPath id="clip0_177_5695">
<rect width="120" height="130.909" fill="white"/>
</clipPath>
</defs>
</svg>
