<svg width="180" height="21" viewBox="0 0 180 21" fill="none" xmlns="http://www.w3.org/2000/svg">
<path d="M0.493899 0H9.87788C15.8788 0 20.7436 4.91843 20.7436 10.9856V11.3595H13.409L10.6643 5.50116L8.38438 11.7249L5.99521 3.51201L2.93909 10.6187H0.0176509C0.00593334 10.4096 0 10.199 0 9.98694V0.499351C0 0.22357 0.221114 0 0.493899 0Z" fill="white"/>
<path d="M0.200869 12.1004C1.1754 17.1564 5.57976 20.9726 10.8657 20.9726H20.2497C20.5224 20.9726 20.7436 20.749 20.7436 20.4732V12.8412H12.4816L10.8298 9.31555L8.22469 16.427L5.72884 7.84747L3.89994 12.1004H0.200869Z" fill="#01CDFF"/>
<path d="M45.1368 19.889V12.6855C45.1368 10.6139 43.9833 9.53102 42.2413 9.53102C40.4757 9.53102 39.3222 10.6139 39.3222 12.6855V19.889H36.0265V12.6855C36.0265 10.6139 34.873 9.53102 33.1309 9.53102C31.3418 9.53102 30.1883 10.6139 30.1883 12.6855V19.889H26.8926V6.84736H30.1883V8.4246C31.0122 7.34172 32.4012 6.65903 34.0255 6.65903C36.05 6.65903 37.7214 7.53005 38.616 9.15437C39.4634 7.67129 41.1819 6.65903 43.0887 6.65903C46.2197 6.65903 48.4325 8.63647 48.4325 12.2382V19.889H45.1368Z" fill="white"/>
<path d="M56.6919 9.3427C55.1146 9.3427 53.867 10.355 53.608 12.1441H59.7993C59.7522 10.4256 58.3868 9.3427 56.6919 9.3427ZM62.8832 15.7929C62.1769 18.1941 60.0112 20.1009 56.7861 20.1009C52.996 20.1009 50.2417 17.4643 50.2417 13.3682C50.2417 9.24853 52.9253 6.63549 56.7861 6.63549C60.5526 6.63549 63.2127 9.20145 63.2127 13.0857C63.2127 13.5094 63.1892 13.9332 63.1186 14.3569H53.5845C53.7493 16.2873 55.0676 17.3701 56.7154 17.3701C58.1279 17.3701 58.9047 16.6639 59.3285 15.7929H62.8832Z" fill="white"/>
<path d="M65.6654 15.84V9.55457H64.1117V6.84736H65.6654V3.62225H68.9847V6.84736H71.9037V9.55457H68.9847V15.8635C68.9847 16.7345 69.3378 17.1112 70.3736 17.1112H71.9037V19.889H69.8321C67.3368 19.889 65.6654 18.8297 65.6654 15.84Z" fill="white"/>
<path d="M74.3213 15.84V9.55457H72.7676V6.84736H74.3213V3.62225H77.6406V6.84736H80.5596V9.55457H77.6406V15.8635C77.6406 16.7345 77.9937 17.1112 79.0295 17.1112H80.5596V19.889H78.488C75.9927 19.889 74.3213 18.8297 74.3213 15.84Z" fill="white"/>
<path d="M82.4593 19.889V2.46875H85.755V19.889H82.4593Z" fill="white"/>
<path d="M94.1431 9.3427C92.5659 9.3427 91.3182 10.355 91.0593 12.1441H97.2505C97.2034 10.4256 95.8381 9.3427 94.1431 9.3427ZM100.334 15.7929C99.6281 18.1941 97.4624 20.1009 94.2373 20.1009C90.4472 20.1009 87.6929 17.4643 87.6929 13.3682C87.6929 9.24853 90.3766 6.63549 94.2373 6.63549C98.0038 6.63549 100.664 9.20145 100.664 13.0857C100.664 13.5094 100.64 13.9332 100.57 14.3569H91.0357C91.2005 16.2873 92.5188 17.3701 94.1666 17.3701C95.5791 17.3701 96.356 16.6639 96.7797 15.7929H100.334Z" fill="white"/>
<path d="M105.894 13.3917V19.889H102.599V6.84736H105.894V8.87188C106.718 7.53005 108.084 6.65903 109.896 6.65903V10.1195H109.025C107.071 10.1195 105.894 10.8729 105.894 13.3917Z" fill="white"/>
<path d="M111.904 19.889V2.46875H113.552V9.22499C114.376 7.64775 116.071 6.80028 118.025 6.80028C120.873 6.80028 123.157 8.58939 123.157 12.3559V19.889H121.533V12.5443C121.533 9.69581 119.979 8.23627 117.625 8.23627C115.224 8.23627 113.552 9.74289 113.552 12.8738V19.889H111.904Z" fill="white"/>
<path d="M131.816 8.25982C129.485 8.25982 127.437 9.76643 127.249 12.7561H136.288C136.359 9.76643 134.193 8.25982 131.816 8.25982ZM137.771 15.8164C137.183 18.2412 135.111 20.0774 131.886 20.0774C128.237 20.0774 125.577 17.5349 125.577 13.4624C125.577 9.36624 128.19 6.84736 131.886 6.84736C135.653 6.84736 137.96 9.53102 137.96 12.8032C137.96 13.3211 137.96 13.6507 137.913 14.098H127.249C127.39 17.1112 129.485 18.6884 131.886 18.6884C134.076 18.6884 135.559 17.5349 136.029 15.8164H137.771Z" fill="white"/>
<path d="M139.751 13.4388C139.751 9.41332 142.364 6.84736 145.895 6.84736C148.484 6.84736 150.25 8.23627 150.98 9.8606V7.03569H152.627V19.889H150.98V17.0406C150.226 18.6884 148.437 20.0774 145.871 20.0774C142.364 20.0774 139.751 17.4643 139.751 13.4388ZM150.98 13.4624C150.98 10.2608 148.837 8.28336 146.201 8.28336C143.494 8.28336 141.422 10.1666 141.422 13.4388C141.422 16.6875 143.494 18.6414 146.201 18.6414C148.837 18.6414 150.98 16.6639 150.98 13.4624Z" fill="white"/>
<path d="M155.919 19.889V2.46875H157.566V19.889H155.919Z" fill="white"/>
<path d="M161.298 16.405V8.4246H159.509V7.03569H161.298V3.81058H162.969V7.03569H166.501V8.4246H162.969V16.405C162.969 17.9822 163.511 18.4766 164.994 18.4766H166.501V19.889H164.735C162.499 19.889 161.298 18.9709 161.298 16.405Z" fill="white"/>
<path d="M168.747 19.889V2.46875H170.395V9.22499C171.219 7.64775 172.914 6.80028 174.868 6.80028C177.717 6.80028 180 8.58939 180 12.3559V19.889H178.376V12.5443C178.376 9.69581 176.822 8.23627 174.468 8.23627C172.067 8.23627 170.395 9.74289 170.395 12.8738V19.889H168.747Z" fill="white"/>
</svg>
