<svg width="20" height="20" viewBox="0 0 20 20" fill="none" xmlns="http://www.w3.org/2000/svg">
<g id="Group">
<path id="Vector" d="M4.16671 18.3337C3.94569 18.3337 3.73373 18.2459 3.57745 18.0896C3.42117 17.9333 3.33337 17.7213 3.33337 17.5003V2.50033C3.33337 2.27931 3.42117 2.06735 3.57745 1.91107C3.73373 1.75479 3.94569 1.66699 4.16671 1.66699H15.8334C16.0544 1.66699 16.2663 1.75479 16.4226 1.91107C16.5789 2.06735 16.6667 2.27931 16.6667 2.50033V5.00033H15V3.33366H5.00004V16.667H15V15.0003H16.6667V17.5003C16.6667 17.7213 16.5789 17.9333 16.4226 18.0896C16.2663 18.2459 16.0544 18.3337 15.8334 18.3337H4.16671ZM15 13.3337V10.8337H9.16671V9.16699H15V6.66699L19.1667 10.0003L15 13.3337Z" fill="#3F3F46"/>
</g>
</svg>
