<svg width="19" height="19" viewBox="0 0 19 19" fill="none" xmlns="http://www.w3.org/2000/svg">
<path d="M17.5357 1.92871H14.9643V4.17871C14.9643 4.88901 14.3889 5.46443 13.6786 5.46443C12.9683 5.46443 12.3929 4.88901 12.3929 4.17871V1.92871H6.60714V4.17871C6.60714 4.88901 6.03173 5.46443 5.32143 5.46443C4.61113 5.46443 4.03571 4.88901 4.03571 4.17871V1.92871H1.46429C0.93391 1.92871 0.5 2.36262 0.5 2.893V6.42871H18.5V2.893C18.5 2.36262 18.0661 1.92871 17.5357 1.92871Z" fill="#515667"/>
<path d="M0.5 17.0356C0.5 17.566 0.93391 17.9999 1.46429 17.9999H17.5357C18.0661 17.9999 18.5 17.566 18.5 17.0356V7.07129H0.5V17.0356ZM12.7143 8.99986C12.7143 8.82307 12.8589 8.67843 13.0357 8.67843H15.6071C15.7839 8.67843 15.9286 8.82307 15.9286 8.99986V11.5713C15.9286 11.7481 15.7839 11.8927 15.6071 11.8927H13.0357C12.8589 11.8927 12.7143 11.7481 12.7143 11.5713V8.99986ZM7.89286 8.99986C7.89286 8.82307 8.0375 8.67843 8.21429 8.67843H10.7857C10.9625 8.67843 11.1071 8.82307 11.1071 8.99986V11.5713C11.1071 11.7481 10.9625 11.8927 10.7857 11.8927H8.21429C8.0375 11.8927 7.89286 11.7481 7.89286 11.5713V8.99986ZM7.89286 13.1784C7.89286 13.0016 8.0375 12.857 8.21429 12.857H10.7857C10.9625 12.857 11.1071 13.0016 11.1071 13.1784V15.7499C11.1071 15.9266 10.9625 16.0713 10.7857 16.0713H8.21429C8.0375 16.0713 7.89286 15.9266 7.89286 15.7499V13.1784ZM3.07143 13.1784C3.07143 13.0016 3.21607 12.857 3.39286 12.857H5.96429C6.14107 12.857 6.28571 13.0016 6.28571 13.1784V15.7499C6.28571 15.9266 6.14107 16.0713 5.96429 16.0713H3.39286C3.21607 16.0713 3.07143 15.9266 3.07143 15.7499V13.1784Z" fill="#515667"/>
<path d="M5.32157 4.82143C5.67514 4.82143 5.96443 4.53214 5.96443 4.17857V0.642857C5.96443 0.289286 5.67514 0 5.32157 0C4.968 0 4.67871 0.289286 4.67871 0.642857V4.17857C4.67871 4.53214 4.968 4.82143 5.32157 4.82143Z" fill="#515667"/>
<path d="M13.679 4.82143C14.0326 4.82143 14.3218 4.53214 14.3218 4.17857V0.642857C14.3218 0.289286 14.0326 0 13.679 0C13.3254 0 13.0361 0.289286 13.0361 0.642857V4.17857C13.0361 4.53214 13.3254 4.82143 13.679 4.82143Z" fill="#515667"/>
</svg>
