<svg width="18" height="19" viewBox="0 0 18 19" fill="none" xmlns="http://www.w3.org/2000/svg">
<path d="M17.0357 1.92871H14.4643V4.17871C14.4643 4.88901 13.8889 5.46443 13.1786 5.46443C12.4683 5.46443 11.8929 4.88901 11.8929 4.17871V1.92871H6.10714V4.17871C6.10714 4.88901 5.53173 5.46443 4.82143 5.46443C4.11113 5.46443 3.53571 4.88901 3.53571 4.17871V1.92871H0.964286C0.43391 1.92871 0 2.36262 0 2.893V6.42871H18V2.893C18 2.36262 17.5661 1.92871 17.0357 1.92871Z" fill="#515667"/>
<path d="M0 17.0356C0 17.566 0.43391 17.9999 0.964286 17.9999H17.0357C17.5661 17.9999 18 17.566 18 17.0356V7.07129H0V17.0356ZM12.2143 8.99986C12.2143 8.82307 12.3589 8.67843 12.5357 8.67843H15.1071C15.2839 8.67843 15.4286 8.82307 15.4286 8.99986V11.5713C15.4286 11.7481 15.2839 11.8927 15.1071 11.8927H12.5357C12.3589 11.8927 12.2143 11.7481 12.2143 11.5713V8.99986ZM7.39286 8.99986C7.39286 8.82307 7.5375 8.67843 7.71429 8.67843H10.2857C10.4625 8.67843 10.6071 8.82307 10.6071 8.99986V11.5713C10.6071 11.7481 10.4625 11.8927 10.2857 11.8927H7.71429C7.5375 11.8927 7.39286 11.7481 7.39286 11.5713V8.99986ZM7.39286 13.1784C7.39286 13.0016 7.5375 12.857 7.71429 12.857H10.2857C10.4625 12.857 10.6071 13.0016 10.6071 13.1784V15.7499C10.6071 15.9266 10.4625 16.0713 10.2857 16.0713H7.71429C7.5375 16.0713 7.39286 15.9266 7.39286 15.7499V13.1784ZM2.57143 13.1784C2.57143 13.0016 2.71607 12.857 2.89286 12.857H5.46429C5.64107 12.857 5.78571 13.0016 5.78571 13.1784V15.7499C5.78571 15.9266 5.64107 16.0713 5.46429 16.0713H2.89286C2.71607 16.0713 2.57143 15.9266 2.57143 15.7499V13.1784Z" fill="#515667"/>
<path d="M4.82157 4.82143C5.17514 4.82143 5.46443 4.53214 5.46443 4.17857V0.642857C5.46443 0.289286 5.17514 0 4.82157 0C4.468 0 4.17871 0.289286 4.17871 0.642857V4.17857C4.17871 4.53214 4.468 4.82143 4.82157 4.82143Z" fill="#515667"/>
<path d="M13.1785 4.82143C13.5321 4.82143 13.8214 4.53214 13.8214 4.17857V0.642857C13.8214 0.289286 13.5321 0 13.1785 0C12.8249 0 12.5356 0.289286 12.5356 0.642857V4.17857C12.5356 4.53214 12.8249 4.82143 13.1785 4.82143Z" fill="#515667"/>
</svg>
