<svg width="160" height="19" viewBox="0 0 160 19" fill="none" xmlns="http://www.w3.org/2000/svg">
<g id="Group 8506">
<g id="Subtract">
<path d="M0.439021 0H8.78034C14.1145 0 18.4387 4.37194 18.4387 9.765V10.0973H11.9191L9.47938 4.88992L7.45278 10.4221L5.32908 3.12178L2.61253 9.43882H0.0156897C0.00527408 9.25298 0 9.06576 0 8.87728V0.443867C0 0.198729 0.196546 0 0.439021 0Z" fill="white"/>
<path d="M0.17855 10.7559C1.0448 15.2501 4.95978 18.6423 9.65838 18.6423H17.9997C18.2422 18.6423 18.4387 18.4436 18.4387 18.1984V11.4144H11.0948L9.62647 8.28049L7.31083 14.6018L5.0923 6.97552L3.46661 10.7559H0.17855Z" fill="#01CDFF"/>
</g>
<g id="mettlerhealth">
<path d="M40.1219 17.68V11.2769C40.1219 9.43545 39.0965 8.47289 37.5481 8.47289C35.9787 8.47289 34.9533 9.43545 34.9533 11.2769V17.68H32.0238V11.2769C32.0238 9.43545 30.9984 8.47289 29.45 8.47289C27.8597 8.47289 26.8343 9.43545 26.8343 11.2769V17.68H23.9048V6.08741H26.8343V7.4894C27.5667 6.52684 28.8013 5.92001 30.2451 5.92001C32.0447 5.92001 33.5304 6.69424 34.3256 8.13808C35.0789 6.81979 36.6064 5.92001 38.3014 5.92001C41.0844 5.92001 43.0514 7.67773 43.0514 10.8793V17.68H40.1219Z" fill="white"/>
<path d="M50.3931 8.30549C48.9911 8.30549 47.882 9.20527 47.6519 10.7956H53.1552C53.1133 9.26805 51.8997 8.30549 50.3931 8.30549ZM55.8964 14.039C55.2687 16.1734 53.3435 17.8683 50.4768 17.8683C47.1078 17.8683 44.6595 15.5247 44.6595 11.8837C44.6595 8.22179 47.045 5.89908 50.4768 5.89908C53.8248 5.89908 56.1894 8.17993 56.1894 11.6326C56.1894 12.0093 56.1684 12.3859 56.1057 12.7626H47.6309C47.7774 14.4784 48.9492 15.441 50.414 15.441C51.6695 15.441 52.36 14.8132 52.7367 14.039H55.8964Z" fill="white"/>
<path d="M58.3695 14.0809V8.49381H56.9884V6.08741H58.3695V3.22065H61.32V6.08741H63.9147V8.49381H61.32V14.1018C61.32 14.876 61.6339 15.2108 62.5546 15.2108H63.9147V17.68H62.0733C59.8552 17.68 58.3695 16.7384 58.3695 14.0809Z" fill="white"/>
<path d="M66.0636 14.0809V8.49381H64.6826V6.08741H66.0636V3.22065H69.0141V6.08741H71.6088V8.49381H69.0141V14.1018C69.0141 14.876 69.328 15.2108 70.2487 15.2108H71.6088V17.68H69.7674C67.5493 17.68 66.0636 16.7384 66.0636 14.0809Z" fill="white"/>
<path d="M73.2974 17.68V2.19531H76.2269V17.68H73.2974Z" fill="white"/>
<path d="M83.683 8.30549C82.281 8.30549 81.172 9.20527 80.9418 10.7956H86.4452C86.4033 9.26805 85.1897 8.30549 83.683 8.30549ZM89.1864 14.039C88.5586 16.1734 86.6335 17.8683 83.7667 17.8683C80.3978 17.8683 77.9495 15.5247 77.9495 11.8837C77.9495 8.22179 80.335 5.89908 83.7667 5.89908C87.1148 5.89908 89.4793 8.17993 89.4793 11.6326C89.4793 12.0093 89.4584 12.3859 89.3956 12.7626H80.9209C81.0674 14.4784 82.2392 15.441 83.704 15.441C84.9595 15.441 85.65 14.8132 86.0267 14.039H89.1864Z" fill="white"/>
<path d="M94.1287 11.9046V17.68H91.1991V6.08741H94.1287V7.88698C94.861 6.69424 96.0747 5.92001 97.686 5.92001V8.99602H96.9117C95.1749 8.99602 94.1287 9.66563 94.1287 11.9046Z" fill="white"/>
<path d="M99.4708 17.68V2.19531H100.936V8.20086C101.668 6.79887 103.175 6.04556 104.911 6.04556C107.443 6.04556 109.473 7.63588 109.473 10.9839V17.68H108.029V11.1513C108.029 8.61937 106.648 7.322 104.556 7.322C102.421 7.322 100.936 8.66122 100.936 11.4443V17.68H99.4708Z" fill="white"/>
<path d="M117.17 7.34293C115.098 7.34293 113.278 8.68214 113.11 11.3397H121.145C121.208 8.68214 119.283 7.34293 117.17 7.34293ZM122.464 14.0599C121.941 16.2152 120.099 17.8474 117.232 17.8474C113.989 17.8474 111.624 15.5875 111.624 11.9674C111.624 8.32641 113.947 6.08741 117.232 6.08741C120.58 6.08741 122.631 8.47289 122.631 11.3815C122.631 11.8419 122.631 12.1348 122.589 12.5324H113.11C113.236 15.2108 115.098 16.6128 117.232 16.6128C119.178 16.6128 120.497 15.5875 120.915 14.0599H122.464Z" fill="white"/>
<path d="M124.223 11.9465C124.223 8.36826 126.546 6.08741 129.684 6.08741C131.986 6.08741 133.556 7.322 134.204 8.76584V6.25481H135.669V17.68H134.204V15.148C133.535 16.6128 131.944 17.8474 129.664 17.8474C126.546 17.8474 124.223 15.5247 124.223 11.9465ZM134.204 11.9674C134.204 9.12157 132.3 7.36385 129.956 7.36385C127.55 7.36385 125.709 9.03787 125.709 11.9465C125.709 14.8342 127.55 16.571 129.956 16.571C132.3 16.571 134.204 14.8132 134.204 11.9674Z" fill="white"/>
<path d="M138.595 17.68V2.19531H140.059V17.68H138.595Z" fill="white"/>
<path d="M143.376 14.5831V7.4894H141.786V6.25481H143.376V3.38805H144.862V6.25481H148.001V7.4894H144.862V14.5831C144.862 15.9851 145.343 16.4245 146.662 16.4245H148.001V17.68H146.431C144.443 17.68 143.376 16.8639 143.376 14.5831Z" fill="white"/>
<path d="M149.998 17.68V2.19531H151.463V8.20086C152.195 6.79887 153.702 6.04556 155.439 6.04556C157.97 6.04556 160 7.63588 160 10.9839V17.68H158.556V11.1513C158.556 8.61937 157.175 7.322 155.083 7.322C152.948 7.322 151.463 8.66122 151.463 11.4443V17.68H149.998Z" fill="white"/>
</g>
</g>
</svg>
