<svg width="180" height="21" viewBox="0 0 180 21" fill="none" xmlns="http://www.w3.org/2000/svg">
<g id="Group 506">
<g id="Subtract">
<path d="M0.493899 0H9.87788C15.8788 0 20.7436 4.91843 20.7436 10.9856V11.3595H13.409L10.6643 5.50116L8.38438 11.7249L5.99521 3.51201L2.93909 10.6187H0.0176509C0.00593334 10.4096 0 10.199 0 9.98694V0.499351C0 0.22357 0.221114 0 0.493899 0Z" fill="white"/>
<path d="M0.200869 12.1004C1.1754 17.1564 5.57976 20.9726 10.8657 20.9726H20.2497C20.5224 20.9726 20.7436 20.749 20.7436 20.4732V12.8412H12.4816L10.8298 9.31555L8.22469 16.427L5.72884 7.84747L3.89994 12.1004H0.200869Z" fill="#01CDFF"/>
</g>
<g id="mettlerhealth">
<path d="M45.1368 19.89V12.6865C45.1368 10.6149 43.9833 9.532 42.2413 9.532C40.4757 9.532 39.3222 10.6149 39.3222 12.6865V19.89H36.0265V12.6865C36.0265 10.6149 34.873 9.532 33.1309 9.532C31.3418 9.532 30.1883 10.6149 30.1883 12.6865V19.89H26.8926V6.84834H30.1883V8.42558C31.0122 7.3427 32.4012 6.66001 34.0255 6.66001C36.05 6.66001 37.7214 7.53102 38.616 9.15535C39.4634 7.67227 41.1819 6.66001 43.0887 6.66001C46.2197 6.66001 48.4325 8.63745 48.4325 12.2392V19.89H45.1368Z" fill="white"/>
<path d="M56.6919 9.34367C55.1146 9.34367 53.867 10.3559 53.608 12.145H59.7993C59.7522 10.4266 58.3868 9.34367 56.6919 9.34367ZM62.8832 15.7939C62.1769 18.1951 60.0112 20.1019 56.7861 20.1019C52.996 20.1019 50.2417 17.4653 50.2417 13.3692C50.2417 9.24951 52.9253 6.63647 56.7861 6.63647C60.5526 6.63647 63.2127 9.20243 63.2127 13.0867C63.2127 13.5104 63.1892 13.9342 63.1186 14.3579H53.5845C53.7493 16.2882 55.0676 17.3711 56.7154 17.3711C58.1279 17.3711 58.9047 16.6649 59.3285 15.7939H62.8832Z" fill="white"/>
<path d="M65.6654 15.841V9.55554H64.1117V6.84834H65.6654V3.62323H68.9847V6.84834H71.9037V9.55554H68.9847V15.8645C68.9847 16.7355 69.3378 17.1122 70.3736 17.1122H71.9037V19.89H69.8321C67.3368 19.89 65.6654 18.8307 65.6654 15.841Z" fill="white"/>
<path d="M74.3213 15.841V9.55554H72.7676V6.84834H74.3213V3.62323H77.6406V6.84834H80.5596V9.55554H77.6406V15.8645C77.6406 16.7355 77.9937 17.1122 79.0295 17.1122H80.5596V19.89H78.488C75.9927 19.89 74.3213 18.8307 74.3213 15.841Z" fill="white"/>
<path d="M82.4593 19.89V2.46973H85.755V19.89H82.4593Z" fill="white"/>
<path d="M94.1431 9.34367C92.5659 9.34367 91.3182 10.3559 91.0592 12.145H97.2505C97.2034 10.4266 95.8381 9.34367 94.1431 9.34367ZM100.334 15.7939C99.6281 18.1951 97.4624 20.1019 94.2373 20.1019C90.4472 20.1019 87.6929 17.4653 87.6929 13.3692C87.6929 9.24951 90.3766 6.63647 94.2373 6.63647C98.0038 6.63647 100.664 9.20243 100.664 13.0867C100.664 13.5104 100.64 13.9342 100.57 14.3579H91.0357C91.2005 16.2882 92.5188 17.3711 94.1666 17.3711C95.5791 17.3711 96.356 16.6649 96.7797 15.7939H100.334Z" fill="white"/>
<path d="M105.894 13.3927V19.89H102.599V6.84834H105.894V8.87286C106.718 7.53102 108.084 6.66001 109.896 6.66001V10.1205H109.025C107.071 10.1205 105.894 10.8738 105.894 13.3927Z" fill="white"/>
<path d="M111.904 19.89V2.46973H113.552V9.22597C114.376 7.64873 116.071 6.80125 118.025 6.80125C120.873 6.80125 123.157 8.59036 123.157 12.3569V19.89H121.533V12.5452C121.533 9.69679 119.979 8.23725 117.625 8.23725C115.224 8.23725 113.552 9.74387 113.552 12.8748V19.89H111.904Z" fill="white"/>
<path d="M131.816 8.26079C129.485 8.26079 127.437 9.76741 127.249 12.7571H136.288C136.359 9.76741 134.193 8.26079 131.816 8.26079ZM137.771 15.8174C137.183 18.2421 135.111 20.0783 131.886 20.0783C128.237 20.0783 125.577 17.5359 125.577 13.4633C125.577 9.36722 128.19 6.84834 131.886 6.84834C135.653 6.84834 137.96 9.532 137.96 12.8042C137.96 13.3221 137.96 13.6517 137.913 14.0989H127.249C127.39 17.1122 129.485 18.6894 131.886 18.6894C134.076 18.6894 135.559 17.5359 136.029 15.8174H137.771Z" fill="white"/>
<path d="M139.751 13.4398C139.751 9.4143 142.364 6.84834 145.895 6.84834C148.484 6.84834 150.25 8.23725 150.98 9.86157V7.03666H152.627V19.89H150.98V17.0416C150.226 18.6894 148.437 20.0783 145.871 20.0783C142.364 20.0783 139.751 17.4653 139.751 13.4398ZM150.98 13.4633C150.98 10.2618 148.837 8.28433 146.201 8.28433C143.494 8.28433 141.422 10.1676 141.422 13.4398C141.422 16.6884 143.494 18.6423 146.201 18.6423C148.837 18.6423 150.98 16.6649 150.98 13.4633Z" fill="white"/>
<path d="M155.919 19.89V2.46973H157.566V19.89H155.919Z" fill="white"/>
<path d="M161.298 16.4059V8.42558H159.509V7.03666H161.298V3.81156H162.969V7.03666H166.501V8.42558H162.969V16.4059C162.969 17.9832 163.511 18.4776 164.994 18.4776H166.501V19.89H164.735C162.499 19.89 161.298 18.9719 161.298 16.4059Z" fill="white"/>
<path d="M168.747 19.89V2.46973H170.395V9.22597C171.219 7.64873 172.914 6.80125 174.868 6.80125C177.717 6.80125 180 8.59036 180 12.3569V19.89H178.376V12.5452C178.376 9.69679 176.822 8.23725 174.468 8.23725C172.067 8.23725 170.395 9.74387 170.395 12.8748V19.89H168.747Z" fill="white"/>
</g>
</g>
</svg>
