<svg width="247" height="29" viewBox="0 0 247 29" fill="none" xmlns="http://www.w3.org/2000/svg">
<g id="Group 507">
<g id="Subtract">
<path d="M0.677739 0H13.5546C21.7893 0 28.4648 6.74918 28.4648 15.0747V15.5878H18.4001L14.6338 7.54882L11.5052 16.0892L8.22676 4.81925L4.03309 14.5712H0.024221C0.00814186 14.2843 0 13.9953 0 13.7043V0.68522C0 0.306788 0.303417 0 0.677739 0Z" fill="#133C93"/>
<path d="M0.275637 16.6044C1.61291 23.5424 7.65667 28.779 14.9101 28.779H27.7871C28.1614 28.779 28.4648 28.4722 28.4648 28.0938V17.621H17.1275L14.8609 12.783L11.2861 22.5415L7.86124 10.7685L5.35158 16.6044H0.275637Z" fill="#01CDFF"/>
</g>
<g id="mettlerhealth">
<path d="M61.9378 27.2932V17.4083C61.9378 14.5656 60.355 13.0797 57.9645 13.0797C55.5418 13.0797 53.9589 14.5656 53.9589 17.4083V27.2932H49.4364V17.4083C49.4364 14.5656 47.8536 13.0797 45.4631 13.0797C43.008 13.0797 41.4252 14.5656 41.4252 17.4083V27.2932H36.9027V9.3971H41.4252V11.5614C42.5558 10.0755 44.4617 9.13867 46.6906 9.13867C49.4687 9.13867 51.7623 10.3339 52.9898 12.5628C54.1527 10.5277 56.5109 9.13867 59.1274 9.13867C63.4238 9.13867 66.4603 11.8522 66.4603 16.7946V27.2932H61.9378Z" fill="#133C93"/>
<path d="M77.794 12.8213C75.6297 12.8213 73.9176 14.2103 73.5622 16.6654H82.058C81.9934 14.3072 80.1198 12.8213 77.794 12.8213ZM86.2898 21.6724C85.3207 24.9673 82.3488 27.5839 77.9232 27.5839C72.7224 27.5839 68.9429 23.9659 68.9429 18.3451C68.9429 12.692 72.6255 9.10637 77.9232 9.10637C83.0917 9.10637 86.742 12.6274 86.742 17.9575C86.742 18.539 86.7097 19.1204 86.6128 19.7019H73.5299C73.7561 22.3507 75.5651 23.8367 77.8263 23.8367C79.7645 23.8367 80.8305 22.8676 81.412 21.6724H86.2898Z" fill="#133C93"/>
<path d="M90.1076 21.737V13.112H87.9756V9.3971H90.1076V4.97154H94.6624V9.3971H98.668V13.112H94.6624V21.7693C94.6624 22.9645 95.147 23.4814 96.5683 23.4814H98.668V27.2932H95.8253C92.4012 27.2932 90.1076 25.8395 90.1076 21.737Z" fill="#133C93"/>
<path d="M101.985 21.737V13.112H99.8534V9.3971H101.985V4.97154H106.54V9.3971H110.546V13.112H106.54V21.7693C106.54 22.9645 107.025 23.4814 108.446 23.4814H110.546V27.2932H107.703C104.279 27.2932 101.985 25.8395 101.985 21.737Z" fill="#133C93"/>
<path d="M113.153 27.2932V3.38867H117.675V27.2932H113.153Z" fill="#133C93"/>
<path d="M129.185 12.8213C127.021 12.8213 125.309 14.2103 124.954 16.6654H133.449C133.385 14.3072 131.511 12.8213 129.185 12.8213ZM137.681 21.6724C136.712 24.9673 133.74 27.5839 129.315 27.5839C124.114 27.5839 120.334 23.9659 120.334 18.3451C120.334 12.692 124.017 9.10637 129.315 9.10637C134.483 9.10637 138.133 12.6274 138.133 17.9575C138.133 18.539 138.101 19.1204 138.004 19.7019H124.921C125.147 22.3507 126.956 23.8367 129.218 23.8367C131.156 23.8367 132.222 22.8676 132.803 21.6724H137.681Z" fill="#133C93"/>
<path d="M145.311 18.3774V27.2932H140.788V9.3971H145.311V12.1752C146.441 10.3339 148.315 9.13867 150.802 9.13867V13.8873H149.607C146.926 13.8873 145.311 14.921 145.311 18.3774Z" fill="#133C93"/>
<path d="M153.558 27.2932V3.38867H155.819V12.6597C156.95 10.4954 159.275 9.33249 161.957 9.33249C165.865 9.33249 168.999 11.7875 168.999 16.9561V27.2932H166.77V17.2145C166.77 13.3058 164.638 11.303 161.408 11.303C158.113 11.303 155.819 13.3704 155.819 17.6668V27.2932H153.558Z" fill="#133C93"/>
<path d="M180.88 11.3353C177.682 11.3353 174.872 13.4027 174.614 17.5052H187.018C187.115 13.4027 184.143 11.3353 180.88 11.3353ZM189.053 21.7047C188.246 25.0319 185.403 27.5516 180.977 27.5516C175.97 27.5516 172.32 24.0628 172.32 18.4743C172.32 12.8536 175.906 9.3971 180.977 9.3971C186.146 9.3971 189.312 13.0797 189.312 17.5698C189.312 18.2805 189.312 18.7328 189.247 19.3465H174.614C174.807 23.4814 177.682 25.6457 180.977 25.6457C183.982 25.6457 186.017 24.0628 186.663 21.7047H189.053Z" fill="#133C93"/>
<path d="M191.769 18.442C191.769 12.9182 195.355 9.3971 200.2 9.3971C203.753 9.3971 206.176 11.303 207.178 13.5319V9.65553H209.439V27.2932H207.178V23.3845C206.144 25.6457 203.689 27.5516 200.168 27.5516C195.355 27.5516 191.769 23.9659 191.769 18.442ZM207.178 18.4743C207.178 14.0811 204.238 11.3676 200.62 11.3676C196.905 11.3676 194.062 13.9519 194.062 18.442C194.062 22.8999 196.905 25.5811 200.62 25.5811C204.238 25.5811 207.178 22.8676 207.178 18.4743Z" fill="#133C93"/>
<path d="M213.955 27.2932V3.38867H216.216V27.2932H213.955Z" fill="#133C93"/>
<path d="M221.337 22.5123V11.5614H218.882V9.65553H221.337V5.22996H223.63V9.65553H228.476V11.5614H223.63V22.5123C223.63 24.6766 224.373 25.355 226.408 25.355H228.476V27.2932H226.053C222.984 27.2932 221.337 26.0333 221.337 22.5123Z" fill="#133C93"/>
<path d="M231.559 27.2932V3.38867H233.82V12.6597C234.951 10.4954 237.277 9.33249 239.958 9.33249C243.867 9.33249 247 11.7875 247 16.9561V27.2932H244.771V17.2145C244.771 13.3058 242.639 11.303 239.409 11.303C236.114 11.303 233.82 13.3704 233.82 17.6668V27.2932H231.559Z" fill="#133C93"/>
</g>
</g>
</svg>
