<svg width="20" height="20" viewBox="0 0 20 20" fill="none" xmlns="http://www.w3.org/2000/svg">
<path d="M15.8333 16.6673H4.16667C3.72464 16.6673 3.30072 16.4917 2.98816 16.1792C2.67559 15.8666 2.5 15.4427 2.5 15.0007V5.00065C2.5 4.55862 2.67559 4.1347 2.98816 3.82214C3.30072 3.50958 3.72464 3.33398 4.16667 3.33398H12.5C12.942 3.33398 13.366 3.50958 13.6785 3.82214C13.9911 4.1347 14.1667 4.55862 14.1667 5.00065V5.83398M15.8333 16.6673C15.3913 16.6673 14.9674 16.4917 14.6548 16.1792C14.3423 15.8666 14.1667 15.4427 14.1667 15.0007V5.83398M15.8333 16.6673C16.2754 16.6673 16.6993 16.4917 17.0118 16.1792C17.3244 15.8666 17.5 15.4427 17.5 15.0007V7.50065C17.5 7.05862 17.3244 6.6347 17.0118 6.32214C16.6993 6.00958 16.2754 5.83398 15.8333 5.83398H14.1667M10.8333 3.33398H7.5M5.83333 13.334H10.8333M5.83333 6.66732H10.8333V10.0007H5.83333V6.66732Z" stroke="white" stroke-width="2" stroke-linecap="round" stroke-linejoin="round"/>
</svg>
