<svg width="20" height="20" viewBox="0 0 20 20" fill="none" xmlns="http://www.w3.org/2000/svg">
<path d="M15.8333 16.6663H4.16667C3.72464 16.6663 3.30072 16.4907 2.98816 16.1782C2.67559 15.8656 2.5 15.4417 2.5 14.9997V4.99967C2.5 4.55765 2.67559 4.13372 2.98816 3.82116C3.30072 3.5086 3.72464 3.33301 4.16667 3.33301H12.5C12.942 3.33301 13.366 3.5086 13.6785 3.82116C13.9911 4.13372 14.1667 4.55765 14.1667 4.99967V5.83301M15.8333 16.6663C15.3913 16.6663 14.9674 16.4907 14.6548 16.1782C14.3423 15.8656 14.1667 15.4417 14.1667 14.9997V5.83301M15.8333 16.6663C16.2754 16.6663 16.6993 16.4907 17.0118 16.1782C17.3244 15.8656 17.5 15.4417 17.5 14.9997V7.49967C17.5 7.05765 17.3244 6.63372 17.0118 6.32116C16.6993 6.0086 16.2754 5.83301 15.8333 5.83301H14.1667M10.8333 3.33301H7.5M5.83333 13.333H10.8333M5.83333 6.66634H10.8333V9.99967H5.83333V6.66634Z" stroke="#566388" stroke-width="2" stroke-linecap="round" stroke-linejoin="round"/>
</svg>
