<svg width="20" height="21" viewBox="0 0 20 21" fill="none" xmlns="http://www.w3.org/2000/svg">
<path d="M2.49967 16.3335V5.25018C2.49962 5.07912 2.55222 4.91218 2.65031 4.77204C2.74841 4.6319 2.88726 4.52535 3.04801 4.46684L11.1072 1.53684C11.1701 1.51393 11.2377 1.50654 11.3041 1.51529C11.3705 1.52404 11.4338 1.54868 11.4887 1.58711C11.5436 1.62555 11.5884 1.67664 11.6193 1.73608C11.6502 1.79551 11.6664 1.86152 11.6663 1.92851V6.05601L16.9297 7.81018C17.0957 7.86547 17.2401 7.97161 17.3424 8.11355C17.4447 8.2555 17.4997 8.42604 17.4997 8.60101V16.3335H19.1663V18.0002H0.833008V16.3335H2.49967ZM4.16634 16.3335H9.99967V3.71268L4.16634 5.83434V16.3335ZM15.833 16.3335V9.20184L11.6663 7.81268V16.3335H15.833Z" fill="white"/>
</svg>
