<svg width="21" height="20" viewBox="0 0 21 20" fill="none" xmlns="http://www.w3.org/2000/svg">
<g id="Group">
<path id="Vector" d="M2.99992 15.8335V4.75018C2.99987 4.57911 3.05246 4.41218 3.15056 4.27204C3.24866 4.1319 3.3875 4.02535 3.54825 3.96684L11.6074 1.03684C11.6704 1.01393 11.7379 1.00654 11.8043 1.01529C11.8708 1.02404 11.9341 1.04868 11.989 1.08711C12.0438 1.12555 12.0886 1.17664 12.1195 1.23608C12.1505 1.29551 12.1666 1.36152 12.1666 1.42851V5.55601L17.4299 7.31018C17.5959 7.36547 17.7403 7.47161 17.8426 7.61355C17.9449 7.7555 18 7.92604 17.9999 8.10101V15.8335H19.6666V17.5002H1.33325V15.8335H2.99992ZM4.66658 15.8335H10.4999V3.21268L4.66658 5.33434V15.8335ZM16.3333 15.8335V8.70184L12.1666 7.31268V15.8335H16.3333Z" fill="#677394"/>
</g>
</svg>
