<svg width="20" height="20" viewBox="0 0 20 20" fill="none" xmlns="http://www.w3.org/2000/svg">
<g opacity="0.8">
<path d="M9.99984 4.16732V4.17565M9.99984 10.0007V10.009M9.99984 15.834V15.8423M9.99984 5.00065C9.77882 5.00065 9.56686 4.91285 9.41058 4.75657C9.2543 4.60029 9.1665 4.38833 9.1665 4.16732C9.1665 3.9463 9.2543 3.73434 9.41058 3.57806C9.56686 3.42178 9.77882 3.33398 9.99984 3.33398C10.2209 3.33398 10.4328 3.42178 10.5891 3.57806C10.7454 3.73434 10.8332 3.9463 10.8332 4.16732C10.8332 4.38833 10.7454 4.60029 10.5891 4.75657C10.4328 4.91285 10.2209 5.00065 9.99984 5.00065ZM9.99984 10.834C9.77882 10.834 9.56686 10.7462 9.41058 10.5899C9.2543 10.4336 9.1665 10.2217 9.1665 10.0007C9.1665 9.77964 9.2543 9.56768 9.41058 9.4114C9.56686 9.25512 9.77882 9.16732 9.99984 9.16732C10.2209 9.16732 10.4328 9.25512 10.5891 9.4114C10.7454 9.56768 10.8332 9.77964 10.8332 10.0007C10.8332 10.2217 10.7454 10.4336 10.5891 10.5899C10.4328 10.7462 10.2209 10.834 9.99984 10.834ZM9.99984 16.6673C9.77882 16.6673 9.56686 16.5795 9.41058 16.4232C9.2543 16.267 9.1665 16.055 9.1665 15.834C9.1665 15.613 9.2543 15.401 9.41058 15.2447C9.56686 15.0884 9.77882 15.0007 9.99984 15.0007C10.2209 15.0007 10.4328 15.0884 10.5891 15.2447C10.7454 15.401 10.8332 15.613 10.8332 15.834C10.8332 16.055 10.7454 16.267 10.5891 16.4232C10.4328 16.5795 10.2209 16.6673 9.99984 16.6673Z" stroke="#3F3F46" stroke-width="2" stroke-linecap="round" stroke-linejoin="round"/>
</g>
</svg>
