<svg width="21" height="20" viewBox="0 0 21 20" fill="none" xmlns="http://www.w3.org/2000/svg">
<g id="Group">
<path id="Vector" d="M18.8334 9.16732V16.6673H17.1667V14.1673H3.83341V16.6673H2.16675V3.33398H3.83341V11.6673H10.5001V5.83398H15.5001C16.3841 5.83398 17.232 6.18517 17.8571 6.81029C18.4822 7.43542 18.8334 8.28326 18.8334 9.16732ZM17.1667 11.6673V9.16732C17.1667 8.72529 16.9912 8.30137 16.6786 7.98881C16.366 7.67625 15.9421 7.50065 15.5001 7.50065H12.1667V11.6673H17.1667ZM7.16675 9.16732C7.38776 9.16732 7.59972 9.07952 7.756 8.92324C7.91228 8.76696 8.00008 8.555 8.00008 8.33398C8.00008 8.11297 7.91228 7.90101 7.756 7.74473C7.59972 7.58845 7.38776 7.50065 7.16675 7.50065C6.94573 7.50065 6.73377 7.58845 6.57749 7.74473C6.42121 7.90101 6.33342 8.11297 6.33342 8.33398C6.33342 8.555 6.42121 8.76696 6.57749 8.92324C6.73377 9.07952 6.94573 9.16732 7.16675 9.16732ZM7.16675 10.834C6.50371 10.834 5.86782 10.5706 5.39898 10.1018C4.93014 9.63291 4.66675 8.99703 4.66675 8.33398C4.66675 7.67094 4.93014 7.03506 5.39898 6.56622C5.86782 6.09738 6.50371 5.83398 7.16675 5.83398C7.82979 5.83398 8.46567 6.09738 8.93452 6.56622C9.40336 7.03506 9.66675 7.67094 9.66675 8.33398C9.66675 8.99703 9.40336 9.63291 8.93452 10.1018C8.46567 10.5706 7.82979 10.834 7.16675 10.834Z" fill="white"/>
</g>
</svg>
