<svg width="20" height="21" viewBox="0 0 20 21" fill="none" xmlns="http://www.w3.org/2000/svg">
<path d="M10 4.12833C10.4479 3.62059 11.0397 3.26126 11.6968 3.09816C12.354 2.93507 13.0451 2.97594 13.6785 3.21533C14.3118 3.45473 14.8572 3.88131 15.2421 4.4383C15.627 4.99529 15.8332 5.65629 15.8332 6.33333C15.8332 7.01038 15.627 7.67138 15.2421 8.22837C14.8572 8.78536 14.3118 9.21193 13.6785 9.45133C13.0451 9.69073 12.354 9.7316 11.6968 9.56851C11.0397 9.40541 10.4479 9.04608 10 8.53833M12.5 18H2.5V17.1667C2.5 15.8406 3.02678 14.5688 3.96447 13.6311C4.90215 12.6935 6.17392 12.1667 7.5 12.1667C8.82608 12.1667 10.0979 12.6935 11.0355 13.6311C11.9732 14.5688 12.5 15.8406 12.5 17.1667V18ZM12.5 18H17.5V17.1667C17.5001 16.2889 17.2692 15.4266 16.8304 14.6664C16.3916 13.9062 15.7604 13.2749 15.0003 12.836C14.2402 12.3971 13.3779 12.166 12.5002 12.166C11.6224 12.1659 10.7601 12.397 10 12.8358M10.8333 6.33333C10.8333 7.21739 10.4821 8.06524 9.85702 8.69036C9.2319 9.31548 8.38405 9.66667 7.5 9.66667C6.61594 9.66667 5.7681 9.31548 5.14298 8.69036C4.51786 8.06524 4.16667 7.21739 4.16667 6.33333C4.16667 5.44928 4.51786 4.60143 5.14298 3.97631C5.7681 3.35119 6.61594 3 7.5 3C8.38405 3 9.2319 3.35119 9.85702 3.97631C10.4821 4.60143 10.8333 5.44928 10.8333 6.33333Z" stroke="white" stroke-width="2" stroke-linecap="round" stroke-linejoin="round"/>
</svg>
