<svg width="19" height="11" viewBox="0 0 19 11" fill="none" xmlns="http://www.w3.org/2000/svg">
<g id="Group">
<g id="Group_2">
<g id="Group_3">
<path id="Vector" d="M18.025 0H6.92981C6.64532 0 6.43669 0.227594 6.43669 0.49312V4.17256L7.40397 3.33805L7.42293 3.31908V1.00521H17.5319V9.53998H7.42293V7.6244C7.10051 7.75716 6.77808 7.83303 6.41772 7.87096V10.0521C6.41772 10.3366 6.64532 10.5452 6.91084 10.5452H18.0061C18.2905 10.5452 18.4992 10.3176 18.4992 10.0521V0.512086C18.5181 0.227594 18.2905 0 18.025 0Z" fill="white"/>
<path id="Vector_2" d="M9.11064 5.38595C9.5279 5.0256 9.54686 4.38075 9.11064 4.02039C8.76925 3.7359 8.25716 3.75486 7.91577 4.05832L6.81573 4.98767C6.45538 5.29112 5.96226 5.34802 5.545 5.15836L4.90015 4.87387C4.50186 4.70317 4.08461 4.60834 3.64838 4.60834H1.82763C1.08795 4.60834 0.5 5.19629 0.5 5.93597V9.9568C0.5 10.2792 0.765526 10.5637 1.10692 10.5637H4.06564C4.38806 10.5637 4.67256 10.2982 4.67256 9.9568V6.73255L4.80532 6.78945C5.86743 7.26361 7.10023 7.09291 7.97267 6.35323L9.11064 5.38595Z" fill="white"/>
<path id="Vector_3" d="M2.58642 4.0786C3.68626 4.0786 4.57787 3.187 4.57787 2.08715C4.57787 0.987305 3.68626 0.0957031 2.58642 0.0957031C1.48657 0.0957031 0.594971 0.987305 0.594971 2.08715C0.594971 3.187 1.48657 4.0786 2.58642 4.0786Z" fill="white"/>
<path id="Vector_4" d="M13.1696 3.43294H15.6352C15.9197 3.43294 16.1283 3.20535 16.1283 2.93982C16.1283 2.67429 15.9007 2.42773 15.6162 2.42773H13.1506C12.8661 2.42773 12.6575 2.65533 12.6575 2.92085C12.6575 3.18638 12.8851 3.43294 13.1696 3.43294Z" fill="white"/>
<path id="Vector_5" d="M13.1694 5.76554H15.635C15.9195 5.76554 16.1281 5.53794 16.1281 5.27242C16.1281 5.00689 15.9005 4.7793 15.635 4.7793H13.1694C12.8849 4.7793 12.6763 5.00689 12.6763 5.27242C12.6763 5.53794 12.8849 5.76554 13.1694 5.76554Z" fill="white"/>
<path id="Vector_6" d="M13.1693 8.1171H15.6349C15.9194 8.1171 16.128 7.88951 16.128 7.62398C16.128 7.33949 15.9004 7.13086 15.6349 7.13086H13.1693C12.8848 7.13086 12.6762 7.35845 12.6762 7.62398C12.6572 7.88951 12.8848 8.1171 13.1693 8.1171Z" fill="white"/>
<path id="Vector_7" d="M10.9126 3.43294H11.4057C11.6902 3.43294 11.8988 3.20535 11.8988 2.93982C11.8988 2.67429 11.6712 2.42773 11.4057 2.42773H10.9126C10.6281 2.42773 10.4194 2.65533 10.4194 2.92085C10.4194 3.18638 10.647 3.43294 10.9126 3.43294Z" fill="white"/>
<path id="Vector_8" d="M10.9126 5.76554H11.4057C11.6902 5.76554 11.8988 5.53794 11.8988 5.27242C11.8988 5.00689 11.6712 4.7793 11.4057 4.7793H10.9126C10.6281 4.7793 10.4194 5.00689 10.4194 5.27242C10.4194 5.53794 10.647 5.76554 10.9126 5.76554Z" fill="white"/>
<path id="Vector_9" d="M10.9126 8.1171H11.4057C11.6902 8.1171 11.8988 7.88951 11.8988 7.62398C11.8988 7.33949 11.6712 7.13086 11.4057 7.13086H10.9126C10.6281 7.13086 10.4194 7.35845 10.4194 7.62398C10.4194 7.88951 10.647 8.1171 10.9126 8.1171Z" fill="white"/>
</g>
</g>
</g>
</svg>
