<svg width="16" height="16" viewBox="0 0 16 16" fill="none" xmlns="http://www.w3.org/2000/svg">
<path opacity="0.5" fill-rule="evenodd" clip-rule="evenodd" d="M8.00011 3.33398C5.82678 3.33398 3.86678 3.90065 1.94678 5.10065L8.00011 12.554L14.0534 5.11398C12.1201 3.90065 10.1668 3.33398 8.00011 3.33398ZM7.33344 10.6673V6.66732H8.66678V10.6673H7.33344ZM7.33344 4.00065V5.33398H8.66678V4.00065H7.33344Z" fill="#F2994A"/>
<path fill-rule="evenodd" clip-rule="evenodd" d="M0 4.82C2.1 3.23333 4.63333 2 8 2C11.3667 2 13.9 3.24667 16 4.83333L8 14.6667L0 4.82ZM8 3.33333C5.82667 3.33333 3.86667 3.9 1.94667 5.1L8 12.5533L14.0533 5.11333C12.12 3.9 10.1667 3.33333 8 3.33333Z" fill="#F2994A"/>
<path d="M7.33325 6.66602H8.66659V10.666H7.33325V6.66602Z" fill="#F2994A"/>
<path d="M7.33325 4H8.66659V5.33333H7.33325V4Z" fill="#F2994A"/>
</svg>
