<svg width="21" height="20" viewBox="0 0 21 20" fill="none" xmlns="http://www.w3.org/2000/svg">
<path fill-rule="evenodd" clip-rule="evenodd" d="M3.00016 3.33366H18.0002V9.16699C18.0002 13.3091 14.6423 16.667 10.5002 16.667C6.35803 16.667 3.00016 13.3091 3.00016 9.16699V3.33366ZM1.3335 1.66699H19.6668V9.16699C19.6668 14.2296 15.5628 18.3337 10.5002 18.3337C5.43755 18.3337 1.3335 14.2296 1.3335 9.16699V1.66699ZM9.91091 12.2449C10.2363 12.5703 10.764 12.5703 11.0894 12.2449L14.625 8.70935C14.9504 8.38391 14.9504 7.85627 14.625 7.53084C14.2995 7.2054 13.7719 7.2054 13.4464 7.53084L10.5002 10.4771L7.55388 7.53084C7.22845 7.2054 6.70081 7.2054 6.37537 7.53084C6.04994 7.85627 6.04994 8.38391 6.37537 8.70935L9.91091 12.2449Z" fill="#566388"/>
</svg>
