<svg width="20" height="20" viewBox="0 0 20 20" fill="none" xmlns="http://www.w3.org/2000/svg">
<path fill-rule="evenodd" clip-rule="evenodd" d="M2.49992 3.33268H17.4999V9.16602C17.4999 13.3082 14.1421 16.666 9.99992 16.666C5.85778 16.666 2.49992 13.3082 2.49992 9.16602V3.33268ZM0.833252 1.66602H19.1666V9.16602C19.1666 14.2286 15.0625 18.3327 9.99992 18.3327C4.93731 18.3327 0.833252 14.2286 0.833252 9.16602V1.66602ZM9.41066 12.2439C9.7361 12.5693 10.2637 12.5693 10.5892 12.2439L14.1247 8.70837C14.4501 8.38293 14.4501 7.8553 14.1247 7.52986C13.7993 7.20442 13.2716 7.20442 12.9462 7.52986L9.99992 10.4761L7.05364 7.52986C6.7282 7.20442 6.20057 7.20442 5.87513 7.52986C5.54969 7.8553 5.54969 8.38293 5.87513 8.70837L9.41066 12.2439Z" fill="white"/>
</svg>
