<svg width="21" height="20" viewBox="0 0 21 20" fill="none" xmlns="http://www.w3.org/2000/svg">
<path fill-rule="evenodd" clip-rule="evenodd" d="M2.99967 3.33366H17.9997V9.16699C17.9997 13.3091 14.6418 16.667 10.4997 16.667C6.35754 16.667 2.99967 13.3091 2.99967 9.16699V3.33366ZM1.33301 1.66699H19.6663V9.16699C19.6663 14.2296 15.5623 18.3337 10.4997 18.3337C5.43706 18.3337 1.33301 14.2296 1.33301 9.16699V1.66699ZM9.91042 12.2449C10.2359 12.5703 10.7635 12.5703 11.0889 12.2449L14.6245 8.70935C14.9499 8.38391 14.9499 7.85627 14.6245 7.53084C14.299 7.2054 13.7714 7.2054 13.446 7.53084L10.4997 10.4771L7.5534 7.53084C7.22796 7.2054 6.70032 7.2054 6.37488 7.53084C6.04945 7.85627 6.04945 8.38391 6.37488 8.70935L9.91042 12.2449Z" fill="#566388"/>
</svg>
