<svg width="21" height="20" viewBox="0 0 21 20" fill="none" xmlns="http://www.w3.org/2000/svg">
<path fill-rule="evenodd" clip-rule="evenodd" d="M2.99992 3.33268H17.9999V9.16602C17.9999 13.3082 14.6421 16.666 10.4999 16.666C6.35778 16.666 2.99992 13.3082 2.99992 9.16602V3.33268ZM1.33325 1.66602H19.6666V9.16602C19.6666 14.2286 15.5625 18.3327 10.4999 18.3327C5.43731 18.3327 1.33325 14.2286 1.33325 9.16602V1.66602ZM9.91066 12.2439C10.2361 12.5693 10.7637 12.5693 11.0892 12.2439L14.6247 8.70837C14.9501 8.38293 14.9501 7.8553 14.6247 7.52986C14.2993 7.20442 13.7716 7.20442 13.4462 7.52986L10.4999 10.4761L7.55364 7.52986C7.2282 7.20442 6.70057 7.20442 6.37513 7.52986C6.04969 7.8553 6.04969 8.38293 6.37513 8.70837L9.91066 12.2439Z" fill="#566388"/>
</svg>
