<svg width="21" height="20" viewBox="0 0 21 20" fill="none" xmlns="http://www.w3.org/2000/svg">
<path fill-rule="evenodd" clip-rule="evenodd" d="M2.99992 3.33366H17.9999V9.16699C17.9999 13.3091 14.6421 16.667 10.4999 16.667C6.35778 16.667 2.99992 13.3091 2.99992 9.16699V3.33366ZM1.33325 1.66699H19.6666V9.16699C19.6666 14.2296 15.5625 18.3337 10.4999 18.3337C5.43731 18.3337 1.33325 14.2296 1.33325 9.16699V1.66699ZM9.91066 12.2449C10.2361 12.5703 10.7637 12.5703 11.0892 12.2449L14.6247 8.70935C14.9501 8.38391 14.9501 7.85627 14.6247 7.53084C14.2993 7.2054 13.7716 7.2054 13.4462 7.53084L10.4999 10.4771L7.55364 7.53084C7.2282 7.2054 6.70056 7.2054 6.37513 7.53084C6.04969 7.85627 6.04969 8.38391 6.37513 8.70935L9.91066 12.2449Z" fill="#566388"/>
</svg>
