<svg width="21" height="20" viewBox="0 0 21 20" fill="none" xmlns="http://www.w3.org/2000/svg">
<path fill-rule="evenodd" clip-rule="evenodd" d="M3.00016 3.33268H18.0002V9.16602C18.0002 13.3082 14.6423 16.666 10.5002 16.666C6.35803 16.666 3.00016 13.3082 3.00016 9.16602V3.33268ZM1.3335 1.66602H19.6668V9.16602C19.6668 14.2286 15.5628 18.3327 10.5002 18.3327C5.43755 18.3327 1.3335 14.2286 1.3335 9.16602V1.66602ZM9.91091 12.2439C10.2363 12.5693 10.764 12.5693 11.0894 12.2439L14.625 8.70837C14.9504 8.38293 14.9504 7.8553 14.625 7.52986C14.2995 7.20442 13.7719 7.20442 13.4464 7.52986L10.5002 10.4761L7.55388 7.52986C7.22845 7.20442 6.70081 7.20442 6.37537 7.52986C6.04994 7.8553 6.04994 8.38293 6.37537 8.70837L9.91091 12.2439Z" fill="#566388"/>
</svg>
