<svg width="20" height="20" viewBox="0 0 20 20" fill="none" xmlns="http://www.w3.org/2000/svg">
<g id="profile" opacity="0.7" clip-path="url(#clip0_155_2816)">
<g id="profile_2">
<path fill-rule="evenodd" clip-rule="evenodd" d="M13.3334 7.49967C13.3334 9.34062 11.841 10.833 10 10.833C8.15909 10.833 6.66671 9.34062 6.66671 7.49967C6.66671 5.65872 8.15909 4.16634 10 4.16634C11.841 4.16634 13.3334 5.65872 13.3334 7.49967ZM11.6667 7.49967C11.6667 8.42015 10.9205 9.16634 10 9.16634C9.07957 9.16634 8.33337 8.42015 8.33337 7.49967C8.33337 6.5792 9.07957 5.83301 10 5.83301C10.9205 5.83301 11.6667 6.5792 11.6667 7.49967Z" fill="#3F3F46"/>
<path fill-rule="evenodd" clip-rule="evenodd" d="M10 0.833008C4.93743 0.833008 0.833374 4.93706 0.833374 9.99967C0.833374 15.0623 4.93743 19.1663 10 19.1663C15.0626 19.1663 19.1667 15.0623 19.1667 9.99967C19.1667 4.93706 15.0626 0.833008 10 0.833008ZM2.50004 9.99967C2.50004 11.7415 3.09383 13.3447 4.09003 14.6178C5.46041 12.8237 7.62193 11.6663 10.0538 11.6663C12.4541 11.6663 14.591 12.7939 15.9638 14.5483C16.9276 13.2865 17.5 11.71 17.5 9.99967C17.5 5.85754 14.1422 2.49967 10 2.49967C5.8579 2.49967 2.50004 5.85754 2.50004 9.99967ZM10 17.4997C8.20818 17.4997 6.56309 16.8713 5.2731 15.8229C6.32797 14.3174 8.07592 13.333 10.0538 13.333C12.0071 13.333 13.7361 14.2931 14.7948 15.7671C13.4949 16.8489 11.8235 17.4997 10 17.4997Z" fill="#3F3F46"/>
</g>
</g>
<defs>
<clipPath id="clip0_155_2816">
<rect width="20" height="20" fill="white" transform="matrix(-1 0 0 1 20 0)"/>
</clipPath>
</defs>
</svg>
