<svg width="16" height="16" viewBox="0 0 16 16" fill="none" xmlns="http://www.w3.org/2000/svg">
<g id="Group">
<g id="clipboard">
<path d="M5.33333 7.33333C4.96514 7.33333 4.66667 7.63181 4.66667 8C4.66667 8.36819 4.96514 8.66667 5.33333 8.66667H10.6396C11.0078 8.66667 11.3063 8.36819 11.3063 8C11.3063 7.63181 11.0078 7.33333 10.6396 7.33333H5.33333Z" fill="#3F3F46"/>
<path d="M5.36035 10.0444C4.99216 10.0444 4.69369 10.3428 4.69369 10.711C4.69369 11.0792 4.99216 11.3777 5.36035 11.3777H10.6667C11.0349 11.3777 11.3333 11.0792 11.3333 10.711C11.3333 10.3428 11.0349 10.0444 10.6667 10.0444H5.36035Z" fill="#3F3F46"/>
<path fill-rule="evenodd" clip-rule="evenodd" d="M3.33333 2C2.59695 2 2 2.59695 2 3.33333V12.6667C2 13.403 2.59695 14 3.33333 14H12.6667C13.403 14 14 13.403 14 12.6667V3.33333C14 2.59695 13.403 2 12.6667 2H3.33333ZM4.66667 3.33333H3.33333L3.33333 12.6667H12.6667V3.33333H11.3333V4C11.3333 5.10457 10.4379 6 9.33333 6H6.66667C5.5621 6 4.66667 5.10457 4.66667 4V3.33333ZM6 3.33333V4C6 4.36819 6.29848 4.66667 6.66667 4.66667H9.33333C9.70152 4.66667 10 4.36819 10 4V3.33333H6Z" fill="#3F3F46"/>
</g>
</g>
</svg>
