<svg width="21" height="20" viewBox="0 0 21 20" fill="none" xmlns="http://www.w3.org/2000/svg">
<path d="M14.6667 2.50065H18.0001C18.2211 2.50065 18.4331 2.58845 18.5893 2.74473C18.7456 2.90101 18.8334 3.11297 18.8334 3.33398V16.6673C18.8334 16.8883 18.7456 17.1003 18.5893 17.2566C18.4331 17.4129 18.2211 17.5007 18.0001 17.5007H3.00008C2.77907 17.5007 2.56711 17.4129 2.41083 17.2566C2.25455 17.1003 2.16675 16.8883 2.16675 16.6673V3.33398C2.16675 3.11297 2.25455 2.90101 2.41083 2.74473C2.56711 2.58845 2.77907 2.50065 3.00008 2.50065H6.33341V0.833984H8.00008V2.50065H13.0001V0.833984H14.6667V2.50065ZM17.1667 9.16732H3.83341V15.834H17.1667V9.16732ZM13.0001 4.16732H8.00008V5.83398H6.33341V4.16732H3.83341V7.50065H17.1667V4.16732H14.6667V5.83398H13.0001V4.16732ZM5.50008 10.834H7.16675V12.5007H5.50008V10.834ZM9.66675 10.834H11.3334V12.5007H9.66675V10.834ZM13.8334 10.834H15.5001V12.5007H13.8334V10.834Z" fill="white"/>
</svg>
