<svg width="22" height="20" viewBox="0 0 22 20" fill="none" xmlns="http://www.w3.org/2000/svg">
<path d="M6.83527 5.29662C6.43978 5.29662 6.11917 5.61723 6.11917 6.01272C6.11917 6.40822 6.43978 6.72883 6.83527 6.72883H16.2143C16.6098 6.72883 16.9304 6.40822 16.9304 6.01272C16.9304 5.61723 16.6098 5.29662 16.2143 5.29662H6.83527Z" fill="white"/>
<path d="M9.69969 8.87714C9.30419 8.87714 8.98358 9.19775 8.98358 9.59324C8.98358 9.98873 9.30419 10.3093 9.69969 10.3093H16.2143C16.6098 10.3093 16.9304 9.98873 16.9304 9.59324C16.9304 9.19775 16.6098 8.87714 16.2143 8.87714H9.69969Z" fill="white"/>
<path fill-rule="evenodd" clip-rule="evenodd" d="M18.5084 1.08175C18.6632 1.00188 18.8416 0.980127 19.011 1.02043C19.1667 1.0587 19.305 1.14807 19.4038 1.27425C19.5026 1.40043 19.5563 1.55612 19.5562 1.71639V15.5208C19.5562 17.562 17.607 19.34 15.4977 19.34C14.6474 19.34 13.862 19.0711 13.2274 18.6163C13.1888 18.6214 13.1498 18.6239 13.1106 18.6239H5.51272C3.54479 18.6239 1.78913 17.7587 1.12935 16.4097C1.16243 16.4695 0.5 15.6101 0.5 13.7528V13.7516C0.500885 13.1824 0.727166 12.6367 1.12935 12.2339C1.53153 11.8311 2.07687 11.604 2.64608 11.6022L2.64831 11.6022H3.80189V1.72892C3.79969 1.5548 3.86004 1.38567 3.97196 1.25227C4.07581 1.13012 4.21763 1.04636 4.37474 1.01439C4.53184 0.982413 4.69512 1.00408 4.83845 1.07593L5.9502 1.63136L7.06329 1.07593C7.16289 1.02624 7.27267 1.00038 7.38397 1.00038C7.49527 1.00038 7.60505 1.02624 7.70465 1.07593L8.81461 1.63225L9.94248 1.07503C10.0423 1.02545 10.1524 0.999869 10.2639 1.00033C10.3754 1.0008 10.4853 1.0273 10.5847 1.07772L11.679 1.63001L12.7818 1.07638C12.8815 1.0263 12.9916 1.00022 13.1032 1.00022C13.2148 1.00022 13.3248 1.0263 13.4245 1.07638L14.5336 1.6318L15.6574 1.07638C15.7569 1.02666 15.8665 1.00078 15.9777 1.00078C16.0888 1.00078 16.1985 1.02666 16.2979 1.07638L17.4079 1.63136L18.5084 1.08175ZM13.0868 12.7714C13.0341 12.4893 12.8974 12.2274 12.6917 12.0217C12.4231 11.7531 12.0588 11.6022 11.679 11.6022H4.99539V3.05699C4.99352 2.90774 5.04472 2.76278 5.13969 2.64843C5.2278 2.54374 5.34814 2.47194 5.48144 2.44454C5.61473 2.41713 5.75328 2.43571 5.87489 2.49729L6.81819 2.97336L7.76263 2.49729C7.84713 2.4547 7.94028 2.43253 8.03472 2.43253C8.12916 2.43253 8.2223 2.4547 8.30681 2.49729L9.24859 2.97413L10.2056 2.49652C10.2903 2.45402 10.3837 2.43209 10.4783 2.43249C10.5729 2.43289 10.6661 2.45561 10.7505 2.49882L11.679 2.97221L12.6147 2.49767C12.6993 2.45475 12.7927 2.4324 12.8874 2.4324C12.982 2.4324 13.0754 2.45475 13.16 2.49767L14.101 2.97374L15.0546 2.49767C15.139 2.45506 15.232 2.43288 15.3263 2.43288C15.4206 2.43288 15.5137 2.45506 15.598 2.49767L16.5398 2.97336L17.4736 2.50227C17.605 2.43382 17.7563 2.41517 17.9001 2.44972C18.0321 2.48252 18.1495 2.55912 18.2333 2.66727C18.3172 2.77543 18.3627 2.90887 18.3626 3.04625V15.5208C18.3626 16.7455 16.7638 17.9078 15.4982 17.9078C14.2326 17.9078 13.2062 16.8687 13.2062 15.644L13.1112 13.2731V12.7957L13.0868 12.7714ZM11.679 13.0344H2.64962C2.45942 13.0353 2.27726 13.1113 2.14286 13.2459C2.00835 13.3806 1.93262 13.5631 1.93221 13.7534C1.93221 14.8767 2.24333 15.299 2.49273 15.7591C2.9886 16.6737 3.88769 17.1917 5.51272 17.1917H12.0285C11.8038 16.7209 11.6785 16.1966 11.6785 15.644L11.679 13.0344Z" fill="white"/>
</svg>
