<svg width="21" height="20" viewBox="0 0 21 20" fill="none" xmlns="http://www.w3.org/2000/svg">
<path d="M14.6665 2.49967H17.9998C18.2209 2.49967 18.4328 2.58747 18.5891 2.74375C18.7454 2.90003 18.8332 3.11199 18.8332 3.33301V16.6663C18.8332 16.8874 18.7454 17.0993 18.5891 17.2556C18.4328 17.4119 18.2209 17.4997 17.9998 17.4997H2.99984C2.77882 17.4997 2.56686 17.4119 2.41058 17.2556C2.2543 17.0993 2.1665 16.8874 2.1665 16.6663V3.33301C2.1665 3.11199 2.2543 2.90003 2.41058 2.74375C2.56686 2.58747 2.77882 2.49967 2.99984 2.49967H6.33317V0.833008H7.99984V2.49967H12.9998V0.833008H14.6665V2.49967ZM17.1665 9.16634H3.83317V15.833H17.1665V9.16634ZM12.9998 4.16634H7.99984V5.83301H6.33317V4.16634H3.83317V7.49967H17.1665V4.16634H14.6665V5.83301H12.9998V4.16634ZM5.49984 10.833H7.1665V12.4997H5.49984V10.833ZM9.6665 10.833H11.3332V12.4997H9.6665V10.833ZM13.8332 10.833H15.4998V12.4997H13.8332V10.833Z" fill="white"/>
</svg>
