<svg width="21" height="20" viewBox="0 0 21 20" fill="none" xmlns="http://www.w3.org/2000/svg">
<path d="M3.83301 18.333C3.83301 16.5649 4.53539 14.8692 5.78563 13.619C7.03587 12.3687 8.73156 11.6663 10.4997 11.6663C12.2678 11.6663 13.9635 12.3687 15.2137 13.619C16.464 14.8692 17.1663 16.5649 17.1663 18.333H3.83301ZM11.333 13.4022V16.6663H15.2155C14.9176 15.8258 14.4007 15.0801 13.7181 14.5063C13.0356 13.9325 12.2122 13.5513 11.333 13.4022ZM9.66634 16.6663V13.4022C8.78717 13.5513 7.96377 13.9325 7.28122 14.5063C6.59867 15.0801 6.08174 15.8258 5.78384 16.6663H9.66634ZM10.4997 10.833C7.73717 10.833 5.49967 8.59551 5.49967 5.83301C5.49967 3.07051 7.73717 0.833008 10.4997 0.833008C13.2622 0.833008 15.4997 3.07051 15.4997 5.83301C15.4997 8.59551 13.2622 10.833 10.4997 10.833ZM10.4997 9.16634C12.3413 9.16634 13.833 7.67467 13.833 5.83301C13.833 3.99134 12.3413 2.49967 10.4997 2.49967C8.65801 2.49967 7.16634 3.99134 7.16634 5.83301C7.16634 7.67467 8.65801 9.16634 10.4997 9.16634Z" fill="white"/>
</svg>
