<svg width="21" height="20" viewBox="0 0 21 20" fill="none" xmlns="http://www.w3.org/2000/svg">
<path d="M14.6667 2.49967H18.0001C18.2211 2.49967 18.4331 2.58747 18.5893 2.74375C18.7456 2.90003 18.8334 3.11199 18.8334 3.33301V16.6663C18.8334 16.8874 18.7456 17.0993 18.5893 17.2556C18.4331 17.4119 18.2211 17.4997 18.0001 17.4997H3.00008C2.77907 17.4997 2.56711 17.4119 2.41083 17.2556C2.25455 17.0993 2.16675 16.8874 2.16675 16.6663V3.33301C2.16675 3.11199 2.25455 2.90003 2.41083 2.74375C2.56711 2.58747 2.77907 2.49967 3.00008 2.49967H6.33342V0.833008H8.00008V2.49967H13.0001V0.833008H14.6667V2.49967ZM17.1667 9.16634H3.83341V15.833H17.1667V9.16634ZM13.0001 4.16634H8.00008V5.83301H6.33342V4.16634H3.83341V7.49967H17.1667V4.16634H14.6667V5.83301H13.0001V4.16634ZM5.50008 10.833H7.16675V12.4997H5.50008V10.833ZM9.66675 10.833H11.3334V12.4997H9.66675V10.833ZM13.8334 10.833H15.5001V12.4997H13.8334V10.833Z" fill="white"/>
</svg>
