<svg width="20" height="20" viewBox="0 0 20 20" fill="none" xmlns="http://www.w3.org/2000/svg">
<path d="M14.1667 2.49967H17.5001C17.7211 2.49967 17.9331 2.58747 18.0893 2.74375C18.2456 2.90003 18.3334 3.11199 18.3334 3.33301V16.6663C18.3334 16.8874 18.2456 17.0993 18.0893 17.2556C17.9331 17.4119 17.7211 17.4997 17.5001 17.4997H2.50008C2.27907 17.4997 2.06711 17.4119 1.91083 17.2556C1.75455 17.0993 1.66675 16.8874 1.66675 16.6663V3.33301C1.66675 3.11199 1.75455 2.90003 1.91083 2.74375C2.06711 2.58747 2.27907 2.49967 2.50008 2.49967H5.83342V0.833008H7.50008V2.49967H12.5001V0.833008H14.1667V2.49967ZM16.6667 9.16634H3.33341V15.833H16.6667V9.16634ZM12.5001 4.16634H7.50008V5.83301H5.83342V4.16634H3.33341V7.49967H16.6667V4.16634H14.1667V5.83301H12.5001V4.16634ZM5.00008 10.833H6.66675V12.4997H5.00008V10.833ZM9.16675 10.833H10.8334V12.4997H9.16675V10.833ZM13.3334 10.833H15.0001V12.4997H13.3334V10.833Z" fill="white"/>
</svg>
