<svg width="20" height="20" viewBox="0 0 20 20" fill="none" xmlns="http://www.w3.org/2000/svg">
<path d="M5.83317 4.16732V1.66732C5.83317 1.4463 5.92097 1.23434 6.07725 1.07806C6.23353 0.921782 6.44549 0.833984 6.6665 0.833984H13.3332C13.5542 0.833984 13.7661 0.921782 13.9224 1.07806C14.0787 1.23434 14.1665 1.4463 14.1665 1.66732V4.16732H17.4998C17.7209 4.16732 17.9328 4.25512 18.0891 4.4114C18.2454 4.56768 18.3332 4.77964 18.3332 5.00065V16.6673C18.3332 16.8883 18.2454 17.1003 18.0891 17.2566C17.9328 17.4129 17.7209 17.5007 17.4998 17.5007H2.49984C2.27882 17.5007 2.06686 17.4129 1.91058 17.2566C1.7543 17.1003 1.6665 16.8883 1.6665 16.6673V5.00065C1.6665 4.77964 1.7543 4.56768 1.91058 4.4114C2.06686 4.25512 2.27882 4.16732 2.49984 4.16732H5.83317ZM3.33317 13.334V15.834H16.6665V13.334H3.33317ZM3.33317 11.6673H16.6665V5.83398H3.33317V11.6673ZM7.49984 2.50065V4.16732H12.4998V2.50065H7.49984ZM9.1665 9.16732H10.8332V10.834H9.1665V9.16732Z" fill="white"/>
</svg>
