<svg width="20" height="20" viewBox="0 0 20 20" fill="none" xmlns="http://www.w3.org/2000/svg">
<path d="M5.83366 4.16634V1.66634C5.83366 1.44533 5.92146 1.23337 6.07774 1.07709C6.23402 0.920805 6.44598 0.833008 6.66699 0.833008H13.3337C13.5547 0.833008 13.7666 0.920805 13.9229 1.07709C14.0792 1.23337 14.167 1.44533 14.167 1.66634V4.16634H17.5003C17.7213 4.16634 17.9333 4.25414 18.0896 4.41042C18.2459 4.5667 18.3337 4.77866 18.3337 4.99967V16.6663C18.3337 16.8874 18.2459 17.0993 18.0896 17.2556C17.9333 17.4119 17.7213 17.4997 17.5003 17.4997H2.50033C2.27931 17.4997 2.06735 17.4119 1.91107 17.2556C1.75479 17.0993 1.66699 16.8874 1.66699 16.6663V4.99967C1.66699 4.77866 1.75479 4.5667 1.91107 4.41042C2.06735 4.25414 2.27931 4.16634 2.50033 4.16634H5.83366ZM3.33366 13.333V15.833H16.667V13.333H3.33366ZM3.33366 11.6663H16.667V5.83301H3.33366V11.6663ZM7.50033 2.49967V4.16634H12.5003V2.49967H7.50033ZM9.16699 9.16634H10.8337V10.833H9.16699V9.16634Z" fill="white"/>
</svg>
