<svg width="22" height="22" viewBox="0 0 22 22" fill="none" xmlns="http://www.w3.org/2000/svg">
<path d="M10.9918 2.46875C6.2832 2.46875 2.46875 6.29141 2.46875 11C2.46875 15.7086 6.2832 19.5312 10.9918 19.5312C15.7086 19.5312 19.5312 15.7086 19.5312 11C19.5312 6.29141 15.7086 2.46875 10.9918 2.46875ZM11 17.825C7.23066 17.825 4.175 14.7693 4.175 11C4.175 7.23066 7.23066 4.175 11 4.175C14.7693 4.175 17.825 7.23066 17.825 11C17.825 14.7693 14.7693 17.825 11 17.825Z" fill="white"/>
<path d="M11.4262 6.73438H10.1465V11.8531L14.6254 14.5396L15.2652 13.4896L11.4262 11.2133V6.73438Z" fill="white"/>
</svg>
