<svg width="21" height="20" viewBox="0 0 21 20" fill="none" xmlns="http://www.w3.org/2000/svg">
<path d="M3.83325 18.333C3.83325 16.5649 4.53563 14.8692 5.78587 13.619C7.03612 12.3687 8.73181 11.6663 10.4999 11.6663C12.268 11.6663 13.9637 12.3687 15.214 13.619C16.4642 14.8692 17.1666 16.5649 17.1666 18.333H3.83325ZM11.3333 13.4022V16.6663H15.2158C14.9179 15.8258 14.4009 15.0801 13.7184 14.5063C13.0358 13.9325 12.2124 13.5513 11.3333 13.4022ZM9.66658 16.6663V13.4022C8.78742 13.5513 7.96401 13.9325 7.28146 14.5063C6.59891 15.0801 6.08198 15.8258 5.78409 16.6663H9.66658ZM10.4999 10.833C7.73742 10.833 5.49992 8.59551 5.49992 5.83301C5.49992 3.07051 7.73742 0.833008 10.4999 0.833008C13.2624 0.833008 15.4999 3.07051 15.4999 5.83301C15.4999 8.59551 13.2624 10.833 10.4999 10.833ZM10.4999 9.16634C12.3416 9.16634 13.8333 7.67467 13.8333 5.83301C13.8333 3.99134 12.3416 2.49967 10.4999 2.49967C8.65825 2.49967 7.16659 3.99134 7.16659 5.83301C7.16659 7.67467 8.65825 9.16634 10.4999 9.16634Z" fill="white"/>
</svg>
