<svg width="21" height="20" viewBox="0 0 21 20" fill="none" xmlns="http://www.w3.org/2000/svg">
<path d="M10.4997 11.6663V13.333C9.17359 13.333 7.90182 13.8598 6.96414 14.7975C6.02646 15.7352 5.49967 17.0069 5.49967 18.333H3.83301C3.83301 16.5649 4.53539 14.8692 5.78563 13.619C7.03587 12.3687 8.73156 11.6663 10.4997 11.6663ZM10.4997 10.833C7.73717 10.833 5.49967 8.59551 5.49967 5.83301C5.49967 3.07051 7.73717 0.833008 10.4997 0.833008C13.2622 0.833008 15.4997 3.07051 15.4997 5.83301C15.4997 8.59551 13.2622 10.833 10.4997 10.833ZM10.4997 9.16634C12.3413 9.16634 13.833 7.67467 13.833 5.83301C13.833 3.99134 12.3413 2.49967 10.4997 2.49967C8.65801 2.49967 7.16634 3.99134 7.16634 5.83301C7.16634 7.67467 8.65801 9.16634 10.4997 9.16634ZM12.6622 15.6763C12.5565 15.2317 12.5565 14.7685 12.6622 14.3238L11.8355 13.8463L12.6688 12.403L13.4955 12.8805C13.8273 12.5662 14.2284 12.3344 14.6663 12.2038V11.2497H16.333V12.2038C16.7763 12.3355 17.1763 12.5705 17.5038 12.8805L18.3305 12.403L19.1638 13.8463L18.3372 14.3238C18.4427 14.7682 18.4427 15.2311 18.3372 15.6755L19.1638 16.153L18.3305 17.5963L17.5038 17.1188C17.172 17.4331 16.771 17.6649 16.333 17.7955V18.7497H14.6663V17.7955C14.2284 17.6649 13.8273 17.4331 13.4955 17.1188L12.6688 17.5963L11.8355 16.153L12.6622 15.6763ZM15.4997 16.2497C15.8312 16.2497 16.1491 16.118 16.3836 15.8836C16.618 15.6491 16.7497 15.3312 16.7497 14.9997C16.7497 14.6682 16.618 14.3502 16.3836 14.1158C16.1491 13.8814 15.8312 13.7497 15.4997 13.7497C15.1682 13.7497 14.8502 13.8814 14.6158 14.1158C14.3814 14.3502 14.2497 14.6682 14.2497 14.9997C14.2497 15.3312 14.3814 15.6491 14.6158 15.8836C14.8502 16.118 15.1682 16.2497 15.4997 16.2497Z" fill="#677394"/>
</svg>
