<svg width="20" height="20" viewBox="0 0 20 20" fill="none" xmlns="http://www.w3.org/2000/svg">
<path d="M1.66675 10.0004C1.66675 9.27958 1.75841 8.58125 1.93008 7.91375C2.39047 7.93795 2.84858 7.83438 3.25378 7.61447C3.65898 7.39457 3.99548 7.06691 4.22609 6.6677C4.45669 6.2685 4.57242 5.8133 4.56048 5.35243C4.54853 4.89157 4.40939 4.44297 4.15841 4.05625C5.16587 3.06506 6.40908 2.34666 7.77091 1.96875C7.98007 2.37998 8.29895 2.72531 8.69223 2.96651C9.08552 3.20771 9.53789 3.33538 9.99925 3.33538C10.4606 3.33538 10.913 3.20771 11.3063 2.96651C11.6996 2.72531 12.0184 2.37998 12.2276 1.96875C13.5894 2.34666 14.8326 3.06506 15.8401 4.05625C15.5888 4.44304 15.4495 4.89181 15.4374 5.35289C15.4254 5.81397 15.5412 6.26939 15.7719 6.66876C16.0026 7.06813 16.3394 7.39589 16.7448 7.61576C17.1503 7.83564 17.6087 7.93906 18.0692 7.91458C18.2409 8.58125 18.3326 9.27958 18.3326 10.0004C18.3326 10.7213 18.2409 11.4196 18.0692 12.0871C17.6088 12.0627 17.1506 12.1662 16.7452 12.386C16.3399 12.6058 16.0033 12.9335 15.7726 13.3327C15.5419 13.732 15.4261 14.1872 15.438 14.6482C15.4499 15.1091 15.5891 15.5578 15.8401 15.9446C14.8326 16.9358 13.5894 17.6542 12.2276 18.0321C12.0184 17.6209 11.6996 17.2755 11.3063 17.0343C10.913 16.7931 10.4606 16.6655 9.99925 16.6655C9.53789 16.6655 9.08552 16.7931 8.69223 17.0343C8.29895 17.2755 7.98007 17.6209 7.77091 18.0321C6.40908 17.6542 5.16587 16.9358 4.15841 15.9446C4.40967 15.5578 4.54902 15.109 4.56106 14.6479C4.57309 14.1869 4.45733 13.7314 4.22659 13.3321C3.99585 12.9327 3.65913 12.6049 3.25367 12.3851C2.84821 12.1652 2.38983 12.0618 1.92925 12.0863C1.75841 11.4204 1.66675 10.7221 1.66675 10.0004ZM5.67008 12.5004C6.19508 13.4096 6.34508 14.4554 6.14008 15.4371C6.48008 15.6788 6.84175 15.8879 7.22091 16.0621C7.9848 15.3778 8.97451 14.9997 10.0001 15.0004C11.0501 15.0004 12.0317 15.3929 12.7792 16.0621C13.1584 15.8879 13.5201 15.6788 13.8601 15.4371C13.6496 14.4337 13.817 13.388 14.3301 12.5004C14.8423 11.6124 15.6643 10.9447 16.6384 10.6254C16.677 10.2096 16.677 9.79119 16.6384 9.37542C15.664 9.0563 14.8416 8.3886 14.3292 7.50042C13.8161 6.61286 13.6488 5.56711 13.8592 4.56375C13.5193 4.32202 13.1575 4.11277 12.7784 3.93875C12.0147 4.62286 11.0254 5.00092 10.0001 5.00042C8.97451 5.00113 7.9848 4.62305 7.22091 3.93875C6.84186 4.11277 6.47999 4.32202 6.14008 4.56375C6.35055 5.56711 6.18319 6.61286 5.67008 7.50042C5.15789 8.38844 4.3359 9.05612 3.36175 9.37542C3.32321 9.79119 3.32321 10.2096 3.36175 10.6254C4.33621 10.9445 5.15769 11.6122 5.67008 12.5004ZM10.0001 12.5004C9.33704 12.5004 8.70116 12.237 8.23231 11.7682C7.76347 11.2993 7.50008 10.6635 7.50008 10.0004C7.50008 9.33738 7.76347 8.70149 8.23231 8.23265C8.70116 7.76381 9.33704 7.50042 10.0001 7.50042C10.6631 7.50042 11.299 7.76381 11.7678 8.23265C12.2367 8.70149 12.5001 9.33738 12.5001 10.0004C12.5001 10.6635 12.2367 11.2993 11.7678 11.7682C11.299 12.237 10.6631 12.5004 10.0001 12.5004ZM10.0001 10.8338C10.2211 10.8338 10.4331 10.746 10.5893 10.5897C10.7456 10.4334 10.8334 10.2214 10.8334 10.0004C10.8334 9.7794 10.7456 9.56744 10.5893 9.41116C10.4331 9.25488 10.2211 9.16708 10.0001 9.16708C9.77907 9.16708 9.56711 9.25488 9.41083 9.41116C9.25455 9.56744 9.16675 9.7794 9.16675 10.0004C9.16675 10.2214 9.25455 10.4334 9.41083 10.5897C9.56711 10.746 9.77907 10.8338 10.0001 10.8338Z" fill="white"/>
</svg>
