<svg width="20" height="20" viewBox="0 0 20 20" fill="none" xmlns="http://www.w3.org/2000/svg">
<path d="M5.83268 4.16634V1.66634C5.83268 1.44533 5.92048 1.23337 6.07676 1.07709C6.23304 0.920805 6.445 0.833008 6.66602 0.833008H13.3327C13.5537 0.833008 13.7657 0.920805 13.9219 1.07709C14.0782 1.23337 14.166 1.44533 14.166 1.66634V4.16634H17.4993C17.7204 4.16634 17.9323 4.25414 18.0886 4.41042C18.2449 4.5667 18.3327 4.77866 18.3327 4.99967V16.6663C18.3327 16.8874 18.2449 17.0993 18.0886 17.2556C17.9323 17.4119 17.7204 17.4997 17.4993 17.4997H2.49935C2.27834 17.4997 2.06637 17.4119 1.91009 17.2556C1.75381 17.0993 1.66602 16.8874 1.66602 16.6663V4.99967C1.66602 4.77866 1.75381 4.5667 1.91009 4.41042C2.06637 4.25414 2.27834 4.16634 2.49935 4.16634H5.83268ZM3.33268 13.333V15.833H16.666V13.333H3.33268ZM3.33268 11.6663H16.666V5.83301H3.33268V11.6663ZM7.49935 2.49967V4.16634H12.4993V2.49967H7.49935ZM9.16602 9.16634H10.8327V10.833H9.16602V9.16634Z" fill="white"/>
</svg>
