<svg width="21" height="20" viewBox="0 0 21 20" fill="none" xmlns="http://www.w3.org/2000/svg">
<path d="M3.83325 18.334C3.83325 16.5659 4.53563 14.8702 5.78587 13.6199C7.03612 12.3697 8.73181 11.6673 10.4999 11.6673C12.268 11.6673 13.9637 12.3697 15.214 13.6199C16.4642 14.8702 17.1666 16.5659 17.1666 18.334H3.83325ZM11.3333 13.4032V16.6673H15.2158C14.9179 15.8268 14.4009 15.0811 13.7184 14.5073C13.0358 13.9334 12.2124 13.5523 11.3333 13.4032ZM9.66659 16.6673V13.4032C8.78742 13.5523 7.96401 13.9334 7.28146 14.5073C6.59891 15.0811 6.08198 15.8268 5.78409 16.6673H9.66659ZM10.4999 10.834C7.73742 10.834 5.49992 8.59648 5.49992 5.83398C5.49992 3.07148 7.73742 0.833984 10.4999 0.833984C13.2624 0.833984 15.4999 3.07148 15.4999 5.83398C15.4999 8.59648 13.2624 10.834 10.4999 10.834ZM10.4999 9.16732C12.3416 9.16732 13.8333 7.67565 13.8333 5.83398C13.8333 3.99232 12.3416 2.50065 10.4999 2.50065C8.65825 2.50065 7.16659 3.99232 7.16659 5.83398C7.16659 7.67565 8.65825 9.16732 10.4999 9.16732Z" fill="white"/>
</svg>
