<svg width="20" height="20" viewBox="0 0 20 20" fill="none" xmlns="http://www.w3.org/2000/svg">
<path d="M5.83317 4.16634V1.66634C5.83317 1.44533 5.92097 1.23337 6.07725 1.07709C6.23353 0.920805 6.44549 0.833008 6.6665 0.833008H13.3332C13.5542 0.833008 13.7661 0.920805 13.9224 1.07709C14.0787 1.23337 14.1665 1.44533 14.1665 1.66634V4.16634H17.4998C17.7209 4.16634 17.9328 4.25414 18.0891 4.41042C18.2454 4.5667 18.3332 4.77866 18.3332 4.99967V16.6663C18.3332 16.8874 18.2454 17.0993 18.0891 17.2556C17.9328 17.4119 17.7209 17.4997 17.4998 17.4997H2.49984C2.27882 17.4997 2.06686 17.4119 1.91058 17.2556C1.7543 17.0993 1.6665 16.8874 1.6665 16.6663V4.99967C1.6665 4.77866 1.7543 4.5667 1.91058 4.41042C2.06686 4.25414 2.27882 4.16634 2.49984 4.16634H5.83317ZM3.33317 13.333V15.833H16.6665V13.333H3.33317ZM3.33317 11.6663H16.6665V5.83301H3.33317V11.6663ZM7.49984 2.49967V4.16634H12.4998V2.49967H7.49984ZM9.1665 9.16634H10.8332V10.833H9.1665V9.16634Z" fill="white"/>
</svg>
