<svg width="21" height="20" viewBox="0 0 21 20" fill="none" xmlns="http://www.w3.org/2000/svg">
<path d="M3.8335 18.333C3.8335 16.5649 4.53588 14.8692 5.78612 13.619C7.03636 12.3687 8.73205 11.6663 10.5002 11.6663C12.2683 11.6663 13.964 12.3687 15.2142 13.619C16.4645 14.8692 17.1668 16.5649 17.1668 18.333H3.8335ZM11.3335 13.4022V16.6663H15.216C14.9181 15.8258 14.4012 15.0801 13.7186 14.5063C13.0361 13.9325 12.2127 13.5513 11.3335 13.4022ZM9.66683 16.6663V13.4022C8.78766 13.5513 7.96425 13.9325 7.2817 14.5063C6.59916 15.0801 6.08222 15.8258 5.78433 16.6663H9.66683ZM10.5002 10.833C7.73766 10.833 5.50016 8.59551 5.50016 5.83301C5.50016 3.07051 7.73766 0.833008 10.5002 0.833008C13.2627 0.833008 15.5002 3.07051 15.5002 5.83301C15.5002 8.59551 13.2627 10.833 10.5002 10.833ZM10.5002 9.16634C12.3418 9.16634 13.8335 7.67467 13.8335 5.83301C13.8335 3.99134 12.3418 2.49967 10.5002 2.49967C8.6585 2.49967 7.16683 3.99134 7.16683 5.83301C7.16683 7.67467 8.6585 9.16634 10.5002 9.16634Z" fill="white"/>
</svg>
