<svg width="21" height="20" viewBox="0 0 21 20" fill="none" xmlns="http://www.w3.org/2000/svg">
<path d="M3.00065 15.8335V4.75018C3.0006 4.57912 3.05319 4.41218 3.15129 4.27204C3.24939 4.1319 3.38824 4.02535 3.54898 3.96684L11.6082 1.03684C11.6711 1.01393 11.7387 1.00654 11.8051 1.01529C11.8715 1.02404 11.9348 1.04868 11.9897 1.08711C12.0446 1.12555 12.0894 1.17664 12.1203 1.23608C12.1512 1.29551 12.1673 1.36152 12.1673 1.42851V5.55601L17.4306 7.31018C17.5967 7.36547 17.741 7.47161 17.8434 7.61355C17.9457 7.7555 18.0007 7.92604 18.0006 8.10101V15.8335H19.6673V17.5002H1.33398V15.8335H3.00065ZM4.66732 15.8335H10.5007V3.21268L4.66732 5.33434V15.8335ZM16.334 15.8335V8.70184L12.1673 7.31268V15.8335H16.334Z" fill="#677394"/>
</svg>
