<svg width="21" height="20" viewBox="0 0 21 20" fill="none" xmlns="http://www.w3.org/2000/svg">
<path d="M2.99967 15.8335V4.75018C2.99962 4.57912 3.05222 4.41218 3.15031 4.27204C3.24841 4.1319 3.38726 4.02535 3.54801 3.96684L11.6072 1.03684C11.6701 1.01393 11.7377 1.00654 11.8041 1.01529C11.8705 1.02404 11.9338 1.04868 11.9887 1.08711C12.0436 1.12555 12.0884 1.17664 12.1193 1.23608C12.1502 1.29551 12.1664 1.36152 12.1663 1.42851V5.55601L17.4297 7.31018C17.5957 7.36547 17.7401 7.47161 17.8424 7.61355C17.9447 7.7555 17.9997 7.92604 17.9997 8.10101V15.8335H19.6663V17.5002H1.33301V15.8335H2.99967ZM4.66634 15.8335H10.4997V3.21268L4.66634 5.33434V15.8335ZM16.333 15.8335V8.70184L12.1663 7.31268V15.8335H16.333Z" fill="#677394"/>
</svg>
