<svg width="21" height="20" viewBox="0 0 21 20" fill="none" xmlns="http://www.w3.org/2000/svg">
<path d="M10.5007 11.6663V13.333C9.17457 13.333 7.9028 13.8598 6.96512 14.7975C6.02744 15.7352 5.50065 17.0069 5.50065 18.333H3.83398C3.83398 16.5649 4.53636 14.8692 5.78661 13.619C7.03685 12.3687 8.73254 11.6663 10.5007 11.6663ZM10.5007 10.833C7.73815 10.833 5.50065 8.59551 5.50065 5.83301C5.50065 3.07051 7.73815 0.833008 10.5007 0.833008C13.2632 0.833008 15.5007 3.07051 15.5007 5.83301C15.5007 8.59551 13.2632 10.833 10.5007 10.833ZM10.5007 9.16634C12.3423 9.16634 13.834 7.67467 13.834 5.83301C13.834 3.99134 12.3423 2.49967 10.5007 2.49967C8.65898 2.49967 7.16732 3.99134 7.16732 5.83301C7.16732 7.67467 8.65898 9.16634 10.5007 9.16634ZM12.6632 15.6763C12.5575 15.2317 12.5575 14.7685 12.6632 14.3238L11.8365 13.8463L12.6698 12.403L13.4965 12.8805C13.8283 12.5662 14.2294 12.3344 14.6673 12.2038V11.2497H16.334V12.2038C16.7773 12.3355 17.1773 12.5705 17.5048 12.8805L18.3315 12.403L19.1648 13.8463L18.3382 14.3238C18.4437 14.7682 18.4437 15.2311 18.3382 15.6755L19.1648 16.153L18.3315 17.5963L17.5048 17.1188C17.173 17.4331 16.7719 17.6649 16.334 17.7955V18.7497H14.6673V17.7955C14.2294 17.6649 13.8283 17.4331 13.4965 17.1188L12.6698 17.5963L11.8365 16.153L12.6632 15.6763ZM15.5007 16.2497C15.8322 16.2497 16.1501 16.118 16.3845 15.8836C16.619 15.6491 16.7507 15.3312 16.7507 14.9997C16.7507 14.6682 16.619 14.3502 16.3845 14.1158C16.1501 13.8814 15.8322 13.7497 15.5007 13.7497C15.1691 13.7497 14.8512 13.8814 14.6168 14.1158C14.3823 14.3502 14.2507 14.6682 14.2507 14.9997C14.2507 15.3312 14.3823 15.6491 14.6168 15.8836C14.8512 16.118 15.1691 16.2497 15.5007 16.2497Z" fill="#677394"/>
</svg>
