<svg width="21" height="20" viewBox="0 0 21 20" fill="none" xmlns="http://www.w3.org/2000/svg">
<path d="M14.666 2.49967H17.9993C18.2204 2.49967 18.4323 2.58747 18.5886 2.74375C18.7449 2.90003 18.8327 3.11199 18.8327 3.33301V16.6663C18.8327 16.8874 18.7449 17.0993 18.5886 17.2556C18.4323 17.4119 18.2204 17.4997 17.9993 17.4997H2.99935C2.77834 17.4997 2.56637 17.4119 2.41009 17.2556C2.25381 17.0993 2.16602 16.8874 2.16602 16.6663V3.33301C2.16602 3.11199 2.25381 2.90003 2.41009 2.74375C2.56637 2.58747 2.77834 2.49967 2.99935 2.49967H6.33268V0.833008H7.99935V2.49967H12.9993V0.833008H14.666V2.49967ZM17.166 9.16634H3.83268V15.833H17.166V9.16634ZM12.9993 4.16634H7.99935V5.83301H6.33268V4.16634H3.83268V7.49967H17.166V4.16634H14.666V5.83301H12.9993V4.16634ZM5.49935 10.833H7.16602V12.4997H5.49935V10.833ZM9.66602 10.833H11.3327V12.4997H9.66602V10.833ZM13.8327 10.833H15.4993V12.4997H13.8327V10.833Z" fill="white"/>
</svg>
