<svg width="21" height="20" viewBox="0 0 21 20" fill="none" xmlns="http://www.w3.org/2000/svg">
<path d="M10.5002 11.6673V13.334C9.17408 13.334 7.90231 13.8608 6.96463 14.7984C6.02695 15.7361 5.50016 17.0079 5.50016 18.334H3.8335C3.8335 16.5659 4.53588 14.8702 5.78612 13.6199C7.03636 12.3697 8.73205 11.6673 10.5002 11.6673ZM10.5002 10.834C7.73766 10.834 5.50016 8.59648 5.50016 5.83398C5.50016 3.07148 7.73766 0.833984 10.5002 0.833984C13.2627 0.833984 15.5002 3.07148 15.5002 5.83398C15.5002 8.59648 13.2627 10.834 10.5002 10.834ZM10.5002 9.16732C12.3418 9.16732 13.8335 7.67565 13.8335 5.83398C13.8335 3.99232 12.3418 2.50065 10.5002 2.50065C8.6585 2.50065 7.16683 3.99232 7.16683 5.83398C7.16683 7.67565 8.6585 9.16732 10.5002 9.16732ZM12.6627 15.6773C12.557 15.2327 12.557 14.7695 12.6627 14.3248L11.836 13.8473L12.6693 12.404L13.496 12.8815C13.8278 12.5672 14.2289 12.3354 14.6668 12.2048V11.2507H16.3335V12.2048C16.7768 12.3365 17.1768 12.5715 17.5043 12.8815L18.331 12.404L19.1643 13.8473L18.3377 14.3248C18.4432 14.7692 18.4432 15.2321 18.3377 15.6765L19.1643 16.154L18.331 17.5973L17.5043 17.1198C17.1725 17.4341 16.7714 17.6659 16.3335 17.7965V18.7507H14.6668V17.7965C14.2289 17.6659 13.8278 17.4341 13.496 17.1198L12.6693 17.5973L11.836 16.154L12.6627 15.6773ZM15.5002 16.2507C15.8317 16.2507 16.1496 16.119 16.384 15.8845C16.6185 15.6501 16.7502 15.3322 16.7502 15.0007C16.7502 14.6691 16.6185 14.3512 16.384 14.1168C16.1496 13.8823 15.8317 13.7507 15.5002 13.7507C15.1686 13.7507 14.8507 13.8823 14.6163 14.1168C14.3819 14.3512 14.2502 14.6691 14.2502 15.0007C14.2502 15.3322 14.3819 15.6501 14.6163 15.8845C14.8507 16.119 15.1686 16.2507 15.5002 16.2507Z" fill="#677394"/>
</svg>
