<svg width="21" height="20" viewBox="0 0 21 20" fill="none" xmlns="http://www.w3.org/2000/svg">
<path d="M14.667 2.49967H18.0003C18.2213 2.49967 18.4333 2.58747 18.5896 2.74375C18.7459 2.90003 18.8337 3.11199 18.8337 3.33301V16.6663C18.8337 16.8874 18.7459 17.0993 18.5896 17.2556C18.4333 17.4119 18.2213 17.4997 18.0003 17.4997H3.00033C2.77931 17.4997 2.56735 17.4119 2.41107 17.2556C2.25479 17.0993 2.16699 16.8874 2.16699 16.6663V3.33301C2.16699 3.11199 2.25479 2.90003 2.41107 2.74375C2.56735 2.58747 2.77931 2.49967 3.00033 2.49967H6.33366V0.833008H8.00033V2.49967H13.0003V0.833008H14.667V2.49967ZM17.167 9.16634H3.83366V15.833H17.167V9.16634ZM13.0003 4.16634H8.00033V5.83301H6.33366V4.16634H3.83366V7.49967H17.167V4.16634H14.667V5.83301H13.0003V4.16634ZM5.50033 10.833H7.16699V12.4997H5.50033V10.833ZM9.66699 10.833H11.3337V12.4997H9.66699V10.833ZM13.8337 10.833H15.5003V12.4997H13.8337V10.833Z" fill="white"/>
</svg>
