<svg width="21" height="20" viewBox="0 0 21 20" fill="none" xmlns="http://www.w3.org/2000/svg">
<path d="M10.4999 11.6663V13.333C9.17384 13.333 7.90207 13.8598 6.96438 14.7975C6.0267 15.7352 5.49992 17.0069 5.49992 18.333H3.83325C3.83325 16.5649 4.53563 14.8692 5.78587 13.619C7.03612 12.3687 8.73181 11.6663 10.4999 11.6663ZM10.4999 10.833C7.73742 10.833 5.49992 8.59551 5.49992 5.83301C5.49992 3.07051 7.73742 0.833008 10.4999 0.833008C13.2624 0.833008 15.4999 3.07051 15.4999 5.83301C15.4999 8.59551 13.2624 10.833 10.4999 10.833ZM10.4999 9.16634C12.3416 9.16634 13.8333 7.67467 13.8333 5.83301C13.8333 3.99134 12.3416 2.49967 10.4999 2.49967C8.65825 2.49967 7.16659 3.99134 7.16659 5.83301C7.16659 7.67467 8.65825 9.16634 10.4999 9.16634ZM12.6624 15.6763C12.5568 15.2317 12.5568 14.7685 12.6624 14.3238L11.8358 13.8463L12.6691 12.403L13.4958 12.8805C13.8276 12.5662 14.2286 12.3344 14.6666 12.2038V11.2497H16.3333V12.2038C16.7766 12.3355 17.1766 12.5705 17.5041 12.8805L18.3308 12.403L19.1641 13.8463L18.3374 14.3238C18.4429 14.7682 18.4429 15.2311 18.3374 15.6755L19.1641 16.153L18.3308 17.5963L17.5041 17.1188C17.1723 17.4331 16.7712 17.6649 16.3333 17.7955V18.7497H14.6666V17.7955C14.2286 17.6649 13.8276 17.4331 13.4958 17.1188L12.6691 17.5963L11.8358 16.153L12.6624 15.6763ZM15.4999 16.2497C15.8314 16.2497 16.1494 16.118 16.3838 15.8836C16.6182 15.6491 16.7499 15.3312 16.7499 14.9997C16.7499 14.6682 16.6182 14.3502 16.3838 14.1158C16.1494 13.8814 15.8314 13.7497 15.4999 13.7497C15.1684 13.7497 14.8505 13.8814 14.616 14.1158C14.3816 14.3502 14.2499 14.6682 14.2499 14.9997C14.2499 15.3312 14.3816 15.6491 14.616 15.8836C14.8505 16.118 15.1684 16.2497 15.4999 16.2497Z" fill="#677394"/>
</svg>
