<svg width="21" height="20" viewBox="0 0 21 20" fill="none" xmlns="http://www.w3.org/2000/svg">
<path d="M3.8335 18.334C3.8335 16.5659 4.53588 14.8702 5.78612 13.6199C7.03636 12.3697 8.73205 11.6673 10.5002 11.6673C12.2683 11.6673 13.964 12.3697 15.2142 13.6199C16.4645 14.8702 17.1668 16.5659 17.1668 18.334H3.8335ZM11.3335 13.4032V16.6673H15.216C14.9181 15.8268 14.4012 15.0811 13.7186 14.5073C13.0361 13.9334 12.2127 13.5523 11.3335 13.4032ZM9.66683 16.6673V13.4032C8.78766 13.5523 7.96425 13.9334 7.2817 14.5073C6.59916 15.0811 6.08222 15.8268 5.78433 16.6673H9.66683ZM10.5002 10.834C7.73766 10.834 5.50016 8.59648 5.50016 5.83398C5.50016 3.07148 7.73766 0.833984 10.5002 0.833984C13.2627 0.833984 15.5002 3.07148 15.5002 5.83398C15.5002 8.59648 13.2627 10.834 10.5002 10.834ZM10.5002 9.16732C12.3418 9.16732 13.8335 7.67565 13.8335 5.83398C13.8335 3.99232 12.3418 2.50065 10.5002 2.50065C8.6585 2.50065 7.16683 3.99232 7.16683 5.83398C7.16683 7.67565 8.6585 9.16732 10.5002 9.16732Z" fill="white"/>
</svg>
