<svg width="21" height="20" viewBox="0 0 21 20" fill="none" xmlns="http://www.w3.org/2000/svg">
<path d="M10.5002 11.6663V13.333C9.17408 13.333 7.90231 13.8598 6.96463 14.7975C6.02695 15.7352 5.50016 17.0069 5.50016 18.333H3.8335C3.8335 16.5649 4.53588 14.8692 5.78612 13.619C7.03636 12.3687 8.73205 11.6663 10.5002 11.6663ZM10.5002 10.833C7.73766 10.833 5.50016 8.59551 5.50016 5.83301C5.50016 3.07051 7.73766 0.833008 10.5002 0.833008C13.2627 0.833008 15.5002 3.07051 15.5002 5.83301C15.5002 8.59551 13.2627 10.833 10.5002 10.833ZM10.5002 9.16634C12.3418 9.16634 13.8335 7.67467 13.8335 5.83301C13.8335 3.99134 12.3418 2.49967 10.5002 2.49967C8.6585 2.49967 7.16683 3.99134 7.16683 5.83301C7.16683 7.67467 8.6585 9.16634 10.5002 9.16634ZM12.6627 15.6763C12.557 15.2317 12.557 14.7685 12.6627 14.3238L11.836 13.8463L12.6693 12.403L13.496 12.8805C13.8278 12.5662 14.2289 12.3344 14.6668 12.2038V11.2497H16.3335V12.2038C16.7768 12.3355 17.1768 12.5705 17.5043 12.8805L18.331 12.403L19.1643 13.8463L18.3377 14.3238C18.4432 14.7682 18.4432 15.2311 18.3377 15.6755L19.1643 16.153L18.331 17.5963L17.5043 17.1188C17.1725 17.4331 16.7714 17.6649 16.3335 17.7955V18.7497H14.6668V17.7955C14.2289 17.6649 13.8278 17.4331 13.496 17.1188L12.6693 17.5963L11.836 16.153L12.6627 15.6763ZM15.5002 16.2497C15.8317 16.2497 16.1496 16.118 16.384 15.8836C16.6185 15.6491 16.7502 15.3312 16.7502 14.9997C16.7502 14.6682 16.6185 14.3502 16.384 14.1158C16.1496 13.8814 15.8317 13.7497 15.5002 13.7497C15.1686 13.7497 14.8507 13.8814 14.6163 14.1158C14.3819 14.3502 14.2502 14.6682 14.2502 14.9997C14.2502 15.3312 14.3819 15.6491 14.6163 15.8836C14.8507 16.118 15.1686 16.2497 15.5002 16.2497Z" fill="#677394"/>
</svg>
