<svg width="21" height="20" viewBox="0 0 21 20" fill="none" xmlns="http://www.w3.org/2000/svg">
<path d="M3.00016 15.8335V4.75018C3.00011 4.57912 3.0527 4.41218 3.1508 4.27204C3.2489 4.1319 3.38775 4.02535 3.5485 3.96684L11.6077 1.03684C11.6706 1.01393 11.7382 1.00654 11.8046 1.01529C11.871 1.02404 11.9343 1.04868 11.9892 1.08711C12.0441 1.12555 12.0889 1.17664 12.1198 1.23608C12.1507 1.29551 12.1668 1.36152 12.1668 1.42851V5.55601L17.4302 7.31018C17.5962 7.36547 17.7406 7.47161 17.8429 7.61355C17.9452 7.7555 18.0002 7.92604 18.0002 8.10101V15.8335H19.6668V17.5002H1.3335V15.8335H3.00016ZM4.66683 15.8335H10.5002V3.21268L4.66683 5.33434V15.8335ZM16.3335 15.8335V8.70184L12.1668 7.31268V15.8335H16.3335Z" fill="#677394"/>
</svg>
