<svg width="21" height="22" viewBox="0 0 21 22" fill="none" xmlns="http://www.w3.org/2000/svg">
<g opacity="0.8">
<path d="M10.4918 2.46875C5.7832 2.46875 1.96875 6.29141 1.96875 11C1.96875 15.7086 5.7832 19.5312 10.4918 19.5312C15.2086 19.5312 19.0312 15.7086 19.0312 11C19.0312 6.29141 15.2086 2.46875 10.4918 2.46875ZM10.5 17.825C6.73066 17.825 3.675 14.7693 3.675 11C3.675 7.23066 6.73066 4.175 10.5 4.175C14.2693 4.175 17.325 7.23066 17.325 11C17.325 14.7693 14.2693 17.825 10.5 17.825Z" fill="#515667" fill-opacity="0.9"/>
<path d="M10.9267 6.73438H9.64697V11.8531L14.1259 14.5396L14.7657 13.4896L10.9267 11.2133V6.73438Z" fill="#515667" fill-opacity="0.9"/>
</g>
</svg>
