<svg width="20" height="20" viewBox="0 0 20 20" fill="none" xmlns="http://www.w3.org/2000/svg">
<path d="M14.1665 2.50065H17.4998C17.7209 2.50065 17.9328 2.58845 18.0891 2.74473C18.2454 2.90101 18.3332 3.11297 18.3332 3.33398V16.6673C18.3332 16.8883 18.2454 17.1003 18.0891 17.2566C17.9328 17.4129 17.7209 17.5007 17.4998 17.5007H2.49984C2.27882 17.5007 2.06686 17.4129 1.91058 17.2566C1.7543 17.1003 1.6665 16.8883 1.6665 16.6673V3.33398C1.6665 3.11297 1.7543 2.90101 1.91058 2.74473C2.06686 2.58845 2.27882 2.50065 2.49984 2.50065H5.83317V0.833984H7.49984V2.50065H12.4998V0.833984H14.1665V2.50065ZM16.6665 9.16732H3.33317V15.834H16.6665V9.16732ZM12.4998 4.16732H7.49984V5.83398H5.83317V4.16732H3.33317V7.50065H16.6665V4.16732H14.1665V5.83398H12.4998V4.16732ZM4.99984 10.834H6.6665V12.5007H4.99984V10.834ZM9.1665 10.834H10.8332V12.5007H9.1665V10.834ZM13.3332 10.834H14.9998V12.5007H13.3332V10.834Z" fill="white"/>
</svg>
