<svg width="21" height="20" viewBox="0 0 21 20" fill="none" xmlns="http://www.w3.org/2000/svg">
<path d="M3.83398 18.333C3.83398 16.5649 4.53636 14.8692 5.78661 13.619C7.03685 12.3687 8.73254 11.6663 10.5007 11.6663C12.2688 11.6663 13.9645 12.3687 15.2147 13.619C16.4649 14.8692 17.1673 16.5649 17.1673 18.333H3.83398ZM11.334 13.4022V16.6663H15.2165C14.9186 15.8258 14.4017 15.0801 13.7191 14.5063C13.0366 13.9325 12.2132 13.5513 11.334 13.4022ZM9.66732 16.6663V13.4022C8.78815 13.5513 7.96474 13.9325 7.28219 14.5063C6.59964 15.0801 6.08271 15.8258 5.78482 16.6663H9.66732ZM10.5007 10.833C7.73815 10.833 5.50065 8.59551 5.50065 5.83301C5.50065 3.07051 7.73815 0.833008 10.5007 0.833008C13.2632 0.833008 15.5007 3.07051 15.5007 5.83301C15.5007 8.59551 13.2632 10.833 10.5007 10.833ZM10.5007 9.16634C12.3423 9.16634 13.834 7.67467 13.834 5.83301C13.834 3.99134 12.3423 2.49967 10.5007 2.49967C8.65898 2.49967 7.16732 3.99134 7.16732 5.83301C7.16732 7.67467 8.65898 9.16634 10.5007 9.16634Z" fill="white"/>
</svg>
