<svg width="21" height="20" viewBox="0 0 21 20" fill="none" xmlns="http://www.w3.org/2000/svg">
<path d="M6.33527 5.29662C5.93978 5.29662 5.61917 5.61723 5.61917 6.01272C5.61917 6.40822 5.93978 6.72883 6.33527 6.72883H15.7143C16.1098 6.72883 16.4304 6.40822 16.4304 6.01272C16.4304 5.61723 16.1098 5.29662 15.7143 5.29662H6.33527Z" fill="white"/>
<path d="M9.19969 8.87714C8.80419 8.87714 8.48358 9.19775 8.48358 9.59324C8.48358 9.98873 8.80419 10.3093 9.19969 10.3093H15.7143C16.1098 10.3093 16.4304 9.98873 16.4304 9.59324C16.4304 9.19775 16.1098 8.87714 15.7143 8.87714H9.19969Z" fill="white"/>
<path fill-rule="evenodd" clip-rule="evenodd" d="M18.0084 1.08175C18.1632 1.00188 18.3416 0.980127 18.511 1.02043C18.6667 1.0587 18.805 1.14807 18.9038 1.27425C19.0026 1.40043 19.0563 1.55612 19.0562 1.71639V15.5208C19.0562 17.562 17.107 19.34 14.9977 19.34C14.1474 19.34 13.362 19.0711 12.7274 18.6163C12.6888 18.6214 12.6498 18.6239 12.6106 18.6239H5.01272C3.04479 18.6239 1.28913 17.7587 0.629347 16.4097C0.662426 16.4695 0 15.6101 0 13.7528V13.7516C0.000884735 13.1824 0.227166 12.6367 0.629347 12.2339C1.03153 11.8311 1.57687 11.604 2.14608 11.6022L2.14831 11.6022H3.30189V1.72892C3.29969 1.5548 3.36004 1.38567 3.47196 1.25227C3.57581 1.13012 3.71763 1.04636 3.87474 1.01439C4.03184 0.982413 4.19512 1.00408 4.33845 1.07593L5.4502 1.63136L6.56329 1.07593C6.66289 1.02624 6.77267 1.00038 6.88397 1.00038C6.99527 1.00038 7.10505 1.02624 7.20465 1.07593L8.31461 1.63225L9.44248 1.07503C9.54235 1.02545 9.65242 0.999869 9.76392 1.00033C9.87542 1.0008 9.98528 1.0273 10.0847 1.07772L11.179 1.63001L12.2818 1.07638C12.3815 1.0263 12.4916 1.00022 12.6032 1.00022C12.7148 1.00022 12.8248 1.0263 12.9245 1.07638L14.0336 1.6318L15.1574 1.07638C15.2569 1.02666 15.3665 1.00078 15.4777 1.00078C15.5888 1.00078 15.6985 1.02666 15.7979 1.07638L16.9079 1.63136L18.0084 1.08175ZM12.5868 12.7714C12.5341 12.4893 12.3974 12.2274 12.1917 12.0217C11.9231 11.7531 11.5588 11.6022 11.179 11.6022H4.49539V3.05699C4.49352 2.90774 4.54472 2.76278 4.63969 2.64843C4.7278 2.54374 4.84814 2.47194 4.98144 2.44454C5.11473 2.41713 5.25328 2.43571 5.37489 2.49729L6.31819 2.97336L7.26263 2.49729C7.34713 2.4547 7.44028 2.43253 7.53472 2.43253C7.62916 2.43253 7.7223 2.4547 7.80681 2.49729L8.74859 2.97413L9.70556 2.49652C9.7903 2.45402 9.88369 2.43209 9.9783 2.43249C10.0729 2.43289 10.1661 2.45561 10.2505 2.49882L11.179 2.97221L12.1147 2.49767C12.1993 2.45475 12.2927 2.4324 12.3874 2.4324C12.482 2.4324 12.5754 2.45475 12.66 2.49767L13.601 2.97374L14.5546 2.49767C14.639 2.45506 14.732 2.43288 14.8263 2.43288C14.9206 2.43288 15.0137 2.45506 15.098 2.49767L16.0398 2.97336L16.9736 2.50227C17.105 2.43382 17.2563 2.41517 17.4001 2.44972C17.5321 2.48252 17.6495 2.55912 17.7333 2.66727C17.8172 2.77543 17.8627 2.90887 17.8626 3.04625V15.5208C17.8626 16.7455 16.2638 17.9078 14.9982 17.9078C13.7326 17.9078 12.7062 16.8687 12.7062 15.644L12.6112 13.2731V12.7957L12.5868 12.7714ZM11.179 13.0344H2.14962C1.95942 13.0353 1.77726 13.1113 1.64286 13.2459C1.50835 13.3806 1.43262 13.5631 1.43221 13.7534C1.43221 14.8767 1.74333 15.299 1.99273 15.7591C2.4886 16.6737 3.38769 17.1917 5.01272 17.1917H11.5285C11.3038 16.7209 11.1785 16.1966 11.1785 15.644L11.179 13.0344Z" fill="white"/>
</svg>
