<svg width="238" height="56" viewBox="0 0 238 56" fill="none" xmlns="http://www.w3.org/2000/svg">
<path d="M0.75 51.8333H0V47.5H0.75V43.1667H0V38.8333H0.75V34.5H0V30.1667H0.75V25.8333H0V21.5H0.75V17.1667H0V12.8333H0.75V8.5H0V4.16667H0.75V2C0.75 1.30964 1.30964 0.75 2 0.75H4.4375V0H9.3125V0.75H14.1875V0H19.0625V0.75H23.9375V0H28.8125V0.75H33.6875V0H38.5625V0.75H43.4375V0H48.3125V0.75H53.1875V0H58.0625V0.75H62.9375V0H67.8125V0.75H72.6875V0H77.5625V0.75H82.4375V0H87.3125V0.75H92.1875V0H97.0625V0.75H101.937V0H106.813V0.75H111.688V0H116.562V0.75H121.438V0H126.312V0.75H131.188V0H136.062V0.75H140.938V0H145.812V0.75H150.688V0H155.562V0.75H160.438V0H165.312V0.75H170.188V0H175.062V0.75H179.938V0H184.812V0.75H189.688V0H194.562V0.75H199.438V0H204.312V0.75H209.188V0H214.062V0.75H218.938V0H223.812V0.75H228.688V0H233.562V0.75H236C236.69 0.75 237.25 1.30964 237.25 2V4.16667H238V8.5H237.25V12.8333H238V17.1667H237.25V21.5H238V25.8333H237.25V30.1667H238V34.5H237.25V38.8333H238V43.1667H237.25V47.5H238V51.8333H237.25V54C237.25 54.6904 236.69 55.25 236 55.25H233.562V56H228.688V55.25H223.812V56H218.938V55.25H214.062V56H209.188V55.25H204.312V56H199.438V55.25H194.562V56H189.688V55.25H184.812V56H179.938V55.25H175.062V56H170.188V55.25H165.312V56H160.438V55.25H155.562V56H150.688V55.25H145.812V56H140.938V55.25H136.062V56H131.188V55.25H126.312V56H121.438V55.25H116.562V56H111.688V55.25H106.812V56H101.938V55.25H97.0625V56H92.1875V55.25H87.3125V56H82.4375V55.25H77.5625V56H72.6875V55.25H67.8125V56H62.9375V55.25H58.0625V56H53.1875V55.25H48.3125V56H43.4375V55.25H38.5625V56H33.6875V55.25H28.8125V56H23.9375V55.25H19.0625V56H14.1875V55.25H9.3125V56H4.4375V55.25H2C1.30964 55.25 0.75 54.6904 0.75 54V51.8333Z" fill="white" stroke="#A4B2C6" stroke-width="1.5" stroke-dasharray="5 5 5 5"/>
</svg>
