<svg width="740" height="72" viewBox="0 0 740 72" fill="none" xmlns="http://www.w3.org/2000/svg">
<path d="M0.75 67.1667H0V61.5H0.75V55.8333H0V50.1667H0.75V44.5H0V38.8333H0.75V33.1667H0V27.5H0.75V21.8333H0V16.1667H0.75V10.5H0V4.83333H0.75V2C0.75 1.30964 1.30964 0.75 2 0.75H4.4875V0H9.46045V0.75H14.4334V0H19.4064V0.75H24.3793V0H29.3523V0.75H34.3252V0H39.2982V0.75H44.2712V0H49.2441V0.75H54.2171V0H59.1901V0.75H64.163V0H69.136V0.75H74.1089V0H79.0819V0.75H84.0549V0H89.0278V0.75H94.0008V0H98.9738V0.75H103.947V0H108.92V0.75H113.893V0H118.866V0.75H123.839V0H128.812V0.75H133.785V0H138.757V0.75H143.73V0H148.703V0.75H153.676V0H158.649V0.75H163.622V0H168.595V0.75H173.568V0H178.541V0.75H183.514V0H188.487V0.75H193.46V0H198.433V0.75H203.406V0H208.379V0.75H213.352V0H218.325V0.75H223.298V0H228.271V0.75H233.244V0H238.217V0.75H243.19V0H248.163V0.75H253.136V0H258.109V0.75H263.081V0H268.054V0.75H273.027V0H278V0.75H282.973V0H287.946V0.75H292.919V0H297.892V0.75H302.865V0H307.838V0.75H312.811V0H317.784V0.75H322.757V0H327.73V0.75H332.703V0H337.676V0.75H342.649V0H347.622V0.75H352.595V0H357.568V0.75H362.541V0H367.514V0.75H372.487V0H377.46V0.75H382.433V0H387.406V0.75H392.378V0H397.351V0.75H402.324V0H407.297V0.75H412.27V0H417.243V0.75H422.216V0H427.189V0.75H432.162V0H437.135V0.75H442.108V0H447.081V0.75H452.054V0H457.027V0.75H462V0H466.973V0.75H471.946V0H476.919V0.75H481.892V0H486.865V0.75H491.838V0H496.811V0.75H501.784V0H506.757V0.75H511.73V0H516.703V0.75H521.676V0H526.649V0.75H531.622V0H536.595V0.75H541.568V0H546.54V0.75H551.513V0H556.486V0.75H561.459V0H566.432V0.75H571.405V0H576.378V0.75H581.351V0H586.324V0.75H591.297V0H596.27V0.75H601.243V0H606.216V0.75H611.189V0H616.162V0.75H621.135V0H626.108V0.75H631.081V0H636.054V0.75H641.027V0H646V0.75H650.973V0H655.946V0.75H660.919V0H665.892V0.75H670.865V0H675.838V0.75H680.811V0H685.784V0.75H690.757V0H695.73V0.75H700.703V0H705.676V0.75H710.649V0H715.622V0.75H720.595V0H725.568V0.75H730.54V0H735.513V0.75H738C738.69 0.75 739.25 1.30963 739.25 2V4.83333H740V10.5H739.25V16.1667H740V21.8333H739.25V27.5H740V33.1667H739.25V38.8333H740V44.5H739.25V50.1667H740V55.8333H739.25V61.5H740V67.1667H739.25V70C739.25 70.6904 738.69 71.25 738 71.25H735.512V72H730.539V71.25H725.567V72H720.594V71.25H715.621V72H710.648V71.25H705.675V72H700.702V71.25H695.729V72H690.756V71.25H685.783V72H680.81V71.25H675.837V72H670.864V71.25H665.891V72H660.918V71.25H655.945V72H650.972V71.25H645.999V72H641.026V71.25H636.053V72H631.08V71.25H626.107V72H621.134V71.25H616.161V72H611.188V71.25H606.215V72H601.242V71.25H596.27V72H591.297V71.25H586.324V72H581.351V71.25H576.378V72H571.405V71.25H566.432V72H561.459V71.25H556.486V72H551.513V71.25H546.54V72H541.567V71.25H536.594V72H531.621V71.25H526.648V72H521.675V71.25H516.702V72H511.729V71.25H506.756V72H501.783V71.25H496.81V72H491.837V71.25H486.864V72H481.891V71.25H476.918V72H471.945V71.25H466.973V72H462V71.25H457.027V72H452.054V71.25H447.081V72H442.108V71.25H437.135V72H432.162V71.25H427.189V72H422.216V71.25H417.243V72H412.27V71.25H407.297V72H402.324V71.25H397.351V72H392.378V71.25H387.405V72H382.432V71.25H377.459V72H372.486V71.25H367.513V72H362.54V71.25H357.567V72H352.594V71.25H347.621V72H342.648V71.25H337.676V72H332.703V71.25H327.73V72H322.757V71.25H317.784V72H312.811V71.25H307.838V72H302.865V71.25H297.892V72H292.919V71.25H287.946V72H282.973V71.25H278V72H273.027V71.25H268.054V72H263.081V71.25H258.108V72H253.135V71.25H248.162V72H243.189V71.25H238.216V72H233.243V71.25H228.27V72H223.297V71.25H218.324V72H213.351V71.25H208.378V72H203.405V71.25H198.432V72H193.459V71.25H188.486V72H183.514V71.25H178.541V72H173.568V71.25H168.595V72H163.622V71.25H158.649V72H153.676V71.25H148.703V72H143.73V71.25H138.757V72H133.784V71.25H128.811V72H123.838V71.25H118.865V72H113.892V71.25H108.919V72H103.946V71.25H98.973V72H94V71.25H89.027V72H84.054V71.25H79.0811V72H74.1081V71.25H69.1351V72H64.1622V71.25H59.1892V72H54.2162V71.25H49.2432V72H44.2703V71.25H39.2973V72H34.3243V71.25H29.3514V72H24.3784V71.25H19.4054V72H14.4324V71.25H9.45947V72H4.48649V71.25H2.00001C1.30965 71.25 0.75 70.6904 0.75 70V67.1667Z" fill="white" stroke="#E0E5EC" stroke-width="1.5" stroke-dasharray="5 5 5 5"/>
</svg>
