<svg width="18" height="20" viewBox="0 0 18 20" fill="none" xmlns="http://www.w3.org/2000/svg">
<path fill-rule="evenodd" clip-rule="evenodd" d="M5.12905 10.9354L4.47285 9.79068L4.24446 9.88485C1.82639 10.923 0 13.0406 0 16.2406C0.304172 16.4367 0.643918 16.6165 1.01297 16.7787C1.17731 13.8854 2.88587 11.9385 5.12905 10.9354ZM11.2442 1.70415C10.5263 0.67335 9.34097 0 8.00012 0C5.80962 0 4.03409 1.79707 4.03409 4.01388C4.03409 5.38799 4.71643 6.60089 5.75663 7.32423C5.30143 6.67094 5.03409 5.87399 5.03409 5.01388C5.03409 2.79708 6.80962 1 9.00012 1C9.83311 1 10.6061 1.25987 11.2442 1.70415ZM13.5274 11.7909C16.0577 12.7912 18 14.9405 18 18.2405C14.3627 20.5865 5.63756 20.5865 1.99999 18.2405C1.99999 14.9405 3.94231 12.7917 6.47284 11.7906L8.70404 15.6796L9.33851 13.5517L8.35957 12.3776H10.0001H11.6406L10.6617 13.5517L11.2962 15.6796L13.5274 11.7909ZM13.9662 6.01391C13.9662 3.7971 12.1906 2.00003 10.0001 2.00003C7.80963 2.00003 6.0341 3.7971 6.0341 6.01391C6.0341 8.23049 7.80963 10.0276 10.0001 10.0276C12.1906 10.0276 13.9662 8.23049 13.9662 6.01391Z" fill="#515667"/>
</svg>
