<svg width="19" height="20" viewBox="0 0 19 20" fill="none" xmlns="http://www.w3.org/2000/svg">
<path fill-rule="evenodd" clip-rule="evenodd" d="M5.62905 10.9354L4.97285 9.79068L4.74446 9.88485C2.32639 10.923 0.5 13.0406 0.5 16.2406C0.804172 16.4367 1.14392 16.6165 1.51297 16.7787C1.67731 13.8854 3.38587 11.9385 5.62905 10.9354ZM11.7442 1.70415C11.0263 0.67335 9.84097 0 8.50012 0C6.30962 0 4.53409 1.79707 4.53409 4.01388C4.53409 5.38799 5.21643 6.60089 6.25663 7.32423C5.80143 6.67094 5.53409 5.87399 5.53409 5.01388C5.53409 2.79708 7.30962 1 9.50012 1C10.3331 1 11.1061 1.25987 11.7442 1.70415ZM14.0274 11.7909C16.5577 12.7912 18.5 14.9405 18.5 18.2405C14.8627 20.5865 6.13756 20.5865 2.49999 18.2405C2.49999 14.9405 4.44231 12.7917 6.97284 11.7906L9.20404 15.6796L9.83851 13.5517L8.85957 12.3776H10.5001H12.1406L11.1617 13.5517L11.7962 15.6796L14.0274 11.7909ZM14.4662 6.01391C14.4662 3.7971 12.6906 2.00003 10.5001 2.00003C8.30963 2.00003 6.5341 3.7971 6.5341 6.01391C6.5341 8.23049 8.30963 10.0276 10.5001 10.0276C12.6906 10.0276 14.4662 8.23049 14.4662 6.01391Z" fill="#515667"/>
</svg>
