<svg width="20" height="20" viewBox="0 0 20 20" fill="none" xmlns="http://www.w3.org/2000/svg">
<g id="Icons/Search">
<path id="Mask" fill-rule="evenodd" clip-rule="evenodd" d="M16.172 9.0862C16.172 5.17284 12.9992 2 9.08582 2C5.17251 2 2 5.17279 2 9.0862C2 12.9996 5.17251 16.1724 9.08582 16.1724C10.682 16.1724 12.155 15.6446 13.3397 14.7539L16.5044 17.9186C16.8949 18.3091 17.5281 18.3091 17.9186 17.9186C18.3091 17.5281 18.3091 16.8949 17.9186 16.5044L14.7539 13.3396C15.6443 12.155 16.172 10.6822 16.172 9.0862ZM9.08582 14.1724C11.8946 14.1724 14.172 11.895 14.172 9.0862C14.172 6.27741 11.8946 4 9.08582 4C6.27712 4 4 6.27732 4 9.0862C4 11.8951 6.27712 14.1724 9.08582 14.1724Z" fill="#445470"/>
</g>
</svg>
