<svg width="161" height="119" viewBox="0 0 161 119" fill="none" xmlns="http://www.w3.org/2000/svg">
<g id="Group 1000003796">
<path id="Vector" fill-rule="evenodd" clip-rule="evenodd" d="M79.8481 0C98.6869 0 106.624 13.4795 120.224 23.9577C138.225 37.8258 156.224 28.7981 159.106 75.6555C161.671 117.36 129.663 80.1709 84.5318 95.1095C39.4003 110.048 -6.56421 116.064 7.07505 67.727C20.7143 19.3896 36.0749 0 79.8481 0Z" fill="#E0E8F5"/>
<path id="Vector_2" fill-rule="evenodd" clip-rule="evenodd" d="M69.7303 95.4457H27.4473C27.5988 94.8078 27.9612 94.2397 28.4757 93.8333C28.9902 93.4269 29.6268 93.206 30.2825 93.2063C30.3476 93.2063 30.4143 93.2063 30.4803 93.2133C30.7224 92.6201 31.0889 92.0858 31.5551 91.6464C32.0213 91.2069 32.5763 90.8726 33.1826 90.6658C33.789 90.4591 34.4327 90.3848 35.0702 90.448C35.7077 90.5111 36.3243 90.7103 36.8783 91.032C37.369 89.4174 38.4704 88.0581 39.9482 87.2433C41.4259 86.4285 43.1633 86.2226 44.7905 86.6694C45.5729 84.9406 46.8812 83.503 48.5287 82.5615C50.1762 81.6199 52.0789 81.2225 53.9655 81.426C55.8522 81.6294 57.6264 82.4232 59.0354 83.6943C60.4443 84.9654 61.416 86.6489 61.8119 88.5047C61.884 88.5047 61.9562 88.4993 62.0299 88.4993C63.3548 88.4994 64.6343 88.9824 65.6286 89.858C66.623 90.7336 67.2641 91.9417 67.4319 93.2559C67.9856 93.3598 68.4974 93.6219 68.9053 94.0105C69.3132 94.3992 69.5998 94.8977 69.7303 95.4457Z" fill="white"/>
<path id="Vector_3" fill-rule="evenodd" clip-rule="evenodd" d="M150.009 58.6851H113.293C113.424 58.1311 113.739 57.6376 114.185 57.2846C114.632 56.9315 115.185 56.7395 115.754 56.7397C115.812 56.7397 115.869 56.7397 115.926 56.7459C116.137 56.2308 116.455 55.7669 116.86 55.3853C117.265 55.0037 117.747 54.7134 118.273 54.5339C118.8 54.3544 119.359 54.2898 119.913 54.3446C120.466 54.3994 121.002 54.5723 121.483 54.8516C121.909 53.4494 122.866 52.2691 124.15 51.5617C125.433 50.8543 126.942 50.6756 128.356 51.0638C129.035 49.5627 130.171 48.3144 131.602 47.4968C133.032 46.6793 134.684 46.3343 136.322 46.5109C137.961 46.6876 139.501 47.377 140.725 48.4808C141.948 49.5846 142.792 51.0464 143.135 52.6579C143.199 52.6579 143.262 52.6579 143.325 52.6579C144.476 52.6577 145.587 53.0771 146.45 53.8373C147.313 54.5976 147.87 55.6466 148.015 56.7878C148.495 56.8778 148.939 57.1049 149.293 57.4416C149.646 57.7783 149.895 58.2102 150.009 58.6851Z" fill="white"/>
<path id="Vector_4" fill-rule="evenodd" clip-rule="evenodd" d="M71.7763 21.7513H35.0605C35.192 21.1973 35.5065 20.7039 35.9532 20.3509C36.3998 19.9978 36.9525 19.8058 37.5219 19.8058C37.5793 19.8058 37.6374 19.8058 37.6941 19.812C37.9043 19.297 38.2226 18.833 38.6274 18.4515C39.0322 18.0699 39.5141 17.7796 40.0406 17.6C40.5671 17.4205 41.126 17.356 41.6796 17.4108C42.2332 17.4656 42.7686 17.6384 43.2497 17.9177C43.6762 16.5156 44.6331 15.3352 45.9167 14.6278C47.2002 13.9204 48.7092 13.7418 50.1225 14.1299C50.8019 12.6289 51.9379 11.3807 53.3685 10.5632C54.799 9.74575 56.4511 9.40071 58.0893 9.57731C59.7274 9.7539 61.268 10.4431 62.4915 11.5467C63.7149 12.6503 64.5588 14.1119 64.9028 15.7232C64.9664 15.7232 65.0285 15.7194 65.0921 15.7194C66.2423 15.72 67.3529 16.1396 68.2162 16.8997C69.0795 17.6598 69.6364 18.7083 69.7828 19.8492C70.2632 19.94 70.7071 20.1679 71.0608 20.5054C71.4146 20.8429 71.6631 21.2756 71.7763 21.7513Z" fill="white"/>
<path id="Vector_5" fill-rule="evenodd" clip-rule="evenodd" d="M26.3328 110.997C38.8659 110.997 49.0269 112.155 49.0269 113.585C49.0269 115.014 38.8651 116.171 26.3328 116.171C13.8004 116.171 3.63867 115.012 3.63867 113.585C3.63867 112.158 13.795 110.997 26.3328 110.997Z" fill="#C4D1EB"/>
<path id="Vector_6" fill-rule="evenodd" clip-rule="evenodd" d="M138.044 113.187C150.578 113.187 160.739 114.345 160.739 115.774C160.739 117.202 150.577 118.36 138.044 118.36C125.511 118.36 115.351 117.202 115.351 115.774C115.351 114.345 125.511 113.187 138.044 113.187Z" fill="#C4D1EB"/>
<path id="Vector_7" fill-rule="evenodd" clip-rule="evenodd" d="M137.945 100.173C137.945 100.173 141.392 102.661 141.935 103.4C142.716 104.469 136.097 106.464 136.815 105.214C136.981 104.929 137.458 103.957 137.479 103.866C137.589 103.355 136.186 101.987 136.186 101.987L137.945 100.173Z" fill="#F9AF79"/>
<path id="Vector_8" fill-rule="evenodd" clip-rule="evenodd" d="M135.029 107.306L137.37 103.996C137.37 103.996 138.828 103.659 140.331 101.968C140.331 101.968 141.678 102.479 142.507 103.597C141.265 104.884 139.934 106.083 138.526 107.186C137.513 108.028 136.359 108.685 135.118 109.125C133.139 109.794 135.029 107.306 135.029 107.306Z" fill="#0E2952"/>
<path id="Vector_9" fill-rule="evenodd" clip-rule="evenodd" d="M125.313 25.8753C125.313 25.8753 125.199 26.4067 125.172 26.5882C125.144 26.8023 125.109 27.45 125.109 27.45C125.109 27.45 125.124 29.7112 125.293 29.705C125.461 29.6988 125.842 29.5033 125.892 29.3676C125.942 29.2318 125.898 28.9207 125.948 28.7842C125.981 28.7057 126.041 28.6413 126.117 28.6023C126.193 28.5633 126.28 28.5522 126.363 28.5709C126.54 28.6291 126.558 29.3932 126.558 29.3932C126.558 29.3932 126.569 30.0137 126.358 30.3853C125.627 31.6613 125.435 31.486 125.35 31.6481C125.245 31.849 125.552 34.8813 125.552 34.8813C125.552 34.8813 126.756 43.8019 126.818 44.2813V44.2883C126.508 44.5148 126.081 44.4892 125.722 44.5474C124.559 44.9034 124.304 44.6249 123.14 44.9034C123.058 43.4785 122.847 33.4749 122.837 32.451C122.837 32.451 122.349 31.1556 122.068 30.3333C121.786 29.5111 121.883 28.6229 121.841 28.3832C121.776 27.7618 121.79 27.1348 121.882 26.5168C122.007 25.6356 122.297 26.5432 122.297 26.5432C122.297 26.5432 122.36 28.2273 122.492 28.2079C122.596 28.1885 122.507 27.2685 122.636 26.2965C122.668 26.0444 122.701 25.7985 122.733 25.5712C122.821 24.9747 123.216 24.8731 123.226 25.5131C123.235 25.803 123.221 26.0932 123.186 26.3811C123.144 26.6728 123.198 26.9512 123.198 27.2041C123.198 27.6959 123.194 28.0527 123.216 28.0458C123.238 28.0388 123.311 28.1303 123.355 27.8712C123.408 27.547 123.367 26.8411 123.481 26.3811C123.545 26.122 123.646 25.565 123.646 25.565C123.646 25.565 123.957 24.7614 124.013 24.7676C124.306 24.794 124.253 25.4091 124.119 25.7466C124.147 26.0118 124.024 26.5952 124.024 26.5952C124.024 26.5952 124.041 27.8363 124.218 27.8456C124.296 27.8456 124.373 27.087 124.572 26.3617C124.755 25.6884 125.053 25.043 125.192 25.0655C125.434 25.0981 125.313 25.8753 125.313 25.8753Z" fill="#F9AF79"/>
<path id="Vector_10" fill-rule="evenodd" clip-rule="evenodd" d="M143.217 74.634L142.674 77.3295L128.97 89.7944L138.778 99.7234L136.132 102.425C136.132 102.425 121.643 91.7872 121.121 90.3948C120.315 88.2499 131.506 74.0273 131.506 74.0273L143.217 74.634Z" fill="#0E2952"/>
<path id="Vector_11" fill-rule="evenodd" clip-rule="evenodd" d="M152.819 107.345C152.819 107.345 156.266 109.832 156.808 110.571C157.591 111.641 150.971 113.636 151.693 112.385C151.858 112.1 152.335 111.135 152.357 111.038C152.467 110.526 151.062 109.159 151.062 109.159L152.819 107.345Z" fill="#F9AF79"/>
<path id="Vector_12" fill-rule="evenodd" clip-rule="evenodd" d="M149.903 114.49L152.244 111.179C152.244 111.179 153.799 110.901 155.298 109.217C155.298 109.217 156.552 109.671 157.381 110.784C156.141 112.073 154.811 113.273 153.402 114.374C153.402 114.374 151.971 115.644 149.989 116.313C148.007 116.982 149.903 114.49 149.903 114.49Z" fill="#0E2952"/>
<path id="Vector_13" fill-rule="evenodd" clip-rule="evenodd" d="M142.747 75.8852L142.132 92.8988L153.72 107.106L151.005 109.607C151.005 109.607 137.551 98.0619 136.075 94.8489C135.158 92.846 132.075 74.8232 132.075 74.8232L142.747 75.8852Z" fill="#20386F"/>
<path id="Vector_14" fill-rule="evenodd" clip-rule="evenodd" d="M131.693 74.4923C132.808 71.9728 132.682 53.9415 137.019 49.7178C138.544 49.9699 139.633 50.1188 139.889 50.1832C140.114 52.0449 140.364 58.8579 140.518 65.1039C140.619 69.2695 140.513 73.6367 141.026 75.9359C141.344 77.3617 130.676 76.7822 131.693 74.4923Z" fill="white"/>
<path id="Vector_15" fill-rule="evenodd" clip-rule="evenodd" d="M143.436 51.1165C144.608 51.3779 145.481 51.9155 146.965 54.0549C149.353 57.1686 153.475 63.2082 153.481 63.5232C153.488 63.9327 152.229 74.055 152.229 74.055L148.946 74.1186L148.293 65.5997C146.685 63.8831 144.731 61.0867 144.516 60.802C144.448 60.7112 144.772 67.1186 144.772 68.1355C144.772 69.1525 146.426 77.2966 146.426 77.2966C146.426 77.2966 141.51 78.5083 140.549 76.3061C137.606 69.5675 139.866 50.1748 139.866 50.1748C139.866 50.1748 142.559 50.9156 143.436 51.1165Z" fill="#223F81"/>
<path id="Vector_16" fill-rule="evenodd" clip-rule="evenodd" d="M136.012 50.7674C136.012 50.7674 134.018 56.0989 132.568 55.3806C131.118 54.6623 123.212 46.038 123.13 45.6361C123.049 45.2343 122.486 35.0501 122.486 35.0501L125.706 34.4023L127.866 42.6691C127.866 42.6691 133.516 48.4411 134.724 49.005C135.071 49.1643 135.372 49.4099 135.597 49.7184C135.823 50.027 135.965 50.3881 136.012 50.7674Z" fill="#223F81"/>
<path id="Vector_17" fill-rule="evenodd" clip-rule="evenodd" d="M131.258 75.6956C130.283 75.6956 129.921 75.5598 129.273 75.3651C129.273 75.3651 131.13 64.9024 132.209 54.5234C132.635 50.4223 133.032 48.7444 134.723 49.0423C135.211 49.1268 136.535 49.6318 137.016 49.7164C132.766 61.7344 132.749 70.9925 132.151 73.6741C131.85 75.023 131.587 75.7026 131.258 75.6956Z" fill="#223F81"/>
<path id="Vector_18" fill-rule="evenodd" clip-rule="evenodd" d="M137.464 47.8975L137.02 49.718C137.02 49.718 136.919 51.2982 137.653 51.4409C138.538 51.6092 139.853 50.2882 139.853 50.2882L140.615 45.1631L137.464 47.8975Z" fill="#F7A390"/>
<path id="Vector_19" fill-rule="evenodd" clip-rule="evenodd" d="M137.464 47.8975L137.02 49.718C137.02 49.718 136.919 51.2982 137.653 51.4409C138.538 51.6092 139.853 50.2882 139.853 50.2882L140.615 45.1631L137.464 47.8975Z" fill="#F9AF79"/>
<path id="Vector_20" fill-rule="evenodd" clip-rule="evenodd" d="M140.608 45.1816L137.463 47.8966L137.133 49.2572C138.334 48.9655 140.046 47.6437 140.608 45.1816Z" fill="#ED7D57"/>
<path id="Vector_21" fill-rule="evenodd" clip-rule="evenodd" d="M137.455 40.4727C136.696 40.4727 136.012 40.997 135.744 41.7549C135.442 42.6109 135.213 43.4908 135.059 44.3853C134.725 46.3548 135.849 48.156 136.823 48.305C137.797 48.4539 140.125 47.7992 140.639 45.0074C140.861 43.8152 141.149 42.2413 140.166 41.4182C139.401 40.7767 138.329 40.4727 137.455 40.4727Z" fill="#F9AF79"/>
<path id="Vector_22" fill-rule="evenodd" clip-rule="evenodd" d="M140.323 47.1387C140.323 47.1387 143.764 44.0677 143.914 41.6708C144.063 39.2738 141.853 37.997 139.958 37.9257C139.184 37.8993 138.409 37.9406 137.643 38.049C135.747 38.2887 134.518 39.1241 134.951 40.6794C135.531 42.7653 139.465 41.0029 140.269 41.6506C140.933 42.189 139.858 43.4712 140.501 43.9576C141.108 44.423 140.799 44.2679 140.599 45.1428C140.464 45.8014 140.371 46.4681 140.323 47.1387Z" fill="#20386F"/>
<path id="Vector_23" fill-rule="evenodd" clip-rule="evenodd" d="M141.65 44.3574C141.564 44.9283 141.213 45.3557 140.864 45.3037C140.515 45.2518 140.304 44.7468 140.389 44.1704C140.474 43.5941 140.827 43.1721 141.173 43.2241C141.518 43.276 141.733 43.7826 141.65 44.3574Z" fill="#F9AF79"/>
<path id="Vector_24" fill-rule="evenodd" clip-rule="evenodd" d="M138.093 44.6206C138.28 44.678 138.646 43.9845 138.193 43.8449C137.95 43.7712 137.787 44.5252 138.093 44.6206Z" fill="#20386F"/>
<path id="Vector_25" fill-rule="evenodd" clip-rule="evenodd" d="M135.726 43.9408C135.539 43.8826 135.612 43.1014 136.066 43.2426C136.309 43.3148 136.033 44.0362 135.726 43.9408Z" fill="#20386F"/>
<path id="Vector_26" fill-rule="evenodd" clip-rule="evenodd" d="M138.231 43.1428C137.927 43.0614 137.861 43.3135 138.06 43.4477C138.118 43.488 139.267 44.1031 139.236 44.0116C139.179 43.8231 138.81 43.2972 138.231 43.1428Z" fill="#20386F"/>
<path id="Vector_27" fill-rule="evenodd" clip-rule="evenodd" d="M136.564 42.6008C136.867 42.6908 136.797 42.9414 136.555 42.9515C136.443 42.9515 135.172 42.8863 135.276 42.8041C135.464 42.6825 135.677 42.6016 135.898 42.5666C136.12 42.5316 136.347 42.5433 136.564 42.6008Z" fill="#20386F"/>
<path id="Vector_28" fill-rule="evenodd" clip-rule="evenodd" d="M136.054 45.3594C136.709 45.6767 136.683 45.3455 136.482 45.3494C135.816 45.361 136.499 45.098 136.59 43.9616C136.598 43.8422 136.465 43.8336 136.444 43.9306C136.43 43.9981 136.409 44.2486 136.389 44.3184C136.146 45.1965 135.844 45.257 136.054 45.3594Z" fill="#ED7D57"/>
<path id="Vector_29" fill-rule="evenodd" clip-rule="evenodd" d="M135.791 45.8309C136.384 47.7105 137.625 46.339 137.366 46.2459C136.05 45.7774 135.717 45.6052 135.791 45.8309Z" fill="white"/>
<path id="Vector_30" fill-rule="evenodd" clip-rule="evenodd" d="M143.559 77.8965L142.354 92.1253L158 92.479L157.778 79.7194L143.559 77.8965Z" fill="#E5BB9A"/>
<path id="Vector_31" fill-rule="evenodd" clip-rule="evenodd" d="M140.005 90.0516C141.189 90.6722 141.829 91.3859 142.354 92.1251L143.558 77.8963L142.866 77.79L140.005 90.0516Z" fill="#9C7357"/>
<path id="Vector_32" fill-rule="evenodd" clip-rule="evenodd" d="M143.559 77.8965L144.627 83.8035C144.804 84.466 144.998 85.0508 146.056 85.0974L156.042 85.7397C156.933 85.7963 157.011 85.3518 157.096 84.7491L157.742 79.7147L143.559 77.8965Z" fill="#9C7357"/>
<path id="Vector_33" fill-rule="evenodd" clip-rule="evenodd" d="M149.972 84.5756L152.512 84.7362C152.582 84.74 152.647 84.7689 152.697 84.8176C152.746 84.8663 152.776 84.9314 152.781 85.0007L152.837 87.2821C152.839 87.3146 152.835 87.3473 152.824 87.378C152.813 87.4087 152.796 87.4368 152.773 87.4606C152.751 87.4843 152.724 87.5032 152.694 87.516C152.664 87.5288 152.632 87.5352 152.599 87.535L149.943 87.4644C149.873 87.4623 149.806 87.4339 149.757 87.3848C149.707 87.3358 149.677 87.2697 149.674 87.1999L149.734 84.8285C149.737 84.6866 149.831 84.5671 149.972 84.5756Z" fill="white"/>
<path id="Vector_34" fill-rule="evenodd" clip-rule="evenodd" d="M150.36 85.2373L150.319 86.8368L152.19 86.8872L152.152 85.3506L150.36 85.2373Z" fill="#9C7357"/>
<path id="Vector_35" fill-rule="evenodd" clip-rule="evenodd" d="M146.52 78.2767C146.744 77.7469 147.164 77.3357 147.698 77.0402C147.936 76.9104 148.186 76.8049 148.445 76.7252C148.644 76.3583 149.581 76.1473 150.68 76.2459C151.844 76.3498 152.768 76.7625 152.809 77.1852C152.879 77.2263 152.946 77.269 153.011 77.3132C153.69 77.7787 154.159 78.4318 154.232 79.2649L153.698 79.1959C153.603 78.5807 153.236 78.0936 152.72 77.7383C152.65 77.6902 152.577 77.6452 152.503 77.6026C152.106 77.8151 151.368 77.9175 150.537 77.8438C149.667 77.7662 148.931 77.5149 148.598 77.217C148.372 77.2865 148.154 77.3785 147.947 77.4916C147.576 77.684 147.27 77.9806 147.066 78.3449L146.52 78.2767Z" fill="#9C7357"/>
<path id="Vector_36" fill-rule="evenodd" clip-rule="evenodd" d="M152.33 78.4317C152.33 78.4317 152.501 78.0725 152.498 77.8786C152.498 77.8786 152.467 77.5256 152.46 77.2743C152.46 77.1967 152.46 77.1246 152.46 77.0788C152.48 76.8919 152.58 76.4854 152.502 76.02C152.442 75.6725 152.178 74.6796 152.049 74.2041C152.032 74.1575 152.021 74.1094 152.014 74.0605L149.195 74.1148C148.924 74.8013 148.235 76.5847 148.255 76.9384C148.257 76.9803 148.261 77.022 148.268 77.0633C148.324 77.4356 148.522 77.6885 148.574 77.8801C148.594 77.9507 148.833 78.6364 149.04 78.7117C149.322 78.8164 149.561 78.7753 149.728 78.6527C149.728 78.6527 150.289 78.8342 150.658 78.6884C150.658 78.6884 151.172 78.8723 151.58 78.5604C151.581 78.5604 152.123 78.6892 152.33 78.4317Z" fill="#F9AF79"/>
<path id="Vector_37" fill-rule="evenodd" clip-rule="evenodd" d="M37.1138 44.3692C36.8555 42.6378 36.5863 40.9041 34.9899 39.5016C33.7007 38.3699 32.0911 38.0479 30.5203 38.442C26.0786 39.5606 27.1537 43.4981 23.7546 46.7072C22.3009 48.0747 20.4532 48.5464 19.264 50.0543C17.1137 52.7693 17.4132 57.986 20.9132 61.6124C29.4847 70.4942 37.4854 59.4807 38.0563 56.8697C38.486 54.9266 37.2821 45.4839 37.1138 44.3692Z" fill="#20386F"/>
<path id="Vector_38" fill-rule="evenodd" clip-rule="evenodd" d="M38.7038 100.755C38.4986 102.302 38.1747 103.831 37.7349 105.328C37.6923 105.442 37.2827 105.878 37.2393 105.993C37.6023 108.749 39.3678 110.295 41.0076 111.374C40.5973 110.001 39.7564 108.442 39.8402 108.126C40.305 106.185 40.9096 104.279 41.6492 102.424C40.3266 102.345 39.8162 101.537 38.7038 100.755Z" fill="#F9AF79"/>
<path id="Vector_39" fill-rule="evenodd" clip-rule="evenodd" d="M34.7962 67.2334L26.1455 73.2195C26.1455 73.2195 29.9465 77.579 31.3761 79.2002C32.8057 80.8215 40.1478 86.8293 40.2548 87.19C40.2789 87.2598 39.8088 88.0534 39.6048 89.0758C39.0533 91.8373 38.2605 97.2285 37.7966 101.863C38.6041 102.848 40.4883 103.211 41.5976 103.586C44.8222 98.0903 46.6575 87.2079 46.7475 85.8853C46.8887 83.7428 34.7962 67.2334 34.7962 67.2334Z" fill="#20386F"/>
<path id="Vector_40" fill-rule="evenodd" clip-rule="evenodd" d="M9.93061 79.8019C10.2347 80.0238 12.5091 83.3422 13.4523 85.1675C14.349 84.3607 14.8362 83.4919 15.878 82.8822C14.8253 81.7078 12.6883 78.816 12.4424 78.0845C11.8629 76.3562 11.4339 76.1592 11.4339 76.1592C11.4339 76.1592 5.98692 79.0867 5.68439 79.7189C5.38187 80.3511 8.7081 78.8765 9.93061 79.8019Z" fill="#F9AF79"/>
<path id="Vector_41" fill-rule="evenodd" clip-rule="evenodd" d="M12.5651 78.4723C13.0096 78.4056 12.2347 76.3825 12.0625 75.9202C11.8732 75.395 11.5497 75.2771 11.4706 75.2686C11.2604 75.2539 5.206 78.5111 4.24645 79.4853C4.1708 79.5773 4.10744 79.6788 4.05795 79.7871C3.62898 81.0282 8.91 80.4162 9.59573 79.7871C10.2039 79.2433 10.5654 78.7895 12.5651 78.4723Z" fill="#0E2952"/>
<path id="Vector_42" fill-rule="evenodd" clip-rule="evenodd" d="M36.4261 69.2732L29.4447 65.7686C29.4727 65.7887 29.3819 66.0742 29.3749 66.0951C28.5216 68.7861 24.9984 67.4976 23.2018 72.1596C21.9367 75.4463 21.6559 86.7972 21.6559 86.7972C21.6559 86.7972 18.4832 84.0892 15.1547 81.2121C14.849 80.953 12.1162 83.5656 12.1162 83.5656C16.305 91.9688 23.4943 95.6317 24.4631 95.3261C27.7669 94.3022 34.1595 73.0928 34.1548 73.092C34.8716 71.8485 36.4261 69.2732 36.4261 69.2732Z" fill="#223F81"/>
<path id="Vector_43" fill-rule="evenodd" clip-rule="evenodd" d="M26.1292 50.2464C26.1292 50.2464 17.4351 47.813 15.4912 47.3879C13.5472 46.9628 6.86141 44.2579 6.6031 44.147C6.34479 44.0361 5.54737 40.3709 5.15486 40.6152C4.76235 40.8596 5.65829 42.4645 5.16882 42.653C4.67935 42.8415 0.669716 40.8433 0.623949 41.1892C0.540173 41.8307 3.02864 42.5134 2.93711 42.8058C2.84558 43.0982 0.407528 41.847 0.0817304 42.2791C-0.244067 42.7112 2.50039 43.2441 2.53762 43.4985C2.57485 43.7529 -0.119954 43.3535 0.00415963 43.8918C0.0708705 44.1811 2.40885 44.1804 2.29327 44.5124C2.17769 44.8444 0.386583 45.1329 0.493631 45.4649C0.600679 45.7969 1.96748 45.0173 2.87738 45.278C3.78729 45.5386 4.58394 45.2477 5.89566 46.1072C7.20738 46.9667 11.4862 50.5489 14.6076 51.3386C17.7291 52.1283 24.6251 53.9101 24.6251 53.9101L26.1292 50.2464Z" fill="#F9AF79"/>
<path id="Vector_44" fill-rule="evenodd" clip-rule="evenodd" d="M36.374 50.067C36.374 50.067 40.3487 41.9531 41.3261 40.2287C42.3035 38.5043 44.7338 31.6998 44.8168 31.4276C44.8998 31.1553 42.7077 28.1292 43.1529 27.9966C43.5982 27.864 44.1939 29.6031 44.6648 29.3681C45.1356 29.133 46.3085 24.8053 46.594 25.0016C47.1292 25.3662 45.9804 27.6778 46.262 27.8011C46.5436 27.9245 47.2301 25.2785 47.773 25.3258C48.316 25.3732 46.8794 27.7701 47.0431 27.9632C47.2068 28.1564 48.7054 25.889 49.0227 26.3381C49.1965 26.584 47.6388 28.3255 47.9631 28.4581C48.2873 28.5908 49.696 27.4559 49.8682 27.7523C50.0404 28.0486 48.5495 28.5512 48.1446 29.4084C47.7397 30.2655 46.9896 30.6612 46.7545 32.2133C46.5195 33.7655 46.3473 39.3367 44.8626 42.1936C43.3779 45.0505 40.1137 51.3788 40.1137 51.3788L36.374 50.067Z" fill="#F9AF79"/>
<path id="Vector_45" fill-rule="evenodd" clip-rule="evenodd" d="M38.2787 60.2996C38.5037 58.752 38.9846 54.5857 38.952 54.0652C39.5074 52.4781 41.3055 50.1991 41.6934 49.5413C41.6934 49.5413 39.6432 46.7619 37.9909 46.6797C37.9909 46.6797 36.0866 48.878 34.7376 49.504C34.7198 49.4932 34.2613 49.6801 34.0697 49.6592C32.8115 49.5723 28.4296 49.1418 27.5918 49.3442V56.4645C27.7997 56.8911 27.5515 65.0616 27.9928 65.7691C28.4342 66.4765 35.3039 69.9874 36.5256 69.2776C36.5768 69.2574 37.8273 63.4218 38.2787 60.2996Z" fill="#6D96CE"/>
<path id="Vector_46" fill-rule="evenodd" clip-rule="evenodd" d="M29.8253 49.6085C29.636 49.489 29.1783 49.351 28.5066 49.2982C26.5161 49.1314 23.1666 48.8281 23.1666 48.8281C23.1666 48.8281 22.0682 53.0402 22.6608 54.1122C22.6608 54.1122 27.8503 55.268 27.6711 55.7094L29.8253 49.6085Z" fill="#6D96CE"/>
<path id="Vector_47" fill-rule="evenodd" clip-rule="evenodd" d="M31.374 46.8651C31.374 46.8651 31.6672 49.3521 31.5144 50.3201C31.3616 51.2882 31.592 54.443 33.5561 54.5865C35.5202 54.73 34.1914 50.6304 34.0696 49.6662C33.9478 48.702 34.0944 45.7598 34.0944 45.7598L31.374 46.8651Z" fill="#F9AF79"/>
<path id="Vector_48" fill-rule="evenodd" clip-rule="evenodd" d="M34.0425 47.2268C34.0626 46.42 34.096 45.7529 34.096 45.7529L31.374 46.8645C31.374 46.8645 31.4345 47.3695 31.4873 48.018C32.626 48.3407 33.4917 47.9482 34.0425 47.2268Z" fill="#F27458"/>
<path id="Vector_49" fill-rule="evenodd" clip-rule="evenodd" d="M30.86 40.0064C30.1623 40.4048 29.6274 41.0365 29.3497 41.7905C28.8951 43.0316 29.1015 46.3602 31.6768 47.3283C34.2522 48.2963 35.5554 45.7637 35.1497 43.6879C34.744 41.6121 33.7332 38.9514 30.86 40.0064Z" fill="#F9AF79"/>
<path id="Vector_50" fill-rule="evenodd" clip-rule="evenodd" d="M35.5257 42.9157C35.4412 43.4587 35.1231 43.8605 34.8206 43.8047C34.5181 43.7488 34.342 43.271 34.4281 42.728C34.5142 42.185 34.833 41.7839 35.1371 41.832C35.4412 41.8801 35.6157 42.3688 35.5257 42.9157Z" fill="#F9AF79"/>
<path id="Vector_51" fill-rule="evenodd" clip-rule="evenodd" d="M37.718 105.398C37.5326 104.968 35.9238 106.453 35.5413 106.758C35.1108 107.103 35.0945 107.461 35.11 107.533C35.1504 107.744 39.6728 112.984 40.9581 113.661C41.0976 113.717 41.2513 113.726 41.3964 113.688C42.0759 113.365 40.7347 108.944 39.7852 108.109C39.1686 107.582 38.5588 107.311 37.718 105.398Z" fill="#0E2952"/>
<path id="Vector_52" fill-rule="evenodd" clip-rule="evenodd" d="M31.1779 39.8633C31.1779 39.8633 30.4596 43.5091 29.2789 44.0979C28.0983 44.6866 28.4683 46.342 28.4683 46.342C28.4683 46.342 27.6856 42.496 28.6638 41.3325C29.642 40.1689 31.1779 39.8633 31.1779 39.8633Z" fill="#20386F"/>
<path id="Vector_53" fill-rule="evenodd" clip-rule="evenodd" d="M29.9198 44.6677C30.1952 45.1665 30.158 45.7312 29.8337 45.9322C29.5095 46.1331 29.0223 45.8794 28.7477 45.3806C28.4731 44.8818 28.5088 44.3171 28.8323 44.1232C29.1558 43.9293 29.6421 44.1659 29.9198 44.6677Z" fill="#F9AF79"/>
<path id="Vector_54" fill-rule="evenodd" clip-rule="evenodd" d="M31.5188 42.6731C31.3862 42.8686 30.8486 42.881 30.581 42.9834C30.446 43.0354 30.107 43.2844 29.9775 43.2704C29.578 43.2285 30.7129 42.359 31.4312 42.4466C31.4535 42.4536 31.4739 42.4655 31.4909 42.4814C31.508 42.4974 31.5212 42.517 31.5296 42.5387C31.5381 42.5605 31.5415 42.5839 31.5396 42.6072C31.5377 42.6304 31.5306 42.653 31.5188 42.6731Z" fill="#20386F"/>
<path id="Vector_55" fill-rule="evenodd" clip-rule="evenodd" d="M32.943 42.0561C33.5527 41.6683 34.9529 41.9785 34.6092 42.1864C34.496 42.2547 34.0833 42.1709 33.9414 42.1864C33.6543 42.2066 33.1618 42.4191 32.9585 42.302C32.9375 42.2898 32.9197 42.2725 32.9069 42.2518C32.8941 42.2311 32.8866 42.2075 32.8851 42.1832C32.8835 42.1589 32.888 42.1346 32.8981 42.1124C32.9082 42.0902 32.9237 42.0709 32.943 42.0561Z" fill="#20386F"/>
<path id="Vector_56" fill-rule="evenodd" clip-rule="evenodd" d="M31.1523 44.1398C30.9521 44.1887 30.6093 43.4712 31.0941 43.3532C31.3516 43.2904 31.475 44.0607 31.1523 44.1398Z" fill="#20386F"/>
<path id="Vector_57" fill-rule="evenodd" clip-rule="evenodd" d="M34.1112 43.4467C34.3098 43.3987 34.2803 42.6043 33.8009 42.723C33.5403 42.7858 33.7854 43.5259 34.1112 43.4467Z" fill="#20386F"/>
<path id="Vector_58" fill-rule="evenodd" clip-rule="evenodd" d="M32.5948 45.0903C32.5553 45.0127 32.6949 44.9685 32.7795 44.9259C33.0898 44.7707 33.1433 44.9305 32.6546 43.5916C32.5592 43.3294 32.4777 43.196 32.5724 43.165C32.667 43.134 32.6631 43.2511 32.7725 43.5482C33.3031 45.0034 33.262 44.8188 32.6794 45.1167C32.6646 45.1239 32.6476 45.1252 32.6319 45.1203C32.6161 45.1154 32.6029 45.1047 32.5948 45.0903Z" fill="#ED7D57"/>
<path id="Vector_59" fill-rule="evenodd" clip-rule="evenodd" d="M32.4756 46.2231C32.3903 46.0874 32.5532 46.1114 33.9316 45.8857C34.3296 45.8206 33.2436 47.4433 32.4756 46.2231Z" fill="white"/>
<path id="Vector_60" fill-rule="evenodd" clip-rule="evenodd" d="M60.5409 15.7979H101.991C106.748 15.7979 110.64 19.6896 110.64 24.4462V65.8961C110.64 70.6528 106.748 74.5453 101.991 74.5453H60.5409C55.7843 74.5453 51.8926 70.6528 51.8926 65.8961V24.4462C51.8949 19.6896 55.7866 15.7979 60.5409 15.7979Z" fill="#B0C2E4"/>
<path id="Vector_61" fill-rule="evenodd" clip-rule="evenodd" d="M62.5086 23.3037H100.024C100.848 23.3062 101.637 23.6345 102.22 24.217C102.802 24.7996 103.131 25.5889 103.133 26.4127V63.9306C103.131 64.7544 102.802 65.5438 102.22 66.1263C101.637 66.7088 100.848 67.0372 100.024 67.0397H62.5086C61.6849 67.0372 60.8956 66.7088 60.3132 66.1263C59.7308 65.5437 59.4026 64.7544 59.4004 63.9306V26.4127C59.4026 25.589 59.7308 24.7996 60.3132 24.2171C60.8956 23.6345 61.6849 23.3062 62.5086 23.3037Z" fill="white"/>
<path id="Vector_62" fill-rule="evenodd" clip-rule="evenodd" d="M65.9659 39.5825C65.3506 38.5635 65.1622 37.3428 65.4419 36.1857C65.7215 35.0286 66.4466 34.0287 67.4594 33.4032C68.4722 32.7777 69.691 32.5772 70.8508 32.8454C72.0106 33.1135 73.0177 33.8286 73.6532 34.8351L82.8647 49.7489L110.657 14.6148C111.402 13.6852 112.485 13.0881 113.669 12.9536C114.853 12.8192 116.042 13.1583 116.977 13.8971C117.912 14.6358 118.517 15.7143 118.66 16.8973C118.804 18.0803 118.473 19.2719 117.741 20.2123L86.0622 60.2597C85.6255 60.8586 85.0483 61.3409 84.3814 61.6642C83.7145 61.9875 82.9784 62.1419 82.2378 62.1138C81.4972 62.0856 80.7748 61.8759 80.1344 61.5029C79.4939 61.13 78.955 60.6053 78.565 59.975L65.9659 39.5825Z" fill="#8FA3CF"/>
</g>
</svg>
