<svg width="19" height="18" viewBox="0 0 19 18" fill="none" xmlns="http://www.w3.org/2000/svg">
<g id="Group">
<path id="Vector" d="M6.36104 7.6698L14.4251 16.6634C14.8019 17.0904 15.4551 17.0904 15.857 16.7136L17.2136 15.357C17.6155 14.9551 17.5904 14.3019 17.1634 13.9251L8.1698 5.86104C8.72248 4.57984 8.47126 3.04742 7.44127 2.01743C6.53689 1.11305 5.28081 0.811588 4.12521 1.11305C3.97448 1.13817 3.92424 1.31402 4.02473 1.41451L6.10983 3.49961L3.99961 5.60983L1.91451 3.52473C1.81402 3.42424 1.63817 3.47448 1.61305 3.62521C1.31159 4.78081 1.61305 6.03689 2.51743 6.94127C3.54742 7.97126 5.10496 8.22248 6.36104 7.6698Z" stroke="white" stroke-width="1.5"/>
<path id="Vector_2" d="M7.06438 9.70508L9.27508 12.167L4.92904 16.513C4.4266 17.0155 3.7232 17.116 3.12028 16.8648C2.9193 16.7894 2.74345 16.6638 2.59272 16.513C2.44199 16.3623 2.31638 16.1865 2.24102 15.9855C1.9898 15.3826 2.09029 14.654 2.59272 14.1767L7.06438 9.70508Z" stroke="white" stroke-width="1.5"/>
<path id="Vector_3" d="M16.9121 3.34896L14.9526 5.836L14.1989 6.06209L14.0482 5.93649L11.8878 8.09695L10.9583 7.26793L13.169 5.05723L13.0182 4.9065L13.2694 4.15285L15.7314 2.19336L16.9121 3.34896Z" stroke="white" stroke-width="1.5"/>
</g>
</svg>
