<svg width="20" height="20" viewBox="0 0 20 20" fill="none" xmlns="http://www.w3.org/2000/svg">
<g id="react-icons/fa/FaHeadSideCough">
<path id="Vector" d="M19.25 11.5C19.3983 11.5 19.5433 11.456 19.6667 11.3736C19.79 11.2912 19.8861 11.1741 19.9429 11.037C19.9997 10.9 20.0145 10.7492 19.9856 10.6037C19.9566 10.4582 19.8852 10.3246 19.7803 10.2197C19.6754 10.1148 19.5418 10.0434 19.3963 10.0144C19.2508 9.98547 19.1 10.0003 18.963 10.0571C18.8259 10.1139 18.7088 10.21 18.6264 10.3333C18.544 10.4567 18.5 10.6017 18.5 10.75C18.5 10.9489 18.579 11.1397 18.7197 11.2803C18.8603 11.421 19.0511 11.5 19.25 11.5ZM17.25 15C17.1017 15 16.9567 15.044 16.8333 15.1264C16.71 15.2088 16.6139 15.3259 16.5571 15.463C16.5003 15.6 16.4855 15.7508 16.5144 15.8963C16.5434 16.0418 16.6148 16.1754 16.7197 16.2803C16.8246 16.3852 16.9582 16.4566 17.1037 16.4856C17.2492 16.5145 17.4 16.4997 17.537 16.4429C17.6741 16.3861 17.7912 16.29 17.8736 16.1667C17.956 16.0433 18 15.8983 18 15.75C18 15.5511 17.921 15.3603 17.7803 15.2197C17.6397 15.079 17.4489 15 17.25 15ZM15.25 13.25C15.1017 13.25 14.9567 13.294 14.8333 13.3764C14.71 13.4588 14.6139 13.5759 14.5571 13.713C14.5003 13.85 14.4855 14.0008 14.5144 14.1463C14.5434 14.2918 14.6148 14.4254 14.7197 14.5303C14.8246 14.6352 14.9582 14.7066 15.1037 14.7356C15.2492 14.7645 15.4 14.7497 15.537 14.6929C15.6741 14.6361 15.7912 14.54 15.8736 14.4167C15.956 14.2933 16 14.1483 16 14C16 13.8011 15.921 13.6103 15.7803 13.4697C15.6397 13.329 15.4489 13.25 15.25 13.25ZM19.25 16.5C19.1017 16.5 18.9567 16.544 18.8333 16.6264C18.71 16.7088 18.6139 16.8259 18.5571 16.963C18.5003 17.1 18.4855 17.2508 18.5144 17.3963C18.5434 17.5418 18.6148 17.6754 18.7197 17.7803C18.8246 17.8852 18.9582 17.9566 19.1037 17.9856C19.2492 18.0145 19.4 17.9997 19.537 17.9429C19.6741 17.8861 19.7912 17.79 19.8736 17.6667C19.956 17.5433 20 17.3983 20 17.25C20 17.0511 19.921 16.8603 19.7803 16.7197C19.6397 16.579 19.4489 16.5 19.25 16.5ZM19.25 13.25C19.1017 13.25 18.9567 13.294 18.8333 13.3764C18.71 13.4588 18.6139 13.5759 18.5571 13.713C18.5003 13.85 18.4855 14.0008 18.5144 14.1463C18.5434 14.2918 18.6148 14.4254 18.7197 14.5303C18.8246 14.6352 18.9582 14.7066 19.1037 14.7356C19.2492 14.7645 19.4 14.7497 19.537 14.6929C19.6741 14.6361 19.7912 14.54 19.8736 14.4167C19.956 14.2933 20 14.1483 20 14C20 13.8011 19.921 13.6103 19.7803 13.4697C19.6397 13.329 19.4489 13.25 19.25 13.25ZM17.25 12C17.1017 12 16.9567 12.044 16.8333 12.1264C16.71 12.2088 16.6139 12.3259 16.5571 12.463C16.5003 12.6 16.4855 12.7508 16.5144 12.8963C16.5434 13.0418 16.6148 13.1754 16.7197 13.2803C16.8246 13.3852 16.9582 13.4566 17.1037 13.4856C17.2492 13.5145 17.4 13.4997 17.537 13.4429C17.6741 13.3861 17.7912 13.29 17.8736 13.1667C17.956 13.0433 18 12.8983 18 12.75C18 12.5511 17.921 12.3603 17.7803 12.2197C17.6397 12.079 17.4489 12 17.25 12ZM14.9131 10.5938C14.2569 9.12125 13.3975 5.85156 12.6281 4.75781C12.0282 3.90632 11.2325 3.21138 10.308 2.73146C9.38349 2.25155 8.35726 2.00069 7.31563 2L6 2C2.6875 2 0 4.6875 0 8C0 9.77344 0.773438 11.3631 2 12.465V18H9V17H11C11.5304 17 12.0391 16.7893 12.4142 16.4142C12.7893 16.0391 13 15.5304 13 15H10C9.73478 15 9.48043 14.8946 9.29289 14.7071C9.10536 14.5196 9 14.2652 9 14C9 13.7348 9.10536 13.4804 9.29289 13.2929C9.48043 13.1054 9.73478 13 10 13H13V12H14C14.1666 11.9999 14.3305 11.9582 14.4768 11.8787C14.6232 11.7991 14.7474 11.6843 14.8381 11.5446C14.9288 11.4049 14.9832 11.2448 14.9963 11.0787C15.0094 10.9126 14.9808 10.746 14.9131 10.5938ZM9 9C8.80222 9 8.60888 8.94135 8.44443 8.83147C8.27998 8.72159 8.15181 8.56541 8.07612 8.38268C8.00043 8.19996 7.98063 7.99889 8.01921 7.80491C8.0578 7.61093 8.15304 7.43275 8.29289 7.29289C8.43275 7.15304 8.61093 7.0578 8.80491 7.01921C8.99889 6.98063 9.19996 7.00043 9.38268 7.07612C9.56541 7.15181 9.72159 7.27998 9.83147 7.44443C9.94135 7.60888 10 7.80222 10 8C9.99942 8.26504 9.89388 8.51906 9.70647 8.70647C9.51906 8.89388 9.26504 8.99942 9 9Z" fill="#1F489F"/>
</g>
</svg>
