<svg width="111" height="76" viewBox="0 0 111 76" fill="none" xmlns="http://www.w3.org/2000/svg">
<g id="Group 1000003833">
<g id="Subtract">
<path d="M53.0922 0.311085C40.9043 0.856325 29.7412 5.34034 20.8453 12.5208L33.3444 28.318C38.806 23.8626 45.6283 21.012 53.0922 20.4852V0.311085Z" fill="#E2E643"/>
<path d="M55.61 20.3967V0.254883C68.3394 0.254883 80.0658 4.54886 89.4199 11.7673L76.9201 27.5655C71.0016 23.0669 63.6176 20.3967 55.61 20.3967Z" fill="#EBBA49"/>
<path d="M78.8693 29.1596C83.7001 33.4054 87.3597 38.9518 89.3009 45.2517L109.06 41.0628C106.076 30.0981 99.8081 20.4867 91.378 13.3503L78.8693 29.1596Z" fill="#E2773A"/>
<path d="M109.666 43.5081L89.956 47.6865C90.5462 50.2441 90.8581 52.908 90.8581 55.6449C90.8581 59.8642 90.1168 63.9103 88.7573 67.6602L107.414 75.2926C109.731 69.1862 111 62.5637 111 55.6449C111 51.4757 110.539 47.414 109.666 43.5081Z" fill="#DC5050"/>
<path d="M31.4489 29.98L18.9215 14.147C10.8895 21.2534 4.93591 30.6558 2.08849 41.3262L21.8396 45.5134C23.6396 39.5048 26.9995 34.1703 31.4489 29.98Z" fill="#B5C750"/>
<path d="M21.2037 47.9522L1.49498 43.7741C0.659946 47.5983 0.219971 51.5702 0.219971 55.6449C0.219971 62.6087 1.50507 69.2723 3.85104 75.4116L22.2725 67.1219C21.0341 63.5242 20.3618 59.6631 20.3618 55.6449C20.3618 53.0027 20.6525 50.4284 21.2037 47.9522Z" fill="#619B3C"/>
</g>
<path id="Vector" fill-rule="evenodd" clip-rule="evenodd" d="M89.6756 27.9492L75.6823 44.2747C71.0179 49.5222 66.3535 54.7697 62.2721 60.0172C52.9432 72.8444 36.0347 56.5188 52.3602 47.773L71.0179 37.8611L89.6756 27.9492ZM53.5263 51.8544C56.4416 51.8544 58.1907 54.1866 58.1907 56.5189C58.1907 59.4341 56.4416 61.7663 53.5263 61.7663C50.611 61.7663 48.8619 59.4341 48.8619 56.5189C48.8619 54.1866 50.611 51.8544 53.5263 51.8544Z" fill="#DC5050"/>
</g>
</svg>
