<svg width="20" height="21" viewBox="0 0 20 21" fill="none" xmlns="http://www.w3.org/2000/svg">
<path d="M10.0002 12.1663V13.833C8.67408 13.833 7.40231 14.3598 6.46463 15.2975C5.52695 16.2352 5.00016 17.5069 5.00016 18.833H3.3335C3.3335 17.0649 4.03588 15.3692 5.28612 14.119C6.53636 12.8687 8.23205 12.1663 10.0002 12.1663ZM10.0002 11.333C7.23766 11.333 5.00016 9.09551 5.00016 6.33301C5.00016 3.57051 7.23766 1.33301 10.0002 1.33301C12.7627 1.33301 15.0002 3.57051 15.0002 6.33301C15.0002 9.09551 12.7627 11.333 10.0002 11.333ZM10.0002 9.66634C11.8418 9.66634 13.3335 8.17467 13.3335 6.33301C13.3335 4.49134 11.8418 2.99967 10.0002 2.99967C8.1585 2.99967 6.66683 4.49134 6.66683 6.33301C6.66683 8.17467 8.1585 9.66634 10.0002 9.66634ZM12.1627 16.1763C12.057 15.7317 12.057 15.2685 12.1627 14.8238L11.336 14.3463L12.1693 12.903L12.996 13.3805C13.3278 13.0662 13.7289 12.8344 14.1668 12.7038V11.7497H15.8335V12.7038C16.2768 12.8355 16.6768 13.0705 17.0043 13.3805L17.831 12.903L18.6643 14.3463L17.8377 14.8238C17.9432 15.2682 17.9432 15.7311 17.8377 16.1755L18.6643 16.653L17.831 18.0963L17.0043 17.6188C16.6725 17.9331 16.2714 18.1649 15.8335 18.2955V19.2497H14.1668V18.2955C13.7289 18.1649 13.3278 17.9331 12.996 17.6188L12.1693 18.0963L11.336 16.653L12.1627 16.1763ZM15.0002 16.7497C15.3317 16.7497 15.6496 16.618 15.884 16.3836C16.1185 16.1491 16.2502 15.8312 16.2502 15.4997C16.2502 15.1682 16.1185 14.8502 15.884 14.6158C15.6496 14.3814 15.3317 14.2497 15.0002 14.2497C14.6686 14.2497 14.3507 14.3814 14.1163 14.6158C13.8819 14.8502 13.7502 15.1682 13.7502 15.4997C13.7502 15.8312 13.8819 16.1491 14.1163 16.3836C14.3507 16.618 14.6686 16.7497 15.0002 16.7497Z" fill="white"/>
</svg>
