<svg width="20" height="21" viewBox="0 0 20 21" fill="none" xmlns="http://www.w3.org/2000/svg">
<path d="M10.0002 12.1668V13.8335C8.67408 13.8335 7.40231 14.3603 6.46463 15.298C5.52695 16.2356 5.00016 17.5074 5.00016 18.8335H3.3335C3.3335 17.0654 4.03588 15.3697 5.28612 14.1195C6.53636 12.8692 8.23205 12.1668 10.0002 12.1668ZM10.0002 11.3335C7.23766 11.3335 5.00016 9.096 5.00016 6.3335C5.00016 3.571 7.23766 1.3335 10.0002 1.3335C12.7627 1.3335 15.0002 3.571 15.0002 6.3335C15.0002 9.096 12.7627 11.3335 10.0002 11.3335ZM10.0002 9.66683C11.8418 9.66683 13.3335 8.17516 13.3335 6.3335C13.3335 4.49183 11.8418 3.00016 10.0002 3.00016C8.1585 3.00016 6.66683 4.49183 6.66683 6.3335C6.66683 8.17516 8.1585 9.66683 10.0002 9.66683ZM12.1627 16.1768C12.057 15.7322 12.057 15.269 12.1627 14.8243L11.336 14.3468L12.1693 12.9035L12.996 13.381C13.3278 13.0667 13.7289 12.8349 14.1668 12.7043V11.7502H15.8335V12.7043C16.2768 12.836 16.6768 13.071 17.0043 13.381L17.831 12.9035L18.6643 14.3468L17.8377 14.8243C17.9432 15.2687 17.9432 15.7316 17.8377 16.176L18.6643 16.6535L17.831 18.0968L17.0043 17.6193C16.6725 17.9336 16.2714 18.1654 15.8335 18.296V19.2502H14.1668V18.296C13.7289 18.1654 13.3278 17.9336 12.996 17.6193L12.1693 18.0968L11.336 16.6535L12.1627 16.1768ZM15.0002 16.7502C15.3317 16.7502 15.6496 16.6185 15.884 16.384C16.1185 16.1496 16.2502 15.8317 16.2502 15.5002C16.2502 15.1686 16.1185 14.8507 15.884 14.6163C15.6496 14.3819 15.3317 14.2502 15.0002 14.2502C14.6686 14.2502 14.3507 14.3819 14.1163 14.6163C13.8819 14.8507 13.7502 15.1686 13.7502 15.5002C13.7502 15.8317 13.8819 16.1496 14.1163 16.384C14.3507 16.6185 14.6686 16.7502 15.0002 16.7502Z" fill="white"/>
</svg>
