<svg width="20" height="21" viewBox="0 0 20 21" fill="none" xmlns="http://www.w3.org/2000/svg">
<path d="M18.5248 5.5H7.42957C7.14507 5.5 6.93645 5.72759 6.93645 5.99312V9.67256L7.90372 8.83805L7.92269 8.81908V6.50521H18.0317V15.04H7.92269V13.1244C7.60026 13.2572 7.27784 13.333 6.91748 13.371V15.5521C6.91748 15.8366 7.14507 16.0452 7.4106 16.0452H18.5058C18.7903 16.0452 18.9989 15.8176 18.9989 15.5521V6.01209C19.0179 5.72759 18.7903 5.5 18.5248 5.5Z" fill="white"/>
<path d="M9.61064 10.8864C10.0279 10.5261 10.0469 9.88124 9.61064 9.52088C9.26925 9.23639 8.75716 9.25535 8.41577 9.55881L7.31573 10.4882C6.95538 10.7916 6.46226 10.8485 6.045 10.6588L5.40015 10.3744C5.00186 10.2037 4.58461 10.1088 4.14838 10.1088H2.32763C1.58795 10.1088 1 10.6968 1 11.4365V15.4573C1 15.7797 1.26553 16.0642 1.60692 16.0642H4.56564C4.88806 16.0642 5.17256 15.7987 5.17256 15.4573V12.233L5.30532 12.2899C6.36743 12.7641 7.60023 12.5934 8.47267 11.8537L9.61064 10.8864Z" fill="white"/>
<path d="M3.08617 9.57762C4.18602 9.57762 5.07762 8.68602 5.07762 7.58617C5.07762 6.48633 4.18602 5.59473 3.08617 5.59473C1.98633 5.59473 1.09473 6.48633 1.09473 7.58617C1.09473 8.68602 1.98633 9.57762 3.08617 9.57762Z" fill="white"/>
<path d="M13.6693 8.93294H16.1349C16.4194 8.93294 16.628 8.70535 16.628 8.43982C16.628 8.17429 16.4004 7.92773 16.1159 7.92773H13.6503C13.3659 7.92773 13.1572 8.15533 13.1572 8.42085C13.1572 8.68638 13.3848 8.93294 13.6693 8.93294Z" fill="white"/>
<path d="M13.6694 11.2655H16.135C16.4195 11.2655 16.6281 11.0379 16.6281 10.7724C16.6281 10.5069 16.4005 10.2793 16.135 10.2793H13.6694C13.3849 10.2793 13.1763 10.5069 13.1763 10.7724C13.1763 11.0379 13.3849 11.2655 13.6694 11.2655Z" fill="white"/>
<path d="M13.669 13.6176H16.1346C16.4191 13.6176 16.6278 13.39 16.6278 13.1245C16.6278 12.84 16.4002 12.6313 16.1346 12.6313H13.669C13.3845 12.6313 13.1759 12.8589 13.1759 13.1245C13.1569 13.39 13.3845 13.6176 13.669 13.6176Z" fill="white"/>
<path d="M11.4126 8.93294H11.9057C12.1902 8.93294 12.3988 8.70535 12.3988 8.43982C12.3988 8.17429 12.1712 7.92773 11.9057 7.92773H11.4126C11.1281 7.92773 10.9194 8.15533 10.9194 8.42085C10.9194 8.68638 11.147 8.93294 11.4126 8.93294Z" fill="white"/>
<path d="M11.4126 11.2655H11.9057C12.1902 11.2655 12.3988 11.0379 12.3988 10.7724C12.3988 10.5069 12.1712 10.2793 11.9057 10.2793H11.4126C11.1281 10.2793 10.9194 10.5069 10.9194 10.7724C10.9194 11.0379 11.147 11.2655 11.4126 11.2655Z" fill="white"/>
<path d="M11.4126 13.6176H11.9057C12.1902 13.6176 12.3988 13.39 12.3988 13.1245C12.3988 12.84 12.1712 12.6313 11.9057 12.6313H11.4126C11.1281 12.6313 10.9194 12.8589 10.9194 13.1245C10.9194 13.39 11.147 13.6176 11.4126 13.6176Z" fill="white"/>
</svg>
