<svg width="20" height="21" viewBox="0 0 20 21" fill="none" xmlns="http://www.w3.org/2000/svg">
<path d="M18.5253 5.5H7.43006C7.14556 5.5 6.93693 5.72759 6.93693 5.99312V9.67256L7.90421 8.83805L7.92318 8.81908V6.50521H18.0321V15.04H7.92318V13.1244C7.60075 13.2572 7.27833 13.333 6.91797 13.371V15.5521C6.91797 15.8366 7.14556 16.0452 7.41109 16.0452H18.5063C18.7908 16.0452 18.9994 15.8176 18.9994 15.5521V6.01209C19.0184 5.72759 18.7908 5.5 18.5253 5.5Z" fill="white"/>
<path d="M9.61064 10.886C10.0279 10.5256 10.0469 9.88075 9.61064 9.52039C9.26925 9.2359 8.75716 9.25486 8.41577 9.55832L7.31573 10.4877C6.95538 10.7911 6.46226 10.848 6.045 10.6584L5.40015 10.3739C5.00186 10.2032 4.58461 10.1083 4.14838 10.1083H2.32763C1.58795 10.1083 1 10.6963 1 11.436V15.4568C1 15.7792 1.26553 16.0637 1.60692 16.0637H4.56564C4.88806 16.0637 5.17256 15.7982 5.17256 15.4568V12.2326L5.30532 12.2895C6.36743 12.7636 7.60023 12.5929 8.47267 11.8532L9.61064 10.886Z" fill="white"/>
<path d="M3.08617 9.57762C4.18602 9.57762 5.07762 8.68602 5.07762 7.58617C5.07762 6.48633 4.18602 5.59473 3.08617 5.59473C1.98633 5.59473 1.09473 6.48633 1.09473 7.58617C1.09473 8.68602 1.98633 9.57762 3.08617 9.57762Z" fill="white"/>
<path d="M13.6693 8.93294H16.1349C16.4194 8.93294 16.628 8.70535 16.628 8.43982C16.628 8.17429 16.4004 7.92773 16.1159 7.92773H13.6503C13.3659 7.92773 13.1572 8.15533 13.1572 8.42085C13.1572 8.68638 13.3848 8.93294 13.6693 8.93294Z" fill="white"/>
<path d="M13.6699 11.2655H16.1355C16.42 11.2655 16.6286 11.0379 16.6286 10.7724C16.6286 10.5069 16.401 10.2793 16.1355 10.2793H13.6699C13.3854 10.2793 13.1768 10.5069 13.1768 10.7724C13.1768 11.0379 13.3854 11.2655 13.6699 11.2655Z" fill="white"/>
<path d="M13.669 13.6181H16.1346C16.4191 13.6181 16.6278 13.3905 16.6278 13.125C16.6278 12.8405 16.4002 12.6318 16.1346 12.6318H13.669C13.3845 12.6318 13.1759 12.8594 13.1759 13.125C13.1569 13.3905 13.3845 13.6181 13.669 13.6181Z" fill="white"/>
<path d="M11.4121 8.93294H11.9052C12.1897 8.93294 12.3983 8.70535 12.3983 8.43982C12.3983 8.17429 12.1707 7.92773 11.9052 7.92773H11.4121C11.1276 7.92773 10.9189 8.15533 10.9189 8.42085C10.9189 8.68638 11.1465 8.93294 11.4121 8.93294Z" fill="white"/>
<path d="M11.4121 11.2655H11.9052C12.1897 11.2655 12.3983 11.0379 12.3983 10.7724C12.3983 10.5069 12.1707 10.2793 11.9052 10.2793H11.4121C11.1276 10.2793 10.9189 10.5069 10.9189 10.7724C10.9189 11.0379 11.1465 11.2655 11.4121 11.2655Z" fill="white"/>
<path d="M11.4121 13.6181H11.9052C12.1897 13.6181 12.3983 13.3905 12.3983 13.125C12.3983 12.8405 12.1707 12.6318 11.9052 12.6318H11.4121C11.1276 12.6318 10.9189 12.8594 10.9189 13.125C10.9189 13.3905 11.1465 13.6181 11.4121 13.6181Z" fill="white"/>
</svg>
