<svg width="20" height="21" viewBox="0 0 20 21" fill="none" xmlns="http://www.w3.org/2000/svg">
<path d="M9.99967 12.1663V13.833C8.67359 13.833 7.40182 14.3598 6.46414 15.2975C5.52646 16.2352 4.99967 17.5069 4.99967 18.833H3.33301C3.33301 17.0649 4.03539 15.3692 5.28563 14.119C6.53587 12.8687 8.23156 12.1663 9.99967 12.1663ZM9.99967 11.333C7.23717 11.333 4.99967 9.09551 4.99967 6.33301C4.99967 3.57051 7.23717 1.33301 9.99967 1.33301C12.7622 1.33301 14.9997 3.57051 14.9997 6.33301C14.9997 9.09551 12.7622 11.333 9.99967 11.333ZM9.99967 9.66634C11.8413 9.66634 13.333 8.17467 13.333 6.33301C13.333 4.49134 11.8413 2.99967 9.99967 2.99967C8.15801 2.99967 6.66634 4.49134 6.66634 6.33301C6.66634 8.17467 8.15801 9.66634 9.99967 9.66634ZM12.1622 16.1763C12.0565 15.7317 12.0565 15.2685 12.1622 14.8238L11.3355 14.3463L12.1688 12.903L12.9955 13.3805C13.3273 13.0662 13.7284 12.8344 14.1663 12.7038V11.7497H15.833V12.7038C16.2763 12.8355 16.6763 13.0705 17.0038 13.3805L17.8305 12.903L18.6638 14.3463L17.8372 14.8238C17.9427 15.2682 17.9427 15.7311 17.8372 16.1755L18.6638 16.653L17.8305 18.0963L17.0038 17.6188C16.672 17.9331 16.271 18.1649 15.833 18.2955V19.2497H14.1663V18.2955C13.7284 18.1649 13.3273 17.9331 12.9955 17.6188L12.1688 18.0963L11.3355 16.653L12.1622 16.1763ZM14.9997 16.7497C15.3312 16.7497 15.6491 16.618 15.8836 16.3836C16.118 16.1491 16.2497 15.8312 16.2497 15.4997C16.2497 15.1682 16.118 14.8502 15.8836 14.6158C15.6491 14.3814 15.3312 14.2497 14.9997 14.2497C14.6682 14.2497 14.3502 14.3814 14.1158 14.6158C13.8814 14.8502 13.7497 15.1682 13.7497 15.4997C13.7497 15.8312 13.8814 16.1491 14.1158 16.3836C14.3502 16.618 14.6682 16.7497 14.9997 16.7497Z" fill="white"/>
</svg>
