<svg width="18" height="18" viewBox="0 0 18 18" fill="none" xmlns="http://www.w3.org/2000/svg">
<path d="M9 0C6.61305 0 4.32381 0.948188 2.63605 2.63605C0.948188 4.32391 0 6.61291 0 9C0 11.3871 0.948188 13.6762 2.63605 15.364C4.32391 17.0518 6.61291 18 9 18C11.3871 18 13.6762 17.0518 15.364 15.364C17.0518 13.6761 18 11.3871 18 9C17.9973 6.61399 17.0482 4.32638 15.3609 2.63932C13.6738 0.952022 11.3862 0.00289855 9.00019 0.000186907L9 0ZM12.0329 12.0327C11.8795 12.1861 11.6715 12.2723 11.4545 12.2723C11.2376 12.2723 11.0295 12.1861 10.8761 12.0327L8.42163 9.57819C8.26803 9.42478 8.18184 9.21677 8.18184 8.99981V4.0908C8.18184 3.79841 8.3378 3.52832 8.59092 3.38222C8.84404 3.23612 9.15597 3.23612 9.40909 3.38222C9.66221 3.52832 9.81817 3.79842 9.81817 4.0908V8.66104L12.0329 10.8758V10.8759C12.1863 11.0293 12.2725 11.2374 12.2725 11.4543C12.2725 11.6713 12.1863 11.8793 12.0329 12.0327L12.0329 12.0327Z" fill="#515667"/>
</svg>
