<svg width="18" height="19" viewBox="0 0 18 19" fill="none" xmlns="http://www.w3.org/2000/svg">
<path id="Vector" d="M9.89993 4.10452V9.13314L12.3353 11.5681C12.4197 11.6515 12.4867 11.7508 12.5326 11.8601C12.5784 11.9695 12.6022 12.0869 12.6025 12.2055C12.6029 12.3241 12.5798 12.4416 12.5345 12.5513C12.4893 12.6609 12.4229 12.7605 12.339 12.8444C12.2551 12.9283 12.1555 12.9947 12.0459 13.04C11.9362 13.0852 11.8187 13.1083 11.7001 13.108C11.5815 13.1076 11.4641 13.0839 11.3547 13.038C11.2454 12.9922 11.1461 12.9251 11.0627 12.8408L8.36364 10.1421C8.19486 9.97334 8.10001 9.74447 8.09995 9.5058V4.10452C8.09995 3.86583 8.19477 3.63691 8.36355 3.46813C8.53233 3.29935 8.76125 3.20453 8.99994 3.20453C9.23863 3.20453 9.46755 3.29935 9.63633 3.46813C9.80511 3.63691 9.89993 3.86583 9.89993 4.10452ZM8.99994 0.505861C7.70053 0.506921 6.41673 0.789115 5.23666 1.33307C4.05659 1.87703 3.00818 2.66988 2.16338 3.65719C1.31859 4.64451 0.69742 5.80292 0.342503 7.05292C-0.0124149 8.30292 -0.0926757 9.61491 0.107229 10.8988C0.144292 11.1347 0.273546 11.3463 0.466557 11.4869C0.659568 11.6274 0.900526 11.6856 1.13642 11.6485C1.37232 11.6115 1.58383 11.4822 1.72442 11.2892C1.86502 11.0962 1.92318 10.8553 1.88612 10.6194C1.60485 8.88707 1.96165 7.11157 2.89028 5.62242C3.81891 4.13326 5.2563 3.03161 6.93563 2.52195C8.61497 2.01229 10.4222 2.12923 12.0218 2.85108C13.6215 3.57292 14.9049 4.85063 15.6339 6.44705C16.3628 8.04346 16.4878 9.85014 15.9856 11.5317C15.4835 13.2133 14.3882 14.6556 12.9032 15.5909C11.4182 16.5261 9.64434 16.8908 7.91082 16.6173C6.17729 16.3437 4.60189 15.4505 3.47704 14.1034L5.3903 14.1038C5.62899 14.1038 5.85791 14.0089 6.02669 13.8402C6.19547 13.6714 6.29029 13.4425 6.29029 13.2038C6.29029 12.9651 6.19547 12.7362 6.02669 12.5674C5.85791 12.3986 5.62899 12.3038 5.3903 12.3038L1.79123 12.3029C1.78112 12.3029 1.77217 12.3084 1.76206 12.3087C1.70145 12.3144 1.64159 12.3263 1.58343 12.3442C1.52622 12.3545 1.47017 12.3705 1.41611 12.3919C1.40435 12.3974 1.39155 12.3962 1.3799 12.4022C1.34208 12.4277 1.30639 12.4562 1.27317 12.4874C1.23168 12.5106 1.19213 12.537 1.1549 12.5665C1.14534 12.5761 1.14189 12.5897 1.13283 12.5996C1.09363 12.6466 1.05954 12.6976 1.03113 12.7518C1.00063 12.7969 0.974368 12.8446 0.952683 12.8945C0.934726 12.9527 0.922799 13.0126 0.917088 13.0732C0.905226 13.1157 0.896595 13.159 0.891267 13.2028V16.867C0.891267 17.1057 0.986088 17.3346 1.15487 17.5034C1.32365 17.6722 1.55257 17.767 1.79126 17.767C2.02995 17.767 2.25887 17.6722 2.42765 17.5034C2.59643 17.3346 2.69126 17.1057 2.69126 16.867V15.9061C3.74289 16.9427 5.03357 17.7044 6.44935 18.1241C7.86512 18.5437 9.36244 18.6083 10.8091 18.3122C12.2558 18.0161 13.6073 17.3684 14.7443 16.4262C15.8813 15.4841 16.7689 14.2765 17.3287 12.91C17.8885 11.5436 18.1032 10.0603 17.9539 8.59121C17.8047 7.12212 17.296 5.71237 16.4728 4.48643C15.6497 3.26048 14.5374 2.25606 13.2341 1.56184C11.9308 0.867622 10.4766 0.504955 8.99994 0.505861Z" fill="white"/>
</svg>
