<svg width="21" height="20" viewBox="0 0 21 20" fill="none" xmlns="http://www.w3.org/2000/svg">
<g id="users">
<path id="Vector" d="M10.5 3.62833C10.9479 3.12059 11.5397 2.76126 12.1968 2.59816C12.854 2.43507 13.5451 2.47594 14.1785 2.71533C14.8118 2.95473 15.3572 3.38131 15.7421 3.9383C16.127 4.49529 16.3332 5.15629 16.3332 5.83333C16.3332 6.51038 16.127 7.17138 15.7421 7.72837C15.3572 8.28536 14.8118 8.71193 14.1785 8.95133C13.5451 9.19073 12.854 9.2316 12.1968 9.06851C11.5397 8.90541 10.9479 8.54608 10.5 8.03833M13 17.5H3V16.6667C3 15.3406 3.52678 14.0688 4.46447 13.1311C5.40215 12.1935 6.67392 11.6667 8 11.6667C9.32608 11.6667 10.5979 12.1935 11.5355 13.1311C12.4732 14.0688 13 15.3406 13 16.6667V17.5ZM13 17.5H18V16.6667C18.0001 15.7889 17.7692 14.9266 17.3304 14.1664C16.8916 13.4062 16.2604 12.7749 15.5003 12.336C14.7402 11.8971 13.8779 11.666 13.0002 11.666C12.1224 11.6659 11.2601 11.897 10.5 12.3358M11.3333 5.83333C11.3333 6.71739 10.9821 7.56524 10.357 8.19036C9.7319 8.81548 8.88405 9.16667 8 9.16667C7.11594 9.16667 6.2681 8.81548 5.64298 8.19036C5.01786 7.56524 4.66667 6.71739 4.66667 5.83333C4.66667 4.94928 5.01786 4.10143 5.64298 3.47631C6.2681 2.85119 7.11594 2.5 8 2.5C8.88405 2.5 9.7319 2.85119 10.357 3.47631C10.9821 4.10143 11.3333 4.94928 11.3333 5.83333Z" stroke="white" stroke-width="2" stroke-linecap="round" stroke-linejoin="round"/>
</g>
</svg>
