<svg width="26" height="26" viewBox="0 0 26 26" fill="none" xmlns="http://www.w3.org/2000/svg">
<path d="M2.60636 8.69481C2.04099 10.0597 1.75 11.5226 1.75 13C1.75 15.9837 2.93526 18.8452 5.04505 20.955C7.15483 23.0647 10.0163 24.25 13 24.25C15.9837 24.25 18.8452 23.0647 20.955 20.955C23.0647 18.8452 24.25 15.9837 24.25 13C24.25 11.5226 23.959 10.0597 23.3936 8.69481C22.8283 7.3299 21.9996 6.08971 20.955 5.04505C19.9103 4.00039 18.6701 3.17172 17.3052 2.60636C15.9403 2.04099 14.4774 1.75 13 1.75C11.5226 1.75 10.0597 2.04099 8.69481 2.60636C7.3299 3.17172 6.08971 4.00039 5.04505 5.04505C4.00039 6.08971 3.17172 7.3299 2.60636 8.69481Z" fill="white" stroke="#FF6600" stroke-width="2" stroke-linecap="round" stroke-linejoin="round"/>
</svg>
