<svg width="26" height="26" viewBox="0 0 26 26" fill="none" xmlns="http://www.w3.org/2000/svg">
<path d="M1.66345 8.1578C1.06039 9.61371 0.75 11.1741 0.75 12.75C0.75 15.9326 2.01428 18.9848 4.26472 21.2353C6.51515 23.4857 9.5674 24.75 12.75 24.75C15.9326 24.75 18.9848 23.4857 21.2353 21.2353C23.4857 18.9848 24.75 15.9326 24.75 12.75C24.75 11.1741 24.4396 9.61371 23.8366 8.1578C23.2335 6.70189 22.3496 5.37902 21.2353 4.26472C20.121 3.15042 18.7981 2.2665 17.3422 1.66345C15.8863 1.06039 14.3259 0.75 12.75 0.75C11.1741 0.75 9.61371 1.06039 8.1578 1.66345C6.70189 2.2665 5.37902 3.15042 4.26472 4.26472C3.15042 5.37902 2.2665 6.70189 1.66345 8.1578Z" fill="white" stroke="#3F3F46" stroke-width="1.5" stroke-linecap="round" stroke-linejoin="round"/>
</svg>
