<svg width="26" height="26" viewBox="0 0 26 26" fill="none" xmlns="http://www.w3.org/2000/svg">
<path d="M1.91345 8.4078C1.31039 9.86371 1 11.4241 1 13C1 16.1826 2.26428 19.2348 4.51472 21.4853C6.76515 23.7357 9.8174 25 13 25C16.1826 25 19.2348 23.7357 21.4853 21.4853C23.7357 19.2348 25 16.1826 25 13C25 11.4241 24.6896 9.86371 24.0866 8.4078C23.4835 6.95189 22.5996 5.62902 21.4853 4.51472C20.371 3.40042 19.0481 2.5165 17.5922 1.91345C16.1363 1.31039 14.5759 1 13 1C11.4241 1 9.86371 1.31039 8.4078 1.91345C6.95189 2.5165 5.62902 3.40042 4.51472 4.51472C3.40042 5.62902 2.5165 6.95189 1.91345 8.4078Z" fill="#133C93" stroke="#133C93" stroke-width="2" stroke-linecap="round" stroke-linejoin="round"/>
</svg>
