<svg width="16" height="16" viewBox="0 0 16 16" fill="none" xmlns="http://www.w3.org/2000/svg">
<g id="perm_scan_wifi_24px">
<g id="&#226;&#134;&#179; Light Color">
<path id="Mask" opacity="0.5" fill-rule="evenodd" clip-rule="evenodd" d="M7.99999 3.33301C5.82666 3.33301 3.86666 3.89967 1.94666 5.09967L7.99999 12.553L14.0533 5.11301C12.12 3.89967 10.1667 3.33301 7.99999 3.33301ZM7.33332 10.6663V6.66634H8.66666V10.6663H7.33332ZM7.33332 3.99967V5.33301H8.66666V3.99967H7.33332Z" fill="#F2994A"/>
</g>
<g id="&#226;&#134;&#179; Dark Color">
<path id="Mask_2" fill-rule="evenodd" clip-rule="evenodd" d="M0 4.82C2.1 3.23333 4.63333 2 8 2C11.3667 2 13.9 3.24667 16 4.83333L8 14.6667L0 4.82ZM8 3.33333C5.82667 3.33333 3.86667 3.9 1.94667 5.1L8 12.5533L14.0533 5.11333C12.12 3.9 10.1667 3.33333 8 3.33333Z" fill="#F2994A"/>
</g>
<g id="&#226;&#134;&#179; Dark Color_2">
<path id="Mask_3" d="M7.33337 6.66699H8.66671V10.667H7.33337V6.66699Z" fill="#F2994A"/>
</g>
<g id="&#226;&#134;&#179; Dark Color_3">
<path id="Mask_4" d="M7.33337 4H8.66671V5.33333H7.33337V4Z" fill="#F2994A"/>
</g>
</g>
</svg>
