<svg width="30" height="40" viewBox="0 0 30 40" fill="none" xmlns="http://www.w3.org/2000/svg">
<g id="Group">
<path id="Vector" d="M27.7136 23.7713L24.3806 21.7718L21.6209 14.7496C20.907 13.1925 19.3387 12.1855 17.6251 12.1855H11.6106C9.89699 12.1855 8.3279 13.1917 7.59566 14.7919L4.85593 21.7718L1.52211 23.7713C0.0927592 24.6289 -0.415099 26.4543 0.365853 27.9268C1.12714 29.3616 2.80503 29.9493 4.31064 29.343C4.13177 29.5947 3.97536 29.8637 3.87136 30.1642C3.37128 31.6054 3.95001 33.1644 5.17015 33.9732C4.25025 34.5678 3.65416 35.5759 3.65416 36.7073C3.65416 37.0954 3.72203 37.4771 3.85539 37.8396C4.34248 39.1636 5.60734 39.9892 6.94726 39.9892C7.31218 39.9892 7.68269 39.9285 8.04442 39.7992L14.6065 37.4447L21.2599 39.8136C21.6129 39.9397 21.9754 40.0004 22.33 40.0004C23.6411 40.0004 24.8772 39.1891 25.3484 37.8923C25.8893 36.4035 25.2444 34.7718 23.9058 34.0149C24.8912 33.4526 25.5448 32.4247 25.5448 31.263C25.5448 30.9037 25.4841 30.5459 25.3643 30.201C25.2486 29.873 25.0734 29.5856 24.8714 29.3235C25.2766 29.4984 25.6965 29.5973 26.1117 29.5973C27.2329 29.5973 28.3045 28.992 28.8698 27.9268C29.6508 26.4543 29.1429 24.6289 27.7136 23.7713ZM8.52753 28.3149L8.1099 28.1615C7.70605 28.0122 7.28623 27.9491 6.869 27.9627L8.52753 27.0401V28.3149ZM7.49344 38.2596C6.64302 38.5583 5.70156 38.1223 5.39014 37.2743C5.32307 37.0938 5.28953 36.9021 5.28953 36.7073C5.28953 36.0046 5.7351 35.3786 6.40107 35.1486L7.28733 34.839L12.1756 36.5793L7.49344 38.2596ZM23.812 37.3333C23.5166 38.1398 22.6126 38.5551 21.8093 38.274L6.41784 32.7946C5.56981 32.4911 5.12024 31.5521 5.41569 30.7008C5.56182 30.2792 5.86446 29.9422 6.26772 29.7522C6.66937 29.5606 7.12373 29.5366 7.54535 29.6963L22.8809 35.3243C23.6874 35.6229 24.1059 36.5236 23.812 37.3333ZM22.8682 32.7403L21.7125 33.1538L17.0514 31.4432L21.8285 29.7793C22.6366 29.4999 23.5357 29.9311 23.82 30.7408C23.8791 30.91 23.9094 31.0857 23.9094 31.263C23.9094 31.9242 23.491 32.5183 22.8682 32.7403ZM20.6722 27.0198L22.5537 28.0667C22.1381 28.0378 21.7106 28.0894 21.2935 28.2334L20.6722 28.4497V27.0198ZM27.4261 27.1602C27.0412 27.8837 26.1612 28.1615 25.4649 27.8166L20.3049 24.9435C20.0462 24.8014 19.8865 24.5283 19.8865 24.2328L19.8817 21.9459L18.2463 21.9491L18.2511 24.2344C18.2511 24.9221 18.5459 25.5631 19.0369 26.02V29.0191L14.6282 30.5538L10.1629 28.915V26.0469C10.6727 25.589 10.9835 24.9391 10.9854 24.2376L10.991 21.9491L9.35559 21.9459L9.35 24.2344C9.34921 24.5283 9.1887 24.8014 8.93158 24.9451L3.80189 27.799C3.07044 28.1631 2.19526 27.8837 1.81038 27.1602C1.43747 26.4559 1.68022 25.5839 2.36375 25.1735L6.17509 22.8865L9.10007 15.4315C9.54883 14.4533 10.5342 13.8209 11.6106 13.8209H17.6251C18.7015 13.8209 19.6868 14.4533 20.1165 15.3892L23.0614 22.8865L26.8719 25.1735C27.5555 25.5839 27.7982 26.4559 27.4261 27.1602Z" fill="#9074EB"/>
<path id="Vector_2" d="M14.6217 11.0819C17.6776 11.0819 20.1626 8.59607 20.1626 5.54093C20.1626 2.48579 17.6776 0 14.6217 0C11.5665 0 9.08154 2.48579 9.08154 5.54093C9.08154 8.59607 11.5665 11.0819 14.6217 11.0819ZM14.6217 1.63537C16.7753 1.63537 18.5272 3.38732 18.5272 5.54093C18.5272 7.69454 16.7753 9.4465 14.6217 9.4465C12.4689 9.4465 10.7169 7.69454 10.7169 5.54093C10.7169 3.38732 12.4689 1.63537 14.6217 1.63537Z" fill="#9074EB"/>
</g>
</svg>
